<svg width="188" height="162" viewBox="0 0 188 162" fill="none" xmlns="http://www.w3.org/2000/svg">
<path d="M97.3196 108.419H71.4648V141.922H97.3196V108.419Z" fill="#CEE0F1"/>
<path d="M97.3222 142.354H71.4623C71.3479 142.354 71.2383 142.308 71.1575 142.227C71.0767 142.146 71.0313 142.036 71.0313 141.922V108.415C71.031 108.358 71.042 108.302 71.0636 108.25C71.0852 108.197 71.1169 108.149 71.157 108.109C71.197 108.069 71.2447 108.037 71.297 108.016C71.3494 107.994 71.4056 107.983 71.4623 107.983H97.3222C97.3788 107.983 97.435 107.994 97.4874 108.016C97.5398 108.037 97.5874 108.069 97.6275 108.109C97.6675 108.149 97.6993 108.197 97.7208 108.25C97.7424 108.302 97.7534 108.358 97.7532 108.415V141.922C97.7532 142.036 97.7078 142.146 97.6269 142.227C97.5461 142.308 97.4365 142.354 97.3222 142.354ZM71.8967 141.49H96.8946V108.847H71.8967V141.49Z" fill="#0A1A33"/>
<path d="M111.367 139.815H57.4199V143.475H111.367V139.815Z" fill="#CEE0F1"/>
<path d="M111.376 143.91H57.4154C57.3011 143.91 57.1914 143.864 57.1106 143.783C57.0298 143.702 56.9844 143.593 56.9844 143.478V139.817C56.9844 139.702 57.0298 139.592 57.1106 139.511C57.1914 139.43 57.3011 139.385 57.4154 139.385H111.376C111.491 139.385 111.6 139.43 111.681 139.511C111.762 139.592 111.807 139.702 111.807 139.817V143.478C111.807 143.593 111.762 143.702 111.681 143.783C111.6 143.864 111.491 143.91 111.376 143.91ZM57.8602 143.046H110.937V140.248H57.8515L57.8602 143.046Z" fill="#0A1A33"/>
<path d="M146.531 35.7266H22.2535C19.3219 35.7266 16.9453 38.1075 16.9453 41.0445V116.602C16.9453 119.539 19.3219 121.92 22.2535 121.92H146.531C149.463 121.92 151.839 119.539 151.839 116.602V41.0445C151.839 38.1075 149.463 35.7266 146.531 35.7266Z" fill="#EAF1F9"/>
<path d="M146.534 36.5899C147.713 36.5908 148.843 37.0606 149.677 37.8962C150.511 38.7317 150.979 39.8646 150.98 41.0459V116.605C150.978 117.786 150.509 118.918 149.676 119.753C148.842 120.588 147.712 121.057 146.534 121.058H22.2542C21.0755 121.057 19.9454 120.588 19.1119 119.753C18.2783 118.918 17.8093 117.786 17.808 116.605V41.0459C17.8093 39.8652 18.2783 38.7332 19.1119 37.8984C19.9454 37.0636 21.0755 36.5943 22.2542 36.5934H146.534V36.5899ZM146.534 34.8662H22.2542C20.618 34.8662 19.0489 35.5172 17.8918 36.6761C16.7347 37.835 16.0844 39.4068 16.084 41.0459V116.605C16.0844 118.244 16.7347 119.816 17.8918 120.975C19.0489 122.134 20.618 122.785 22.2542 122.785H146.534C148.17 122.785 149.739 122.134 150.896 120.975C152.053 119.816 152.703 118.244 152.704 116.605V41.0459C152.703 39.4068 152.053 37.835 150.896 36.6761C149.739 35.5172 148.17 34.8662 146.534 34.8662Z" fill="#0A1A33"/>
<path d="M41.2833 42.3916H24.6847C24.1048 42.3916 23.6348 42.8625 23.6348 43.4434V46.4521C23.6348 47.033 24.1048 47.504 24.6847 47.504H41.2833C41.8632 47.504 42.3332 47.033 42.3332 46.4521V43.4434C42.3332 42.8625 41.8632 42.3916 41.2833 42.3916Z" fill="#FF6066"/>
<path d="M145.121 50.7344H23.6348V118.641H145.121V50.7344Z" fill="#C8F1F0"/>
<path d="M142.576 109.449H26.5566V110.606H142.576V109.449Z" fill="white"/>
<path d="M55.8646 109.449H26.5566V110.606H55.8646V109.449Z" fill="#FF6066"/>
<path d="M56.7042 110.901C57.1607 110.244 56.9984 109.34 56.3418 108.882C55.6852 108.425 54.7829 108.588 54.3264 109.245C53.87 109.903 54.0323 110.807 54.6889 111.264C55.3455 111.722 56.2478 111.559 56.7042 110.901Z" fill="#FF6066"/>
<path d="M27.2805 112.666L28.8217 114.21C28.8566 114.243 28.8843 114.284 28.9032 114.328C28.9221 114.373 28.9319 114.421 28.9319 114.469C28.9319 114.517 28.9221 114.565 28.9032 114.61C28.8843 114.654 28.8566 114.695 28.8217 114.728L27.2546 116.298C27.2054 116.35 27.1419 116.385 27.0723 116.4C27.0027 116.415 26.9302 116.409 26.8642 116.382C26.7982 116.355 26.7418 116.309 26.7023 116.25C26.6628 116.191 26.642 116.121 26.6426 116.049L26.6702 112.94C26.6689 112.869 26.6885 112.799 26.7267 112.739C26.7648 112.678 26.8198 112.631 26.8848 112.601C26.9498 112.572 27.022 112.563 27.0923 112.574C27.1627 112.586 27.2281 112.617 27.2805 112.666Z" fill="white"/>
<path d="M34.0103 113.175L35.0998 114.267C35.1475 114.315 35.1743 114.38 35.1743 114.447C35.1743 114.515 35.1475 114.58 35.0998 114.628L33.9913 115.74C33.9566 115.776 33.912 115.801 33.8632 115.811C33.8144 115.822 33.7635 115.818 33.7171 115.799C33.6707 115.781 33.6309 115.749 33.6027 115.707C33.5744 115.666 33.5591 115.617 33.5586 115.567L33.5776 113.363C33.5774 113.313 33.592 113.264 33.6195 113.222C33.6469 113.18 33.6861 113.147 33.7321 113.127C33.7781 113.107 33.829 113.101 33.8784 113.109C33.9279 113.118 33.9737 113.141 34.0103 113.175Z" fill="white"/>
<path d="M36.4231 112.994H35.8887V115.821H36.4231V112.994Z" fill="white"/>
<path d="M55.1079 122.064C55.1079 122.064 42.2038 91.6284 45.7983 76.9028C47.7878 68.7472 71.1135 62.83 87.4466 67.7489C103.78 72.6678 101.656 121.909 101.656 121.909L55.1079 122.064Z" fill="#53687C"/>
<path d="M55.108 122.409C55.0405 122.409 54.9744 122.389 54.9181 122.352C54.8617 122.315 54.8174 122.262 54.7907 122.2C52.496 116.606 50.4878 110.899 48.774 105.101C45.0726 92.4927 43.9589 82.9848 45.4639 76.8171C45.9811 74.6927 47.9017 72.6253 51.0169 70.8395C55.1873 68.4474 61.323 66.6667 67.85 65.9551C74.8822 65.1882 81.8782 65.7029 87.5449 67.4059C91.3774 68.5579 94.5168 72.1711 96.8769 78.1436C98.744 82.8673 100.137 89.0833 101.015 96.6241C102.511 109.431 102.002 121.795 101.997 121.92C101.993 122.009 101.955 122.093 101.891 122.154C101.827 122.216 101.741 122.25 101.652 122.25L55.1045 122.412L55.108 122.409ZM74.1891 66.3005C72.0961 66.3023 70.0047 66.4176 67.9241 66.6459C61.4885 67.3489 55.451 69.0968 51.3583 71.4422C48.412 73.1314 46.6052 75.0485 46.1328 76.9864C42.7624 90.8036 54.208 118.994 55.3355 121.719L101.323 121.557C101.394 119.512 101.689 108.282 100.334 96.6862C98.9664 84.9986 95.6046 70.5459 87.3467 68.064C83.4573 66.9016 78.9284 66.3005 74.1891 66.3005Z" fill="#0A1A33"/>
<path d="M165.351 147.329C165.351 147.329 172.552 159.901 178.808 160.597C181.006 160.842 183.511 160.162 185.165 158.58C187.123 156.708 187.578 154.068 187.495 152.317C186.437 131.512 185.271 126.842 184.318 122.914C183.663 120.216 182.563 117.755 180.18 115.696C176.791 112.76 172.724 112.717 171.916 112.724C166.399 112.769 162.951 116.436 162.378 117.076H145.311C144.73 116.436 141.291 112.769 135.776 112.724C134.967 112.724 130.898 112.762 127.511 115.696C125.132 117.755 124.033 120.216 123.373 122.914C122.42 126.842 121.254 131.512 120.194 152.317C120.104 154.068 120.568 156.708 122.525 158.58C124.18 160.162 126.685 160.842 128.883 160.597C135.138 159.906 142.339 147.329 142.339 147.329H165.351Z" fill="#94BBE0"/>
<path d="M179.714 161.142C179.393 161.143 179.073 161.125 178.754 161.089C176.025 160.785 172.86 158.405 169.348 154.007C167.79 152.04 166.36 149.973 165.069 147.821H142.641C141.555 149.658 134.963 160.417 128.956 161.085C126.467 161.362 123.879 160.538 122.202 158.935C119.705 156.546 119.669 153.235 119.719 152.289C120.773 131.596 121.945 126.765 122.888 122.884L122.91 122.793C123.71 119.499 125.033 117.193 127.2 115.318C130.475 112.488 134.299 112.209 135.792 112.224C140.964 112.266 144.412 115.378 145.539 116.577H162.169C163.305 115.378 166.748 112.259 171.917 112.224C173.415 112.224 177.244 112.488 180.509 115.318C182.676 117.193 183.998 119.499 184.798 122.793L184.821 122.884C185.764 126.765 186.938 131.596 187.991 152.289C188.039 153.244 188.005 156.546 185.507 158.935C184.047 160.336 181.888 161.142 179.714 161.142ZM142.357 146.833H165.352C165.439 146.833 165.524 146.856 165.6 146.899C165.675 146.943 165.738 147.006 165.781 147.081C165.852 147.204 172.929 159.444 178.863 160.104C181.035 160.346 183.376 159.607 184.824 158.222C187.017 156.125 187.046 153.19 187.003 152.349C185.953 131.751 184.793 126.971 183.86 123.128L183.838 123.038C183.09 119.957 181.864 117.81 179.863 116.077C176.83 113.452 173.16 113.226 171.996 113.226H171.925C166.905 113.266 163.635 116.444 162.752 117.416C162.705 117.467 162.648 117.508 162.585 117.535C162.522 117.563 162.454 117.578 162.385 117.578H145.317C145.248 117.578 145.18 117.564 145.117 117.536C145.054 117.508 144.998 117.467 144.952 117.416C144.069 116.444 140.799 113.271 135.777 113.226C134.699 113.209 130.937 113.399 127.846 116.077C125.845 117.805 124.619 119.957 123.871 123.038L123.848 123.128C122.915 126.971 121.754 131.751 120.705 152.349C120.662 153.197 120.692 156.132 122.883 158.222C124.333 159.603 126.676 160.346 128.844 160.104C134.778 159.444 141.855 147.204 141.926 147.081C141.97 147.006 142.032 146.943 142.108 146.899C142.184 146.856 142.27 146.833 142.357 146.833Z" fill="#0A1A33"/>
<path d="M135.905 137.998C133.878 137.998 131.896 137.396 130.211 136.268C128.525 135.14 127.211 133.537 126.435 131.66C125.659 129.784 125.456 127.72 125.851 125.728C126.246 123.736 127.222 121.906 128.656 120.47C130.089 119.034 131.915 118.056 133.903 117.659C135.891 117.263 137.952 117.466 139.825 118.243C141.698 119.02 143.299 120.337 144.425 122.025C145.551 123.714 146.153 125.699 146.153 127.73C146.149 130.452 145.069 133.061 143.148 134.986C141.227 136.911 138.622 137.994 135.905 137.998ZM135.905 118.455C134.074 118.455 132.283 118.998 130.76 120.018C129.237 121.037 128.05 122.486 127.349 124.181C126.648 125.876 126.464 127.741 126.822 129.541C127.179 131.341 128.061 132.994 129.356 134.291C130.651 135.588 132.301 136.472 134.097 136.83C135.894 137.188 137.756 137.004 139.448 136.302C141.14 135.599 142.586 134.41 143.603 132.884C144.621 131.358 145.163 129.565 145.163 127.73C145.16 125.271 144.184 122.913 142.448 121.175C140.713 119.436 138.36 118.458 135.905 118.455Z" fill="#0A1A33"/>
<path d="M137.455 135.002H133.894C133.414 135.002 132.953 134.81 132.613 134.469C132.272 134.129 132.081 133.667 132.081 133.185V131.209H130.109C129.628 131.209 129.167 131.017 128.827 130.677C128.487 130.336 128.295 129.874 128.295 129.392V125.827C128.295 125.346 128.487 124.884 128.827 124.543C129.167 124.202 129.628 124.011 130.109 124.01H132.081V122.048C132.081 121.567 132.272 121.105 132.613 120.764C132.953 120.423 133.414 120.232 133.894 120.231H137.455C137.935 120.232 138.396 120.423 138.736 120.764C139.076 121.105 139.268 121.567 139.268 122.048V124.026H141.24C141.721 124.026 142.182 124.218 142.522 124.559C142.862 124.899 143.054 125.361 143.054 125.843V129.408C143.054 129.89 142.862 130.351 142.522 130.692C142.182 131.033 141.721 131.224 141.24 131.225H139.268V133.201C139.264 133.68 139.071 134.138 138.731 134.475C138.391 134.812 137.933 135.002 137.455 135.002ZM130.109 125.002C129.89 125.002 129.68 125.089 129.526 125.244C129.371 125.398 129.284 125.608 129.284 125.827V129.392C129.285 129.611 129.372 129.821 129.526 129.976C129.681 130.13 129.89 130.217 130.109 130.218H132.581C132.646 130.218 132.71 130.23 132.77 130.255C132.831 130.28 132.885 130.316 132.931 130.362C132.977 130.409 133.014 130.463 133.038 130.524C133.063 130.584 133.076 130.648 133.076 130.714V133.185C133.076 133.404 133.163 133.614 133.317 133.768C133.472 133.923 133.681 134.01 133.9 134.011H137.46C137.678 134.01 137.887 133.923 138.042 133.768C138.196 133.614 138.283 133.404 138.284 133.185V130.714C138.284 130.648 138.296 130.584 138.321 130.524C138.346 130.463 138.382 130.409 138.428 130.362C138.474 130.316 138.529 130.28 138.589 130.255C138.649 130.23 138.713 130.218 138.779 130.218H141.246C141.464 130.217 141.673 130.13 141.828 129.976C141.982 129.821 142.069 129.611 142.07 129.392V125.827C142.07 125.608 141.983 125.398 141.828 125.244C141.674 125.089 141.464 125.002 141.246 125.002H138.773C138.642 125.002 138.516 124.95 138.423 124.857C138.331 124.764 138.279 124.638 138.279 124.506V122.048C138.278 121.83 138.191 121.62 138.037 121.465C137.882 121.31 137.673 121.223 137.455 121.223H133.894C133.676 121.223 133.467 121.31 133.312 121.465C133.158 121.62 133.071 121.83 133.07 122.048V124.522C133.07 124.653 133.018 124.779 132.925 124.872C132.833 124.965 132.707 125.017 132.576 125.017L130.109 125.002Z" fill="#0A1A33"/>
<path d="M159.448 123.011H149.012C148.605 123.011 148.213 122.849 147.925 122.56C147.637 122.271 147.475 121.879 147.475 121.47C147.475 121.062 147.637 120.67 147.925 120.381C148.213 120.092 148.605 119.93 149.012 119.93H159.448C159.856 119.93 160.247 120.092 160.535 120.381C160.824 120.67 160.986 121.062 160.986 121.47C160.986 121.879 160.824 122.271 160.535 122.56C160.247 122.849 159.856 123.011 159.448 123.011ZM149.012 120.921C148.867 120.921 148.728 120.979 148.625 121.082C148.522 121.185 148.464 121.325 148.464 121.47C148.464 121.616 148.522 121.756 148.625 121.859C148.728 121.962 148.867 122.02 149.012 122.02H159.448C159.52 122.02 159.591 122.005 159.658 121.978C159.724 121.95 159.785 121.91 159.835 121.859C159.886 121.808 159.927 121.747 159.954 121.68C159.982 121.614 159.996 121.542 159.996 121.47C159.996 121.398 159.982 121.327 159.954 121.26C159.927 121.193 159.886 121.133 159.835 121.082C159.785 121.031 159.724 120.99 159.658 120.963C159.591 120.935 159.52 120.921 159.448 120.921H149.012Z" fill="#0A1A33"/>
<path d="M150.481 143.765H145.843C145.322 143.75 144.828 143.532 144.465 143.157C144.102 142.783 143.898 142.281 143.898 141.759C143.898 141.237 144.102 140.735 144.465 140.361C144.828 139.986 145.322 139.768 145.843 139.753H150.481C151.001 139.768 151.496 139.986 151.859 140.361C152.222 140.735 152.425 141.237 152.425 141.759C152.425 142.281 152.222 142.783 151.859 143.157C151.496 143.532 151.001 143.75 150.481 143.765ZM145.843 140.744C145.582 140.755 145.334 140.867 145.153 141.056C144.972 141.245 144.871 141.497 144.871 141.759C144.871 142.021 144.972 142.273 145.153 142.462C145.334 142.651 145.582 142.763 145.843 142.774H150.481C150.742 142.763 150.989 142.651 151.17 142.462C151.351 142.273 151.452 142.021 151.452 141.759C151.452 141.497 151.351 141.245 151.17 141.056C150.989 140.867 150.742 140.755 150.481 140.744H145.843Z" fill="#0A1A33"/>
<path d="M161.689 143.765H157.052C156.531 143.75 156.037 143.532 155.674 143.157C155.311 142.783 155.107 142.281 155.107 141.759C155.107 141.237 155.311 140.735 155.674 140.361C156.037 139.986 156.531 139.768 157.052 139.753H161.689C162.21 139.768 162.705 139.986 163.068 140.361C163.431 140.735 163.634 141.237 163.634 141.759C163.634 142.281 163.431 142.783 163.068 143.157C162.705 143.532 162.21 143.75 161.689 143.765ZM157.052 140.744C156.791 140.755 156.543 140.867 156.362 141.056C156.181 141.245 156.08 141.497 156.08 141.759C156.08 142.021 156.181 142.273 156.362 142.462C156.543 142.651 156.791 142.763 157.052 142.774H161.689C161.951 142.763 162.198 142.651 162.379 142.462C162.56 142.273 162.661 142.021 162.661 141.759C162.661 141.497 162.56 141.245 162.379 141.056C162.198 140.867 161.951 140.755 161.689 140.744H157.052Z" fill="#0A1A33"/>
<path d="M171.774 138.052C169.739 138.053 167.748 137.449 166.055 136.317C164.362 135.185 163.042 133.575 162.263 131.691C161.483 129.807 161.279 127.733 161.676 125.733C162.073 123.733 163.053 121.895 164.493 120.453C165.932 119.011 167.766 118.029 169.763 117.631C171.759 117.234 173.829 117.438 175.709 118.219C177.59 119 179.197 120.322 180.327 122.019C181.458 123.715 182.061 125.709 182.06 127.748C182.055 130.48 180.971 133.098 179.043 135.03C177.115 136.961 174.501 138.048 171.774 138.052ZM171.774 118.427C169.935 118.426 168.137 118.972 166.607 119.996C165.078 121.019 163.885 122.474 163.181 124.176C162.476 125.878 162.291 127.751 162.649 129.558C163.007 131.366 163.892 133.026 165.192 134.33C166.492 135.633 168.148 136.522 169.952 136.882C171.756 137.243 173.626 137.06 175.325 136.356C177.025 135.652 178.479 134.459 179.502 132.928C180.525 131.397 181.072 129.596 181.073 127.753C181.075 125.281 180.096 122.909 178.352 121.159C176.608 119.409 174.242 118.424 171.774 118.422V118.427Z" fill="#0A1A33"/>
<path d="M177.171 130.938C176.674 130.938 176.187 130.79 175.773 130.513C175.359 130.236 175.036 129.842 174.846 129.381C174.655 128.92 174.606 128.413 174.703 127.924C174.8 127.435 175.04 126.986 175.392 126.633C175.744 126.28 176.192 126.04 176.68 125.943C177.169 125.846 177.675 125.896 178.135 126.086C178.594 126.277 178.988 126.601 179.264 127.015C179.541 127.43 179.688 127.917 179.688 128.416C179.687 129.085 179.422 129.726 178.95 130.198C178.478 130.671 177.839 130.937 177.171 130.938ZM177.171 126.886C176.869 126.886 176.574 126.976 176.323 127.144C176.072 127.312 175.876 127.551 175.76 127.831C175.645 128.11 175.614 128.418 175.673 128.715C175.732 129.012 175.878 129.284 176.091 129.498C176.305 129.712 176.577 129.858 176.873 129.917C177.17 129.976 177.477 129.946 177.756 129.83C178.035 129.714 178.274 129.518 178.441 129.266C178.609 129.015 178.699 128.719 178.699 128.416C178.699 128.01 178.538 127.621 178.252 127.333C177.965 127.046 177.577 126.885 177.171 126.884V126.886Z" fill="#0A1A33"/>
<path d="M174.27 124.085H169.246C169.153 124.085 169.061 124.059 168.982 124.009C168.904 123.959 168.84 123.888 168.8 123.803C168.76 123.719 168.744 123.625 168.755 123.532C168.766 123.44 168.803 123.352 168.861 123.279L171.373 120.17C171.419 120.112 171.478 120.066 171.544 120.034C171.611 120.002 171.684 119.985 171.758 119.985C171.831 119.985 171.904 120.002 171.971 120.034C172.037 120.066 172.096 120.112 172.142 120.17L174.654 123.279C174.712 123.352 174.749 123.44 174.76 123.532C174.771 123.625 174.755 123.719 174.715 123.803C174.675 123.888 174.612 123.959 174.533 124.009C174.454 124.059 174.363 124.085 174.27 124.085ZM170.282 123.094H173.233L171.758 121.265L170.282 123.094Z" fill="#0A1A33"/>
<path d="M168.053 130.723H164.491C164.36 130.722 164.234 130.67 164.142 130.577C164.049 130.484 163.997 130.358 163.996 130.227V126.659C163.996 126.527 164.048 126.401 164.141 126.308C164.234 126.215 164.36 126.163 164.491 126.163H168.053C168.118 126.163 168.182 126.176 168.242 126.2C168.302 126.225 168.357 126.262 168.403 126.308C168.449 126.354 168.485 126.409 168.51 126.469C168.535 126.529 168.548 126.594 168.547 126.659V130.227C168.547 130.359 168.495 130.485 168.403 130.578C168.31 130.671 168.184 130.723 168.053 130.723ZM164.993 129.731H167.565V127.154H164.993V129.731Z" fill="#0A1A33"/>
<path d="M173.303 135.46C173.173 135.459 173.049 135.407 172.958 135.315L170.153 132.507C170.06 132.414 170.008 132.287 170.008 132.156C170.008 132.024 170.06 131.898 170.153 131.805C170.246 131.712 170.371 131.66 170.503 131.66C170.634 131.66 170.76 131.712 170.853 131.805L173.658 134.614C173.727 134.683 173.774 134.771 173.793 134.866C173.812 134.962 173.803 135.061 173.766 135.152C173.729 135.242 173.667 135.32 173.586 135.374C173.505 135.429 173.41 135.459 173.313 135.46H173.303Z" fill="#0A1A33"/>
<path d="M170.498 135.46C170.4 135.459 170.305 135.429 170.225 135.374C170.144 135.32 170.081 135.242 170.044 135.152C170.008 135.061 169.998 134.962 170.018 134.866C170.037 134.771 170.084 134.683 170.153 134.614L172.958 131.805C173.004 131.759 173.058 131.723 173.118 131.698C173.178 131.673 173.243 131.66 173.308 131.66C173.373 131.66 173.437 131.673 173.497 131.698C173.557 131.723 173.612 131.759 173.658 131.805C173.704 131.851 173.74 131.906 173.765 131.966C173.79 132.026 173.803 132.091 173.803 132.156C173.803 132.221 173.79 132.286 173.765 132.346C173.74 132.406 173.704 132.461 173.658 132.507L170.855 135.315C170.808 135.362 170.752 135.399 170.691 135.424C170.63 135.449 170.564 135.461 170.498 135.46Z" fill="#0A1A33"/>
<path d="M135.747 1.50977H116.403C114.576 1.51523 112.825 2.24486 111.533 3.53929C110.241 4.83372 109.513 6.58776 109.507 8.41835V16.9038C109.508 18.5453 110.094 20.1326 111.161 21.3789L104.67 29.056L118.071 23.8141H135.747C137.574 23.8087 139.325 23.079 140.617 21.7846C141.909 20.4902 142.637 18.7361 142.643 16.9056V8.42008C142.638 6.58919 141.91 4.8347 140.617 3.5399C139.325 2.2451 137.574 1.51524 135.747 1.50977Z" fill="#94BBE0"/>
<path d="M104.669 29.4396C104.597 29.4394 104.526 29.4186 104.465 29.3796C104.404 29.3405 104.355 29.2848 104.325 29.219C104.294 29.1531 104.283 29.08 104.292 29.008C104.302 28.936 104.332 28.8682 104.378 28.8126L110.666 21.3755C109.669 20.0993 109.126 18.526 109.124 16.9056V8.42016C109.127 6.48706 109.894 4.63383 111.259 3.26708C112.623 1.90033 114.473 1.13171 116.403 1.12988H135.746C137.676 1.13171 139.525 1.90039 140.89 3.26719C142.254 4.63398 143.021 6.48722 143.023 8.42016V16.9056C143.021 18.8386 142.254 20.6918 140.89 22.0586C139.525 23.4254 137.676 24.1941 135.746 24.1959H118.141L104.807 29.4136C104.763 29.4306 104.717 29.4394 104.669 29.4396ZM116.403 1.89156C114.675 1.89293 113.018 2.58114 111.796 3.80515C110.574 5.02915 109.886 6.68893 109.885 8.42016V16.9056C109.887 18.456 110.441 19.9547 111.448 21.132C111.506 21.2011 111.538 21.2886 111.538 21.379C111.538 21.4693 111.506 21.5568 111.448 21.6259L105.931 28.1563L117.927 23.4619C117.971 23.4441 118.018 23.4347 118.065 23.4343H135.746C137.474 23.4329 139.131 22.7446 140.353 21.5205C141.575 20.2965 142.262 18.6367 142.263 16.9056V8.42016C142.262 6.68909 141.575 5.02931 140.353 3.80525C139.131 2.5812 137.474 1.89293 135.746 1.89156H116.403Z" fill="#0A1A33"/>
<path d="M117.803 14.4821C117.334 14.4831 116.876 14.3447 116.485 14.0844C116.095 13.824 115.79 13.4535 115.61 13.0196C115.429 12.5858 115.382 12.1081 115.473 11.6471C115.564 11.1861 115.789 10.7625 116.12 10.4298C116.452 10.0972 116.874 9.87049 117.334 9.77844C117.794 9.68638 118.271 9.7331 118.704 9.9127C119.138 10.0923 119.508 10.3967 119.769 10.7873C120.03 11.178 120.169 11.6373 120.169 12.1072C120.168 12.7359 119.918 13.3387 119.475 13.7837C119.032 14.2287 118.431 14.4798 117.803 14.4821ZM117.803 10.4941C117.485 10.4941 117.174 10.5887 116.909 10.766C116.644 10.9432 116.438 11.1952 116.316 11.4899C116.194 11.7847 116.162 12.109 116.224 12.4219C116.286 12.7349 116.44 13.0223 116.665 13.2479C116.89 13.4735 117.177 13.6272 117.489 13.6894C117.802 13.7516 118.125 13.7197 118.42 13.5976C118.714 13.4755 118.965 13.2688 119.142 13.0035C119.319 12.7382 119.414 12.4263 119.414 12.1072C119.413 11.6795 119.243 11.2695 118.941 10.9671C118.64 10.6646 118.23 10.4945 117.803 10.4941Z" fill="#0A1A33"/>
<path d="M125.753 14.4821C125.284 14.4821 124.826 14.3428 124.436 14.0818C124.047 13.8209 123.743 13.45 123.563 13.0161C123.384 12.5821 123.337 12.1046 123.428 11.6439C123.52 11.1833 123.746 10.7601 124.077 10.428C124.409 10.0959 124.831 9.86969 125.291 9.77805C125.751 9.68642 126.227 9.73345 126.66 9.9132C127.094 10.0929 127.464 10.3973 127.724 10.7879C127.985 11.1784 128.124 11.6375 128.124 12.1072C128.123 12.7369 127.873 13.3407 127.429 13.786C126.985 14.2313 126.382 14.4816 125.753 14.4821ZM125.753 10.4941C125.435 10.4941 125.124 10.5887 124.859 10.766C124.594 10.9432 124.388 11.1951 124.266 11.4899C124.144 11.7847 124.112 12.109 124.174 12.4219C124.236 12.7349 124.39 13.0223 124.615 13.2479C124.84 13.4735 125.127 13.6271 125.439 13.6894C125.752 13.7516 126.075 13.7197 126.37 13.5976C126.664 13.4755 126.915 13.2687 127.092 13.0035C127.269 12.7382 127.364 12.4263 127.364 12.1072C127.363 11.6797 127.193 11.2699 126.891 10.9676C126.589 10.6652 126.18 10.495 125.753 10.4941Z" fill="#0A1A33"/>
<path d="M133.704 14.4821C133.236 14.4821 132.777 14.3428 132.388 14.0818C131.998 13.8209 131.694 13.45 131.514 13.0161C131.335 12.5821 131.288 12.1046 131.38 11.6439C131.471 11.1833 131.697 10.7601 132.028 10.428C132.36 10.0959 132.782 9.86969 133.242 9.77805C133.702 9.68642 134.178 9.73345 134.612 9.9132C135.045 10.0929 135.415 10.3973 135.675 10.7879C135.936 11.1784 136.075 11.6375 136.075 12.1072C136.074 12.7368 135.824 13.3403 135.38 13.7855C134.935 14.2307 134.333 14.4811 133.704 14.4821ZM133.704 10.4941C133.386 10.4941 133.075 10.5887 132.81 10.766C132.545 10.9432 132.339 11.1951 132.217 11.4899C132.095 11.7847 132.063 12.109 132.125 12.4219C132.187 12.7349 132.341 13.0223 132.566 13.2479C132.791 13.4735 133.078 13.6271 133.39 13.6894C133.703 13.7516 134.026 13.7197 134.321 13.5976C134.615 13.4755 134.866 13.2687 135.043 13.0035C135.22 12.7382 135.315 12.4263 135.315 12.1072C135.314 11.6795 135.144 11.2695 134.843 10.9671C134.541 10.6646 134.131 10.4945 133.704 10.4941Z" fill="#0A1A33"/>
<path d="M133.391 96.6981C133.578 95.7758 133.99 96.1609 134.171 95.2352C133.109 94.9312 132.333 94.6911 132.333 94.6911L134.265 94.755C134.365 94.2369 134.464 93.7187 134.555 93.185C134.629 92.7636 134.696 92.3405 134.764 91.9173C134.764 91.8811 134.772 91.85 134.777 91.8223C133.359 91.5874 132.295 91.3975 132.295 91.3975L134.848 91.2247V91.1816C134.938 90.318 134.983 89.47 135.005 88.6098C135.005 88.3939 135.017 88.1798 135.024 87.9656C133.517 87.8033 132.407 87.6651 132.407 87.6651L135.05 87.3093C135.083 86.3909 135.164 85.4748 135.293 84.5648L129.949 84.8775C130.947 83.1866 135.314 82.817 134.776 80.7513C134.717 80.5968 134.628 80.4557 134.514 80.3366C134.4 80.2175 134.263 80.1228 134.111 80.0582C133.959 79.9937 133.796 79.9606 133.631 79.9609C133.466 79.9613 133.303 79.9952 133.152 80.0605C130.716 80.7271 122.401 83.6736 119.705 87.4526L105.556 85.817L104.652 93.4027L119.651 94.66C121.304 97.7689 125.721 97.3026 128.702 97.3285V97.3457L133.391 96.6981Z" fill="#FFA18D"/>
<path d="M128.725 97.7419C128.685 97.7423 128.645 97.7364 128.607 97.7247C128.288 97.7247 127.956 97.7247 127.611 97.7247C124.68 97.7558 121.06 97.7937 119.437 95.032L104.64 93.792C104.589 93.7866 104.54 93.7711 104.495 93.7465C104.45 93.7218 104.41 93.6884 104.378 93.6482C104.346 93.6081 104.322 93.5619 104.308 93.5125C104.294 93.463 104.29 93.4113 104.296 93.3602L105.197 85.7745C105.209 85.6717 105.26 85.5776 105.341 85.5128C105.421 85.4481 105.524 85.418 105.627 85.4291L119.553 87.0388C122.422 83.2788 130.395 80.4187 133.045 79.6898C133.244 79.6085 133.456 79.5676 133.671 79.5694C133.885 79.5712 134.098 79.6156 134.295 79.7002C134.492 79.7856 134.67 79.9102 134.818 80.0663C134.967 80.2224 135.082 80.4069 135.157 80.6086C135.161 80.6198 135.165 80.6314 135.167 80.6432C135.56 82.1527 133.96 82.9023 132.559 83.5621C132.001 83.8078 131.463 84.0965 130.95 84.4256L135.279 84.1717C135.337 84.1685 135.394 84.1781 135.448 84.1999C135.501 84.2217 135.549 84.2552 135.588 84.2978C135.627 84.3406 135.656 84.3914 135.673 84.4466C135.69 84.5018 135.694 84.5601 135.686 84.6174C135.559 85.5141 135.478 86.4169 135.445 87.3221C135.389 87.3547 135.342 87.4011 135.308 87.4568C135.275 87.5126 135.256 87.5759 135.253 87.641C135.251 87.706 135.265 87.7705 135.294 87.8286C135.324 87.8867 135.367 87.9365 135.421 87.9732C135.421 88.1874 135.407 88.4015 135.402 88.6157C135.376 89.6071 135.324 90.4344 135.241 91.2185V91.2427C135.235 91.3024 135.217 91.3601 135.187 91.4122C135.157 91.4642 135.117 91.5095 135.069 91.5449C135.111 91.5874 135.142 91.639 135.16 91.6957C135.178 91.7524 135.183 91.8125 135.174 91.8714L135.131 92.1598C135.072 92.5225 135.015 92.8852 134.959 93.2462C134.874 93.7229 134.786 94.2237 134.666 94.8213C134.598 94.879 134.551 94.9583 134.534 95.0459C134.517 95.1335 134.531 95.2243 134.572 95.3032C134.526 95.6728 134.341 96.011 134.055 96.2497C133.978 96.3133 133.913 96.392 133.867 96.481C133.82 96.5701 133.792 96.6676 133.785 96.7678C133.769 96.8465 133.729 96.9183 133.67 96.9734C133.612 97.0284 133.538 97.064 133.459 97.0753L128.79 97.7316L128.725 97.7419ZM105.106 93.0562L119.706 94.279C119.771 94.2846 119.833 94.3064 119.888 94.3423C119.942 94.3782 119.986 94.4271 120.017 94.4845C121.363 97.0183 124.822 96.982 127.602 96.9526C127.994 96.9526 128.371 96.9526 128.728 96.9526H128.785L133.081 96.3481C133.159 96.0859 133.312 95.8527 133.523 95.678C133.585 95.6297 133.638 95.5713 133.681 95.5053C132.819 95.2583 132.226 95.0718 132.219 95.0701C132.129 95.0424 132.052 94.983 132.003 94.9028C131.953 94.8225 131.935 94.727 131.95 94.634C131.966 94.541 132.015 94.4569 132.088 94.3973C132.161 94.3377 132.253 94.3067 132.347 94.3101L133.947 94.3636C134.033 93.9077 134.107 93.5001 134.174 93.1253C134.231 92.8006 134.283 92.4759 134.335 92.1494C133.128 91.9474 132.236 91.7902 132.226 91.7867C132.133 91.77 132.049 91.7196 131.99 91.6452C131.931 91.5707 131.902 91.4773 131.907 91.3825C131.912 91.2877 131.952 91.1981 132.019 91.1307C132.086 91.0633 132.175 91.0226 132.269 91.0164L134.495 90.8679C134.56 90.177 134.6 89.4568 134.622 88.6088C134.622 88.5138 134.622 88.4171 134.622 88.3221C133.312 88.1787 132.366 88.0613 132.355 88.0595C132.262 88.047 132.177 88.0011 132.115 87.9303C132.053 87.8594 132.019 87.7685 132.019 87.6744C132.019 87.5803 132.053 87.4894 132.115 87.4185C132.177 87.3477 132.262 87.3018 132.355 87.2892L134.678 86.9766C134.716 86.2391 134.771 85.5949 134.85 84.9887L129.981 85.2598C129.913 85.2624 129.844 85.2465 129.784 85.2137C129.723 85.1809 129.672 85.1324 129.637 85.0733C129.601 85.0127 129.582 84.9435 129.582 84.873C129.582 84.8024 129.601 84.7332 129.637 84.6726C130.118 83.8591 131.188 83.3531 132.238 82.8626C133.731 82.1613 134.626 81.6743 134.431 80.8608C134.349 80.6616 134.193 80.5027 133.995 80.4186C133.89 80.3734 133.778 80.3501 133.664 80.3501C133.55 80.3501 133.437 80.3734 133.333 80.4186C133.316 80.4262 133.298 80.432 133.279 80.4359C131.164 81.0145 122.717 83.9386 120.053 87.6796C120.013 87.7363 119.958 87.7812 119.895 87.8095C119.831 87.8377 119.762 87.8483 119.693 87.8402L105.927 86.2495L105.106 93.0562Z" fill="#0A1A33"/>
<path d="M123.106 91.0739C122.87 91.0758 122.633 91.0602 122.399 91.0273C122.338 91.0174 122.283 90.9837 122.247 90.9335C122.211 90.8833 122.196 90.8207 122.206 90.7596C122.216 90.6984 122.25 90.6437 122.3 90.6074C122.35 90.5711 122.412 90.5563 122.473 90.5661C122.499 90.5661 125.077 90.9565 126.695 89.086C127.804 87.76 128.757 86.3113 129.537 84.7681C129.55 84.7405 129.569 84.7159 129.591 84.6956C129.614 84.6752 129.641 84.6596 129.67 84.6495C129.699 84.6395 129.729 84.6353 129.76 84.6371C129.79 84.6389 129.82 84.6468 129.848 84.6602C129.875 84.6735 129.9 84.6922 129.92 84.7151C129.94 84.738 129.956 84.7647 129.966 84.7937C129.976 84.8226 129.98 84.8532 129.978 84.8838C129.977 84.9144 129.969 84.9443 129.955 84.9719C129.157 86.5491 128.181 88.0297 127.047 89.3848C125.789 90.8459 124.061 91.0739 123.106 91.0739Z" fill="#0A1A33"/>
<path d="M131.175 95.4138C131.159 95.4155 131.142 95.4155 131.125 95.4138C131.066 95.3994 131.015 95.3622 130.982 95.3102C130.95 95.2581 130.94 95.1955 130.953 95.1357C131.798 91.2877 131.137 87.557 131.125 87.519C131.12 87.4888 131.121 87.4579 131.127 87.4279C131.134 87.398 131.146 87.3696 131.163 87.3444C131.181 87.3193 131.203 87.2978 131.229 87.2812C131.254 87.2646 131.283 87.2533 131.313 87.2479C131.343 87.2424 131.374 87.243 131.404 87.2495C131.434 87.256 131.462 87.2683 131.488 87.2858C131.513 87.3033 131.534 87.3256 131.551 87.3513C131.567 87.3771 131.579 87.4059 131.584 87.4361C131.584 87.4741 132.274 91.2928 131.403 95.2359C131.391 95.2869 131.361 95.3322 131.32 95.3645C131.279 95.3968 131.228 95.4141 131.175 95.4138Z" fill="#0A1A33"/>
<path d="M83.125 55.1807C83.125 55.1807 92.7104 75.789 94.4051 79.2899C96.0998 82.7908 116.069 85.1622 116.593 85.3833C117.117 85.6044 118.181 96.893 118.181 96.893C118.181 96.893 90.2795 95.3679 86.4592 92.1779C82.6388 88.9879 70.7363 63.9874 70.7363 63.9874L83.125 55.1807Z" fill="#FFB1C7"/>
<path d="M118.182 97.2816H118.16C117.015 97.2195 90.0879 95.7134 86.2175 92.4785C82.3799 89.2711 70.874 65.1792 70.393 64.1532C70.3538 64.0707 70.345 63.9769 70.368 63.8885C70.391 63.8 70.4444 63.7225 70.5188 63.6696L82.9006 54.8612C82.9472 54.8286 83.0003 54.8065 83.0562 54.7964C83.1122 54.7862 83.1696 54.7883 83.2247 54.8025C83.2799 54.8171 83.3312 54.8437 83.375 54.8804C83.4188 54.9171 83.454 54.9631 83.4781 55.0149C83.5729 55.2204 93.0825 75.6595 94.7548 79.1172C95.6271 80.9204 102.392 82.7978 114.858 84.6994C116.324 84.9222 116.62 84.9705 116.744 85.0224C117.032 85.1433 117.282 85.2469 117.97 91.1727C118.298 93.9949 118.565 96.8257 118.568 96.8533C118.573 96.909 118.566 96.9651 118.548 97.0178C118.53 97.0705 118.5 97.1187 118.461 97.159C118.426 97.1975 118.382 97.2282 118.334 97.2493C118.286 97.2703 118.235 97.2814 118.182 97.2816ZM71.2343 64.1204C72.5876 66.9408 83.2281 88.9723 86.714 91.886C87.7605 92.7617 91.5723 94.0726 103.792 95.3507C110.078 96.0087 116.091 96.387 117.756 96.4854C117.301 91.7375 116.684 86.601 116.358 85.7322C116.096 85.6821 115.46 85.5854 114.744 85.4766C105.809 84.1139 95.384 82.195 94.0565 79.4661C92.5153 76.2813 84.3487 58.7404 82.9712 55.7731L71.2343 64.1204Z" fill="#0A1A33"/>
<path d="M118.182 97.2816H118.16C117.015 97.2195 90.0879 95.7134 86.2175 92.4785C82.3799 89.2711 70.874 65.1792 70.393 64.1532C70.3538 64.0707 70.345 63.9769 70.368 63.8885C70.391 63.8 70.4444 63.7225 70.5188 63.6696L82.9006 54.8612C82.9472 54.8286 83.0003 54.8065 83.0562 54.7964C83.1122 54.7862 83.1696 54.7883 83.2247 54.8025C83.2799 54.8171 83.3312 54.8437 83.375 54.8804C83.4188 54.9171 83.454 54.9631 83.4781 55.0149C83.5729 55.2204 93.0825 75.6595 94.7548 79.1172C95.6271 80.9204 102.392 82.7978 114.858 84.6994C116.324 84.9222 116.62 84.9705 116.744 85.0224C117.032 85.1433 117.282 85.2469 117.97 91.1727C118.298 93.9949 118.565 96.8257 118.568 96.8533C118.573 96.909 118.566 96.9651 118.548 97.0178C118.53 97.0705 118.5 97.1187 118.461 97.159C118.426 97.1975 118.382 97.2282 118.334 97.2493C118.286 97.2703 118.235 97.2814 118.182 97.2816ZM71.2343 64.1204C72.5876 66.9408 83.2281 88.9723 86.714 91.886C87.7605 92.7617 91.5723 94.0726 103.792 95.3507C110.078 96.0087 116.091 96.387 117.756 96.4854C117.301 91.7375 116.684 86.601 116.358 85.7322C116.096 85.6821 115.46 85.5854 114.744 85.4766C105.809 84.1139 95.384 82.195 94.0565 79.4661C92.5153 76.2813 84.3487 58.7404 82.9712 55.7731L71.2343 64.1204Z" fill="#0A1A33"/>
<path d="M75.4235 50.3521C74.5064 50.4834 63.0659 53.2779 57.4492 64.7565C51.8324 76.2352 70.9481 121.664 70.9481 121.664L110.022 121.476C110.022 121.476 104.63 77.1436 101.933 67.6823C99.2371 58.221 98.7888 46.9756 75.4235 50.3521Z" fill="#63D6D4"/>
<path d="M70.9495 122.049C70.8734 122.049 70.799 122.027 70.7355 121.984C70.6721 121.942 70.6224 121.883 70.5926 121.812C70.5443 121.698 65.7654 110.292 61.7244 97.6323C56.2835 80.5578 54.7284 69.4384 57.1024 64.5851C63.0398 52.4536 75.2491 49.9838 75.3767 49.9665C84.9966 48.5762 91.6392 49.5572 95.6871 52.9614C99.2971 56.0012 100.473 60.5436 101.609 64.9357C101.835 65.7993 102.068 66.7078 102.314 67.5748C104.988 76.9497 110.362 120.985 110.417 121.429C110.423 121.483 110.418 121.538 110.402 121.591C110.386 121.643 110.359 121.691 110.323 121.732C110.287 121.774 110.242 121.807 110.193 121.829C110.143 121.852 110.089 121.864 110.034 121.864L70.9512 122.049H70.9495ZM75.4801 50.7316C75.3646 50.7489 63.5656 53.1393 57.8006 64.9236C52.532 75.6889 69.7272 117.698 71.2081 121.27L109.584 121.085C109.017 116.467 104.067 76.6026 101.562 67.7855C101.312 66.9098 101.078 66.0031 100.852 65.1274C99.7454 60.8527 98.6024 56.433 95.1802 53.5555C91.3133 50.2999 84.869 49.3776 75.4801 50.7334V50.7316Z" fill="#0A1A33"/>
<path d="M95.9927 28.2038C96.7075 23.723 93.6613 19.5102 89.1887 18.7941C84.7162 18.078 80.511 21.1298 79.7962 25.6105C79.0814 30.0913 82.1277 34.3041 86.6002 35.0202C91.0728 35.7363 95.278 32.6845 95.9927 28.2038Z" fill="#254059"/>
<path d="M87.8956 35.5198C86.1968 35.5198 84.5361 35.0152 83.1237 34.0696C81.7112 33.124 80.6103 31.78 79.9603 30.2076C79.3103 28.6353 79.1403 26.9051 79.4718 25.2359C79.8034 23.5667 80.6215 22.0335 81.8229 20.8302C83.0243 19.6269 84.5548 18.8075 86.221 18.4757C87.8872 18.1439 89.6142 18.3145 91.1836 18.966C92.753 19.6176 94.0943 20.7207 95.0379 22.136C95.9814 23.5512 96.4849 25.215 96.4845 26.9169C96.4823 29.1982 95.5766 31.3853 93.9663 32.9982C92.356 34.6111 90.1727 35.518 87.8956 35.5198ZM87.8956 19.0895C86.3503 19.0895 84.8397 19.5486 83.5548 20.4087C82.27 21.2687 81.2685 22.4912 80.6772 23.9215C80.0858 25.3518 79.9311 26.9256 80.2326 28.444C80.534 29.9624 81.2782 31.3571 82.3709 32.4518C83.4635 33.5464 84.8557 34.2919 86.3713 34.594C87.8869 34.896 89.4579 34.741 90.8855 34.1485C92.3132 33.5561 93.5335 32.5528 94.392 31.2656C95.2505 29.9784 95.7087 28.465 95.7087 26.9169C95.7074 24.8412 94.8838 22.8509 93.4189 21.383C91.954 19.9151 89.9675 19.0896 87.8956 19.0878V19.0895Z" fill="#0A1A33"/>
<path d="M89.3658 20.6135C89.4917 19.8207 88.1866 2.91369 74.6222 5.00872C61.0578 7.10375 55.5634 14.5443 54.3601 18.4477C53.1567 22.351 55.7272 31.6931 60.6837 35.6017C65.6402 39.5102 72.0862 45.8989 73.0551 50.8299L89.3658 20.6135Z" fill="#D39D88"/>
<path d="M73.0559 51.2189C73.0364 51.2206 73.0168 51.2206 72.9973 51.2189C72.9182 51.2072 72.8447 51.1711 72.787 51.1157C72.7292 51.0604 72.6901 50.9884 72.6749 50.9098C71.756 46.2344 65.5134 39.9096 60.4449 35.913C58.1468 34.1012 56.1056 30.9042 54.8453 27.1511C53.6954 23.7297 53.3679 20.3514 53.9833 18.3427C54.3574 17.1337 55.6539 13.9609 59.6053 10.7588C63.4619 7.63092 68.4925 5.57735 74.5575 4.63432C78.6951 3.99701 82.1189 5.01601 84.7497 7.662C89.2925 12.2372 89.8304 20.1268 89.7493 20.6847C89.7429 20.7282 89.7289 20.7703 89.708 20.809L73.3972 51.0341C73.3614 51.0921 73.3111 51.1397 73.2512 51.1721C73.1913 51.2045 73.1239 51.2207 73.0559 51.2189ZM76.8625 5.2181C76.1322 5.22013 75.4031 5.27787 74.6816 5.39082C61.512 7.4254 55.9452 14.6259 54.7315 18.5603C53.5972 22.2374 55.9711 31.3895 60.9241 35.2963C62.5878 36.6073 65.803 39.2964 68.658 42.5763C71.0009 45.2672 72.5197 47.6835 73.1835 49.775L88.9873 20.493C89.0218 19.5897 88.3322 12.2027 84.0602 8.05752C82.1155 6.16975 79.7002 5.2181 76.8625 5.2181Z" fill="#0A1A33"/>
<path d="M84.779 49.709L83.8222 42.0509L68.3062 36.3254C68.1338 36.011 74.3851 50.4241 72.1835 54.4915C72.1835 54.4915 82.793 61.0546 86.7306 60.9648L84.779 49.709Z" fill="#FFA18D"/>
<path d="M86.6576 61.3538C82.5924 61.3538 72.4157 55.0912 71.9812 54.8235C71.8968 54.7708 71.8357 54.6878 71.8104 54.5915C71.7851 54.4952 71.7975 54.3928 71.845 54.3053C73.0518 52.0894 71.6261 45.5176 68.0523 36.7281C68.0229 36.6521 67.9919 36.5796 67.9695 36.507C67.8971 36.2842 67.8902 36.0874 68.1419 35.9699C68.1935 35.9447 68.2501 35.9316 68.3074 35.9316C68.3648 35.9316 68.4214 35.9447 68.4729 35.9699L83.963 41.6868C84.0297 41.7113 84.0883 41.7538 84.1324 41.8096C84.1765 41.8654 84.2044 41.9322 84.213 42.0028L85.1698 49.6506L87.1231 60.8978C87.1328 60.953 87.1305 61.0097 87.1163 61.0639C87.102 61.1182 87.0763 61.1687 87.0407 61.212C87.0052 61.2553 86.9607 61.2904 86.9104 61.3149C86.86 61.3394 86.8049 61.3526 86.749 61.3538H86.6576ZM72.6812 54.345C74.3379 55.3468 82.5735 60.2173 86.2697 60.5628L84.3957 49.7785C84.3957 49.7785 84.3957 49.7664 84.3957 49.7612L83.4682 42.3344L68.997 36.9941C73.5052 48.2361 73.3449 52.6386 72.6812 54.345Z" fill="#0A1A33"/>
<path d="M90.3675 17.3618C94.6534 25.495 93.5259 41.8165 87.3143 45.1015C81.1028 48.3866 72.5949 44.459 68.309 36.3259C64.0232 28.1928 65.5851 18.9387 71.7966 15.6571C78.0082 12.3755 86.0834 9.23041 90.3675 17.3618Z" fill="#FFA18D"/>
<path d="M82.5611 46.6451C77.1391 46.6451 71.2896 42.816 67.9657 36.5084C65.8538 32.4997 65.0608 28.0955 65.7332 24.1075C66.4124 20.0816 68.5019 16.9571 71.6154 15.3112C74.4807 13.7947 78.227 12.0296 81.787 11.8379C85.7281 11.6272 88.7347 13.4234 90.7139 17.1799C92.7826 21.1109 93.7257 27.1974 93.1671 33.0853C92.5809 39.2581 90.4622 43.8782 87.4986 45.4447C85.9762 46.245 84.2804 46.6573 82.5611 46.6451ZM82.4111 12.5996C82.2163 12.5996 82.0215 12.5996 81.8215 12.6151C78.4166 12.7982 74.7704 14.515 71.974 15.9986C69.0794 17.5288 67.1331 20.4546 66.4952 24.2371C65.8504 28.0575 66.6159 32.2873 68.6484 36.144C72.8274 44.0734 81.1181 47.937 87.1297 44.7573C89.8622 43.3134 91.8276 38.923 92.3879 33.0127C92.9326 27.2734 92.0258 21.3458 90.0208 17.5427C88.2727 14.2214 85.7798 12.5996 82.4111 12.5996Z" fill="#0A1A33"/>
<path d="M89.332 23.7148C90.3244 25.3639 91.6706 26.771 93.2731 27.8341C93.5055 27.9886 93.6983 28.1958 93.836 28.4388C93.9737 28.6819 94.0523 28.9539 94.0656 29.2331C94.0789 29.5122 94.0264 29.7905 93.9123 30.0456C93.7983 30.3006 93.626 30.5252 93.4093 30.7011L92.3973 31.5267" fill="#FFA18D"/>
<path d="M92.3998 31.9162C92.3421 31.9158 92.2852 31.9028 92.2331 31.878C92.181 31.8532 92.1349 31.8173 92.0981 31.7728C92.0335 31.6925 92.0032 31.5899 92.0138 31.4873C92.0245 31.3847 92.0752 31.2905 92.155 31.2253L93.167 30.3997C93.3399 30.2617 93.4771 30.084 93.5671 29.8817C93.6571 29.6794 93.6973 29.4584 93.6842 29.2373C93.6742 29.0217 93.613 28.8116 93.5057 28.6244C93.3983 28.4373 93.2479 28.2785 93.067 28.1613C91.4079 27.0658 90.0157 25.6108 88.9932 23.9039C88.9434 23.8123 88.9319 23.7046 88.9613 23.6045C88.9907 23.5044 89.0586 23.4202 89.1501 23.3702C89.2415 23.3203 89.349 23.3088 89.4489 23.3383C89.5488 23.3678 89.633 23.4358 89.6828 23.5274C90.6474 25.1193 91.95 26.4791 93.498 27.5102C93.7822 27.6932 94.0185 27.9417 94.1871 28.235C94.3557 28.5283 94.4516 28.8578 94.4669 29.1959C94.4869 29.5392 94.425 29.8823 94.2862 30.1968C94.1473 30.5113 93.9357 30.7881 93.6687 31.0042L92.6567 31.8281C92.5844 31.8875 92.4932 31.9188 92.3998 31.9162Z" fill="#0A1A33"/>
<path d="M90.5794 33.9121C90.5794 33.9121 87.1176 36.8586 79.9492 37.7257C79.9492 37.7257 86.3608 46.636 90.5794 33.9121Z" fill="#FF8084"/>
<path d="M88.2736 38.0746C88.2736 38.0746 85.2739 37.6584 82.2207 39.8449L88.2736 38.0746Z" fill="#FF8B8F"/>
<path d="M90.778 33.6178C90.7134 33.5741 90.6363 33.5528 90.5584 33.5572C90.4806 33.5616 90.4063 33.5913 90.347 33.642C90.347 33.642 89.485 34.3708 87.761 35.1964C86.1835 35.9512 83.5372 36.9426 79.8996 37.3813C79.8395 37.3896 79.7826 37.4131 79.7342 37.4496C79.6857 37.4862 79.6473 37.5344 79.6227 37.5899C79.598 37.6454 79.5879 37.7062 79.5932 37.7667C79.5985 37.8272 79.6191 37.8854 79.6531 37.9357C79.7513 38.0738 81.977 41.1188 84.7768 41.1188C84.9701 41.1183 85.1632 41.1032 85.3543 41.0739C87.6058 40.7285 89.4764 38.3571 90.9125 34.0254C90.9368 33.952 90.9369 33.8727 90.9127 33.7993C90.8885 33.7258 90.8412 33.6622 90.778 33.6178ZM85.2612 40.3675C84.4096 40.5005 83.5872 40.2518 82.8614 39.8493C84.4012 38.8498 86.21 38.3476 88.0437 38.4106C87.1869 39.5557 86.2577 40.2103 85.2526 40.364L85.2612 40.3675ZM88.4747 37.7768C88.432 37.7493 88.3837 37.7316 88.3334 37.725C88.2075 37.7077 85.2698 37.3311 82.1994 39.4365C81.6265 39.0185 81.1026 38.537 80.6375 38.0013C85.4146 37.3243 88.4523 35.756 89.8746 34.8579C89.5017 35.8731 89.0299 36.849 88.4661 37.7716L88.4747 37.7768Z" fill="#0A1A33"/>
<path d="M78.4629 23.6194C78.3242 23.6191 78.1896 23.5722 78.0806 23.4863C77.9716 23.4004 77.8944 23.2803 77.8615 23.1453C77.8286 23.0103 77.8417 22.8682 77.8989 22.7415C77.956 22.6149 78.0538 22.5111 78.1767 22.4467C78.3629 22.35 82.7643 20.1047 85.6968 22.065C85.834 22.1566 85.9292 22.2991 85.9615 22.461C85.9939 22.623 85.9607 22.7912 85.8692 22.9286C85.7778 23.066 85.6356 23.1614 85.4739 23.1938C85.3123 23.2262 85.1444 23.1929 85.0072 23.1013C82.685 21.5469 78.787 23.5313 78.7474 23.5521C78.6593 23.597 78.5618 23.6201 78.4629 23.6194Z" fill="#0A1A33"/>
<path d="M83.7527 27.6643C84.095 27.0288 83.8582 26.2357 83.2239 25.8928C82.5896 25.5499 81.7979 25.7871 81.4557 26.4226C81.1134 27.0581 81.3502 27.8512 81.9845 28.1941C82.6188 28.537 83.4105 28.2998 83.7527 27.6643Z" fill="#0A1A33"/>
<path d="M90.2259 24.0654C90.2885 24.2669 90.4094 24.4453 90.5732 24.578C90.737 24.7107 90.9364 24.7918 91.1462 24.811C91.356 24.8302 91.5668 24.7867 91.7519 24.6859C91.937 24.5851 92.0881 24.4316 92.1862 24.2448C92.2842 24.058 92.3248 23.8463 92.3027 23.6364C92.2807 23.4265 92.197 23.2279 92.0623 23.0656C91.9276 22.9033 91.7479 22.7847 91.546 22.7247C91.344 22.6647 91.1288 22.666 90.9276 22.7286C90.7938 22.7701 90.6696 22.8377 90.5619 22.9274C90.4543 23.017 90.3653 23.1271 90.3002 23.2513C90.235 23.3754 90.1949 23.5112 90.1822 23.6509C90.1694 23.7906 90.1843 23.9314 90.2259 24.0654Z" fill="#0A1A33"/>
<path d="M80.4892 31.603C80.5865 31.9163 80.5889 32.2514 80.496 32.566C80.4031 32.8806 80.2191 33.1606 79.9673 33.3704C79.7156 33.5802 79.4074 33.7104 79.0817 33.7447C78.756 33.7789 78.4275 33.7156 78.1377 33.5627C77.848 33.4098 77.61 33.1743 77.4539 32.8859C77.2979 32.5974 77.2307 32.2691 77.261 31.9424C77.2913 31.6157 77.4176 31.3054 77.624 31.0507C77.8304 30.796 78.1076 30.6083 78.4204 30.5115C78.8393 30.3828 79.2919 30.4254 79.6795 30.6299C80.0671 30.8344 80.3582 31.1843 80.4892 31.603Z" fill="#FF8084"/>
<path d="M68.5164 9.24478C61.6687 5.51241 50.8265 14.0359 54.3693 25.3366L70.8594 27.0465C70.8594 27.0465 75.5521 19.2968 76.3761 16.4211C77.2002 13.5454 68.5164 9.24478 68.5164 9.24478Z" fill="#FF6490"/>
<path d="M70.8611 27.4344H70.8215L54.3315 25.7245C54.2561 25.7169 54.1845 25.6874 54.1257 25.6395C54.0669 25.5916 54.0233 25.5275 54.0005 25.4551C51.8989 18.7486 54.759 13.384 58.1381 10.6016C61.443 7.87618 65.5874 7.2095 68.6975 8.90038C69.6492 9.37189 77.6382 13.4393 76.752 16.5292C75.9245 19.4204 71.387 26.9301 71.1956 27.2496C71.1603 27.3064 71.111 27.3533 71.0524 27.3856C70.9939 27.418 70.928 27.4348 70.8611 27.4344ZM54.6642 24.9836L70.6543 26.6416C71.4076 25.3843 75.278 18.8522 75.9986 16.3202C76.5331 14.4531 71.5835 11.2061 68.3389 9.59815H68.3251C65.4943 8.05581 61.6843 8.68967 58.6225 11.213C55.4866 13.7882 52.8213 18.752 54.6642 24.9836Z" fill="#0A1A33"/>
<path d="M76.3782 16.419C76.3782 16.419 91.0029 14.7696 93.4751 7.84545C95.9473 0.921314 95.1232 0.394531 95.1232 0.394531C95.1232 0.394531 91.6753 3.14415 86.8619 2.46711C82.0485 1.79007 72.7354 1.12338 70.1391 3.02324C67.5428 4.92311 62.8828 8.49485 62.8828 8.49485C62.8828 8.49485 71.6873 10.5674 74.0888 12.8663C76.4903 15.1651 76.3782 16.419 76.3782 16.419Z" fill="#FF6490"/>
<path d="M76.3778 16.8093C76.2776 16.8089 76.1813 16.7699 76.1089 16.7005C76.0689 16.6618 76.0378 16.6149 76.0175 16.5631C75.9973 16.5112 75.9885 16.4556 75.9917 16.4C75.9917 16.3585 75.9624 15.2134 73.8143 13.1512C71.5231 10.9491 62.8807 8.89724 62.7928 8.87651C62.7214 8.8595 62.6563 8.82256 62.605 8.76998C62.5538 8.71739 62.5184 8.65133 62.5031 8.57945C62.4873 8.50774 62.4924 8.43301 62.5178 8.36412C62.5432 8.29523 62.5877 8.23509 62.6462 8.19084C62.6928 8.15457 67.3407 4.59492 69.9111 2.71406C73.3264 0.213152 86.3615 2.00766 86.9149 2.08538C91.5007 2.7296 94.8453 0.11815 94.8815 0.0922425C94.9448 0.0420126 95.022 0.0127046 95.1026 0.00837302C95.1832 0.00404148 95.2632 0.0248977 95.3315 0.0680599C96.2279 0.639746 95.0142 4.68473 93.8402 7.97667C92.773 10.9698 89.5009 13.3654 84.1186 15.1012C81.6074 15.8941 79.0317 16.4651 76.4209 16.8076L76.3778 16.8093ZM63.7599 8.31519C66.0011 8.8886 72.3109 10.6313 74.3504 12.5899C76.0589 14.2289 76.564 15.3844 76.7106 15.9855C78.9931 15.6677 90.9646 13.7263 93.1092 7.71587C94.6108 3.50854 94.8608 1.74686 94.8677 1.05082C93.7247 1.79349 90.7301 3.40318 86.808 2.85568C81.486 2.10955 72.7178 1.62248 70.368 3.341C68.3751 4.79871 65.1305 7.26854 63.7582 8.31519H63.7599Z" fill="#0A1A33"/>
<path d="M76.2771 15.5081C76.184 15.5072 76.0943 15.4729 76.0244 15.4113C75.9545 15.3498 75.909 15.2651 75.8962 15.1727C75.8835 15.0803 75.9043 14.9864 75.9549 14.9082C76.0055 14.8299 76.0825 14.7725 76.1719 14.7464C76.315 14.7049 90.4207 10.6202 94.7635 0.238341C94.8033 0.143292 94.8791 0.0679717 94.9743 0.0289414C95.0695 -0.0100889 95.1763 -0.0096244 95.2712 0.0302275C95.3661 0.0700794 95.4413 0.146051 95.4802 0.24144C95.5192 0.33683 95.5187 0.443814 95.4789 0.538863C94.1825 3.64773 91.169 8.15904 84.2144 12.0918C81.7314 13.5031 79.1045 14.6438 76.3788 15.4942C76.3455 15.5028 76.3114 15.5074 76.2771 15.5081Z" fill="#0A1A33"/>
<path d="M66.1926 25.3073C66.0952 25.3072 66.0014 25.2704 65.9298 25.2041C65.8583 25.1379 65.8142 25.0471 65.8064 24.9498C65.3979 19.6095 67.2115 16.2985 68.8062 14.4608C70.544 12.4573 72.3662 11.7354 72.4438 11.706C72.5398 11.6687 72.6467 11.6711 72.741 11.7127C72.8352 11.7544 72.9091 11.8318 72.9464 11.928C72.9836 12.0242 72.9812 12.1313 72.9397 12.2257C72.8981 12.3201 72.8209 12.3941 72.7248 12.4314C72.7076 12.4314 70.9767 13.1223 69.3648 14.9997C67.2063 17.5092 66.2616 20.8357 66.5805 24.8893C66.5881 24.9921 66.5549 25.0937 66.4881 25.172C66.4212 25.2503 66.3262 25.2989 66.2237 25.3073H66.1926Z" fill="#0A1A33"/>
<path d="M68.9122 26.7344C68.8281 26.7343 68.7462 26.7068 68.6791 26.656C68.6119 26.6052 68.563 26.5339 68.5398 26.4529C68.4864 26.2664 67.2693 21.8621 70.238 18.3198C70.2707 18.2806 70.3108 18.2483 70.3559 18.2247C70.4011 18.2011 70.4505 18.1867 70.5012 18.1822C70.552 18.1777 70.6031 18.1833 70.6517 18.1986C70.7003 18.2139 70.7454 18.2386 70.7845 18.2714C70.8235 18.3042 70.8558 18.3443 70.8793 18.3896C70.9029 18.4348 70.9173 18.4843 70.9218 18.5351C70.9263 18.586 70.9207 18.6372 70.9055 18.6859C70.8902 18.7346 70.8655 18.7798 70.8328 18.8189C68.1261 22.0487 69.2812 26.1956 69.2812 26.2456C69.2954 26.2946 69.2998 26.3459 69.2941 26.3966C69.2884 26.4473 69.2728 26.4964 69.2481 26.541C69.2235 26.5857 69.1902 26.625 69.1503 26.6567C69.1104 26.6884 69.0647 26.7119 69.0157 26.7258C68.9818 26.7335 68.9469 26.7364 68.9122 26.7344Z" fill="#0A1A33"/>
<path d="M71.1226 10.3588C71.0918 10.3586 71.0612 10.3552 71.0312 10.3484C70.9312 10.3238 70.845 10.2606 70.7914 10.1726C70.7378 10.0846 70.7211 9.97892 70.745 9.87862C70.976 9.00695 71.3118 8.16659 71.745 7.37599C72.6966 5.64884 73.9517 4.6609 75.3653 4.49164C75.4174 4.48213 75.4709 4.48342 75.5225 4.49541C75.5741 4.50741 75.6227 4.52984 75.6653 4.56136C75.7079 4.59288 75.7436 4.63282 75.7702 4.67869C75.7968 4.72456 75.8138 4.77542 75.82 4.82811C75.8263 4.8808 75.8217 4.93421 75.8066 4.98505C75.7914 5.0359 75.7661 5.08309 75.732 5.12374C75.698 5.16439 75.656 5.1976 75.6086 5.22138C75.5613 5.24515 75.5096 5.25897 75.4567 5.26196C72.5966 5.60739 71.5036 10.0168 71.4915 10.0617C71.4714 10.1451 71.4243 10.2194 71.3575 10.2731C71.2908 10.3269 71.2082 10.357 71.1226 10.3588Z" fill="#0A1A33"/>
<path d="M67.5434 30.5101C67.5434 30.5101 65.6194 27.6724 62.7576 30.1492C59.8957 32.6259 62.9127 36.6311 65.1229 36.7676C66.5852 36.828 68.0452 36.6016 69.4208 36.1009" fill="#FFA18D"/>
<path d="M65.6673 37.1688C65.4811 37.1688 65.2915 37.1688 65.1001 37.1515C63.652 37.0617 61.9969 35.585 61.4211 33.87C60.9039 32.3362 61.2901 30.9114 62.5055 29.8595C63.4865 29.0115 64.4812 28.6505 65.4639 28.7749C66.9517 28.9718 67.8275 30.2412 67.8654 30.2948C67.9235 30.38 67.9454 30.4848 67.9263 30.5862C67.9072 30.6875 67.8487 30.7772 67.7637 30.8354C67.6787 30.8935 67.574 30.9155 67.4728 30.8964C67.3716 30.8773 67.2822 30.8187 67.2241 30.7335C67.2241 30.7231 66.4966 29.6972 65.357 29.5452C64.6053 29.4485 63.8157 29.7524 63.0124 30.4485C61.7814 31.5141 61.8676 32.7611 62.1504 33.6213C62.6296 35.0479 64.0002 36.3139 65.1415 36.3847C66.549 36.4403 67.954 36.2227 69.2791 35.7439C69.3738 35.7098 69.4781 35.7139 69.5698 35.7554C69.6616 35.7969 69.7337 35.8725 69.7708 35.9662C69.808 36.0599 69.8073 36.1644 69.7689 36.2577C69.7306 36.3509 69.6576 36.4256 69.5653 36.4659C68.3154 36.9208 66.9971 37.1585 65.6673 37.1688Z" fill="#0A1A33"/>
<path d="M67.1072 33.9646C67.0702 33.9647 67.0337 33.956 67.0007 33.9392C66.9678 33.9224 66.9393 33.8979 66.9176 33.8679C66.2487 32.9438 65.5625 32.4482 64.8781 32.3929C64.6644 32.376 64.4496 32.4025 64.2464 32.4707C64.0431 32.539 63.8558 32.6476 63.6954 32.7901C63.6516 32.8336 63.5922 32.8579 63.5305 32.8576C63.4687 32.8573 63.4096 32.8324 63.3662 32.7884C63.3227 32.7444 63.2985 32.685 63.2988 32.6231C63.2992 32.5612 63.324 32.502 63.3679 32.4585C63.5768 32.2689 63.8222 32.124 64.089 32.0329C64.3558 31.9417 64.6384 31.9061 64.9195 31.9283C65.7453 31.9956 66.5452 32.5552 67.2986 33.595C67.3345 33.645 67.3493 33.7072 67.3396 33.768C67.3299 33.8289 67.2966 33.8834 67.2469 33.9197C67.2066 33.9498 67.1575 33.9656 67.1072 33.9646Z" fill="#0A1A33"/>
<path d="M65.1469 35.1097C65.1236 35.1096 65.1003 35.1061 65.078 35.0993C65.0488 35.0902 65.0216 35.0755 64.9981 35.0559C64.9746 35.0364 64.9551 35.0123 64.9409 34.9852C64.9266 34.9581 64.9178 34.9285 64.915 34.898C64.9122 34.8675 64.9155 34.8367 64.9245 34.8074L65.5952 32.633C65.6032 32.6027 65.6173 32.5744 65.6366 32.5497C65.6558 32.525 65.6798 32.5044 65.7072 32.4892C65.7345 32.474 65.7646 32.4645 65.7957 32.4612C65.8268 32.458 65.8583 32.461 65.8882 32.4702C65.9181 32.4793 65.9458 32.4945 65.9698 32.5146C65.9937 32.5348 66.0133 32.5596 66.0275 32.5875C66.0417 32.6154 66.0501 32.6459 66.0522 32.6772C66.0544 32.7084 66.0502 32.7398 66.04 32.7694L65.3693 34.9456C65.3544 34.993 65.3248 35.0344 65.2848 35.0639C65.2448 35.0934 65.1966 35.1094 65.1469 35.1097Z" fill="#0A1A33"/>
<path d="M89.3656 21.2351C89.2762 21.2357 89.1879 21.2162 89.107 21.1781C89.0329 21.1444 88.9662 21.0964 88.9106 21.0368C88.8551 20.9772 88.8118 20.9072 88.7833 20.8308C88.7548 20.7545 88.7417 20.6732 88.7445 20.5918C88.7474 20.5103 88.7663 20.4302 88.8001 20.356C88.9984 19.9208 89.7104 18.4821 90.5775 18.1936C90.7323 18.1467 90.8992 18.1622 91.0428 18.2367C91.1863 18.3112 91.2952 18.439 91.3462 18.5927C91.3972 18.7464 91.3863 18.914 91.3158 19.0598C91.2454 19.2056 91.1209 19.318 90.9689 19.3733C90.7499 19.4527 90.2448 20.1816 89.9345 20.8724C89.8848 20.9815 89.8046 21.0739 89.7037 21.1382C89.6027 21.2026 89.4853 21.2363 89.3656 21.2351Z" fill="#0A1A33"/>
<path d="M64.7557 44.4311C69.285 44.4311 72.9568 40.7527 72.9568 36.2151C72.9568 31.6775 69.285 27.999 64.7557 27.999C60.2264 27.999 56.5547 31.6775 56.5547 36.2151C56.5547 40.7527 60.2264 44.4311 64.7557 44.4311Z" fill="#254059"/>
<path d="M64.7567 44.8196C63.0581 44.82 61.3976 44.3158 59.985 43.3707C58.5724 42.4257 57.4713 41.0822 56.8208 39.5103C56.1703 37.9383 55.9997 36.2084 56.3305 34.5393C56.6613 32.8702 57.4786 31.3368 58.6792 30.133C59.8798 28.9293 61.4097 28.1092 63.0755 27.7764C64.7413 27.4437 66.4682 27.6133 68.0378 28.2637C69.6074 28.9141 70.9493 30.0162 71.8938 31.4306C72.8382 32.845 73.3429 34.5081 73.3439 36.2098C73.3425 38.4917 72.4376 40.6798 70.8277 42.2939C69.2178 43.9081 67.0344 44.8164 64.7567 44.8196ZM64.7567 28.3893C63.211 28.389 61.7 28.8479 60.4148 29.7081C59.1295 30.5683 58.1278 31.7911 57.5364 33.2217C56.945 34.6524 56.7904 36.2266 57.0922 37.7453C57.3941 39.264 58.1388 40.6588 59.2321 41.7534C60.3254 42.848 61.7182 43.5931 63.2343 43.8945C64.7504 44.1959 66.3217 44.04 67.7493 43.4465C69.177 42.8531 70.3968 41.8487 71.2546 40.5606C72.1124 39.2724 72.5695 37.7583 72.5681 36.2098C72.564 34.1361 71.7395 32.1485 70.2754 30.6826C68.8112 29.2167 66.8267 28.392 64.7567 28.3893Z" fill="#0A1A33"/>
<path d="M63.5854 29.3278C63.5854 29.3278 54.6051 14.5555 67.7126 4.28418C67.7126 4.28418 63.6785 4.79195 60.4546 9.75577C57.2308 14.7196 56.6946 21.9771 60.3322 31.4021L63.5854 29.3278Z" fill="#254059"/>
<path d="M60.3326 31.7919C60.2917 31.7916 60.251 31.7852 60.212 31.7729C60.1574 31.7546 60.1075 31.7246 60.0658 31.6849C60.0241 31.6452 59.9916 31.5968 59.9706 31.5431C56.5226 22.6155 56.5812 15.0074 60.1292 9.54448C63.4151 4.48739 67.4924 3.9209 67.6648 3.90018C67.7487 3.89019 67.8336 3.90792 67.9065 3.95069C67.9794 3.99346 68.0364 4.05892 68.0688 4.13711C68.1012 4.2153 68.1072 4.30196 68.086 4.38389C68.0647 4.46582 68.0173 4.53856 67.951 4.59103C62.629 8.76209 60.3309 14.1508 61.1188 20.612C61.5029 23.6027 62.4525 26.4925 63.9168 29.1269C63.9698 29.2137 63.9866 29.3179 63.9637 29.417C63.9409 29.5162 63.8801 29.6024 63.7944 29.6571L60.5412 31.7297C60.4789 31.7695 60.4066 31.791 60.3326 31.7919ZM65.9822 5.25252C65.8098 5.33197 65.627 5.42523 65.4374 5.52195C64.2013 6.18345 62.3894 7.49262 60.7826 9.96935C57.4346 15.1249 57.3484 22.3271 60.5292 30.8195L63.0686 29.2011C61.6503 26.5597 60.727 23.6802 60.3447 20.7053C59.8275 16.4237 60.4481 10.4132 65.9822 5.25252Z" fill="#0A1A33"/>
<path d="M63.5854 44.4313C67.4672 44.4313 70.6141 41.0505 70.6141 36.8802C70.6141 32.7098 67.4672 29.3291 63.5854 29.3291C59.7035 29.3291 56.5566 32.7098 56.5566 36.8802C56.5566 41.0505 59.7035 44.4313 63.5854 44.4313Z" fill="#53687C"/>
<path d="M63.5864 44.7754C59.5195 44.7754 56.2129 41.2331 56.2129 36.8789C56.2129 32.5248 59.5195 28.9824 63.5864 28.9824C67.6533 28.9824 70.9599 32.5248 70.9599 36.8789C70.9599 41.2331 67.6516 44.7754 63.5864 44.7754ZM63.5864 29.6733C59.9005 29.6733 56.9008 32.9048 56.9008 36.8789C56.9008 40.8531 59.9005 44.0846 63.5864 44.0846C67.2723 44.0846 70.2721 40.8531 70.2721 36.8789C70.2721 32.9048 67.2723 29.6733 63.5864 29.6733Z" fill="#0A1A33"/>
<path d="M115.309 76.6145L110.137 79.5973C109.819 79.7817 109.586 80.0848 109.489 80.4406C109.392 80.7964 109.439 81.1761 109.62 81.4971C109.804 81.8168 110.107 82.0507 110.462 82.1478C110.817 82.2448 111.196 82.1972 111.517 82.0153L112.723 81.3244L115.603 86.3331C115.787 86.6538 116.091 86.888 116.447 86.9842C116.804 87.0804 117.184 87.0307 117.504 86.8461C117.824 86.6615 118.058 86.3571 118.154 85.9998C118.25 85.6426 118.2 85.2617 118.016 84.9411L115.137 79.9323L116.689 79.0359C117.008 78.8521 117.242 78.549 117.339 78.193C117.436 77.8369 117.388 77.4569 117.206 77.1361C117.023 76.8158 116.72 76.5812 116.365 76.4835C116.01 76.3857 115.63 76.4328 115.309 76.6145Z" fill="#254059"/>
<path d="M116.829 87.2988C116.534 87.2992 116.245 87.2218 115.99 87.0744C115.735 86.927 115.523 86.7149 115.376 86.4594L112.638 81.7046L111.678 82.259C111.294 82.4648 110.845 82.5129 110.427 82.3933C110.008 82.2736 109.653 81.9956 109.435 81.6179C109.218 81.2402 109.155 80.7926 109.261 80.3697C109.368 79.9469 109.634 79.582 110.004 79.3522L115.176 76.3677C115.56 76.1455 116.017 76.0856 116.446 76.201C116.875 76.3165 117.241 76.5979 117.462 76.9834C117.684 77.3689 117.744 77.8268 117.629 78.2564C117.514 78.6861 117.233 79.0523 116.848 79.2744L115.545 80.0275L118.272 84.7823C118.419 85.037 118.496 85.326 118.497 85.6203C118.497 85.9145 118.42 86.2036 118.273 86.4586C118.127 86.7136 117.916 86.9254 117.662 87.0729C117.408 87.2204 117.119 87.2983 116.825 87.2988H116.829ZM112.741 81.0327C112.791 81.0325 112.84 81.0455 112.883 81.0704C112.926 81.0953 112.961 81.1311 112.986 81.1743L115.865 86.183C116.015 86.4321 116.256 86.6123 116.537 86.685C116.818 86.7578 117.117 86.7171 117.368 86.572C117.62 86.4268 117.804 86.1886 117.882 85.9085C117.96 85.6285 117.926 85.3289 117.786 85.0742L114.905 80.0655C114.867 80 114.858 79.9222 114.877 79.8494C114.897 79.7765 114.945 79.7145 115.01 79.6769L116.562 78.7822C116.688 78.7094 116.798 78.6125 116.887 78.4969C116.975 78.3813 117.04 78.2494 117.078 78.1087C117.116 77.9679 117.125 77.8211 117.106 77.6767C117.088 77.5322 117.04 77.3929 116.968 77.2666C116.895 77.1404 116.798 77.0298 116.683 76.941C116.568 76.8523 116.436 76.7872 116.295 76.7494C116.155 76.7116 116.008 76.7019 115.864 76.7209C115.72 76.7399 115.581 76.7871 115.455 76.8599L110.292 79.8444C110.037 79.9915 109.851 80.2337 109.775 80.518C109.699 80.8022 109.739 81.1051 109.886 81.36C110.032 81.6149 110.274 81.801 110.558 81.8773C110.842 81.9535 111.144 81.9138 111.398 81.7667L112.605 81.0759C112.646 81.05 112.693 81.0351 112.741 81.0327Z" fill="#0A1A33"/>
<path d="M134.238 78.7145C132.636 78.0807 130.761 79.0876 129.818 80.9046C127.842 80.9633 125.092 81.3761 122.701 83.7716C118.727 87.7544 115 94.7218 115 94.7218C115.421 94.0913 120.465 90.6094 126.378 90.6077L124.699 95.4143C124.182 96.8807 124.899 98.4731 126.251 99.0102C127.602 99.5474 129.214 98.8703 129.84 97.4558L135.728 84.0514C136.684 81.877 136.036 79.4227 134.238 78.7145Z" fill="#254059"/>
<path d="M127.21 99.5456C126.839 99.5464 126.47 99.4766 126.124 99.3401C124.585 98.7339 123.793 96.9221 124.361 95.2986L125.869 90.9703C120.244 91.1621 115.604 94.4557 115.296 94.9186C115.248 94.9992 115.169 95.0573 115.078 95.0802C114.987 95.103 114.891 95.0887 114.811 95.0404C114.73 94.992 114.672 94.9137 114.649 94.8225C114.626 94.7313 114.641 94.6348 114.689 94.5542C114.727 94.4851 118.482 87.4936 122.447 83.5212C124.899 81.0652 127.664 80.6351 129.598 80.5574C130.679 78.6575 132.701 77.7249 134.365 78.3829C134.782 78.5528 135.16 78.8062 135.475 79.1275C135.791 79.4489 136.038 79.8314 136.201 80.2517C136.691 81.4417 136.639 82.8786 136.061 84.193L130.167 97.5905C129.914 98.1669 129.501 98.6579 128.976 99.0047C128.452 99.3515 127.839 99.5393 127.21 99.5456ZM126.373 90.2536C126.43 90.2516 126.486 90.2639 126.538 90.2894C126.589 90.3148 126.633 90.3526 126.666 90.3994C126.699 90.4462 126.72 90.5004 126.727 90.5573C126.734 90.6141 126.726 90.6718 126.705 90.7251L125.028 95.5317C124.586 96.7995 125.2 98.2105 126.383 98.6803C127.566 99.1501 128.979 98.5335 129.519 97.2986L135.405 83.9029C135.898 82.7802 135.948 81.5142 135.537 80.5177C135.414 80.1856 135.224 79.8827 134.978 79.6279C134.732 79.3732 134.437 79.1722 134.11 79.0375C132.731 78.49 131.007 79.3604 130.133 81.0617C130.104 81.1181 130.061 81.1657 130.007 81.1992C129.954 81.2327 129.892 81.2509 129.829 81.2517C128.009 81.3052 125.314 81.6507 122.954 84.0151C120.195 86.7786 117.516 91.0671 116.185 93.3417C118.244 92.0343 122.142 90.2467 126.371 90.2467L126.373 90.2536Z" fill="#0A1A33"/>
<path d="M109.261 97.2333C108.318 96.3697 108.226 94.8343 109.102 93.7583L118.231 82.556C119.879 80.5335 122.508 79.8081 123.935 81.1121C125.363 82.4161 124.884 85.1053 123.025 86.9343L112.729 97.0727C111.741 98.0416 110.204 98.0952 109.261 97.2333Z" fill="#254059"/>
<path d="M110.871 98.2018C110.188 98.2073 109.528 97.9551 109.023 97.4954C107.921 96.4902 107.837 94.7492 108.826 93.5333L117.963 82.3311C119.012 81.0443 120.468 80.2153 121.858 80.1117C122.276 80.0578 122.7 80.0957 123.102 80.2225C123.504 80.3493 123.873 80.5621 124.185 80.8462C124.496 81.1302 124.743 81.4787 124.906 81.8675C125.07 82.2563 125.148 82.6761 125.133 83.0979C125.159 84.4934 124.47 86.0237 123.287 87.1878L112.991 97.3261C112.428 97.8873 111.665 98.2021 110.871 98.2018ZM122.134 80.8112C122.058 80.8112 121.982 80.8112 121.903 80.8112C120.722 80.8975 119.42 81.6488 118.505 82.7715L109.368 93.9737C108.614 94.8978 108.668 96.219 109.492 96.9617C110.314 97.713 111.624 97.6526 112.472 96.8114L122.768 86.6731C123.803 85.6575 124.425 84.2896 124.402 83.1031C124.41 82.7796 124.35 82.4581 124.227 82.159C124.104 81.8599 123.92 81.5897 123.687 81.3656C123.257 80.9915 122.703 80.7936 122.134 80.8112Z" fill="#0A1A33"/>
<path d="M97.4219 86.8497C100.823 86.6769 103.201 86.5319 103.528 86.4179C103.985 84.2538 108.75 77.4194 109.478 76.0256C110.09 75.0256 111.747 75.6457 111.547 76.7994C111.217 78.0464 110.767 80.7252 110.388 82.2295C110.426 82.2295 124.085 80.1932 124.118 80.1794C125.607 80.0067 126.38 81.7338 124.704 82.4886C121.127 83.3677 116.574 84.0707 115.567 84.3885L123.585 85.3056C124.204 85.3436 124.554 85.9187 124.58 86.5474C124.608 87.2383 124.218 87.9775 123.702 88.0051L116.153 87.9861L122.397 88.3212C123.528 88.5423 123.359 91.228 121.639 91.1295C119.884 91.0294 117.444 91.1036 115.432 91.1295H119.915C120.989 91.475 120.399 93.6443 119.277 93.4249L114.014 93.3576C112.172 93.608 107.371 95.0588 105.345 92.8826C105.345 92.8826 102.727 93.2902 98.82 93.8774" fill="#FFA18D"/>
<path d="M108.902 94.4539C107.5 94.4539 106.143 94.181 105.214 93.3019C104.537 93.4072 102.147 93.7751 98.8819 94.2674C98.8309 94.2762 98.7787 94.2747 98.7283 94.2631C98.6779 94.2514 98.6303 94.2297 98.5884 94.1994C98.5465 94.169 98.5111 94.1305 98.4842 94.0862C98.4573 94.0419 98.4396 93.9927 98.432 93.9415C98.4244 93.8902 98.4271 93.8379 98.44 93.7877C98.4529 93.7375 98.4756 93.6904 98.507 93.6492C98.5383 93.6079 98.5775 93.5734 98.6224 93.5476C98.6672 93.5217 98.7168 93.5051 98.7681 93.4988C102.628 92.9167 105.264 92.5074 105.29 92.5022C105.353 92.4924 105.417 92.4981 105.477 92.5189C105.537 92.5396 105.591 92.5748 105.635 92.6214C107.173 94.2743 110.69 93.5938 112.789 93.1879C113.25 93.0981 113.651 93.0152 113.969 92.9772H114.025L119.063 93.0411C119.161 93.0402 119.259 93.0477 119.356 93.0635V93.0514C119.725 93.1257 119.978 92.6784 120.058 92.3606C120.118 92.124 120.146 91.6697 119.849 91.5247H115.436C115.333 91.5247 115.234 91.4837 115.161 91.4108C115.089 91.3379 115.048 91.2391 115.048 91.136C115.048 91.033 115.089 90.9341 115.161 90.8612C115.234 90.7884 115.333 90.7474 115.436 90.7474L116.484 90.7284C118.22 90.6956 120.189 90.6576 121.656 90.7422C122.533 90.7889 122.69 89.8908 122.709 89.706C122.763 89.2794 122.637 88.7819 122.339 88.7025L116.132 88.3709C116.081 88.3695 116.031 88.3581 115.985 88.3373C115.938 88.3165 115.896 88.2868 115.861 88.2497C115.826 88.2127 115.798 88.1691 115.78 88.1214C115.762 88.0737 115.753 88.0229 115.755 87.9719C115.756 87.9209 115.767 87.8706 115.788 87.824C115.809 87.7773 115.839 87.7353 115.876 87.7002C115.913 87.665 115.956 87.6376 116.004 87.6193C116.051 87.601 116.102 87.5923 116.153 87.5937L123.688 87.6127C123.926 87.5885 124.206 87.0807 124.19 86.5591C124.173 86.1446 123.971 85.7145 123.559 85.6955H123.538L115.522 84.7784C115.434 84.7684 115.351 84.7284 115.289 84.6651C115.227 84.6017 115.188 84.5188 115.179 84.4302C115.171 84.3417 115.193 84.2528 115.241 84.1785C115.29 84.1042 115.363 84.0489 115.448 84.0219C115.922 83.8699 117.089 83.6489 118.568 83.3691C120.373 83.0236 122.618 82.6005 124.578 82.1186C125.095 81.8768 125.343 81.5141 125.242 81.1462C125.15 80.8008 124.749 80.4985 124.164 80.5659C123.809 80.6281 122.108 80.882 113.07 82.2257L110.453 82.616C110.39 82.6258 110.325 82.6198 110.265 82.5985C110.204 82.5773 110.15 82.5414 110.107 82.4941C110.063 82.4468 110.032 82.3895 110.017 82.3273C110.001 82.2651 110 82.2 110.015 82.1376C110.202 81.3984 110.407 80.3638 110.605 79.3621C110.81 78.3258 111.002 77.3603 111.171 76.7213C111.191 76.5596 111.154 76.3959 111.066 76.259C110.977 76.1222 110.843 76.021 110.688 75.9734C110.538 75.9067 110.37 75.8948 110.212 75.94C110.054 75.9852 109.918 76.0844 109.826 76.2204C109.597 76.6539 109.033 77.5348 108.322 78.6384C106.69 81.1877 104.225 85.0392 103.918 86.4917C103.904 86.5572 103.873 86.618 103.829 86.6682C103.785 86.7184 103.729 86.7564 103.666 86.7785C103.514 86.8303 103.163 86.9512 97.451 87.231C97.3954 87.2449 97.3375 87.2464 97.2813 87.2352C97.2251 87.2241 97.1721 87.2006 97.1261 87.1665C97.08 87.1324 97.0421 87.0885 97.015 87.038C96.9879 86.9875 96.9723 86.9315 96.9693 86.8743C96.9663 86.817 96.976 86.7597 96.9977 86.7066C97.0194 86.6536 97.0526 86.606 97.0949 86.5672C97.1371 86.5285 97.1874 86.4997 97.2421 86.4827C97.2969 86.4658 97.3546 86.4612 97.4113 86.4693C101.437 86.2741 102.78 86.1532 103.221 86.0928C103.738 84.3812 105.993 80.8474 107.667 78.2325C108.348 77.1686 108.935 76.2515 109.143 75.8525L109.157 75.8301C109.348 75.5433 109.63 75.3297 109.957 75.224C110.285 75.1183 110.638 75.1266 110.96 75.2477C111.282 75.3688 111.554 75.5956 111.731 75.891C111.908 76.1864 111.981 76.5332 111.936 76.875C111.936 76.8871 111.936 76.8974 111.927 76.9078C111.765 77.5227 111.583 78.4916 111.371 79.5193C111.215 80.2965 111.057 81.0961 110.905 81.7645L112.96 81.4588C116.742 80.8958 123.768 79.8509 124.049 79.8042C124.059 79.8026 124.07 79.8026 124.08 79.8042C125.1 79.6851 125.816 80.2913 125.995 80.9511C126.154 81.5227 125.952 82.3656 124.869 82.8509C124.849 82.861 124.827 82.8685 124.804 82.8734C122.814 83.3622 120.542 83.7939 118.716 84.1411L117.965 84.2844L123.623 84.9321C124.382 84.9839 124.935 85.6454 124.969 86.5453C125.004 87.3916 124.502 88.364 123.728 88.4071H123.178C123.458 88.8209 123.57 89.3266 123.488 89.82C123.376 90.7181 122.754 91.5972 121.621 91.5316C121.359 91.516 121.08 91.5056 120.79 91.497C120.905 91.8398 120.915 92.2092 120.818 92.5575C120.634 93.2915 120.039 93.9565 119.254 93.8269L114.051 93.7613C113.755 93.8027 113.379 93.8753 112.945 93.9582C111.822 94.1655 110.341 94.4522 108.902 94.4539Z" fill="#0A1A33"/>
<path d="M68.9215 74.3329C69.0456 78.1171 67.1389 87.6683 69.0404 88.7874C71.5264 90.2486 102.043 84.758 102.043 84.758L103.201 94.5561C79.1724 101.444 58.0517 109.486 55.3192 93.7634C53.7676 84.8409 54.5244 72.6922 54.5244 72.6922C54.5554 68.8251 55.4295 61.6056 66.2131 54.6279" fill="#63D6D4"/>
<path d="M67.6237 103.233C64.3981 103.233 61.6604 102.679 59.5329 101.354C57.0521 99.8098 55.5488 97.3486 54.9385 93.8286C53.4179 85.0806 54.111 73.1029 54.1368 72.6797C54.1575 70.0061 54.2386 61.9127 66.0031 54.3012C66.0895 54.2477 66.1934 54.2303 66.2924 54.2527C66.3915 54.2751 66.4778 54.3356 66.5328 54.421C66.5879 54.5065 66.6073 54.6102 66.5869 54.7098C66.5665 54.8095 66.508 54.8972 66.4238 54.954C54.9971 62.3479 54.9333 70.1356 54.9126 72.6953C54.9135 72.7022 54.9135 72.7091 54.9126 72.716C54.9126 72.8369 54.1799 84.9235 55.704 93.6957C56.2746 96.9772 57.6624 99.2726 59.945 100.694C66.6961 104.898 80.3071 100.884 96.0679 96.2363C98.2522 95.5921 100.509 94.9254 102.779 94.2742L101.709 85.2119C100.024 85.5107 93.356 86.6817 86.5376 87.7042C70.5217 90.1049 69.2632 89.3657 68.8494 89.1222C67.4702 88.3087 67.6978 84.7508 68.2098 79.4156C68.4012 77.438 68.5805 75.5693 68.5391 74.3447C68.5375 74.2937 68.5459 74.2428 68.564 74.195C68.582 74.1473 68.6092 74.1035 68.6441 74.0663C68.679 74.0291 68.7209 73.9991 68.7674 73.9782C68.8138 73.9572 68.864 73.9456 68.9149 73.944C68.9658 73.9419 69.0167 73.95 69.0644 73.9678C69.1122 73.9856 69.156 74.0127 69.1932 74.0476C69.2304 74.0824 69.2603 74.1244 69.2812 74.1709C69.3021 74.2175 69.3136 74.2678 69.3149 74.3188C69.3563 75.5934 69.1753 77.4864 68.9822 79.4899C68.6374 83.0081 68.1822 87.8285 69.2425 88.452C69.6752 88.7059 72.2129 89.0652 86.4221 86.9356C94.2663 85.7611 101.904 84.3881 101.979 84.3742C102.032 84.3649 102.086 84.3667 102.138 84.3793C102.191 84.3919 102.239 84.4151 102.282 84.4475C102.325 84.48 102.36 84.5209 102.387 84.5677C102.413 84.6145 102.429 84.6663 102.435 84.7197L103.593 94.5195C103.604 94.6113 103.581 94.7038 103.53 94.7806C103.479 94.8575 103.402 94.9137 103.314 94.9392C100.94 95.6197 98.5763 96.3209 96.2902 96.9911C85.1567 100.264 75.0868 103.233 67.6237 103.233Z" fill="#0A1A33"/>
<path d="M136.837 88.1972L130.286 87.1868C129.915 87.1285 129.583 86.9255 129.361 86.6223C129.139 86.3191 129.046 85.9402 129.102 85.5684C129.16 85.1967 129.362 84.863 129.665 84.6403C129.967 84.4176 130.346 84.3241 130.717 84.3802L137.268 85.3923C137.639 85.4501 137.972 85.653 138.194 85.9563C138.416 86.2596 138.509 86.6388 138.453 87.0106C138.395 87.3823 138.193 87.7158 137.89 87.9382C137.587 88.1606 137.209 88.2537 136.837 88.1972Z" fill="#FFA18D"/>
<path d="M137.063 88.5418C136.974 88.5417 136.885 88.5348 136.796 88.5211L130.245 87.5107C130.015 87.48 129.793 87.4037 129.593 87.2861C129.393 87.1685 129.218 87.012 129.079 86.8259C128.94 86.6398 128.839 86.4277 128.783 86.2021C128.726 85.9765 128.715 85.7419 128.751 85.5121C128.786 85.2823 128.867 85.0618 128.988 84.8636C129.11 84.6655 129.269 84.4936 129.458 84.358C129.647 84.2224 129.86 84.1259 130.087 84.0742C130.313 84.0224 130.547 84.0164 130.776 84.0564L137.327 85.0668C137.757 85.1389 138.145 85.3696 138.414 85.7135C138.682 86.0573 138.813 86.4895 138.78 86.9251C138.747 87.3606 138.553 87.7681 138.235 88.0672C137.917 88.3664 137.499 88.5357 137.063 88.5418ZM136.891 87.8717C137.032 87.8935 137.176 87.8872 137.315 87.8531C137.454 87.8191 137.585 87.758 137.7 87.6733C137.815 87.5886 137.913 87.482 137.987 87.3596C138.061 87.2372 138.11 87.1013 138.132 86.9598C138.154 86.8182 138.148 86.6738 138.114 86.5347C138.08 86.3956 138.019 86.2646 137.934 86.1491C137.85 86.0337 137.743 85.936 137.621 85.8617C137.499 85.7874 137.363 85.738 137.222 85.7162L130.671 84.7059C130.385 84.6619 130.094 84.7332 129.862 84.9043C129.629 85.0753 129.473 85.3319 129.429 85.6178C129.386 85.9036 129.457 86.1952 129.628 86.4284C129.798 86.6616 130.054 86.8174 130.34 86.8613L136.891 87.8717Z" fill="#0A1A33"/>
<path d="M136.869 91.7401L129.598 91.1477C129.187 91.1129 128.807 90.9167 128.54 90.6018C128.273 90.287 128.141 89.8791 128.173 89.4671C128.207 89.0548 128.403 88.6728 128.718 88.4048C129.032 88.1368 129.44 88.0046 129.852 88.0371L137.12 88.6295C137.531 88.6638 137.912 88.8599 138.18 89.1748C138.447 89.4896 138.58 89.8978 138.548 90.31C138.513 90.7223 138.317 91.1043 138.003 91.3723C137.688 91.6403 137.28 91.7726 136.869 91.7401Z" fill="#FFA18D"/>
<path d="M136.996 92.1083C136.944 92.1083 136.892 92.1083 136.839 92.1083L129.569 91.5176C129.071 91.4649 128.613 91.2191 128.293 90.8326C127.973 90.4462 127.817 89.9498 127.858 89.4496C127.899 88.9493 128.133 88.4848 128.511 88.1554C128.889 87.826 129.381 87.6579 129.881 87.6868L137.149 88.2775C137.642 88.3193 138.099 88.5498 138.426 88.921C138.753 89.2921 138.924 89.7753 138.904 90.2698C138.885 90.7644 138.675 91.2323 138.32 91.576C137.964 91.9198 137.49 92.1129 136.996 92.1152V92.1083ZM129.724 88.3966C129.496 88.397 129.273 88.4628 129.081 88.5861C128.889 88.7094 128.736 88.8851 128.64 89.0926C128.544 89.3001 128.51 89.5307 128.541 89.7571C128.571 89.9836 128.666 90.1965 128.814 90.3708C129.02 90.6123 129.312 90.763 129.628 90.7905L136.898 91.3812C137.214 91.407 137.528 91.3059 137.77 91.1001C138.012 90.8943 138.162 90.6005 138.188 90.2835C138.214 89.9666 138.113 89.6523 137.908 89.4099C137.702 89.1674 137.409 89.0167 137.092 88.9908L129.822 88.4001C129.79 88.3972 129.757 88.3961 129.724 88.3966Z" fill="#0A1A33"/>
<path d="M135.945 94.6167L129.332 94.0796C128.958 94.0479 128.612 93.8691 128.369 93.5824C128.126 93.2957 128.006 92.9242 128.036 92.5493C128.067 92.1747 128.245 91.8277 128.531 91.5843C128.817 91.3409 129.187 91.2209 129.561 91.2505L136.175 91.7877C136.549 91.8194 136.895 91.9981 137.138 92.2848C137.381 92.5716 137.501 92.943 137.471 93.3179C137.44 93.6925 137.262 94.0395 136.976 94.2829C136.69 94.5263 136.319 94.6463 135.945 94.6167Z" fill="#FFA18D"/>
<path d="M136.061 94.9494H135.918L129.305 94.414C128.844 94.3764 128.416 94.1568 128.116 93.8034C127.817 93.45 127.669 92.9919 127.707 92.5297C127.744 92.0675 127.964 91.6391 128.316 91.3389C128.669 91.0386 129.126 90.891 129.588 90.9286L136.199 91.4658C136.65 91.5005 137.069 91.7088 137.369 92.0469C137.669 92.385 137.827 92.8264 137.808 93.2784C137.79 93.7305 137.598 94.1579 137.272 94.4708C136.946 94.7837 136.511 94.9578 136.06 94.9563L136.061 94.9494ZM129.446 91.5728C129.168 91.5775 128.902 91.6887 128.703 91.8836C128.504 92.0785 128.387 92.3424 128.376 92.621C128.365 92.8996 128.461 93.1719 128.644 93.382C128.827 93.5921 129.083 93.724 129.36 93.7508L135.972 94.2879C136.115 94.3003 136.259 94.2843 136.395 94.2407C136.532 94.1971 136.659 94.1268 136.769 94.0339C136.878 93.941 136.968 93.8273 137.034 93.6994C137.099 93.5715 137.139 93.4318 137.15 93.2885C137.161 93.1452 137.144 93.001 137.1 92.8643C137.055 92.7277 136.984 92.6011 136.891 92.4921C136.797 92.383 136.683 92.2936 136.555 92.2289C136.427 92.1642 136.287 92.1255 136.144 92.1152L129.533 91.5763L129.446 91.5728Z" fill="#0A1A33"/>
<path d="M134.783 97.0432L128.921 96.5647C128.615 96.5392 128.331 96.3931 128.132 96.1584C127.933 95.9237 127.835 95.6195 127.859 95.3125C127.885 95.0058 128.031 94.7218 128.265 94.5225C128.499 94.3232 128.803 94.2247 129.109 94.2486L134.971 94.7271C135.277 94.7526 135.561 94.8987 135.76 95.1334C135.959 95.3681 136.057 95.6722 136.033 95.9792C136.007 96.2862 135.861 96.5704 135.627 96.7698C135.393 96.9692 135.089 97.0675 134.783 97.0432Z" fill="#FFA18D"/>
<path d="M134.881 97.3246H134.762L128.9 96.8462C128.52 96.8153 128.169 96.6345 127.922 96.3436C127.675 96.0527 127.554 95.6756 127.585 95.2952C127.616 94.9148 127.796 94.5622 128.086 94.3151C128.377 94.0679 128.753 93.9465 129.133 93.9774L134.995 94.4558C135.367 94.4814 135.716 94.6516 135.965 94.9303C136.215 95.2089 136.346 95.5741 136.331 95.9482C136.316 96.3223 136.157 96.6758 135.886 96.9338C135.615 97.1918 135.254 97.3338 134.881 97.3298V97.3246ZM129.009 94.5232C128.778 94.5182 128.554 94.6044 128.385 94.7631C128.217 94.9218 128.117 95.1404 128.108 95.3719C128.099 95.6033 128.181 95.8292 128.336 96.0009C128.491 96.1726 128.707 96.2764 128.938 96.29L134.8 96.7667C134.974 96.7816 135.149 96.7441 135.302 96.6591C135.455 96.5741 135.579 96.4454 135.658 96.2895C135.738 96.1335 135.77 95.9573 135.749 95.7833C135.729 95.6093 135.657 95.4454 135.543 95.3125C135.469 95.2232 135.377 95.1498 135.274 95.0967C135.171 95.0435 135.058 95.0118 134.943 95.0033L129.081 94.5249L129.009 94.5232Z" fill="#0A1A33"/>
<path d="M32.0234 132.596V142.701L39.6452 146.969V137.313L32.0234 132.596Z" fill="#94BBE0"/>
<path d="M39.6454 147.349C39.5802 147.349 39.5161 147.332 39.4592 147.3L31.8374 143.034C31.7785 143.001 31.7295 142.952 31.6953 142.894C31.6611 142.835 31.6429 142.769 31.6426 142.701V132.595C31.6429 132.527 31.6612 132.461 31.6958 132.402C31.7303 132.343 31.7798 132.295 31.8391 132.262C31.8977 132.229 31.9639 132.211 32.0313 132.211C32.0988 132.211 32.165 132.229 32.2236 132.262L39.8453 136.979C39.8992 137.014 39.9432 137.062 39.9734 137.119C40.0035 137.176 40.0188 137.239 40.0177 137.304V146.96C40.0177 147.061 39.9778 147.157 39.9067 147.229C39.8355 147.3 39.7391 147.34 39.6385 147.34L39.6454 147.349ZM32.4046 142.478L39.2661 146.319V137.525L32.4029 133.276L32.4046 142.478Z" fill="#0A1A33"/>
<path d="M32.0241 132.596V142.701L24.4023 146.969V137.313L32.0241 132.596Z" fill="#94BBE0"/>
<path d="M24.4028 147.348C24.335 147.348 24.2684 147.33 24.2097 147.296C24.1529 147.262 24.1059 147.214 24.0733 147.157C24.0406 147.099 24.0235 147.034 24.0235 146.968V137.311C24.0224 137.247 24.0377 137.184 24.0679 137.127C24.098 137.07 24.1421 137.022 24.1959 136.987L31.8177 132.27C31.8762 132.236 31.9425 132.219 32.0099 132.219C32.0773 132.219 32.1436 132.236 32.2021 132.27C32.2613 132.303 32.3105 132.351 32.3447 132.41C32.379 132.469 32.397 132.535 32.3969 132.603V142.709C32.397 142.777 32.379 142.843 32.3447 142.902C32.3105 142.96 32.2613 143.009 32.2021 143.042L24.5821 147.308C24.5264 147.336 24.4649 147.349 24.4028 147.348ZM24.782 137.524V146.318L31.6435 142.477V133.275L24.782 137.524Z" fill="#0A1A33"/>
<path d="M24.4023 146.968L32.0241 151.683L39.6459 146.968L32.0241 142.7L24.4023 146.968Z" fill="#94BBE0"/>
<path d="M32.0229 152.065C31.9523 152.065 31.8831 152.045 31.8229 152.008L24.2012 147.291C24.145 147.256 24.099 147.207 24.0675 147.149C24.036 147.09 24.0202 147.025 24.0216 146.959C24.023 146.893 24.0415 146.828 24.0754 146.771C24.1093 146.714 24.1574 146.667 24.215 146.635L31.8367 142.369C31.8932 142.336 31.9571 142.319 32.0221 142.319C32.0871 142.319 32.1509 142.336 32.2074 142.369L39.8292 146.635C39.8868 146.667 39.935 146.714 39.9691 146.771C40.0031 146.827 40.0219 146.892 40.0234 146.958C40.025 147.025 40.0094 147.09 39.978 147.148C39.9467 147.207 39.9007 147.256 39.8447 147.291L32.2229 152.008C32.1628 152.045 32.0936 152.065 32.0229 152.065ZM25.1511 146.983L32.0229 151.237L38.8948 146.985L32.0229 143.139L25.1511 146.983Z" fill="#0A1A33"/>
<path d="M3.19141 129.223L7.33589 135.508L13.8267 135.025L9.86499 129.02L3.19141 129.223Z" fill="#94BBE0"/>
<path d="M7.33692 135.889C7.27388 135.889 7.21187 135.873 7.15648 135.843C7.1011 135.813 7.05409 135.769 7.0197 135.716L2.88211 129.431C2.8445 129.375 2.82269 129.309 2.81894 129.241C2.81519 129.174 2.82964 129.106 2.8608 129.046C2.89195 128.985 2.93866 128.935 2.99608 128.899C3.05349 128.862 3.11951 128.842 3.18726 128.841L9.86257 128.637C9.92724 128.636 9.99112 128.651 10.0484 128.681C10.1056 128.711 10.1543 128.756 10.1901 128.809L14.1553 134.815C14.1916 134.87 14.2128 134.934 14.217 135.001C14.2213 135.067 14.2083 135.133 14.1795 135.193C14.1501 135.253 14.1057 135.303 14.0506 135.34C13.9956 135.377 13.9318 135.399 13.8657 135.404L7.37485 135.889H7.33692ZM3.88893 129.583L7.53518 135.11L13.1571 134.692L9.66086 129.407L3.88893 129.583Z" fill="#0A1A33"/>
<path d="M3.19166 129.224L7.33614 135.509L4.34674 141.3L0.386719 135.293L3.19166 129.224Z" fill="#94BBE0"/>
<path d="M4.3468 141.679C4.28376 141.679 4.22175 141.663 4.16636 141.633C4.11098 141.603 4.06397 141.56 4.02958 141.507L0.0643947 135.501C0.0280934 135.447 0.00631606 135.385 0.00118039 135.32C-0.00395528 135.256 0.00772546 135.191 0.0350868 135.132L2.84175 129.061C2.87039 128.999 2.91478 128.947 2.97038 128.908C3.02597 128.87 3.09078 128.847 3.15815 128.842C3.22552 128.837 3.29303 128.85 3.35376 128.879C3.4145 128.909 3.46627 128.954 3.50377 129.011L7.64135 135.296C7.6788 135.352 7.70047 135.418 7.70411 135.485C7.70774 135.553 7.69322 135.621 7.66204 135.681L4.67263 141.472C4.64216 141.531 4.59687 141.581 4.54124 141.617C4.48561 141.653 4.42157 141.674 4.35542 141.678L4.3468 141.679ZM0.819505 135.261L4.31577 140.548L6.90176 135.539L3.25551 130.012L0.819505 135.261Z" fill="#0A1A33"/>
<path d="M4.34766 141.3L11.0212 141.095L13.8279 135.025L7.33706 135.509L4.34766 141.3Z" fill="#94BBE0"/>
<path d="M4.34707 141.679C4.28108 141.681 4.21585 141.665 4.1578 141.634C4.09975 141.602 4.0509 141.556 4.01607 141.5C3.98125 141.444 3.96166 141.38 3.95924 141.313C3.95682 141.247 3.97165 141.182 4.00227 141.123L6.99167 135.332C7.02164 135.274 7.06592 135.225 7.12026 135.19C7.1746 135.154 7.23717 135.133 7.30199 135.128L13.7911 134.645C13.8572 134.639 13.9235 134.652 13.9834 134.68C14.0433 134.708 14.0948 134.752 14.1326 134.807C14.1705 134.861 14.1934 134.925 14.1991 134.991C14.2048 135.057 14.1931 135.123 14.1652 135.184L11.3654 141.255C11.3358 141.319 11.289 141.373 11.2303 141.412C11.1716 141.451 11.1032 141.473 11.0327 141.476L4.35913 141.679H4.34707ZM7.57611 135.866L4.99012 140.894L10.7827 140.721L13.2187 135.451L7.57611 135.866Z" fill="#0A1A33"/>
<path d="M167.83 81.2319C167.866 80.2797 167.125 79.4783 166.175 79.4418C165.224 79.4054 164.424 80.1478 164.388 81.1001C164.352 82.0523 165.093 82.8537 166.043 82.8902C166.994 82.9266 167.794 82.1842 167.83 81.2319Z" fill="#72A5D7"/>
<path d="M166.097 83.0933C165.763 83.0926 165.434 83.0054 165.143 82.8401C164.852 82.6747 164.608 82.4368 164.436 82.1495C164.263 81.8621 164.168 81.535 164.159 81.1999C164.15 80.8648 164.227 80.533 164.384 80.2366C164.532 79.953 164.748 79.7105 165.013 79.5307C165.278 79.3508 165.582 79.2393 165.9 79.2059C166.218 79.1725 166.54 79.2183 166.836 79.3393C167.132 79.4602 167.393 79.6525 167.597 79.8991C167.801 80.1457 167.941 80.439 168.005 80.7529C168.069 81.0668 168.054 81.3916 167.962 81.6984C167.87 82.0052 167.704 82.2846 167.479 82.5117C167.253 82.7387 166.976 82.9065 166.67 83C166.485 83.0591 166.292 83.0906 166.097 83.0933ZM166.097 79.639C165.824 79.6391 165.556 79.7138 165.321 79.855C165.087 79.9961 164.895 80.1985 164.766 80.4404C164.674 80.6153 164.617 80.8067 164.598 81.0036C164.58 81.2006 164.6 81.3993 164.658 81.5884C164.717 81.7775 164.811 81.9533 164.937 82.1057C165.063 82.2581 165.218 82.3842 165.392 82.4767C165.567 82.5693 165.758 82.6264 165.954 82.645C166.151 82.6636 166.349 82.6432 166.538 82.585C166.727 82.5268 166.902 82.4319 167.054 82.3057C167.207 82.1796 167.332 82.0246 167.425 81.8498C167.546 81.6203 167.605 81.3635 167.598 81.1042C167.591 80.8449 167.517 80.5918 167.383 80.3696C167.25 80.1473 167.061 79.9633 166.836 79.8353C166.611 79.7073 166.356 79.6397 166.097 79.639Z" fill="#0A1A33"/>
<path d="M172.864 68.3465C172.581 68.1961 172.26 68.1331 171.941 68.1655C171.623 68.198 171.321 68.3244 171.074 68.5288C170.827 68.7332 170.646 69.0065 170.554 69.3139C170.462 69.6213 170.464 69.9491 170.558 70.2558C170.652 70.5625 170.835 70.8343 171.083 71.0369C171.332 71.2395 171.635 71.3636 171.954 71.3937C172.272 71.4238 172.593 71.3584 172.875 71.2058C173.157 71.0532 173.387 70.8203 173.537 70.5366C173.636 70.3485 173.697 70.1428 173.717 69.9309C173.737 69.7191 173.716 69.5054 173.653 69.302C173.591 69.0987 173.489 68.9096 173.354 68.7457C173.218 68.5817 173.052 68.4461 172.864 68.3465ZM171.657 70.6247C171.49 70.536 171.354 70.3998 171.264 70.2332C171.174 70.0666 171.136 69.8771 171.154 69.6887C171.172 69.5003 171.245 69.3215 171.364 69.1748C171.484 69.0281 171.644 68.9202 171.824 68.8646C172.005 68.809 172.198 68.8084 172.379 68.8627C172.56 68.917 172.721 69.0239 172.841 69.1697C172.961 69.3156 173.036 69.4939 173.055 69.6822C173.074 69.8705 173.037 70.0602 172.949 70.2274C172.83 70.4512 172.628 70.6187 172.386 70.6932C172.144 70.7676 171.883 70.743 171.659 70.6247H171.657Z" fill="#72A5D7"/>
<path d="M172.104 71.6155C171.788 71.6153 171.476 71.533 171.201 71.3767C170.925 71.2205 170.695 70.9955 170.532 70.7237C170.369 70.4519 170.279 70.1424 170.27 69.8254C170.262 69.5083 170.335 69.1945 170.484 68.9143C170.712 68.4836 171.102 68.1611 171.567 68.0174C172.032 67.8737 172.535 67.9205 172.966 68.1474C173.329 68.3399 173.617 68.6485 173.784 69.024C173.951 69.3995 173.988 69.8203 173.889 70.2193C173.79 70.6183 173.56 70.9725 173.237 71.2256C172.913 71.4787 172.515 71.6159 172.104 71.6155ZM172.104 68.3737C171.885 68.3731 171.669 68.4242 171.473 68.5228C171.277 68.6214 171.107 68.7647 170.977 68.9412C170.846 69.1177 170.759 69.3224 170.722 69.5388C170.686 69.7553 170.7 69.9774 170.765 70.1872C170.874 70.542 171.12 70.8388 171.447 71.0126C171.775 71.1864 172.158 71.2231 172.513 71.1147C172.834 71.017 173.109 70.807 173.288 70.523C173.467 70.239 173.539 69.8999 173.489 69.5675C173.44 69.2351 173.273 68.9317 173.018 68.7126C172.764 68.4934 172.44 68.3731 172.104 68.3737ZM172.104 70.9506C171.913 70.9509 171.726 70.904 171.558 70.8141C171.304 70.6797 171.108 70.4567 171.006 70.1874C170.905 69.918 170.906 69.6208 171.009 69.352C171.111 69.0832 171.309 68.8613 171.563 68.7283C171.818 68.5952 172.112 68.5601 172.391 68.6297C172.67 68.6993 172.914 68.8687 173.076 69.106C173.239 69.3432 173.309 69.6319 173.274 69.9175C173.238 70.2032 173.1 70.4659 172.884 70.6562C172.669 70.8466 172.391 70.9513 172.104 70.9506ZM171.759 70.4324C171.845 70.4778 171.938 70.5059 172.035 70.515C172.131 70.5242 172.228 70.5142 172.32 70.4857C172.413 70.4573 172.499 70.4108 172.573 70.3491C172.648 70.2873 172.71 70.2115 172.755 70.1259C172.8 70.0403 172.828 69.9465 172.837 69.8501C172.846 69.7536 172.837 69.6563 172.808 69.5637C172.78 69.471 172.733 69.3849 172.672 69.3103C172.61 69.2356 172.534 69.1738 172.449 69.1284C172.364 69.0824 172.27 69.054 172.174 69.0448C172.078 69.0356 171.981 69.0458 171.889 69.0749C171.749 69.1177 171.626 69.201 171.534 69.3142C171.441 69.4274 171.385 69.5655 171.371 69.7109C171.358 69.8563 171.387 70.0025 171.457 70.131C171.526 70.2594 171.632 70.3643 171.761 70.4324H171.759Z" fill="#0A1A33"/>
<path d="M172.221 81.5547C171.961 80.1609 171.997 78.1678 173.255 75.4907C173.685 74.6134 173.753 73.6021 173.445 72.6749C173.137 71.7478 172.477 70.9792 171.608 70.5353C170.739 70.0913 169.731 70.0074 168.801 70.3019C167.871 70.5963 167.093 71.2454 166.637 72.1089C165.397 74.3749 163.954 75.5494 162.653 76.1867C161.643 76.6807 160.848 76.786 160.713 77.3094C160.541 78.0002 161.56 79.1971 165.918 81.4079C168.535 82.8518 171.564 84.2663 172.311 83.4097C172.643 83.0314 172.376 82.3872 172.221 81.5547Z" fill="#72A5D7"/>
<path d="M171.578 83.8925C170.7 83.8925 169.057 83.3882 165.814 81.5988C160.722 79.0081 160.344 77.882 160.504 77.2551C160.625 76.7836 161.106 76.5936 161.711 76.3518C161.965 76.2499 162.251 76.1359 162.554 75.9873C164.106 75.2309 165.411 73.8906 166.444 72.0028C166.918 71.0711 167.743 70.3664 168.736 70.0438C169.729 69.7212 170.81 69.8071 171.74 70.2826C172.67 70.7581 173.373 71.5842 173.695 72.5792C174.017 73.5742 173.931 74.6567 173.457 75.5884C172.445 77.7352 172.102 79.7335 172.436 81.5194C172.471 81.6921 172.51 81.8752 172.547 82.0375C172.686 82.6507 172.809 83.1809 172.479 83.5592C172.322 83.7336 172.071 83.8925 171.578 83.8925ZM169.954 70.3482C169.313 70.3468 168.685 70.5196 168.135 70.8481C167.585 71.1767 167.135 71.6486 166.832 72.2135C165.756 74.1825 164.383 75.5849 162.753 76.3829C162.434 76.5383 162.139 76.6557 161.877 76.7594C161.313 76.9822 160.991 77.1221 160.929 77.3639C160.822 77.7818 161.341 78.8389 166.02 81.212C170.674 83.7785 171.857 83.6006 172.148 83.2638C172.331 83.0548 172.238 82.6472 172.121 82.1308C172.081 81.9581 172.041 81.7854 172.005 81.5937C171.66 79.7128 172.005 77.6212 173.06 75.3967C173.471 74.5773 173.543 73.629 173.262 72.7565C172.981 71.884 172.368 71.1574 171.557 70.7334C171.061 70.4776 170.511 70.3455 169.954 70.3482Z" fill="#0A1A33"/>
<path d="M144.912 97.8174C145.034 97.0034 144.475 96.2442 143.662 96.1217C142.85 95.9991 142.092 96.5597 141.969 97.3737C141.847 98.1878 142.407 98.947 143.219 99.0695C144.032 99.192 144.79 98.6315 144.912 97.8174Z" fill="#72A5D7"/>
<path d="M143.443 99.3201C143.106 99.3201 142.776 99.2199 142.495 99.032C142.214 98.8441 141.995 98.577 141.866 98.2646C141.737 97.9522 141.703 97.6084 141.769 97.2767C141.835 96.945 141.998 96.6403 142.236 96.4012C142.475 96.1621 142.779 95.9992 143.11 95.9332C143.441 95.8673 143.784 95.9011 144.096 96.0305C144.408 96.16 144.675 96.3791 144.862 96.6603C145.05 96.9415 145.15 97.2721 145.15 97.6103C145.149 98.0636 144.969 98.4983 144.649 98.8188C144.329 99.1394 143.896 99.3197 143.443 99.3201ZM143.443 96.3391C143.192 96.3391 142.947 96.4136 142.738 96.5533C142.529 96.693 142.367 96.8915 142.271 97.1238C142.175 97.3561 142.15 97.6117 142.199 97.8583C142.248 98.1048 142.368 98.3313 142.546 98.5091C142.723 98.6869 142.949 98.808 143.196 98.857C143.442 98.9061 143.697 98.8809 143.929 98.7847C144.161 98.6885 144.359 98.5255 144.498 98.3165C144.638 98.1074 144.712 97.8617 144.712 97.6103C144.712 97.2731 144.578 96.9498 144.34 96.7114C144.102 96.473 143.78 96.3391 143.443 96.3391Z" fill="#0A1A33"/>
<path d="M165.607 97.9382C165.796 97.137 165.3 96.3342 164.501 96.1451C163.701 95.9561 162.9 96.4522 162.711 97.2534C162.522 98.0546 163.017 98.8574 163.817 99.0465C164.617 99.2356 165.418 98.7394 165.607 97.9382Z" fill="#72A5D7"/>
<path d="M164.164 99.3201C163.826 99.3201 163.496 99.2199 163.216 99.032C162.935 98.8441 162.716 98.577 162.587 98.2646C162.458 97.9522 162.424 97.6084 162.49 97.2767C162.556 96.945 162.718 96.6403 162.957 96.4012C163.196 96.1621 163.5 95.9992 163.831 95.9332C164.162 95.8673 164.505 95.9011 164.817 96.0305C165.129 96.16 165.395 96.3791 165.583 96.6603C165.77 96.9415 165.871 97.2721 165.871 97.6103C165.87 98.0636 165.69 98.4983 165.37 98.8188C165.05 99.1394 164.616 99.3197 164.164 99.3201ZM164.164 96.3391C163.913 96.3391 163.668 96.4136 163.459 96.5533C163.25 96.693 163.088 96.8915 162.992 97.1238C162.895 97.3561 162.87 97.6117 162.919 97.8583C162.968 98.1048 163.089 98.3313 163.267 98.5091C163.444 98.6869 163.67 98.808 163.916 98.857C164.162 98.9061 164.418 98.8809 164.649 98.7847C164.881 98.6885 165.079 98.5255 165.219 98.3165C165.358 98.1074 165.433 97.8617 165.433 97.6103C165.432 97.2733 165.298 96.9502 165.06 96.7119C164.823 96.4736 164.5 96.3395 164.164 96.3391Z" fill="#0A1A33"/>
<path d="M147.78 94.6826H144.64C143.965 94.6826 143.418 95.2309 143.418 95.9072V99.3148C143.418 99.9911 143.965 100.539 144.64 100.539H147.78C148.455 100.539 149.002 99.9911 149.002 99.3148V95.9072C149.002 95.2309 148.455 94.6826 147.78 94.6826Z" fill="#72A5D7"/>
<path d="M147.781 100.757H144.648C144.266 100.757 143.9 100.605 143.63 100.334C143.36 100.064 143.207 99.6971 143.207 99.3144V95.9051C143.207 95.5224 143.36 95.1556 143.63 94.8852C143.9 94.6148 144.266 94.4629 144.648 94.4629H147.789C148.171 94.4629 148.538 94.6148 148.808 94.8852C149.078 95.1556 149.23 95.5224 149.231 95.9051V99.3144C149.23 99.5046 149.193 99.6929 149.12 99.8685C149.047 100.044 148.94 100.203 148.805 100.337C148.67 100.471 148.51 100.577 148.335 100.649C148.159 100.721 147.971 100.758 147.781 100.757ZM144.648 94.9016C144.382 94.9016 144.128 95.0073 143.939 95.1954C143.751 95.3835 143.645 95.6388 143.645 95.9051V99.3144C143.645 99.5807 143.751 99.836 143.939 100.024C144.128 100.212 144.382 100.318 144.648 100.318H147.789C148.055 100.318 148.31 100.212 148.498 100.024C148.686 99.8358 148.791 99.5806 148.791 99.3144V95.9051C148.791 95.6389 148.686 95.3837 148.498 95.1955C148.31 95.0073 148.055 94.9016 147.789 94.9016H144.648Z" fill="#0A1A33"/>
<path d="M161.792 103.53L148.012 100.461V94.7576L161.792 91.6885V103.53Z" fill="#72A5D7"/>
<path d="M161.79 103.75C161.774 103.751 161.758 103.751 161.742 103.75L147.963 100.68C147.915 100.67 147.871 100.643 147.84 100.604C147.808 100.565 147.791 100.516 147.791 100.466V94.7666C147.791 94.7166 147.808 94.6681 147.84 94.6291C147.871 94.5901 147.915 94.5631 147.963 94.5525L161.742 91.4781C161.774 91.4708 161.807 91.4708 161.839 91.4783C161.871 91.4858 161.901 91.5005 161.926 91.5213C161.952 91.5419 161.973 91.5682 161.987 91.5981C162.002 91.628 162.009 91.6608 162.009 91.694V103.535C162.009 103.569 162.002 103.601 161.987 103.631C161.973 103.661 161.952 103.687 161.926 103.708C161.887 103.737 161.839 103.752 161.79 103.75ZM148.229 100.287L161.571 103.259V91.9635L148.229 94.9324V100.287Z" fill="#0A1A33"/>
<path d="M162.677 104.704C162.373 104.703 162.082 104.581 161.867 104.366C161.651 104.15 161.53 103.858 161.529 103.553V91.788C161.53 91.4832 161.651 91.1911 161.867 90.9756C162.082 90.7601 162.373 90.6386 162.677 90.6377C162.982 90.6386 163.273 90.7601 163.488 90.9756C163.703 91.1911 163.825 91.4832 163.826 91.788V103.553C163.825 103.858 163.703 104.15 163.488 104.366C163.273 104.581 162.982 104.703 162.677 104.704Z" fill="#72A5D7"/>
<path d="M162.678 104.922C162.315 104.921 161.968 104.777 161.711 104.52C161.455 104.263 161.311 103.915 161.311 103.552V91.7866C161.311 91.4234 161.455 91.075 161.711 90.8181C161.967 90.5613 162.315 90.417 162.678 90.417C163.04 90.417 163.388 90.5613 163.644 90.8181C163.901 91.075 164.045 91.4234 164.045 91.7866V103.552C164.044 103.915 163.9 104.263 163.644 104.52C163.388 104.777 163.04 104.921 162.678 104.922ZM162.678 90.8557C162.431 90.8562 162.195 90.9544 162.021 91.1289C161.847 91.3033 161.749 91.5399 161.748 91.7866V103.552C161.748 103.799 161.846 104.036 162.021 104.21C162.195 104.385 162.431 104.483 162.678 104.483C162.924 104.483 163.16 104.385 163.335 104.21C163.509 104.036 163.607 103.799 163.607 103.552V91.7866C163.607 91.5397 163.509 91.3029 163.335 91.1283C163.16 90.9538 162.924 90.8557 162.678 90.8557Z" fill="#0A1A33"/>
<path d="M171.655 98.2707H167.845C167.708 98.2707 167.577 98.2161 167.48 98.1189C167.383 98.0217 167.328 97.8899 167.328 97.7525C167.328 97.6151 167.383 97.4833 167.48 97.3862C167.577 97.289 167.708 97.2344 167.845 97.2344H171.655C171.793 97.2344 171.924 97.289 172.021 97.3862C172.118 97.4833 172.173 97.6151 172.173 97.7525C172.173 97.8899 172.118 98.0217 172.021 98.1189C171.924 98.2161 171.793 98.2707 171.655 98.2707Z" fill="#72A5D7"/>
<path d="M171.656 98.4904H167.844C167.654 98.4813 167.475 98.3991 167.343 98.261C167.212 98.1229 167.139 97.9394 167.139 97.7487C167.139 97.5579 167.212 97.3744 167.343 97.2363C167.475 97.0982 167.654 97.016 167.844 97.0068H171.656C171.846 97.016 172.026 97.0982 172.157 97.2363C172.288 97.3744 172.362 97.5579 172.362 97.7487C172.362 97.9394 172.288 98.1229 172.157 98.261C172.026 98.3991 171.846 98.4813 171.656 98.4904ZM167.844 97.4542C167.768 97.4599 167.697 97.4944 167.645 97.5506C167.593 97.6068 167.564 97.6806 167.564 97.7573C167.564 97.8339 167.593 97.9078 167.645 97.964C167.697 98.0202 167.768 98.0546 167.844 98.0604H171.656C171.732 98.0546 171.804 98.0202 171.856 97.964C171.908 97.9078 171.937 97.8339 171.937 97.7573C171.937 97.6806 171.908 97.6068 171.856 97.5506C171.804 97.4944 171.732 97.4599 171.656 97.4542H167.844Z" fill="#0A1A33"/>
<path d="M171.117 91.9393L167.696 93.6216C167.573 93.6811 167.431 93.6892 167.302 93.6442C167.173 93.5992 167.067 93.5048 167.007 93.3815C166.947 93.2582 166.939 93.1163 166.983 92.9869C167.028 92.8574 167.122 92.7509 167.245 92.6906L170.665 91.0084C170.788 90.9489 170.93 90.9407 171.059 90.9857C171.189 91.0307 171.295 91.1252 171.355 91.2485C171.414 91.3718 171.423 91.5136 171.378 91.6431C171.333 91.7725 171.239 91.8791 171.117 91.9393Z" fill="#72A5D7"/>
<path d="M167.467 93.8961C167.299 93.8963 167.137 93.8397 167.005 93.7354C166.874 93.6311 166.782 93.4854 166.744 93.3219C166.706 93.1584 166.724 92.9869 166.796 92.8352C166.868 92.6836 166.989 92.5607 167.139 92.4868L170.56 90.8045C170.647 90.7618 170.742 90.7368 170.839 90.7309C170.936 90.7249 171.033 90.7382 171.125 90.77C171.263 90.8176 171.385 90.9052 171.473 91.0217C171.562 91.1382 171.615 91.2784 171.624 91.4246C171.633 91.5708 171.599 91.7166 171.526 91.8435C171.453 91.9704 171.344 92.0729 171.213 92.1379L167.793 93.8201C167.691 93.8695 167.58 93.8955 167.467 93.8961ZM170.885 91.1672C170.84 91.1679 170.794 91.1785 170.753 91.1983L167.332 92.8806C167.261 92.9167 167.207 92.9795 167.182 93.0553C167.157 93.131 167.162 93.2138 167.197 93.2855C167.232 93.3572 167.294 93.4122 167.37 93.4386C167.445 93.465 167.527 93.4606 167.6 93.4263L171.02 91.7441C171.091 91.7088 171.146 91.6468 171.172 91.5714C171.185 91.5339 171.191 91.494 171.189 91.4542C171.186 91.4144 171.176 91.3755 171.158 91.3399C171.141 91.304 171.117 91.2719 171.087 91.2455C171.058 91.2191 171.023 91.1989 170.985 91.1862C170.953 91.1741 170.92 91.1671 170.885 91.1655V91.1672Z" fill="#0A1A33"/>
<path d="M167.233 102.815L170.653 104.498C170.777 104.557 170.918 104.565 171.048 104.52C171.177 104.475 171.283 104.381 171.343 104.257C171.402 104.134 171.411 103.992 171.366 103.863C171.322 103.733 171.228 103.627 171.105 103.567L167.685 101.884C167.561 101.825 167.42 101.817 167.29 101.862C167.161 101.907 167.055 102.001 166.995 102.124C166.935 102.248 166.927 102.39 166.972 102.519C167.016 102.649 167.11 102.755 167.233 102.815Z" fill="#72A5D7"/>
<path d="M170.885 104.778C170.773 104.777 170.661 104.751 170.56 104.702L167.139 103.02C166.963 102.933 166.828 102.779 166.764 102.593C166.701 102.407 166.714 102.203 166.8 102.026C166.887 101.849 167.04 101.714 167.226 101.65C167.412 101.587 167.616 101.6 167.793 101.686L171.213 103.369C171.301 103.411 171.379 103.47 171.444 103.543C171.509 103.616 171.559 103.701 171.591 103.794C171.623 103.886 171.637 103.983 171.631 104.081C171.625 104.178 171.6 104.274 171.558 104.362C171.497 104.488 171.401 104.594 171.282 104.667C171.163 104.741 171.025 104.779 170.885 104.778ZM167.467 102.049C167.433 102.05 167.4 102.056 167.369 102.066C167.331 102.079 167.296 102.099 167.267 102.126C167.237 102.152 167.213 102.184 167.196 102.22C167.178 102.256 167.168 102.295 167.165 102.334C167.163 102.374 167.169 102.414 167.182 102.451C167.208 102.527 167.263 102.589 167.334 102.624L170.754 104.305C170.79 104.322 170.829 104.333 170.869 104.336C170.908 104.338 170.948 104.333 170.986 104.32C171.023 104.307 171.058 104.287 171.088 104.261C171.118 104.234 171.142 104.202 171.16 104.167C171.178 104.131 171.188 104.092 171.19 104.052C171.193 104.012 171.187 103.973 171.173 103.935C171.148 103.86 171.093 103.798 171.022 103.762L167.601 102.08C167.56 102.058 167.514 102.045 167.467 102.042V102.049Z" fill="#0A1A33"/>
</svg>
