<svg width="77" height="87" viewBox="0 0 77 87" fill="none" xmlns="http://www.w3.org/2000/svg">
<path fill-rule="evenodd" clip-rule="evenodd" d="M8.91524 0H67.2098C68.3836 0.00300273 69.5453 0.237168 70.6285 0.689126C71.7118 1.14108 72.6954 1.80198 73.5233 2.63409C74.3512 3.4662 75.007 4.45322 75.4534 5.53879C75.8998 6.62436 76.128 7.78723 76.125 8.961V87L66.7656 78.7304L61.5044 73.8584L55.9319 68.6796L58.2442 76.734H8.91524C4.00203 76.734 2.93998e-05 72.732 2.93998e-05 67.773V8.961C-0.00298103 7.78723 0.22523 6.62436 0.671633 5.53879C1.11804 4.45322 1.77389 3.4662 2.60174 2.63409C3.4296 1.80198 4.41324 1.14108 5.49651 0.689126C6.57979 0.237168 7.74147 0.00300273 8.91524 0ZM47.5478 53.2806C48.8482 54.9428 50.4142 56.811 50.4142 56.811C59.867 56.5094 63.5983 50.411 63.722 50.2087C63.7242 50.2052 63.7252 50.2035 63.7252 50.2036C63.7252 36.1966 57.4612 24.8454 57.4612 24.8454C51.2018 20.1428 45.24 20.2756 45.24 20.2756L44.631 20.9716C52.026 23.2336 55.4648 26.4938 55.4648 26.4938C48.7986 22.8218 41.1291 21.3883 33.5866 22.4048C33.3721 22.4048 33.1855 22.4357 32.9809 22.4696C32.9365 22.477 32.8913 22.4844 32.8448 22.4918C31.32 22.6246 27.6248 23.1924 22.9726 25.2346C21.3654 25.9718 20.4038 26.4938 20.4038 26.4938C20.4038 26.4938 24.0166 23.0596 31.8466 20.793L31.4116 20.271C31.4116 20.271 25.4544 20.1382 19.1904 24.8408C19.1904 24.8408 12.9264 36.192 12.9264 50.199C12.9264 50.199 16.5758 56.5042 26.187 56.811C26.187 56.811 27.7988 54.8466 29.1038 53.1982C23.577 51.5452 21.489 48.0652 21.489 48.0652C21.489 48.0652 21.924 48.3674 22.707 48.7978C22.7561 48.8558 22.817 48.9026 22.8856 48.9352C22.9456 48.9759 23.0056 49.0056 23.0661 49.0355C23.1348 49.0695 23.2042 49.1038 23.2748 49.155C24.2966 49.7192 25.3569 50.2104 26.448 50.6248C28.5168 51.4449 30.6566 52.0733 32.8402 52.5022C38.75 53.637 44.8631 53.003 50.4142 50.6798C51.939 50.112 53.6332 49.2786 55.419 48.1064C55.419 48.1064 53.244 51.6688 47.5478 53.2806ZM25.7364 41.3232C25.7364 38.6674 27.6916 36.4924 30.1734 36.4924C32.6506 36.4924 34.6562 38.6628 34.6058 41.3232C34.6058 43.9698 32.6506 46.154 30.1734 46.154C27.7374 46.154 25.7364 43.9698 25.7364 41.3232ZM41.6162 41.3232C41.6162 38.6674 43.5714 36.4924 46.0532 36.4924C48.5304 36.4924 50.481 38.6628 50.4856 41.3232C50.4856 43.9698 48.5304 46.154 46.0532 46.154C43.6172 46.154 41.6162 43.9698 41.6162 41.3232Z" fill="url(#paint0_linear_6242_47751)"/>
<defs>
<linearGradient id="paint0_linear_6242_47751" x1="3.61335e-06" y1="62.2009" x2="117.345" y2="14.4515" gradientUnits="userSpaceOnUse">
<stop stop-color="#662F88"/>
<stop offset="1" stop-color="#20BF55"/>
</linearGradient>
</defs>
</svg>
