<svg width="80" height="73" viewBox="0 0 80 73" fill="none" xmlns="http://www.w3.org/2000/svg">
<path d="M22.706 51.968L17.4924 51.5474L15.474 46.67C15.0534 45.6611 14.0445 44.9883 12.9511 44.9883C11.8576 44.9883 10.8487 45.6611 10.4281 46.67L8.40973 51.5474L3.1961 51.968C2.1027 52.0519 1.17771 52.8092 0.757693 53.902C0.421575 54.9954 0.757692 56.0883 1.59886 56.8456L5.63519 60.2935L4.45792 65.4232C4.03733 66.5166 4.45792 67.6095 5.38297 68.2822C6.30803 68.9551 7.4853 68.9551 8.41033 68.3661L12.9511 65.591L17.4918 68.3661C17.9124 68.6184 18.4169 68.7867 18.9213 68.7867C19.5103 68.7867 20.0986 68.6184 20.5192 68.2822C21.4443 67.6094 21.8649 66.516 21.6126 65.4232L20.4354 60.2935L24.4717 56.8456C25.3129 56.0888 25.649 54.9955 25.3129 53.902C24.8084 52.8092 23.8833 52.0525 22.7061 51.968L22.706 51.968ZM18.333 58.1073C17.5763 58.7801 17.2396 59.789 17.408 60.8823L18.5853 65.7597L14.2966 63.153C13.8761 62.9008 13.3716 62.7324 12.8671 62.7324C12.3627 62.7324 11.8582 62.9008 11.4376 63.153L7.14902 65.7597L8.3263 60.8823C8.57853 59.8734 8.24242 58.8639 7.40124 58.1073L3.61719 54.8276L8.57855 54.407C9.58749 54.3231 10.5125 53.6503 10.9332 52.7253L12.8672 48.1L14.8012 52.7253C15.2217 53.6504 16.0623 54.3232 17.1558 54.407L22.1171 54.8276L18.333 58.1073Z" fill="url(#paint0_linear_5927_48053)"/>
<path d="M49.1982 56.0892L43.9846 55.5847L41.9662 50.7911C41.5456 49.7822 40.5367 49.1094 39.4433 49.1094C38.3498 49.1094 37.3409 49.7822 36.9203 50.7911L34.9019 55.6685L29.6883 56.0891C28.5949 56.173 27.6699 56.9303 27.2499 58.0231C26.9138 59.1165 27.2499 60.2094 28.0911 60.9666L32.1274 64.4146L30.9501 69.5443C30.6979 70.6377 31.1185 71.7306 32.0435 72.4033C32.9686 73.0762 34.1458 73.0762 35.0709 72.4872L39.6116 69.7121L44.1523 72.4872C44.5729 72.7395 45.0774 72.9078 45.5818 72.9078C46.1708 72.9078 46.7591 72.7394 47.1798 72.4033C48.1048 71.7305 48.5254 70.6371 48.2732 69.5443L47.0959 64.4146L51.1322 60.9666C51.9734 60.2099 52.3095 59.1166 51.9734 58.0231C51.3006 56.8458 50.3755 56.173 49.1983 56.0891L49.1982 56.0892ZM44.8258 62.1439C44.0691 62.8167 43.7324 63.8256 43.9008 64.8352L45.078 69.7126L40.7894 67.1058C40.3689 66.8536 39.8644 66.6853 39.3599 66.6853C38.8555 66.6853 38.351 66.8536 37.9304 67.1058L33.6418 69.7126L34.8191 64.8352C35.0713 63.8262 34.7352 62.8168 33.894 62.0601L30.11 58.7805L35.0713 58.3599C36.0803 58.276 37.0053 57.6032 37.4259 56.6782L39.3599 52.0529L41.2939 56.6782C41.7145 57.6032 42.5551 58.2761 43.6486 58.3599L48.6099 58.7805L44.8258 62.1439Z" fill="url(#paint1_linear_5927_48053)"/>
<path d="M75.6865 51.968L70.4729 51.5474L68.4545 46.67C68.0339 45.6611 67.025 44.9883 65.9315 44.9883C64.8381 44.9883 63.8292 45.6611 63.4086 46.67L61.3902 51.5474L56.1766 51.968C55.0832 52.0519 54.1582 52.8092 53.7382 53.902C53.402 54.9954 53.7382 56.0883 54.5793 56.8456L58.6157 60.2935L57.4384 65.4232C57.1862 66.5166 57.6067 67.6095 58.5318 68.2822C59.4568 68.9551 60.6341 68.9551 61.5591 68.3661L66.0999 65.591L70.6406 68.3661C71.0612 68.6184 71.5657 68.7867 72.0701 68.7867C72.6591 68.7867 73.2474 68.6184 73.668 68.2822C74.5931 67.6094 75.0137 66.516 74.7614 65.4232L73.5842 60.2935L77.6205 56.8456C78.4617 56.0888 78.7978 54.9955 78.4617 53.902C77.7888 52.8092 76.8637 52.0525 75.6866 51.968L75.6865 51.968ZM71.3135 58.1073C70.5568 58.7801 70.2201 59.789 70.3885 60.8823L71.5657 65.7597L67.2771 63.153C66.8565 62.9008 66.3521 62.7324 65.8476 62.7324C65.3431 62.7324 64.8387 62.9008 64.4181 63.153L60.1295 65.7597L61.3068 60.8823C61.559 59.8734 61.2229 58.8639 60.3817 58.1073L56.5977 54.8276L61.559 54.407C62.568 54.3231 63.493 53.6503 63.9136 52.7253L65.8476 48.1L67.7816 52.7253C68.2022 53.6504 69.0428 54.3232 70.1362 54.407L75.0976 54.8276L71.3135 58.1073Z" fill="url(#paint2_linear_5927_48053)"/>
<path d="M79.7226 36.4124L78.7976 28.4237C78.2931 23.9667 75.0973 20.3504 70.9772 19.0054C73.3318 17.0714 74.9296 14.044 74.9296 10.7644C74.9296 4.87801 70.136 0.0843937 64.2496 0.0843937C58.3632 0.0843937 53.5696 4.87801 53.5696 10.7644C53.5696 14.1278 55.083 17.0714 57.522 19.0054C54.4946 19.9304 51.9717 22.2011 50.626 25.0601C49.4488 24.0512 48.1031 23.2938 46.5897 22.7894C49.0281 20.8554 50.5421 17.8281 50.5421 14.5484C50.5421 8.66206 45.7485 3.86844 39.8621 3.86844C33.9757 3.86844 29.1821 8.66206 29.1821 14.5484C29.1821 17.9119 30.6955 20.8554 33.1345 22.7894C31.6211 23.21 30.2755 23.9667 29.1821 24.9757C27.8365 22.0321 25.3135 19.846 22.2861 18.921C24.7246 16.987 26.2385 13.9596 26.2385 10.68C26.2385 4.79362 21.4449 0 15.5585 0C9.67216 0 4.87854 4.79362 4.87854 10.68C4.87854 14.0434 6.39192 16.987 8.83092 18.921C4.7102 20.1821 1.51496 23.7984 1.01055 28.3393L0.0854944 36.328C-0.334506 38.178 0.842785 39.8599 2.5251 40.1966C6.64582 41.0378 10.9344 41.5422 15.3914 41.5422C18.4187 41.5422 21.3623 41.29 24.2213 40.8694C24.3052 42.3828 25.3986 43.7284 26.9126 44.0651C31.0333 44.9063 35.3219 45.4107 39.7789 45.4107C44.1519 45.4107 48.5243 44.9901 52.6451 44.0651C54.1585 43.729 55.2519 42.3834 55.3364 40.8694C58.1955 41.29 61.2228 41.5422 64.2502 41.5422C68.6232 41.5422 72.9956 41.1216 77.1164 40.1966C78.7138 39.8599 79.8911 38.1782 79.7226 36.4125L79.7226 36.4124ZM56.4288 10.7639C56.4288 6.47533 59.8768 3.02736 64.1654 3.02736C68.454 3.02736 71.902 6.47533 71.902 10.7639C71.902 15.0525 68.454 18.5005 64.1654 18.5005C59.8768 18.5005 56.4288 15.0525 56.4288 10.7639ZM31.9577 14.6319C31.9577 10.3433 35.4056 6.89535 39.6942 6.89535C43.9828 6.89535 47.4308 10.3433 47.4308 14.6319C47.4308 18.9205 43.9828 22.3685 39.6942 22.3685C35.4896 22.3691 31.9577 18.9211 31.9577 14.6319ZM7.6547 10.7639C7.6547 6.47533 11.1027 3.02736 15.3913 3.02736C19.6799 3.02736 23.1279 6.47533 23.1279 10.7639C23.1279 15.0525 19.6799 18.5005 15.3913 18.5005C11.1027 18.5005 7.6547 15.0525 7.6547 10.7639ZM3.19776 37.3374C2.86164 37.3374 2.69329 37.0852 2.77776 36.7485L3.70281 28.7598C4.20728 24.5551 7.73914 21.4438 11.9438 21.4438H18.6708C22.4549 21.4438 25.7345 24.0505 26.6595 27.6669C25.8184 29.0125 25.23 30.6104 24.9778 32.2921L24.305 37.9264C17.578 39.0192 10.0099 38.8508 3.19758 37.3374L3.19776 37.3374ZM51.9719 41.2054C44.1515 42.8871 35.3214 42.8871 27.5007 41.2054C27.2485 41.1215 27.0801 40.8693 27.0801 40.6165L28.0052 32.6278C28.5097 28.4231 32.0415 25.3118 36.2462 25.3118H43.1421C47.3468 25.3118 50.8787 28.4231 51.3831 32.6278L52.3082 40.6165C52.3926 40.8693 52.2243 41.2054 51.9721 41.2054H51.9719ZM76.3589 37.3374C69.5475 38.7669 61.8949 38.9353 54.9151 37.8419L54.3262 32.2916C54.1578 30.6099 53.5695 29.0959 52.7283 27.7508C53.6533 24.1351 56.9329 21.4438 60.8015 21.4438H67.5285C71.7332 21.4438 75.2651 24.5551 75.7695 28.7598L76.6946 36.7485C76.8635 37.0852 76.6952 37.3375 76.359 37.3375L76.3589 37.3374Z" fill="url(#paint3_linear_5927_48053)"/>
<defs>
<linearGradient id="paint0_linear_5927_48053" x1="0.628907" y1="62.011" x2="36.7309" y2="44.5146" gradientUnits="userSpaceOnUse">
<stop stop-color="#662F88"/>
<stop offset="1" stop-color="#20BF55"/>
</linearGradient>
<linearGradient id="paint1_linear_5927_48053" x1="27.1211" y1="66.1321" x2="63.3741" y2="48.4433" gradientUnits="userSpaceOnUse">
<stop stop-color="#662F88"/>
<stop offset="1" stop-color="#20BF55"/>
</linearGradient>
<linearGradient id="paint2_linear_5927_48053" x1="53.6094" y1="62.011" x2="89.8624" y2="44.3222" gradientUnits="userSpaceOnUse">
<stop stop-color="#662F88"/>
<stop offset="1" stop-color="#20BF55"/>
</linearGradient>
<linearGradient id="paint3_linear_5927_48053" x1="3.78487e-06" y1="32.4665" x2="85.9524" y2="-37.7216" gradientUnits="userSpaceOnUse">
<stop stop-color="#662F88"/>
<stop offset="1" stop-color="#20BF55"/>
</linearGradient>
</defs>
</svg>
