<svg width="17" height="19" viewBox="0 0 17 19" fill="none" xmlns="http://www.w3.org/2000/svg">
<path fill-rule="evenodd" clip-rule="evenodd" d="M1.8916 0H14.2603C14.5094 0.000637108 14.7558 0.0503214 14.9857 0.146216C15.2155 0.242111 15.4242 0.382338 15.5999 0.558891C15.7755 0.735444 15.9147 0.944865 16.0094 1.1752C16.1041 1.40553 16.1525 1.65226 16.1519 1.90131V18.4593L14.1661 16.7047L13.0498 15.671L11.8674 14.5722L12.358 16.2811H1.8916C0.849135 16.2811 6.23793e-06 15.432 6.23793e-06 14.3798V1.90131C-0.000632504 1.65226 0.0477884 1.40553 0.142504 1.1752C0.23722 0.944865 0.376376 0.735444 0.552027 0.558891C0.727678 0.382338 0.936384 0.242111 1.16623 0.146216C1.39607 0.0503214 1.64255 0.000637108 1.8916 0ZM10.0885 11.3049C10.3644 11.6575 10.6967 12.0539 10.6967 12.0539C12.7024 11.9899 13.494 10.696 13.5203 10.6531C13.5207 10.6523 13.521 10.652 13.521 10.652C13.521 7.68004 12.1919 5.27159 12.1919 5.27159C10.8638 4.27382 9.59885 4.30199 9.59885 4.30199L9.46963 4.44966C11.0387 4.92961 11.7683 5.62135 11.7683 5.62135C10.3539 4.84223 8.7266 4.53809 7.12627 4.75376C7.08076 4.75376 7.04115 4.76032 6.99775 4.76751C6.98834 4.76907 6.97875 4.77066 6.96888 4.77222C6.64536 4.80039 5.86132 4.92086 4.87423 5.35417C4.53322 5.51059 4.3292 5.62135 4.3292 5.62135C4.3292 5.62135 5.09575 4.89269 6.75708 4.41177L6.66479 4.30102C6.66479 4.30102 5.40081 4.27284 4.07174 5.27062C4.07174 5.27062 2.74267 7.67907 2.74267 10.651C2.74267 10.651 3.51699 11.9888 5.55626 12.0539C5.55626 12.0539 5.89824 11.6371 6.17513 11.2874C5.00248 10.9367 4.55945 10.1983 4.55945 10.1983C4.55945 10.1983 4.65175 10.2624 4.81789 10.3537C4.82831 10.366 4.84122 10.376 4.85578 10.3829C4.86851 10.3915 4.88124 10.3978 4.89407 10.4042C4.90865 10.4114 4.92337 10.4187 4.93836 10.4295C5.15514 10.5492 5.38013 10.6534 5.61164 10.7414C6.05059 10.9154 6.50458 11.0487 6.96791 11.1397C8.22181 11.3805 9.51887 11.246 10.6967 10.753C11.0202 10.6326 11.3797 10.4557 11.7586 10.207C11.7586 10.207 11.2971 10.9629 10.0885 11.3049ZM5.46094 8.76912C5.46094 8.20562 5.87579 7.74414 6.40236 7.74414C6.92797 7.74414 7.3535 8.20465 7.34282 8.76912C7.34282 9.33067 6.92797 9.7941 6.40236 9.7941C5.8855 9.7941 5.46094 9.33067 5.46094 8.76912ZM8.83025 8.76912C8.83025 8.20562 9.2451 7.74414 9.77167 7.74414C10.2973 7.74414 10.7112 8.20465 10.7121 8.76912C10.7121 9.33067 10.2973 9.7941 9.77167 9.7941C9.25481 9.7941 8.83025 9.33067 8.83025 8.76912Z" fill="white"/>
</svg>
