<svg width="15" height="15" viewBox="0 0 15 15" fill="none" xmlns="http://www.w3.org/2000/svg">
<path d="M14.9215 13.9997V13.9992H14.925V8.86469C14.925 6.35287 14.3842 4.41797 11.4477 4.41797C10.0361 4.41797 9.08876 5.19263 8.70202 5.92704H8.66118V4.65247H5.87695V13.9992H8.7761V9.37102C8.7761 8.15244 9.0071 6.97412 10.5162 6.97412C12.0031 6.97412 12.0252 8.36477 12.0252 9.44918V13.9997H14.9215Z" fill="white"/>
<path d="M1.15625 4.65625H4.0589V14.0029H1.15625V4.65625Z" fill="white"/>
<path d="M2.60694 0C1.67886 0 0.925781 0.753078 0.925781 1.68115C0.925781 2.60923 1.67886 3.37806 2.60694 3.37806C3.53501 3.37806 4.28809 2.60923 4.28809 1.68115C4.28751 0.753078 3.53443 0 2.60694 0V0Z" fill="white"/>
</svg>
