<svg width="114" height="117" viewBox="0 0 114 117" fill="none" xmlns="http://www.w3.org/2000/svg">
<rect width="114" height="117" rx="15" fill="url(#paint0_linear_5927_48000)"/>
<path d="M80.1891 54.0051C79.1265 52.7298 77.8508 51.8793 76.1507 51.8793H64.6725C65.9477 48.6909 66.3731 45.2899 65.7351 42.1015C65.7351 39.3383 63.3968 37 60.421 37C57.4452 37 55.1069 39.3383 55.1069 42.3141C55.1069 46.1404 54.0442 49.541 51.7059 52.7294L50.0053 55.2798C49.7927 55.2798 49.7927 55.0672 49.5801 55.0672H34.7006C33.8505 55.0672 33 55.7051 33 56.7678V79.2994C33 80.3621 33.85 81 34.7006 81H49.5801C50.4301 81 51.2806 80.3621 51.2806 79.2994V77.1737L51.4933 77.5989C53.4064 79.7247 56.1695 80.9999 58.9327 80.9999H69.9857C72.1114 80.9999 73.812 79.7247 74.4493 77.8115C74.8746 76.5363 74.662 75.4732 74.0241 74.4106C75.0867 73.7727 75.9372 72.71 76.3624 71.6474C76.7876 70.5847 76.7877 69.0969 76.1498 68.0338C77.2125 67.3959 78.063 66.3332 78.4882 65.058C78.9134 63.7827 78.7008 62.5075 78.0629 61.4444C79.1256 60.8065 80.1887 59.7438 80.4013 58.4686C81.2517 56.9816 81.2517 55.2811 80.1891 54.0054L80.1891 54.0051ZM48.0923 77.8121H36.4011V58.4688H48.0923V77.8121ZM77.8502 57.6193C77.6376 58.2572 77.0002 58.682 76.1497 58.682H75.087H74.6618H73.8118C72.9617 58.682 72.1112 59.3198 72.1112 60.3825C72.1112 61.2325 72.9612 62.0831 73.8118 62.0831C74.237 62.0831 74.6618 62.2957 75.087 62.7209C75.5122 63.1462 75.5123 63.571 75.2996 64.4215C75.087 65.0593 74.4496 65.4841 73.5991 65.4841H70.1981C69.1354 65.4841 68.4975 66.122 68.4975 67.1847C68.4975 68.2473 69.1354 68.8852 70.1981 68.8852H71.2607C71.686 68.8852 72.1108 69.0979 72.536 69.5231C72.9612 69.9483 72.9612 70.5857 72.9612 71.0109C72.7486 71.6488 72.1112 72.0736 71.2607 72.0736H68.4975C67.6474 72.0736 66.7969 72.7114 66.7969 73.7741C66.7969 74.6241 67.6469 75.4747 68.4975 75.4747H70.198C70.6233 75.4747 71.2607 75.6873 71.4733 76.1125C71.6859 76.5378 71.6859 77.1752 71.6859 77.6004C71.4733 78.2382 70.8359 78.4504 70.198 78.4504H59.145C57.2319 78.4504 55.3187 77.6004 54.0435 76.1121L51.2803 72.9237V59.9572L54.6813 55.0682C57.2318 51.4546 58.5076 47.2036 58.5076 42.7394C58.5076 41.6768 59.3576 40.6137 60.6333 40.6137C61.696 40.6137 62.7591 41.6763 62.7591 42.7394V42.952C63.1843 46.353 62.7591 49.754 61.0585 53.3672C60.8459 53.7925 60.8459 54.4299 61.2711 54.8551C61.4838 55.2803 62.1212 55.4929 62.5464 55.4929H76.3624C76.7876 55.4929 77.2124 55.9182 77.6376 56.1308C78.0624 56.3434 78.0624 56.9813 77.8498 57.6186L77.8502 57.6193Z" fill="white"/>
<path d="M43.8412 75.6848C42.9912 75.6848 42.1406 75.0469 42.1406 73.9842L42.1411 71.6459C42.1411 70.5832 42.7789 69.9453 43.8416 69.9453C44.9043 69.9453 45.5422 70.5832 45.5422 71.6459V73.9842C45.3296 74.8342 44.6917 75.6848 43.8412 75.6848H43.8412Z" fill="white"/>
<defs>
<linearGradient id="paint0_linear_5927_48000" x1="5.41112e-06" y1="83.6495" x2="169.935" y2="6.64852" gradientUnits="userSpaceOnUse">
<stop stop-color="#662F88"/>
<stop offset="1" stop-color="#20BF55"/>
</linearGradient>
</defs>
</svg>
