<svg width="114" height="117" viewBox="0 0 114 117" fill="none" xmlns="http://www.w3.org/2000/svg">
<rect width="114" height="117" rx="15" fill="url(#paint0_linear_5927_48020)"/>
<path d="M36.2763 64.0757C40.9434 64.0757 44.7398 60.2788 44.7398 55.6119C44.7398 50.945 40.9428 47.1484 36.2763 47.1484C31.6104 47.1484 27.8125 50.9448 27.8125 55.6119C27.8125 60.2789 31.6094 64.0757 36.2763 64.0757ZM36.2763 50.7098C38.9796 50.7098 41.1784 52.9086 41.1784 55.6119C41.1784 58.3151 38.9796 60.514 36.2763 60.514C33.5731 60.514 31.3742 58.3145 31.3742 55.6119C31.3742 52.9092 33.5731 50.7098 36.2763 50.7098Z" fill="white"/>
<path d="M26.5619 76.5302C26.5619 72.8936 29.5203 69.9358 33.1563 69.9358H39.3908C39.5774 69.9358 39.7624 69.9432 39.9453 69.959C40.4613 70.0038 40.9735 69.8304 41.3482 69.4862C41.7129 69.15 41.9148 68.6904 41.9148 68.1928C41.9148 67.2847 41.2196 66.5057 40.3311 66.4203C40.0211 66.3908 39.7076 66.375 39.3903 66.375H33.1558C27.5564 66.3734 23 70.9298 23 76.5303V77.2623H26.5617L26.5619 76.5302Z" fill="white"/>
<path d="M42.5469 77.2602H46.1086V72.8757C46.1086 68.7652 49.4527 65.4211 53.5638 65.4211H60.4386C64.5491 65.4211 67.8937 68.7652 67.8937 72.8757V77.2602H71.4555V72.8757C71.4555 69.1573 69.5886 65.7126 66.4611 63.6624C64.6628 62.4828 62.5804 61.8594 60.439 61.8594H53.5642C50.1615 61.8594 46.9998 63.4083 44.8884 66.109C43.3567 68.0681 42.5477 70.4081 42.5477 72.8757L42.5482 77.2602H42.5469Z" fill="white"/>
<path d="M80.8459 66.375H74.6115C74.437 66.375 74.2641 66.3803 74.0918 66.3892C73.1315 66.4419 72.3789 67.2257 72.3789 68.1739C72.3789 68.6635 72.5823 69.1357 72.937 69.4704C73.2944 69.8067 73.7619 69.9753 74.2489 69.9474C74.369 69.94 74.4897 69.9369 74.6115 69.9369H80.846C84.4826 69.9369 87.4404 72.8952 87.4404 76.5313V77.2634L91.0022 77.2639V76.5318C91.0022 70.9314 86.4457 66.3751 80.846 66.3751L80.8459 66.375Z" fill="white"/>
<path d="M77.7261 64.0757C82.3931 64.0757 86.1899 60.2788 86.1899 55.6119C86.1899 50.945 82.393 47.1484 77.7261 47.1484C73.0585 47.1484 69.2617 50.9448 69.2617 55.6119C69.2617 60.2789 73.0596 64.0757 77.7261 64.0757ZM77.7261 50.7098C80.4293 50.7098 82.6282 52.9086 82.6282 55.6119C82.6282 58.3151 80.4288 60.514 77.7261 60.514C75.0234 60.514 72.824 58.3145 72.824 55.6119C72.8235 52.9092 75.0234 50.7098 77.7261 50.7098Z" fill="white"/>
<path d="M57.0024 60.4579C62.8727 60.4579 67.6493 55.6818 67.6493 49.811C67.6493 43.9401 62.8732 39.1641 57.0024 39.1641C51.1315 39.1641 46.3555 43.9401 46.3555 49.811C46.3555 55.6813 51.1315 60.4579 57.0024 60.4579ZM57.0024 42.7247C60.9089 42.7247 64.0876 45.9034 64.0876 49.8104C64.0876 53.7169 60.9089 56.8956 57.0024 56.8956C53.0954 56.8956 49.9167 53.7169 49.9167 49.8104C49.9167 45.9034 53.0954 42.7247 57.0024 42.7247Z" fill="white"/>
<defs>
<linearGradient id="paint0_linear_5927_48020" x1="5.41112e-06" y1="83.6495" x2="169.935" y2="6.64852" gradientUnits="userSpaceOnUse">
<stop stop-color="#662F88"/>
<stop offset="1" stop-color="#20BF55"/>
</linearGradient>
</defs>
</svg>
