<svg width="114" height="117" viewBox="0 0 114 117" fill="none" xmlns="http://www.w3.org/2000/svg">
<rect width="114" height="117" rx="15" fill="url(#paint0_linear_5927_48009)"/>
<path d="M39.1714 72.2657C39.2513 72.2657 39.4118 72.3456 39.4118 72.5061V75.8723C39.4118 77.1549 40.133 78.3568 41.2551 78.9182C41.7359 79.1586 42.2972 79.319 42.7781 79.319C43.4993 79.319 44.2205 79.0786 44.7818 78.6778L53.4379 72.3462C53.4379 72.3462 53.5179 72.2663 53.5984 72.2663L73.0747 72.2657C77.4831 72.2657 81.0896 68.6592 81.0896 64.2508V45.0149C81.0896 40.6066 77.4831 37 73.0747 37H41.0149C36.6066 37 33 40.6066 33 45.0149V66.0942C33 69.4599 35.8055 72.2653 39.1716 72.2653L39.1714 72.2657ZM36.2054 45.0149C36.2054 42.3699 38.3696 40.2056 41.0147 40.2056H73.0745C75.7194 40.2056 77.8837 42.3698 77.8837 45.0149V64.2507C77.8837 66.8957 75.7195 69.06 73.0745 69.06H53.5981C52.8769 69.06 52.1557 69.3004 51.5944 69.7012L42.9383 76.0328C42.9383 76.0328 42.8583 76.1127 42.6979 76.0328C42.6174 76.0328 42.6174 75.9528 42.6174 75.8723V72.506C42.6174 70.5823 41.0944 69.0599 39.1712 69.0599C37.4878 69.0599 36.2058 67.6974 36.2058 66.0945L36.2054 45.0149Z" fill="white"/>
<path d="M58.6471 53.8294C58.6471 54.715 57.9298 55.4323 57.0443 55.4323C56.1587 55.4323 55.4414 54.715 55.4414 53.8294C55.4414 52.9444 56.1587 52.2266 57.0443 52.2266C57.9298 52.2266 58.6471 52.9444 58.6471 53.8294Z" fill="white"/>
<path d="M50.6354 53.8294C50.6354 54.715 49.9181 55.4323 49.0325 55.4323C48.147 55.4323 47.4297 54.715 47.4297 53.8294C47.4297 52.9444 48.147 52.2266 49.0325 52.2266C49.9181 52.2266 50.6354 52.9444 50.6354 53.8294Z" fill="white"/>
<path d="M66.6627 53.8294C66.6627 54.715 65.9454 55.4323 65.0599 55.4323C64.1743 55.4323 63.457 54.715 63.457 53.8294C63.457 52.9444 64.1743 52.2266 65.0599 52.2266C65.9454 52.2266 66.6627 52.9444 66.6627 53.8294Z" fill="white"/>
<defs>
<linearGradient id="paint0_linear_5927_48009" x1="5.41112e-06" y1="83.6495" x2="169.935" y2="6.64852" gradientUnits="userSpaceOnUse">
<stop stop-color="#662F88"/>
<stop offset="1" stop-color="#20BF55"/>
</linearGradient>
</defs>
</svg>
