<svg width="24" height="20" viewBox="0 0 24 20" fill="none" xmlns="http://www.w3.org/2000/svg">
<path d="M23.9254 9.5003C23.9254 8.08288 22.7673 6.93068 21.3441 6.93068C20.6495 6.93068 20.0199 7.20853 19.5565 7.65542C17.7981 6.49836 15.4189 5.76197 12.7842 5.66773L14.2249 1.1318L18.1265 2.04598L18.1207 2.10233C18.1207 3.26133 19.0679 4.20368 20.2327 4.20368C21.3966 4.20368 22.3428 3.26133 22.3428 2.10233C22.3428 0.943327 21.3956 0 20.2327 0C19.3389 0 18.5773 0.557641 18.2693 1.3397L14.0637 0.353626C13.8801 0.308937 13.6935 0.41483 13.6362 0.595529L12.0294 5.65413C9.27224 5.68716 6.77451 6.42939 4.93741 7.62142C4.47692 7.1959 3.86584 6.92971 3.18968 6.92971C1.76643 6.92971 0.609375 8.08288 0.609375 9.5003C0.609375 10.4427 1.12718 11.2597 1.88884 11.7066C1.83832 11.9805 1.80529 12.2574 1.80529 12.5392C1.80529 16.3387 6.47626 19.43 12.2188 19.43C17.9613 19.43 22.6333 16.3387 22.6333 12.5392C22.6333 12.273 22.6051 12.0107 22.5604 11.7522C23.3687 11.318 23.9254 10.4776 23.9254 9.5003ZM7.19226 11.2645C7.19226 10.4213 7.88202 9.73443 8.72917 9.73443C9.57632 9.73443 10.2651 10.4213 10.2651 11.2645C10.2651 12.1078 9.57632 12.7937 8.72917 12.7937C7.88202 12.7937 7.19226 12.1078 7.19226 11.2645ZM15.995 15.8005C15.2207 16.5709 14.0054 16.9459 12.28 16.9459L12.2674 16.943L12.2547 16.9459C10.5284 16.9459 9.31304 16.5709 8.53973 15.8005C8.39886 15.6606 8.39886 15.4323 8.53973 15.2924C8.6806 15.1515 8.90987 15.1515 9.05074 15.2924C9.68221 15.9209 10.7305 16.226 12.2547 16.226L12.2674 16.2289L12.28 16.226C13.8043 16.226 14.8525 15.92 15.484 15.2914C15.6249 15.1505 15.8542 15.1515 15.995 15.2914C16.1359 15.4323 16.1359 15.6596 15.995 15.8005ZM15.8114 12.7937C14.9643 12.7937 14.2755 12.1078 14.2755 11.2645C14.2755 10.4213 14.9643 9.73443 15.8114 9.73443C16.6586 9.73443 17.3473 10.4213 17.3473 11.2645C17.3473 12.1078 16.6586 12.7937 15.8114 12.7937Z" fill="white"/>
</svg>
