<svg width="55" height="73" viewBox="0 0 55 73" fill="none" xmlns="http://www.w3.org/2000/svg">
<path d="M49.8883 42.4969C49.382 42.5512 36.6594 42.3524 36.5876 42.6436C33.7346 39.4022 29.8241 37.2788 25.5524 36.6514V33.812C28.3695 32.3008 30.4337 29.6885 31.2517 26.5976C32.4766 26.3716 33.5696 25.6855 34.3062 24.6806C35.0422 23.6757 35.3671 22.4274 35.2139 21.191C35.0607 19.9541 34.4409 18.8232 33.4816 18.0284C42.1524 3.33649 23.4517 -3.32599 11.6307 1.6135C8.54424 2.77 0.274342 7.73822 4.74394 13.3181V13.3176C4.23984 14.3584 4.02418 15.5154 4.11979 16.6681C4.21539 17.8203 4.61845 18.9262 5.28715 19.8698C4.69668 21.2354 4.76241 22.796 5.46696 24.1068C6.1715 25.4176 7.43608 26.3341 8.9011 26.5948C9.83652 30.1431 12.4048 33.0335 15.8183 34.3801V36.6512V36.6507C11.4281 37.3558 7.4301 39.5938 4.53413 42.9677C1.63829 46.3417 0.0314281 50.633 0 55.0792V66.8337V66.8332C0.00108635 67.8012 0.386217 68.729 1.07013 69.4135C1.75458 70.098 2.68241 70.4826 3.65043 70.4836H33.5294C34.3914 71.9856 35.9891 72.9144 37.7208 72.92H53.5392C54.2019 72.907 54.7326 72.3659 54.7326 71.7032C54.7326 71.0399 54.2019 70.4995 53.5392 70.4864H52.3224V65.6192H53.5392C53.8624 65.6192 54.172 65.4905 54.4007 65.2618C54.6288 65.0331 54.7565 64.7229 54.756 64.3997V47.3646C54.7543 46.0745 54.2416 44.837 53.3289 43.925C52.4163 43.0124 51.1794 42.4991 49.8888 42.4974L49.8883 42.4969ZM49.8883 44.9305C50.5336 44.9316 51.1518 45.188 51.608 45.6443C52.0643 46.1006 52.3213 46.7193 52.3218 47.364V63.1824H38.9371C37.6795 63.0406 36.4089 63.2774 35.2867 63.8619V47.3636C35.2872 46.7188 35.5442 46.1001 36.0005 45.6438C36.4568 45.1875 37.0749 44.9311 37.7202 44.93L49.8883 44.9305ZM11.6211 40.4773L14.7294 46.6938V46.6943C14.8907 47.017 15.1873 47.2511 15.5383 47.3337C15.8892 47.4168 16.2591 47.3397 16.5475 47.1229L20.6852 44.0202L24.8229 47.1229C25.1113 47.3397 25.4812 47.4168 25.8321 47.3342C26.1831 47.2511 26.4796 47.017 26.641 46.6943L29.7563 40.4636C30.2153 40.6853 30.6623 40.9281 31.0975 41.1932C29.7481 44.4182 25.8533 52.8886 20.6852 56.8224C15.5273 52.8955 11.6369 44.4496 10.2805 41.2099C10.7145 40.9442 11.1611 40.6998 11.6212 40.476L11.6211 40.4773ZM22.7532 41.7707L24.8271 39.01L27.4362 39.6624L25.1167 44.3019L22.3892 42.2556L22.7532 41.7707ZM18.9811 42.2563L16.2542 44.3015L13.9347 39.662L16.5438 39.0096C16.8002 39.3512 18.7834 41.9918 18.9811 42.2558V42.2563ZM32.1307 23.5385C31.9802 23.6874 31.8097 23.815 31.6239 23.9177C31.6261 23.8248 31.6364 23.7287 31.6364 23.6363V19.7426C32.2871 20.1168 32.7266 20.7736 32.8233 21.5184C32.9205 22.2631 32.6641 23.0101 32.1307 23.5386L32.1307 23.5385ZM7.30112 21.8111C7.31035 21.7122 7.32556 21.6139 7.34729 21.5167C7.71722 21.6818 8.11376 21.778 8.51792 21.8013C8.52063 21.9942 8.50923 23.7693 8.52987 23.9134V23.9129C8.15831 23.7021 7.84869 23.3968 7.63303 23.0274C7.41683 22.6586 7.30275 22.2392 7.30113 21.8112L7.30112 21.8111ZM11.0943 25.2654C10.9439 23.7389 10.896 22.2038 10.9515 20.6709C11.5354 19.9457 11.8923 19.0641 11.977 18.1368C14.0886 18.9369 16.408 19.0016 18.5608 18.3198C20.7131 17.6387 22.573 16.2507 23.8398 14.3816C24.6502 15.4946 26.3694 18.3819 27.8976 16.8309C28.0964 16.5767 28.1866 16.254 28.148 15.9341C28.1095 15.6136 27.9449 15.3213 27.6906 15.1225C26.4516 14.1567 25.5574 12.8155 25.143 11.3C24.998 10.8051 24.5574 10.4547 24.0425 10.4243C23.5275 10.3939 23.0489 10.6899 22.8463 11.1642C22.0592 13.4103 20.2818 15.1682 18.0275 15.9298C15.7732 16.692 13.2934 16.3725 11.3058 15.0645C10.8881 14.7988 10.3514 14.8103 9.9456 15.0944C9.53981 15.3779 9.34535 15.8788 9.45181 16.3622C9.78807 17.3558 9.59467 18.4525 8.94011 19.2722C8.5403 19.7057 7.53488 18.7833 7.15079 18.3135L7.15025 18.3129C6.74121 17.6046 6.53479 16.7969 6.55434 15.9788C6.57335 15.1607 6.81779 14.3633 7.25943 13.6751C7.50495 13.2074 7.41967 12.6348 7.0492 12.2583C6.42614 11.6841 6.02362 10.91 5.91226 10.0703C5.75907 7.46607 10.2101 4.86366 12.5775 3.8549C21.9099 -0.0964154 39.1468 4.33564 31.2494 17.0273C30.3672 16.7704 29.1988 17.068 29.2048 18.161C29.1499 19.4229 29.3292 24.0765 29.0657 25.2477C27.2155 35.1972 12.9136 35.1473 11.0947 25.2657L11.0943 25.2654ZM20.0775 35.1958C21.1047 35.1964 22.1281 35.0606 23.1195 34.7917V37.2264C22.7332 37.7414 21.0363 40.0044 20.6859 40.4699C20.4463 40.151 18.4293 37.4627 18.2523 37.2264V35.0448C18.8558 35.1431 19.4658 35.1936 20.0775 35.1958V35.1958ZM2.43324 66.8325V55.0786C2.45606 50.2906 4.58648 45.756 8.25703 42.6818C10.1132 46.7477 14.5431 56.5669 20.6852 59.5348C26.8751 56.5222 31.2604 46.7286 33.1301 42.6443C33.5707 43.0186 33.9911 43.4162 34.3893 43.835C33.411 44.7487 32.8553 46.0269 32.8531 47.3648V68.0503H3.65C2.97805 68.0498 2.43374 67.5055 2.4332 66.8336L2.43324 66.8325ZM49.8883 70.4851H37.7203V70.4857C36.8506 70.4857 36.0472 70.0218 35.6127 69.2689C35.1781 68.516 35.1781 67.5882 35.6127 66.8353C36.0472 66.0824 36.8507 65.6185 37.7203 65.6185H49.8883V70.4851Z" fill="url(#paint0_linear_5927_48045)"/>
<path d="M42.5841 52.2344H48.668C49.3307 52.2213 49.8615 51.6803 49.8615 51.0176C49.8615 50.3543 49.3307 49.8138 48.668 49.8008H42.5841C41.9213 49.8138 41.3906 50.3543 41.3906 51.0176C41.3906 51.6803 41.9213 52.2213 42.5841 52.2344Z" fill="url(#paint1_linear_5927_48045)"/>
<path d="M40.1505 57.1016H48.668C49.3307 57.0885 49.8615 56.5475 49.8615 55.8848C49.8615 55.2215 49.3307 54.681 48.668 54.668H40.1505C39.4877 54.681 38.957 55.2215 38.957 55.8848C38.957 56.5475 39.4877 57.0885 40.1505 57.1016Z" fill="url(#paint2_linear_5927_48045)"/>
<defs>
<linearGradient id="paint0_linear_5927_48045" x1="2.59905e-06" y1="52.1344" x2="87.6878" y2="21.5134" gradientUnits="userSpaceOnUse">
<stop stop-color="#662F88"/>
<stop offset="1" stop-color="#20BF55"/>
</linearGradient>
<linearGradient id="paint1_linear_5927_48045" x1="41.3906" y1="51.5407" x2="45.5946" y2="44.7355" gradientUnits="userSpaceOnUse">
<stop stop-color="#662F88"/>
<stop offset="1" stop-color="#20BF55"/>
</linearGradient>
<linearGradient id="paint2_linear_5927_48045" x1="38.957" y1="56.4079" x2="42.6245" y2="48.7657" gradientUnits="userSpaceOnUse">
<stop stop-color="#662F88"/>
<stop offset="1" stop-color="#20BF55"/>
</linearGradient>
</defs>
</svg>
