<svg width="71" height="73" viewBox="0 0 71 73" fill="none" xmlns="http://www.w3.org/2000/svg">
<path d="M70.9991 67.0286L70.1889 56.0611H70.1894C70.0228 54.0265 69.0972 52.128 67.5971 50.743C66.097 49.3588 64.1307 48.5881 62.0893 48.5847H51.0325C50.4708 47.7439 49.8216 46.9648 49.0967 46.2602C50.3968 44.0944 50.6126 41.4468 49.6798 39.0997L46.9824 32.3844C46.9084 32.1934 46.87 31.99 46.8689 31.7849V31.5499C49.268 31.2837 51.3789 29.8474 52.5077 27.7145C53.6366 25.5815 53.6366 23.0277 52.5077 20.8947C51.3788 18.7618 49.268 17.3255 46.8689 17.0587C46.696 13.5245 45.2383 10.1751 42.7696 7.63929C40.3011 5.1041 36.9918 3.55697 33.4632 3.28866C30.1906 0.890729 26.1687 -0.258477 22.1233 0.0488937C17.8675 0.438192 13.9079 2.39374 11.0116 5.53644C8.11582 8.67958 6.48972 12.7856 6.44966 17.0589C4.0607 17.3363 1.96233 18.7736 0.84075 20.9009C-0.28025 23.0288 -0.28025 25.5725 0.84075 27.6998C1.96231 29.8271 4.06084 31.2646 6.44966 31.5419V31.777C6.43666 31.9871 6.38468 32.1934 6.29541 32.3843L3.59806 39.124H3.59863C2.63697 41.5423 2.89574 44.2758 4.29473 46.4703C1.59059 49.1842 0.0627052 52.8534 0.0424549 56.6847V68.0246C0.0424549 69.314 0.554368 70.5503 1.46573 71.4617C2.37711 72.3731 3.61342 72.885 4.90279 72.885H48.6435C49.9323 72.885 51.1686 72.3731 52.08 71.4617C52.9914 70.5503 53.5038 69.314 53.5038 68.0246V64.7849H54.7514H54.7508C55.6707 65.8132 56.9843 66.402 58.3636 66.4047C58.558 66.416 58.7529 66.416 58.9467 66.4047L60.7044 69.9203C61.4627 71.4346 62.8831 72.5088 64.5461 72.8257C66.2095 73.1432 67.9254 72.6669 69.1878 71.5386C70.45 70.4097 71.1138 68.7575 70.9839 67.0693L70.9991 67.0286ZM46.8694 20.3155C48.1 20.5652 49.1447 21.3715 49.6985 22.4982C50.2522 23.6248 50.2522 24.9447 49.6985 26.0714C49.1448 27.198 48.1 28.0042 46.8694 28.254V20.3155ZM45.371 37.0582L46.6672 40.2979C47.1904 41.5788 47.1344 43.023 46.5135 44.2593C44.2324 42.8502 41.6045 42.1044 38.9235 42.1044H35.6832C34.9684 42.1021 34.3401 41.6315 34.1362 40.9461L33.0265 37.2849C35.1763 36.1531 36.9918 34.4773 38.2919 32.4251C38.8761 32.9404 39.6264 33.228 40.4056 33.2347H43.5567C43.3651 34.3665 42.7798 35.3943 41.9034 36.135C41.0276 36.8763 39.9174 37.2837 38.7692 37.2848C37.8748 37.2848 37.1493 38.0103 37.1493 38.9047C37.1493 39.7997 37.8748 40.5252 38.7692 40.5252C41.4027 40.5111 43.865 39.2183 45.3709 37.0582L45.371 37.0582ZM26.6192 35.6241C23.8268 35.6241 21.1482 34.515 19.1733 32.5403C17.1986 30.5656 16.0895 27.8868 16.0895 25.0944V18.6142H20.1395C22.6889 18.6142 25.0897 17.4135 26.6192 15.3738C28.1493 17.4136 30.5501 18.6142 33.0995 18.6142H37.1495V25.0944C37.1495 27.8868 36.0404 30.5655 34.0657 32.5403C32.091 34.515 29.4122 35.6241 26.6194 35.6241H26.6192ZM32.2168 43.9187C30.6246 45.0515 28.7193 45.6601 26.765 45.6601C24.8112 45.6601 22.9059 45.0515 21.3136 43.9187C21.8798 43.348 22.2973 42.6474 22.529 41.8779L23.5415 38.5081C24.5478 38.742 25.5778 38.8618 26.6113 38.8646C27.7425 38.8584 28.8685 38.7143 29.9648 38.4352L31.0016 41.8779C31.227 42.6503 31.6451 43.3525 32.2169 43.9187H32.2168ZM43.6296 29.9542H40.3899V18.6143H43.6296V29.9542ZM22.3104 3.26427C22.6584 3.26427 23.007 3.22359 23.3636 3.22359H23.363C26.4373 3.22472 29.4229 4.25418 31.844 6.14817C32.109 6.3544 32.4316 6.47306 32.7672 6.48832C35.2663 6.59397 37.6597 7.5223 39.5763 9.12925C41.4922 10.7367 42.8234 12.9318 43.3625 15.3739H40.3899C39.8187 15.3767 39.2587 15.5332 38.7694 15.8276C38.2807 15.5332 37.7207 15.3767 37.1495 15.3739H33.0995C31.8107 15.3739 30.5744 14.862 29.663 13.9506C28.7516 13.0392 28.2397 11.8029 28.2397 10.5141C28.2397 9.61912 27.5142 8.89423 26.6193 8.89423C25.7248 8.89423 24.9994 9.61915 24.9994 10.5141C24.9994 11.8029 24.4875 13.0392 23.5761 13.9506C22.6647 14.862 21.4284 15.3739 20.1396 15.3739H16.0896C15.5183 15.3767 14.9584 15.5332 14.4691 15.8276C13.9804 15.5332 13.4204 15.3767 12.8492 15.3739H9.75511C10.1597 12.229 11.6236 9.31569 13.9063 7.11434C16.1883 4.91299 19.1526 3.55535 22.3105 3.26432L22.3104 3.26427ZM9.60924 18.614H12.849V29.9539H9.60924V18.614ZM3.12899 24.284C3.12899 23.3505 3.45105 22.4454 4.0415 21.7221C4.63194 20.9989 5.45404 20.5017 6.36884 20.3147V28.2532C5.45407 28.0662 4.63194 27.569 4.0415 26.8458C3.45105 26.1225 3.12899 25.2174 3.12899 24.284ZM6.57169 40.2976L9.26122 33.5666C9.30981 33.4372 9.33411 33.2993 9.37479 33.1699H9.37422C9.45276 33.1739 9.53073 33.1739 9.60927 33.1699H12.849C13.6282 33.1626 14.3791 32.875 14.9633 32.3597C16.3126 34.5068 18.2264 36.2414 20.4954 37.3737L19.4343 40.9136C19.2422 41.6142 18.606 42.1012 17.8794 42.1041H14.639C11.8659 42.1052 9.15047 42.9007 6.8146 44.3964C6.12075 43.1364 6.03147 41.6312 6.57164 40.2977L6.57169 40.2976ZM33.2124 69.6447H14.6226V63.9742C14.6226 63.0797 13.8972 62.3543 13.0028 62.3543C12.1078 62.3543 11.3823 63.0798 11.3823 63.9742V69.6441H4.90205L4.90261 69.6447C4.00762 69.6447 3.28215 68.9192 3.28215 68.0242V56.6843C3.28215 53.6767 4.47717 50.7923 6.60393 48.6655C8.73069 46.5386 11.6152 45.3443 14.6228 45.3443H17.9683C20.3273 47.631 23.4834 48.9095 26.7691 48.9095C30.0541 48.9095 33.2108 47.6309 35.5698 45.3443H38.9233C41.8856 45.3477 44.7289 46.5111 46.8449 48.584H41.6852C39.6409 48.5778 37.6695 49.3451 36.1672 50.7317C34.6654 52.1189 33.7427 54.0218 33.585 56.0605L32.7748 67.028H32.7753C32.707 67.9225 32.8573 68.8209 33.2127 69.6447L33.2124 69.6447ZM50.2632 68.0248V68.0242C50.2632 68.4542 50.0926 68.8661 49.7886 69.1701C49.4852 69.4741 49.0727 69.6447 48.6433 69.6447H43.1598L44.7797 66.405V66.4044C46.3663 66.6016 47.9461 65.9942 48.9913 64.7845H50.2389L50.2632 68.0248ZM43.783 61.5446C43.783 60.8891 44.1779 60.2981 44.7831 60.0478C45.3888 59.7969 46.0854 59.9353 46.5487 60.3987C47.012 60.862 47.1505 61.5586 46.9002 62.1643C46.6493 62.7695 46.0583 63.1644 45.4034 63.1644C44.5084 63.1644 43.7829 62.4389 43.7829 61.5445L43.783 61.5446ZM58.3632 63.1644C57.7083 63.1644 57.1173 62.7695 56.8664 62.1643C56.6155 61.5586 56.7545 60.862 57.2178 60.3987C57.6812 59.9354 58.3778 59.7969 58.9829 60.0478C59.5886 60.2981 59.983 60.8891 59.983 61.5446C59.983 61.974 59.8124 62.3859 59.509 62.6899C59.205 62.9939 58.7931 63.1645 58.3631 63.1645L58.3632 63.1644ZM67.1922 68.9401V68.9396C66.7012 69.4673 65.983 69.7215 65.2688 69.6198C64.5552 69.5181 63.9365 69.0735 63.6122 68.4293L61.8545 64.9137C62.9794 63.7521 63.453 62.1067 63.1179 60.5246C62.7823 58.9425 61.6816 57.6311 60.182 57.0259C58.6819 56.4202 56.9794 56.601 55.6399 57.5073C54.3002 58.4136 53.4996 59.9268 53.5035 61.5444H50.2631C50.2756 59.9216 49.4772 58.4001 48.1347 57.4881C46.7928 56.5762 45.0841 56.3942 43.5801 57.0027C42.0761 57.6113 40.9747 58.9306 40.6448 60.5189C40.3148 62.1077 40.799 63.7565 41.9364 64.9137L40.1464 68.4293C39.8419 69.044 39.2678 69.4813 38.5944 69.6113C37.9209 69.7407 37.2254 69.5486 36.7146 69.0909C36.2032 68.6332 35.936 67.9631 35.9908 67.2789L36.801 56.3114V56.3119C36.8948 55.0881 37.448 53.9457 38.3498 53.1134C39.251 52.2811 40.4341 51.8206 41.6608 51.824H62.0818C63.3091 51.8206 64.4916 52.2811 65.3935 53.1134C66.2947 53.9457 66.8485 55.0881 66.9422 56.3119L67.7525 67.2795V67.2789C67.8084 67.8869 67.6056 68.4898 67.1931 68.9395L67.1922 68.9401Z" fill="url(#paint0_linear_5927_48044)"/>
<defs>
<linearGradient id="paint0_linear_5927_48044" x1="3.37009e-06" y1="52.1359" x2="105.863" y2="4.20243" gradientUnits="userSpaceOnUse">
<stop stop-color="#662F88"/>
<stop offset="1" stop-color="#20BF55"/>
</linearGradient>
</defs>
</svg>
