<svg width="88" height="48" viewBox="0 0 88 48" fill="none" xmlns="http://www.w3.org/2000/svg">
<path fill-rule="evenodd" clip-rule="evenodd" d="M0.332031 41.3487L0.332031 6.11488C0.332031 2.7487 3.08372 -0.000606537 6.45092 -0.000606537L81.2325 -0.000606537C84.6005 -0.000606537 87.3514 2.74956 87.3514 6.11488L87.352 41.3487C87.352 44.7149 84.6003 47.4642 81.2331 47.4642L6.45159 47.4648C3.08423 47.4689 0.332706 44.7147 0.332706 41.3487L0.332031 41.3487ZM75.9958 23.7344C75.9958 26.0854 77.9091 27.9984 80.2662 27.9984C82.6225 27.9984 84.5325 26.0901 84.5325 23.7344C84.5325 21.3793 82.6232 19.4664 80.2662 19.4664C77.9091 19.4664 75.9958 21.3793 75.9958 23.7344ZM10.8792 44.2476L73.8239 44.2476V3.21597L10.8792 3.21597L10.8792 44.2476ZM5.9283 29.0406C5.9283 29.4389 6.25471 29.7652 6.65329 29.7652C7.05187 29.7652 7.37829 29.4389 7.37829 29.0406L7.37829 15.7215C7.37829 15.3231 7.05187 14.9969 6.65329 14.9969C6.25471 14.9969 5.9283 15.3231 5.9283 15.7215L5.9283 29.0406ZM5.46498 32.946C5.46498 33.6025 5.99641 34.1296 6.65329 34.1296C7.31018 34.1296 7.83757 33.5985 7.83757 32.946C7.83757 32.2895 7.30614 31.7583 6.64925 31.7583C5.99305 31.7583 5.46498 32.2895 5.46498 32.946Z" fill="url(#paint0_linear_5927_48049)"/>
<path d="M55.2668 27.5682L54.4635 21.3121C54.4082 20.9576 54.367 20.5895 54.3299 20.235C54.314 20.104 54.2999 19.9748 54.2862 19.8438C53.9963 17.3143 51.8764 15.4062 49.356 15.4062C48.2192 15.4062 47.1074 15.8068 46.2281 16.5318C45.563 17.0796 44.7504 17.381 43.945 17.381H43.6295C42.824 17.381 42.0137 17.0796 41.3486 16.5318C40.4671 15.8068 39.3553 15.4062 38.2184 15.4062C35.6981 15.4062 33.5806 17.3141 33.2907 19.8438L33.2491 20.2236C33.2101 20.5826 33.1709 20.9534 33.1109 21.3239L32.3101 27.5706C32.1813 28.5739 32.4875 29.5842 33.1548 30.3414C33.8085 31.0849 34.7497 31.5129 35.7349 31.5129C36.9432 31.5129 38.0803 30.8592 38.6995 29.8074L40.6468 26.5046C40.8955 26.0834 41.3465 25.8234 41.8299 25.8234H45.7473C46.2285 25.8234 46.682 26.0858 46.9304 26.5046L48.8731 29.8052C49.4944 30.8594 50.6314 31.5129 51.8422 31.5129C52.8274 31.5129 53.7685 31.0849 54.4223 30.3414C55.0896 29.5841 55.3957 28.5739 55.2669 27.568L55.2668 27.5682ZM37.9422 21.6161C36.9456 21.6161 36.1353 20.7991 36.1353 19.7932C36.1353 18.7874 36.9455 17.9704 37.9422 17.9704C38.9365 17.9704 39.7465 18.7874 39.7465 19.7932C39.7465 20.7991 38.9365 21.6161 37.9422 21.6161ZM49.6368 21.6161C48.6403 21.6161 47.8299 20.7991 47.8299 19.7932C47.8299 18.7874 48.6401 17.9704 49.6368 17.9704C50.6312 17.9704 51.4412 18.7874 51.4412 19.7932C51.4412 20.7991 50.6312 21.6161 49.6368 21.6161Z" fill="url(#paint1_linear_5927_48049)"/>
<defs>
<linearGradient id="paint0_linear_5927_48049" x1="62.5473" y1="47.4648" x2="42.2223" y2="-32.6614" gradientUnits="userSpaceOnUse">
<stop stop-color="#662F88"/>
<stop offset="1" stop-color="#20BF55"/>
</linearGradient>
<linearGradient id="paint1_linear_5927_48049" x1="32.2813" y1="26.9218" x2="60.966" y2="7.86093" gradientUnits="userSpaceOnUse">
<stop stop-color="#662F88"/>
<stop offset="1" stop-color="#20BF55"/>
</linearGradient>
</defs>
</svg>
