<svg width="424" height="302" viewBox="0 0 424 302" fill="none" xmlns="http://www.w3.org/2000/svg">
<path d="M217.243 17.9702H125.797C124.415 17.9702 123.295 19.0874 123.295 20.4656V73.5842C123.295 74.9624 124.415 76.0796 125.797 76.0796H217.243C218.624 76.0796 219.744 74.9624 219.744 73.5842V20.4656C219.744 19.0874 218.624 17.9702 217.243 17.9702Z" stroke="#C0CCD8" stroke-miterlimit="10"/>
<path d="M123.295 28.4961H219.744" stroke="#C0CCD8" stroke-miterlimit="10"/>
<path d="M129.522 24.8267C130.374 24.8267 131.065 24.1376 131.065 23.2875C131.065 22.4374 130.374 21.7483 129.522 21.7483C128.669 21.7483 127.979 22.4374 127.979 23.2875C127.979 24.1376 128.669 24.8267 129.522 24.8267Z" stroke="#C0CCD8" stroke-miterlimit="10"/>
<path d="M137.409 23.2877C137.409 23.5952 137.317 23.8958 137.146 24.1515C136.975 24.4071 136.731 24.6064 136.446 24.7241C136.161 24.8418 135.848 24.8726 135.546 24.8126C135.243 24.7526 134.966 24.6045 134.748 24.3871C134.53 24.1696 134.381 23.8926 134.321 23.591C134.261 23.2894 134.292 22.9768 134.41 22.6927C134.528 22.4086 134.727 22.1658 134.984 21.9949C135.24 21.8241 135.542 21.7329 135.85 21.7329C136.263 21.7329 136.66 21.8967 136.952 22.1883C137.244 22.4799 137.409 22.8753 137.409 23.2877Z" stroke="#C0CCD8" stroke-miterlimit="10"/>
<path d="M143.752 23.2877C143.752 23.5952 143.661 23.8958 143.49 24.1515C143.318 24.4071 143.075 24.6064 142.79 24.7241C142.505 24.8418 142.192 24.8726 141.889 24.8126C141.587 24.7526 141.309 24.6045 141.091 24.3871C140.873 24.1696 140.725 23.8926 140.665 23.591C140.605 23.2894 140.635 22.9768 140.753 22.6927C140.871 22.4086 141.071 22.1658 141.328 21.9949C141.584 21.8241 141.885 21.7329 142.194 21.7329C142.607 21.7329 143.003 21.8967 143.296 22.1883C143.588 22.4799 143.752 22.8753 143.752 23.2877Z" stroke="#C0CCD8" stroke-miterlimit="10"/>
<path d="M95.5005 51.4443H72.6956C70.4917 51.4443 68.7051 53.2263 68.7051 55.4245V78.1708C68.7051 80.369 70.4917 82.151 72.6956 82.151H95.5005C97.7044 82.151 99.491 80.369 99.491 78.1708V55.4245C99.491 53.2263 97.7044 51.4443 95.5005 51.4443Z" stroke="#C0CCD8" stroke-linejoin="round"/>
<path d="M84.0981 75.5899C88.9664 75.5899 92.913 71.6535 92.913 66.7977C92.913 61.9419 88.9664 58.0055 84.0981 58.0055C79.2298 58.0055 75.2832 61.9419 75.2832 66.7977C75.2832 71.6535 79.2298 75.5899 84.0981 75.5899Z" stroke="#C0CCD8" stroke-width="3" stroke-miterlimit="10"/>
<path d="M90.0523 60.5942L77.6055 73.0091" stroke="#C0CCD8" stroke-width="3" stroke-miterlimit="10"/>
<path d="M303.605 75.1701L297.222 68.5702H198.98C197.887 68.5702 196.805 68.3554 195.795 67.9382C194.785 67.5209 193.867 66.9094 193.094 66.1384C192.321 65.3675 191.708 64.4522 191.29 63.4449C190.872 62.4376 190.656 61.358 190.656 60.2677V9.30245C190.656 7.10051 191.533 4.98874 193.094 3.43173C194.655 1.87472 196.772 1 198.98 1H297.659C299.866 1 301.984 1.87472 303.545 3.43173C305.106 4.98874 305.983 7.10051 305.983 9.30245V74.214C305.984 74.4893 305.902 74.7587 305.748 74.9872C305.594 75.2157 305.375 75.3929 305.119 75.4959C304.863 75.5989 304.582 75.6229 304.312 75.5648C304.042 75.5068 303.796 75.3693 303.605 75.1701Z" fill="white" stroke="#C0CCD8" stroke-linejoin="round"/>
<path d="M419.01 140.859H396.205C394.001 140.859 392.215 142.641 392.215 144.839V167.585C392.215 169.784 394.001 171.566 396.205 171.566H419.01C421.214 171.566 423.001 169.784 423.001 167.585V144.839C423.001 142.641 421.214 140.859 419.01 140.859Z" stroke="#C0CCD8" stroke-linejoin="round"/>
<path d="M417.529 164.833C417.411 164.874 417.288 164.895 417.163 164.896H398.052C397.856 164.895 397.663 164.842 397.493 164.744C397.323 164.645 397.182 164.504 397.085 164.334C396.987 164.164 396.935 163.971 396.936 163.775C396.936 163.579 396.988 163.386 397.086 163.217L406.633 146.713C406.73 146.542 406.871 146.401 407.041 146.302C407.21 146.204 407.403 146.152 407.6 146.153C407.796 146.153 407.989 146.204 408.16 146.301C408.331 146.398 408.473 146.537 408.574 146.705L418.129 163.209C418.212 163.351 418.262 163.51 418.276 163.674C418.29 163.838 418.268 164.004 418.211 164.158C418.153 164.312 418.062 164.452 417.945 164.568C417.827 164.683 417.685 164.771 417.529 164.826V164.833ZM398.582 163.481H416.633L407.6 147.887L398.582 163.481Z" fill="#C0CCD8"/>
<path d="M407.608 160.2C407.433 160.202 407.264 160.136 407.137 160.015C407.01 159.895 406.936 159.73 406.93 159.555L406.54 153.064C406.534 152.921 406.556 152.778 406.607 152.644C406.657 152.51 406.734 152.387 406.833 152.283C406.932 152.179 407.051 152.097 407.183 152.04C407.315 151.983 407.456 151.953 407.6 151.952C407.744 151.952 407.886 151.981 408.018 152.037C408.15 152.093 408.27 152.175 408.369 152.278C408.469 152.381 408.547 152.503 408.598 152.637C408.649 152.77 408.673 152.913 408.668 153.056L408.278 159.555C408.272 159.728 408.199 159.892 408.074 160.013C407.949 160.133 407.782 160.2 407.608 160.2Z" fill="#C0CCD8"/>
<path d="M408.294 161.771C408.292 161.906 408.251 162.037 408.174 162.149C408.098 162.26 407.99 162.346 407.865 162.397C407.739 162.448 407.602 162.46 407.469 162.433C407.337 162.406 407.215 162.34 407.12 162.244C407.025 162.148 406.96 162.026 406.934 161.893C406.909 161.761 406.923 161.624 406.975 161.499C407.027 161.375 407.115 161.268 407.227 161.194C407.34 161.119 407.472 161.079 407.608 161.079C407.698 161.079 407.788 161.097 407.872 161.132C407.956 161.166 408.032 161.217 408.095 161.282C408.159 161.346 408.21 161.423 408.244 161.506C408.278 161.59 408.295 161.68 408.294 161.771Z" fill="#C0CCD8"/>
<path d="M4.47608 116.69C4.47608 117.033 4.37415 117.368 4.18317 117.653C3.99219 117.938 3.72074 118.161 3.40316 118.292C3.08557 118.423 2.73611 118.457 2.39896 118.39C2.06182 118.324 1.75213 118.158 1.50906 117.916C1.26599 117.674 1.10046 117.365 1.0334 117.028C0.966334 116.692 1.00075 116.344 1.1323 116.027C1.26385 115.71 1.48662 115.439 1.77244 115.249C2.05825 115.058 2.39429 114.957 2.73804 114.957C3.19899 114.957 3.64107 115.139 3.96702 115.464C4.29297 115.79 4.47608 116.23 4.47608 116.69V116.69Z" stroke="#C0CCD8" stroke-linecap="round" stroke-linejoin="round"/>
<path d="M296.265 209.051C296.267 209.394 296.166 209.73 295.976 210.016C295.786 210.302 295.515 210.526 295.198 210.658C294.88 210.791 294.53 210.826 294.193 210.76C293.855 210.694 293.545 210.53 293.301 210.287C293.057 210.045 292.891 209.736 292.823 209.4C292.755 209.063 292.789 208.715 292.921 208.397C293.052 208.08 293.275 207.809 293.561 207.618C293.847 207.427 294.183 207.325 294.527 207.325C294.987 207.325 295.428 207.507 295.753 207.83C296.079 208.154 296.263 208.593 296.265 209.051V209.051Z" stroke="#C0CCD8" stroke-linecap="round" stroke-linejoin="round"/>
<path d="M415.605 66.7977C415.607 67.1409 415.506 67.4768 415.316 67.7629C415.126 68.049 414.855 68.2724 414.537 68.4048C414.22 68.5372 413.87 68.5727 413.533 68.5067C413.195 68.4406 412.885 68.2762 412.641 68.034C412.397 67.7919 412.231 67.483 412.163 67.1465C412.095 66.81 412.129 66.4611 412.26 66.1439C412.392 65.8266 412.615 65.5554 412.901 65.3646C413.186 65.1738 413.523 65.0719 413.867 65.0719C414.327 65.0719 414.767 65.2535 415.093 65.5769C415.419 65.9003 415.603 66.3393 415.605 66.7977V66.7977Z" stroke="#C0CCD8" stroke-linecap="round" stroke-linejoin="round"/>
<path d="M321.859 13.2204C321.86 13.5636 321.76 13.8995 321.57 14.1856C321.38 14.4717 321.109 14.6952 320.791 14.8276C320.474 14.96 320.124 14.9954 319.787 14.9294C319.449 14.8634 319.138 14.6989 318.895 14.4568C318.651 14.2146 318.484 13.9058 318.417 13.5693C318.349 13.2328 318.383 12.8838 318.514 12.5666C318.646 12.2494 318.868 11.9782 319.154 11.7873C319.44 11.5965 319.777 11.4946 320.121 11.4946C320.58 11.4946 321.021 11.6762 321.347 11.9996C321.673 12.3231 321.857 12.762 321.859 13.2204Z" stroke="#C0CCD8" stroke-linecap="round" stroke-linejoin="round"/>
<path d="M412.137 123.453V128.817" stroke="#C0CCD8" stroke-linecap="round" stroke-linejoin="round"/>
<path d="M414.825 126.135H409.439" stroke="#C0CCD8" stroke-linecap="round" stroke-linejoin="round"/>
<path d="M271.541 226.799V232.163" stroke="#C0CCD8" stroke-linecap="round" stroke-linejoin="round"/>
<path d="M274.231 229.481H268.854" stroke="#C0CCD8" stroke-linecap="round" stroke-linejoin="round"/>
<path d="M157.797 3.33215V8.6961" stroke="#C0CCD8" stroke-linecap="round" stroke-linejoin="round"/>
<path d="M160.487 6.01404H155.109" stroke="#C0CCD8" stroke-linecap="round" stroke-linejoin="round"/>
<path d="M37.4141 55.1759V60.5476" stroke="#C0CCD8" stroke-linecap="round" stroke-linejoin="round"/>
<path d="M40.1024 57.8656H34.7246" stroke="#C0CCD8" stroke-linecap="round" stroke-linejoin="round"/>
<path d="M28.6523 178.687V184.05" stroke="#C0CCD8" stroke-linecap="round" stroke-linejoin="round"/>
<path d="M31.3407 181.368H25.9629" stroke="#C0CCD8" stroke-linecap="round" stroke-linejoin="round"/>
<path d="M333.512 33.7046V39.0685" stroke="#C0CCD8" stroke-linecap="round" stroke-linejoin="round"/>
<path d="M336.2 36.3865H330.822" stroke="#C0CCD8" stroke-linecap="round" stroke-linejoin="round"/>
<path d="M68.6663 148.174H14.8495C14.3995 148.172 13.9685 147.993 13.6503 147.676C13.3321 147.358 13.1524 146.928 13.1504 146.479C13.1504 146.029 13.3291 145.597 13.6476 145.278C13.966 144.959 14.3981 144.779 14.8495 144.777H68.6663C69.119 144.777 69.5532 144.956 69.8733 145.276C70.1934 145.595 70.3732 146.028 70.3732 146.479C70.3711 146.93 70.1904 147.361 69.8705 147.678C69.5506 147.996 69.1177 148.174 68.6663 148.174V148.174Z" stroke="#C0CCD8" stroke-miterlimit="10"/>
<path d="M385.543 105.278H331.765C331.314 105.278 330.881 105.1 330.561 104.782C330.241 104.465 330.061 104.034 330.059 103.584C330.059 103.36 330.103 103.139 330.189 102.932C330.274 102.726 330.4 102.538 330.559 102.38C330.717 102.222 330.905 102.096 331.112 102.011C331.319 101.925 331.541 101.881 331.765 101.881H385.543C385.995 101.883 386.427 102.063 386.745 102.382C387.064 102.702 387.242 103.133 387.242 103.584V103.584C387.24 104.032 387.061 104.462 386.743 104.78C386.424 105.097 385.993 105.276 385.543 105.278V105.278Z" stroke="#C0CCD8" stroke-miterlimit="10"/>
<path d="M393.415 116.69H373.564C373.339 116.69 373.123 116.601 372.964 116.442C372.804 116.283 372.715 116.068 372.715 115.843C372.715 115.618 372.804 115.403 372.964 115.244C373.123 115.085 373.339 114.996 373.564 114.996H393.454C393.567 114.994 393.678 115.016 393.782 115.058C393.886 115.1 393.98 115.162 394.06 115.241C394.14 115.32 394.203 115.413 394.246 115.517C394.29 115.62 394.312 115.731 394.312 115.843C394.312 115.958 394.289 116.072 394.243 116.178C394.197 116.284 394.131 116.38 394.047 116.459C393.963 116.538 393.863 116.6 393.755 116.64C393.646 116.679 393.531 116.697 393.415 116.69Z" fill="#C0CCD8"/>
<path d="M340.775 76.2429H320.877C320.765 76.2429 320.654 76.2207 320.55 76.1776C320.446 76.1346 320.352 76.0715 320.273 75.9919C320.194 75.9124 320.132 75.8181 320.09 75.7144C320.048 75.6107 320.026 75.4997 320.027 75.3878C320.027 75.163 320.117 74.9475 320.276 74.7886C320.436 74.6297 320.652 74.5404 320.877 74.5404H340.775C341 74.5404 341.216 74.6297 341.375 74.7886C341.535 74.9475 341.624 75.163 341.624 75.3878C341.625 75.4997 341.604 75.6107 341.562 75.7144C341.52 75.8181 341.457 75.9124 341.378 75.9919C341.299 76.0715 341.205 76.1346 341.102 76.1776C340.998 76.2207 340.887 76.2429 340.775 76.2429Z" fill="#C0CCD8"/>
<path d="M48.6668 133.14H33.4453C33.333 133.14 33.2219 133.117 33.1184 133.074C33.0148 133.031 32.9208 132.968 32.8418 132.889C32.7628 132.809 32.7004 132.715 32.6582 132.611C32.6159 132.507 32.5947 132.396 32.5957 132.284C32.5957 132.06 32.6852 131.844 32.8446 131.685C33.0039 131.526 33.22 131.437 33.4453 131.437H48.6668C48.8921 131.437 49.1082 131.526 49.2675 131.685C49.4268 131.844 49.5163 132.06 49.5163 132.284C49.5173 132.396 49.4961 132.507 49.4539 132.611C49.4116 132.715 49.3492 132.809 49.2702 132.889C49.1913 132.968 49.0972 133.031 48.9937 133.074C48.8901 133.117 48.779 133.14 48.6668 133.14Z" fill="#C0CCD8"/>
<path d="M355.831 58.2153H372.308C373.9 58.2153 375.191 56.9276 375.191 55.339V38.9051C375.191 37.3166 373.9 36.0288 372.308 36.0288H355.831C354.239 36.0288 352.948 37.3166 352.948 38.9051V55.339C352.948 56.9276 354.239 58.2153 355.831 58.2153Z" stroke="#C0CCD8" stroke-linejoin="round"/>
<path d="M367.22 46.1893L366.838 48.0939H368.958V49.7808H366.55L365.918 53.1158H364.11L364.749 49.7808H362.411L361.78 53.1158H360.01L360.618 49.7808H358.662V48.0939H360.946L361.328 46.1893H359.254V44.4713H361.593L362.232 41.1285H364.032L363.401 44.4713H365.739L366.386 41.1285H368.155L367.508 44.4713H369.488V46.1893H367.22ZM362.692 48.0939H365.03L365.419 46.1893H363.081L362.692 48.0939Z" fill="#C0CCD8"/>
<path d="M176.767 211.702L161.141 109.484H90.7617L107.636 217.797C108.163 221.319 109.955 224.529 112.68 226.83C115.404 229.132 118.874 230.366 122.444 230.305H240.825L241.691 220.385H187.04C184.561 220.432 182.151 219.576 180.26 217.978C178.369 216.38 177.127 214.148 176.767 211.702Z" fill="#475577"/>
<path d="M110.13 211.702L95.1114 113.262C94.954 112.196 94.4119 111.224 93.5867 110.528C92.7615 109.832 91.7101 109.461 90.6299 109.484H90.4974C89.7316 109.494 88.9764 109.664 88.281 109.984C87.5856 110.304 86.9655 110.767 86.4612 111.342C85.9569 111.917 85.5795 112.591 85.3538 113.321C85.128 114.051 85.0588 114.82 85.1508 115.578L101.074 217.797C101.602 221.325 103.4 224.541 106.133 226.843C108.865 229.145 112.345 230.376 115.921 230.305H192.138L193.011 220.385H120.434C117.95 220.442 115.531 219.59 113.633 217.99C111.735 216.391 110.489 214.154 110.13 211.702Z" fill="#717A91"/>
<path d="M157.797 230.305V286.105" stroke="#544943" stroke-width="1.5" stroke-miterlimit="10"/>
<path d="M126.441 291.034C126.441 289.727 126.962 288.473 127.889 287.549C128.815 286.625 130.072 286.105 131.383 286.105H184.218C185.528 286.105 186.785 286.625 187.712 287.549C188.638 288.473 189.159 289.727 189.159 291.034" stroke="#544943" stroke-width="1.5" stroke-miterlimit="10"/>
<path d="M152.396 291.034C152.396 289.727 152.917 288.473 153.844 287.549C154.77 286.625 156.027 286.105 157.338 286.105" stroke="#544943" stroke-width="1.5" stroke-miterlimit="10"/>
<path d="M131.431 296.009C131.433 296.995 131.141 297.96 130.593 298.781C130.044 299.601 129.264 300.241 128.351 300.619C127.438 300.997 126.432 301.097 125.463 300.905C124.493 300.713 123.602 300.238 122.903 299.541C122.204 298.843 121.728 297.955 121.535 296.987C121.343 296.02 121.442 295.017 121.821 294.106C122.2 293.196 122.842 292.417 123.665 291.87C124.487 291.324 125.454 291.032 126.443 291.034C127.766 291.034 129.035 291.558 129.97 292.491C130.906 293.424 131.431 294.69 131.431 296.009Z" fill="#717A91"/>
<g opacity="0.45">
<path opacity="0.45" d="M128.274 296.009C128.276 296.373 128.169 296.728 127.968 297.031C127.766 297.334 127.479 297.571 127.143 297.71C126.806 297.85 126.436 297.887 126.078 297.817C125.721 297.746 125.392 297.571 125.134 297.314C124.877 297.057 124.701 296.729 124.631 296.373C124.56 296.016 124.597 295.647 124.737 295.311C124.877 294.976 125.114 294.689 125.418 294.488C125.722 294.287 126.078 294.181 126.443 294.182C126.929 294.182 127.394 294.375 127.738 294.717C128.081 295.06 128.274 295.525 128.274 296.009Z" fill="#8E9DB2"/>
</g>
<path d="M157.384 296.009C157.386 296.995 157.094 297.96 156.546 298.781C155.997 299.601 155.217 300.241 154.304 300.619C153.391 300.997 152.386 301.097 151.416 300.905C150.446 300.713 149.555 300.238 148.856 299.541C148.157 298.843 147.681 297.955 147.488 296.987C147.296 296.02 147.395 295.017 147.774 294.106C148.153 293.196 148.795 292.417 149.618 291.87C150.441 291.324 151.408 291.032 152.396 291.034C153.719 291.034 154.988 291.558 155.923 292.491C156.859 293.424 157.384 294.69 157.384 296.009Z" fill="#717A91"/>
<g opacity="0.45">
<path opacity="0.45" d="M154.229 296.009C154.231 296.373 154.124 296.728 153.923 297.031C153.721 297.334 153.434 297.571 153.098 297.71C152.761 297.85 152.391 297.887 152.033 297.817C151.676 297.746 151.347 297.571 151.09 297.314C150.832 297.057 150.656 296.729 150.586 296.373C150.515 296.016 150.552 295.647 150.692 295.311C150.832 294.976 151.069 294.689 151.373 294.488C151.677 294.287 152.033 294.181 152.398 294.182C152.884 294.182 153.35 294.375 153.693 294.717C154.037 295.06 154.229 295.525 154.229 296.009Z" fill="#8E9DB2"/>
</g>
<path d="M194.148 296.009C194.148 296.993 193.856 297.955 193.307 298.773C192.759 299.591 191.98 300.229 191.069 300.606C190.157 300.982 189.154 301.081 188.187 300.889C187.219 300.697 186.33 300.223 185.633 299.527C184.935 298.831 184.46 297.945 184.268 296.98C184.075 296.015 184.174 295.014 184.552 294.105C184.929 293.196 185.568 292.419 186.389 291.872C187.209 291.326 188.173 291.034 189.16 291.034C190.483 291.034 191.752 291.558 192.687 292.491C193.623 293.424 194.148 294.69 194.148 296.009Z" fill="#717A91"/>
<g opacity="0.45">
<path opacity="0.45" d="M190.991 296.009C190.991 296.371 190.884 296.724 190.683 297.024C190.481 297.325 190.195 297.559 189.861 297.697C189.526 297.835 189.158 297.871 188.802 297.801C188.447 297.73 188.121 297.556 187.865 297.301C187.608 297.046 187.434 296.72 187.363 296.366C187.293 296.011 187.329 295.644 187.468 295.31C187.606 294.976 187.841 294.691 188.142 294.49C188.443 294.29 188.797 294.182 189.16 294.182C189.645 294.182 190.111 294.375 190.455 294.717C190.798 295.06 190.991 295.525 190.991 296.009Z" fill="#8E9DB2"/>
</g>
<path d="M212.807 120.453L230.639 93.8739L236.173 95.0167C231.948 109.212 229.158 114.824 229.158 114.824" fill="#FFCBBB"/>
<path d="M233.328 99.4246L236.173 95.0168C236.173 95.0168 241.465 93.8041 243.383 92.8246C245.101 91.9341 246.432 90.4461 247.124 88.6423C247.537 87.5228 247.357 84.219 246.874 84.1646C245.736 84.0402 243.468 88.2691 242.408 88.5257C241.348 88.7822 237.896 88.5257 236.002 88.7589C235.03 88.9271 234.112 89.3226 233.324 89.9132C232.535 90.5037 231.899 91.2724 231.466 92.1561L228.551 97.4345" fill="#FFCBBB"/>
<path d="M224.459 101.656L227.592 97.1235L235.698 100.754L233.126 107.634" fill="#E6E8EF"/>
<path d="M159.381 92.2026C159.381 92.2026 172.592 86.139 184.228 96.4626C195.864 106.786 203.713 116.379 207.999 119.481L225.528 99.3701L235.317 103.957C232.737 118.517 225.489 141.745 207.765 144.14C188.585 146.72 160.456 123.15 160.456 123.15" fill="#B9B5B2"/>
<path d="M202.316 126.135L207.998 119.458" stroke="#846A6A" stroke-miterlimit="10"/>
<path d="M230.335 292.581L228.855 298.256C228.77 298.578 228.76 298.915 228.827 299.242C228.893 299.568 229.034 299.875 229.238 300.138C229.442 300.402 229.704 300.615 230.004 300.762C230.303 300.909 230.633 300.985 230.967 300.985H248.222C248.721 300.985 249.198 300.787 249.551 300.436C249.903 300.084 250.101 299.608 250.101 299.111C250.1 298.713 249.973 298.326 249.738 298.005C249.502 297.683 249.171 297.445 248.791 297.323L236.999 292.581" fill="#173789"/>
<path d="M220.39 203.85C217.631 232.73 230.335 292.581 230.335 292.581C230.335 292.581 233.351 296.219 236.999 292.581C236.999 292.581 240.062 235.513 243.281 209.86" fill="#FFCBBB"/>
<path d="M179.223 170.019L199.028 180.381V180.583C199.028 180.583 239.439 177.878 245.55 192.244C255.097 214.804 256.749 288.103 256.749 288.103H227.172C227.172 288.103 216.167 226.542 212.402 222.803C208.638 219.064 193.12 219.32 164.579 219.32C132.522 219.32 148.173 178.119 160.105 174.558" fill="#FCA32D"/>
<path d="M229.221 288.103C229.221 288.103 220.43 224.576 213.968 219.919C206.081 214.229 168.834 217.944 168.834 217.944" stroke="#CE680D" stroke-miterlimit="10"/>
<path d="M168.312 292.581L166.831 298.256C166.746 298.578 166.737 298.915 166.804 299.242C166.87 299.568 167.011 299.875 167.215 300.138C167.419 300.402 167.681 300.615 167.98 300.762C168.28 300.909 168.609 300.985 168.943 300.985H186.199C186.697 300.985 187.175 300.787 187.527 300.436C187.879 300.084 188.077 299.608 188.077 299.111C188.077 298.713 187.949 298.326 187.714 298.005C187.479 297.683 187.148 297.445 186.768 297.323L174.976 292.581" fill="#173789"/>
<path d="M171.181 203.85C168.429 232.73 168.312 292.581 168.312 292.581C168.312 292.581 171.329 296.219 174.976 292.581C174.976 292.581 185.358 235.513 188.584 209.86" fill="#FFCBBB"/>
<path d="M144.29 179.091C144.29 179.091 196.244 179.923 203.032 195.626C211.395 214.928 197.616 288.134 197.616 288.134H166.307V222.679C166.318 222.065 166.086 221.473 165.661 221.029C165.237 220.585 164.654 220.326 164.039 220.308C159.706 220.424 150.01 220.424 137.743 220.424C105.687 220.424 121.337 170.672 133.269 167.119" fill="#FFB548"/>
<path d="M144.291 179.091C144.291 179.091 196.245 179.923 203.034 195.626C205.302 200.858 206.479 209.766 205.871 220.385" stroke="#CE680D" stroke-miterlimit="10"/>
<path d="M170.673 288.103C170.673 288.103 170.993 222.399 169.481 218.916C167.377 214.042 160.198 216.436 143.543 216.436C111.487 216.436 124.549 170.664 136.482 167.119" stroke="#ED841B" stroke-miterlimit="10"/>
<path d="M124.338 187.09C124.338 187.09 140.791 187.487 143.285 184.999C145.779 182.511 143.285 171.239 143.285 171.239" stroke="#ED841B" stroke-miterlimit="10"/>
<path d="M123.934 189.29C123.934 189.29 142.725 189.694 145.569 187.199C148.414 184.703 145.569 173.416 145.569 173.416" stroke="#ED841B" stroke-miterlimit="10" stroke-dasharray="3 2"/>
<path d="M120.762 110.697C120.762 110.697 116.818 180.583 122.788 180.583C128.759 180.583 195.139 180.381 199.028 180.381C202.917 180.381 193.814 120.616 180.705 107.991C180.705 107.991 161.259 86.9476 152.686 88.961C144.113 90.9744 120.762 110.697 120.762 110.697Z" fill="#B9B5B2"/>
<path d="M194.81 142.484L186.572 108.784" stroke="#846A6A" stroke-miterlimit="10"/>
<path d="M87.1845 123.352L69.3442 96.7736L63.8184 97.9163C68.0427 112.104 70.8329 117.724 70.8329 117.724" fill="#FFCBBB"/>
<path d="M66.664 102.309L63.8192 97.9087C63.8192 97.9087 58.5272 96.696 56.6021 95.7165C54.8857 94.8237 53.5554 93.3364 52.861 91.5341C52.4479 90.4147 52.6272 87.1108 53.1104 87.0564C54.2483 86.932 56.5164 91.161 57.5763 91.4175C58.6363 91.6741 62.089 91.4175 63.9829 91.6507C64.9544 91.8189 65.8722 92.2145 66.6607 92.805C67.4492 93.3956 68.0861 94.1642 68.519 95.0479L71.4339 100.326" fill="#FFCBBB"/>
<path d="M75.524 104.555L72.3908 100.023L64.2852 103.653L66.8649 110.533" fill="#E6E8EF"/>
<path d="M145.289 92.5758C145.289 92.5758 132.235 83.325 118.79 94.6903C106.226 105.286 97.8557 126.672 95.0499 126.672C93.0936 126.672 81.0209 111.303 73.7959 101.889L65.2227 106.468C70.6316 122.94 82.4316 150.965 100.077 150.965C113.919 150.965 142.351 118.618 142.351 118.618" fill="#B9B5B2"/>
<path d="M119.623 140.618L140.659 123.119" stroke="#846A6A" stroke-miterlimit="10"/>
<path d="M146.543 94.2315L159.091 107.634L160.728 92.1404" fill="#E6E8EF"/>
<path d="M146.543 94.2315L159.091 107.634L160.728 92.1404" stroke="#846A6A" stroke-linejoin="round"/>
<path d="M156.621 80.6974L160.152 88.409C160.152 88.409 161.57 92.8324 155.686 94.8302C153.919 95.4924 151.998 95.632 150.154 95.2321C148.31 94.8322 146.62 93.9098 145.289 92.5758L144.361 80.4797" fill="#FFCBBB"/>
<path d="M144.953 88.168C144.953 88.168 149.59 93.975 155.685 94.8302L151.258 101.383C147.673 99.3701 143.285 91.5496 143.285 91.5496L144.953 88.168Z" fill="white"/>
<path d="M159.777 87.3517C159.138 90.1759 157.721 92.7659 155.686 94.8301L160.728 98.6315C161.889 95.7863 161.757 91.3552 161.757 91.3552L159.777 87.3517Z" fill="white"/>
<path d="M161.852 68.2436C161.852 68.2436 165.18 80.9616 160.176 84.18C155.172 87.3983 146.482 82.5008 145.975 80.9072C145.469 79.3135 143.209 65.7327 146.466 64.7065C152.265 62.903 160.145 62.8175 161.852 68.2436Z" fill="#FFCBBB"/>
<path d="M161.742 72.3715C161.773 72.4974 161.765 72.6297 161.721 72.7515C161.676 72.8732 161.596 72.9789 161.49 73.0551C161.385 73.1313 161.26 73.1745 161.13 73.1792C161 73.1839 160.871 73.1499 160.761 73.0816C160.65 73.0133 160.563 72.9137 160.509 72.7955C160.456 72.6773 160.439 72.5459 160.46 72.418C160.482 72.2902 160.541 72.1716 160.631 72.0775C160.72 71.9833 160.836 71.9179 160.962 71.8895C161.045 71.8699 161.131 71.8668 161.215 71.8804C161.3 71.8941 161.38 71.9241 161.453 71.9689C161.525 72.0137 161.588 72.0723 161.637 72.1414C161.687 72.2105 161.723 72.2887 161.742 72.3715Z" fill="#173789"/>
<path d="M160.628 68.5779C160.846 68.5779 161.828 68.71 161.617 69.192C161.524 69.4097 161.181 69.4019 160.994 69.3941C160.799 69.3513 160.597 69.3513 160.401 69.3941C160.456 69.4524 160.499 69.5211 160.526 69.5962C160.589 69.7362 160.105 69.7517 160.051 69.7517C159.484 69.6702 158.906 69.7767 158.406 70.0549C158.56 69.5982 158.862 69.2054 159.264 68.9381C159.666 68.6708 160.146 68.5441 160.628 68.5779Z" fill="#173789"/>
<path d="M153.722 74.1284C153.728 74.2577 153.773 74.3821 153.85 74.486C153.928 74.5898 154.034 74.6683 154.156 74.7116C154.279 74.7549 154.411 74.761 154.537 74.7291C154.663 74.6972 154.776 74.6288 154.863 74.5325C154.949 74.4362 155.005 74.3164 155.024 74.1883C155.042 74.0601 155.022 73.9295 154.965 73.8129C154.909 73.6963 154.819 73.5991 154.707 73.5334C154.596 73.4678 154.467 73.4368 154.337 73.4443C154.165 73.4544 154.004 73.5319 153.888 73.66C153.773 73.7881 153.713 73.9565 153.722 74.1284Z" fill="#173789"/>
<path d="M151.795 71.5631C151.328 71.8119 150.938 72.1539 151.016 72.5426C151.094 72.9313 151.406 72.7758 151.6 72.6204C151.918 72.3693 152.28 72.1795 152.668 72.0606C152.582 72.1306 152.513 72.2197 152.467 72.3209C152.421 72.4221 152.399 72.5326 152.403 72.6437C153.011 72.5671 153.577 72.2924 154.012 71.8623C154.448 71.4321 154.729 70.8706 154.811 70.2649C154.533 70.5074 154.227 70.7162 153.9 70.8868C153.237 71.2133 152.481 71.2133 151.795 71.5631Z" fill="#173789"/>
<path d="M158.498 73.1256C158.498 73.1256 160.275 77.5956 159.644 77.9843C159.012 78.3729 156.775 78.3108 156.775 78.3108" stroke="#EF977F" stroke-miterlimit="10"/>
<path d="M158.569 84.9185C156.977 85.4601 155.276 85.6015 153.616 85.3303C151.956 85.0591 150.388 84.3836 149.053 83.3638" stroke="#EF977F" stroke-miterlimit="10"/>
<path d="M155.686 81.9333C155.686 81.9333 156.138 79.9666 159.38 79.9666" stroke="#EF977F" stroke-miterlimit="10"/>
<path d="M164.687 61.4182C164.694 60.8067 164.497 60.2103 164.126 59.7235C163.859 59.4989 163.55 59.3295 163.217 59.2254C162.883 59.1213 162.533 59.0845 162.185 59.1172C159.719 59.0994 157.312 59.8645 155.311 61.3016L156.94 59.8868C157.376 59.5136 158.335 58.9228 157.875 58.2232C157.415 57.5235 156.316 57.9589 155.708 57.9511C152.918 57.9511 150.253 58.915 147.657 59.8946C146.375 60.3392 145.14 60.9095 143.971 61.597C142.796 62.2913 141.852 63.3163 141.258 64.5433C140.821 65.6502 140.624 66.8374 140.682 68.026C140.751 70.1572 140.98 72.2802 141.368 74.3772C141.734 76.7094 142.287 81.1949 145.381 81.4747C145.974 81.5957 146.59 81.502 147.119 81.2104C147.339 81.0134 147.517 80.7741 147.641 80.5069C147.766 80.2397 147.835 79.9502 147.844 79.6556C147.956 78.6964 147.896 77.725 147.665 76.7871C148.242 77.098 148.787 77.6267 149.442 77.5256C149.55 77.5161 149.653 77.4788 149.742 77.4175C149.83 77.3561 149.902 77.2729 149.949 77.1758C149.98 77.0428 149.98 76.9045 149.949 76.7715C149.707 74.5715 149.582 72.3871 149.434 70.1793C152.599 69.5108 155.781 68.9355 158.982 68.4535C160.4 68.2436 161.904 68.0104 163.003 67.0931C164.57 65.7716 164.843 63.4394 164.687 61.4182Z" fill="#173789"/>
<path d="M148.319 77.6189C147.789 76.3284 146.877 74.7659 145.435 75.6443C144.931 76.0555 144.582 76.6258 144.446 77.2613C143.791 79.3991 145.326 82.703 147.431 82.392C148.452 82.2365 148.99 81.0238 149.442 80.0599" fill="#FFCBBB"/>
<path d="M339.387 216.498C339.375 211.29 340.97 206.204 343.957 201.931C346.944 197.659 351.177 194.407 356.081 192.617C357.897 191.956 366.564 191.303 366.564 191.303C366.564 191.303 365.559 197.903 363.828 201.231C359.799 209.004 351.834 215.503 339.387 216.498Z" fill="#8EBCA2"/>
<path d="M364.896 236.205C368.063 232.327 372.511 229.7 377.443 228.797C382.375 227.894 387.468 228.773 391.809 231.277C391.957 231.341 392.075 231.461 392.136 231.611C392.14 231.706 392.122 231.801 392.085 231.888C392.047 231.976 391.99 232.053 391.918 232.116C389.876 234.357 387.341 236.095 384.512 237.193C381.683 238.292 378.636 238.72 375.613 238.444C371.988 237.975 368.405 237.226 364.896 236.205Z" fill="#A2CCB6"/>
<path d="M371.865 225.672C371.865 219.639 373.884 214.221 377.438 210.668C379.273 208.892 381.492 207.559 383.923 206.769C386.355 205.98 388.935 205.755 391.467 206.113C391.659 206.119 391.843 206.197 391.981 206.33C392.127 206.533 392.185 206.784 392.145 207.03C391.841 214.298 388.186 220.315 382.613 222.725C379.143 224.07 375.544 225.058 371.873 225.672" fill="#8EBCA2"/>
<path d="M381.264 214.874C383.673 211.017 386.588 207.498 389.93 204.41C391.243 203.136 392.712 202.034 394.303 201.13C399.517 198.339 405.947 199.202 411.551 201.13C409.322 205.351 406.415 209.486 402.136 211.624C400.212 212.51 398.186 213.155 396.103 213.544C392.004 214.454 385.449 214.361 381.295 214.905" fill="#A2CCB6"/>
<path d="M378.279 204.791C367.851 199.349 366.316 187.976 366.051 183.802C365.887 181.174 366.051 178.243 368.256 176.347C381.179 180.887 384.483 189.609 378.279 204.822" fill="#8EBCA2"/>
<path d="M333.34 203.151C334.12 197.616 334.899 191.669 332.374 186.678C331.426 184.903 330.212 183.282 328.773 181.874C325.383 178.391 320.979 175.515 316.077 175.507C315.19 180.751 316.225 186.137 318.993 190.682C321.761 195.227 326.076 198.626 331.15 200.259" fill="#8EBCA2"/>
<path d="M363.673 239.361C360.751 238.389 358.06 236.83 355.766 234.781C353.473 232.731 351.624 230.234 350.336 227.443C349.048 224.653 348.346 221.629 348.275 218.558C348.205 215.487 348.766 212.434 349.924 209.588C349.939 209.453 349.991 209.325 350.075 209.219C350.16 209.112 350.272 209.032 350.401 208.987C350.529 208.942 350.667 208.935 350.8 208.965C350.932 208.996 351.053 209.064 351.148 209.16C360.142 214.314 366.299 229.325 363.673 239.338" fill="#A2CCB6"/>
<path d="M339.224 208.81C337.524 203.92 337.609 198.588 339.462 193.753C341.315 188.919 344.819 184.891 349.356 182.379C351.187 181.369 353.183 180.607 354.812 179.27C355.359 181.704 355.729 184.175 355.918 186.663C356.179 189.12 356.018 191.605 355.443 194.009C353.752 200.158 348.07 204.34 342.365 207.224" fill="#A2CCB6"/>
<path d="M331.688 207.854C322.336 208.981 310.793 205.211 305.781 196.411C321.798 188.295 331.688 200.718 331.688 207.854Z" fill="#A2CCB6"/>
<path d="M337.15 228.695C335.054 221.52 329.528 215.635 322.864 213.49C319.5 212.452 315.925 212.297 312.484 213.042C309.043 213.787 305.853 215.406 303.224 217.742C303.094 217.828 302.986 217.943 302.909 218.078C302.832 218.213 302.787 218.364 302.779 218.52C302.808 218.699 302.883 218.868 302.998 219.009C306.583 224.179 312.296 227.226 318.133 228.509C323.971 229.792 330.003 229.488 335.95 229.045" fill="#A2CCB6"/>
<path d="M325.109 190.441C329.964 195.284 332.996 201.425 335.241 207.823C337.533 214.468 339.341 221.27 340.65 228.175C343.526 242.689 344.29 257.373 345.965 272.043C345.965 272.245 346.308 272.26 346.301 272.043C345.727 257.016 343.976 242.058 341.063 227.304C339.684 220.113 337.711 213.049 335.163 206.183C332.926 200.259 329.918 194.67 325.241 190.285C325.132 190.184 324.976 190.34 325.078 190.441H325.109Z" fill="#597F6E"/>
<path d="M342.334 234.713C338.741 228.906 332.779 225.477 326.583 222.966C319.662 220.16 311.774 218.395 304.308 218.901C304.275 218.908 304.246 218.927 304.225 218.953C304.205 218.979 304.193 219.011 304.193 219.044C304.193 219.078 304.205 219.11 304.225 219.136C304.246 219.162 304.275 219.181 304.308 219.188C317.97 219.795 333.597 223.075 342.007 234.907C342.147 235.109 342.467 234.907 342.334 234.713Z" fill="#597F6E"/>
<path d="M339.497 221.077C339.442 215.636 338.866 210.116 339.949 204.698C340.923 199.722 342.986 195.021 345.989 190.93C346.075 190.806 345.88 190.658 345.779 190.767C338.453 198.992 338.367 210.746 339.325 221.085C339.325 221.194 339.505 221.202 339.497 221.085V221.077Z" fill="#597F6E"/>
<path d="M317.768 199.419C321.774 199.917 325.312 202.599 328.344 205.079C331.376 207.558 334.057 210.396 337.065 212.852C337.182 212.946 337.354 212.79 337.237 212.674C334.201 209.631 330.975 206.783 327.58 204.146C324.735 201.946 321.477 199.699 317.791 199.365C317.736 199.365 317.736 199.435 317.791 199.443L317.768 199.419Z" fill="#597F6E"/>
<path d="M360.019 253.043C362.217 241.678 366.8 231.277 374.414 222.438C378.083 218.173 382.299 214.409 386.955 211.243C391.841 207.939 397.087 205.685 402.542 203.617C402.591 203.604 402.632 203.572 402.657 203.528C402.682 203.484 402.688 203.432 402.675 203.384C402.661 203.336 402.629 203.294 402.585 203.27C402.542 203.245 402.49 203.238 402.441 203.252C391.381 206.128 381.187 213.747 373.884 222.329C366.581 230.911 361.079 241.763 359.723 253.004C359.723 253.168 359.972 253.207 360.003 253.004L360.019 253.043Z" fill="#597F6E"/>
<path d="M372.691 185.115C378.147 196.621 380.197 209.673 374.647 221.512C374.621 221.56 374.614 221.616 374.628 221.669C374.643 221.721 374.678 221.766 374.725 221.792C374.773 221.819 374.829 221.826 374.882 221.811C374.934 221.797 374.979 221.762 375.006 221.715C381.662 210.66 378.435 195.773 372.972 184.952C372.87 184.766 372.598 184.952 372.691 185.115Z" fill="#597F6E"/>
<path d="M379.8 245.495V254.598C379.8 290.715 370.268 300.984 370.268 300.984H340.776C340.776 300.984 331.236 290.715 331.236 254.598V245.495H379.8Z" fill="#F2F5F9"/>
<path d="M62.8594 300.984L87.8934 181.275" stroke="#544943" stroke-width="1.5" stroke-miterlimit="10"/>
<path d="M112.921 300.984L87.8945 181.275" stroke="#544943" stroke-width="1.5" stroke-miterlimit="10"/>
<path d="M315.672 300.984L340.706 181.275" stroke="#544943" stroke-width="1.5" stroke-miterlimit="10"/>
<path d="M365.739 300.984L340.705 181.275" stroke="#544943" stroke-width="1.5" stroke-miterlimit="10"/>
<path d="M362.659 174.115H63.6699V181.275H362.659V174.115Z" fill="#E7EAF2"/>
<path d="M348.25 160.465H242.627C242.184 160.465 241.747 160.368 241.345 160.181C240.944 159.994 240.588 159.722 240.304 159.383C240.019 159.044 239.813 158.648 239.698 158.221C239.584 157.794 239.565 157.347 239.642 156.912L251.785 88.8054C251.97 87.7601 252.519 86.8131 253.334 86.1308C254.149 85.4484 255.179 85.0743 256.243 85.074H361.874C362.317 85.074 362.755 85.1708 363.156 85.3577C363.558 85.5446 363.913 85.8169 364.198 86.1556C364.482 86.4942 364.689 86.891 364.803 87.3179C364.917 87.7448 364.937 88.1915 364.859 88.6266L352.716 156.725C352.533 157.773 351.984 158.723 351.167 159.407C350.35 160.091 349.317 160.466 348.25 160.465Z" fill="#475577"/>
<path d="M350.713 160.465H245.051C244.608 160.465 244.171 160.368 243.769 160.181C243.368 159.994 243.012 159.722 242.728 159.383C242.443 159.044 242.236 158.648 242.122 158.221C242.008 157.794 241.989 157.347 242.066 156.912L254.209 88.8053C254.394 87.76 254.942 86.813 255.758 86.1307C256.573 85.4483 257.603 85.0742 258.667 85.0739H364.329C364.773 85.0716 365.213 85.1668 365.616 85.3527C366.02 85.5385 366.377 85.8106 366.663 86.1495C366.95 86.4885 367.158 86.886 367.273 87.3141C367.388 87.7421 367.407 88.1902 367.33 88.6265L355.171 156.725C354.988 157.772 354.44 158.721 353.625 159.405C352.81 160.089 351.779 160.464 350.713 160.465Z" fill="#C0CCD8"/>
<path opacity="0.45" d="M331.265 160.465H270.239C269.984 160.464 269.731 160.408 269.5 160.299C269.268 160.191 269.063 160.034 268.899 159.838C268.735 159.643 268.616 159.414 268.55 159.168C268.484 158.921 268.472 158.664 268.517 158.412L275.531 119.077C275.641 118.474 275.959 117.928 276.43 117.534C276.902 117.141 277.496 116.925 278.111 116.923H339.137C339.393 116.924 339.645 116.981 339.877 117.089C340.108 117.197 340.313 117.354 340.477 117.55C340.641 117.745 340.761 117.974 340.827 118.221C340.893 118.467 340.904 118.725 340.86 118.976L333.814 158.28C333.712 158.884 333.401 159.433 332.936 159.832C332.47 160.231 331.879 160.455 331.265 160.465Z" fill="#8E9DB2"/>
<path d="M332.732 160.465H271.706C271.45 160.465 271.196 160.41 270.964 160.302C270.732 160.194 270.527 160.037 270.362 159.841C270.198 159.645 270.079 159.416 270.013 159.169C269.948 158.922 269.937 158.664 269.983 158.412L276.998 119.077C277.104 118.473 277.42 117.927 277.891 117.533C278.361 117.139 278.955 116.923 279.57 116.923H340.596C340.852 116.923 341.105 116.978 341.337 117.086C341.569 117.194 341.775 117.351 341.939 117.547C342.104 117.743 342.223 117.972 342.288 118.219C342.354 118.466 342.364 118.724 342.318 118.976L335.304 158.311C335.197 158.915 334.881 159.461 334.411 159.855C333.94 160.249 333.346 160.465 332.732 160.465Z" fill="#C6D2E0"/>
<path d="M319.208 137.33H294.439V160.465H319.208V137.33Z" fill="#8E9DB2"/>
<path d="M317.782 137.33H294.439V143.976L300.807 170.361H325.592L317.782 137.33ZM311.789 163.318C309.014 163.318 306.084 160.092 305.234 156.111C304.384 152.131 305.959 148.897 308.733 148.897C311.508 148.897 314.446 152.123 315.288 156.111C316.13 160.099 314.563 163.318 311.789 163.318Z" fill="#475577"/>
<path d="M280.815 170.361H336.292V174.115H277.059C277.059 173.121 277.454 172.167 278.158 171.463C278.863 170.759 279.818 170.363 280.815 170.361Z" fill="#475577"/>
<path d="M336.263 170.361H291.908V174.115H336.263V170.361Z" fill="#C0CCD8"/>
<path d="M319.216 137.33H294.439L302.233 170.361H327.018L319.216 137.33ZM313.137 163.318C310.362 163.318 307.424 160.092 306.582 156.111C305.741 152.131 307.299 148.897 310.074 148.897C312.849 148.897 315.787 152.123 316.629 156.111C317.47 160.099 315.888 163.318 313.137 163.318Z" fill="#C0CCD8"/>
<g opacity="0.65">
<path opacity="0.65" d="M261.348 91.783L259.883 100.015H261.348L262.813 91.783H261.348Z" fill="#8E9DB2"/>
<path opacity="0.65" d="M265.594 91.783L264.129 100.015H265.594L267.059 91.783H265.594Z" fill="#8E9DB2"/>
<path opacity="0.65" d="M269.843 91.783L268.378 100.015H269.843L271.308 91.783H269.843Z" fill="#8E9DB2"/>
<path opacity="0.65" d="M274.09 91.783L272.625 100.015H274.09L275.556 91.783H274.09Z" fill="#8E9DB2"/>
<path opacity="0.65" d="M278.339 91.783L276.874 100.015H278.339L279.805 91.783H278.339Z" fill="#8E9DB2"/>
</g>
<g opacity="0.65">
<path opacity="0.65" d="M317.096 91.783L315.631 100.015H317.096L318.561 91.783H317.096Z" fill="#8E9DB2"/>
<path opacity="0.65" d="M321.563 91.783L320.09 100.015H321.563L323.028 91.783H321.563Z" fill="#8E9DB2"/>
<path opacity="0.65" d="M326.02 91.783L324.555 100.015H326.02L327.493 91.783H326.02Z" fill="#8E9DB2"/>
<path opacity="0.65" d="M330.487 91.783L329.021 100.015H330.487L331.96 91.783H330.487Z" fill="#8E9DB2"/>
<path opacity="0.65" d="M334.953 91.783L333.487 100.015H334.953L336.418 91.783H334.953Z" fill="#8E9DB2"/>
<path opacity="0.65" d="M339.419 91.783L337.946 100.015H339.419L340.885 91.783H339.419Z" fill="#8E9DB2"/>
<path opacity="0.65" d="M343.876 91.783L342.411 100.015H343.876L345.349 91.783H343.876Z" fill="#8E9DB2"/>
<path opacity="0.65" d="M348.342 91.783L346.877 100.015H348.342L349.807 91.783H348.342Z" fill="#8E9DB2"/>
<path opacity="0.65" d="M352.809 91.783L351.336 100.015H352.809L354.274 91.783H352.809Z" fill="#8E9DB2"/>
<path opacity="0.65" d="M357.266 91.783L355.801 100.015H357.266L358.739 91.783H357.266Z" fill="#8E9DB2"/>
</g>
<g opacity="0.55">
<path opacity="0.55" d="M147.891 155.45C148.262 155.387 148.603 155.207 148.865 154.937C149.442 154.16 148.483 153.289 147.86 152.885C147.08 152.38 145.958 152.209 145.568 151.222C145.179 150.234 145.888 148.889 146.8 148.291C147.601 147.83 148.454 147.465 149.341 147.202C150.353 146.875 151.231 146.228 151.842 145.36C152.552 144.233 152.411 142.787 152.497 141.52C152.863 136.56 157.953 134.096 162.232 133.995C164.375 133.948 167.641 134.71 169.067 136.373C169.558 136.925 169.897 137.595 170.049 138.317C170.13 138.855 170.086 139.404 169.92 139.922C169.754 140.439 169.47 140.912 169.09 141.302C168.278 142.041 167.427 142.736 166.542 143.385C165.715 144.163 166.308 144.987 166.113 145.92C165.918 146.853 165.209 147.397 164.313 147.894C162.411 148.952 160.174 149.216 158.077 149.791C157.426 149.927 156.809 150.191 156.261 150.569C155.655 151.183 155.132 151.873 154.703 152.621C153.753 153.898 152.366 154.783 150.806 155.108" fill="url(#paint0_linear_177_1822)"/>
</g>
<path d="M159.809 167.943H155.748V166.007H159.809C160.119 166.013 160.427 165.956 160.715 165.841C161.004 165.726 161.266 165.555 161.487 165.338C161.709 165.121 161.884 164.862 162.004 164.577C162.124 164.291 162.186 163.985 162.186 163.675V160.34C162.186 160.031 162.124 159.724 162.004 159.439C161.884 159.153 161.709 158.894 161.487 158.677C161.266 158.46 161.004 158.289 160.715 158.174C160.427 158.059 160.119 158.003 159.809 158.008H155.748V156.072H159.809C160.951 156.074 162.046 156.528 162.854 157.334C163.662 158.14 164.117 159.232 164.119 160.371V163.706C164.1 164.835 163.638 165.911 162.832 166.704C162.026 167.496 160.94 167.941 159.809 167.943Z" fill="#E8EAEF"/>
<path d="M142.396 153.274H158.764V168.27C158.764 169.531 158.261 170.741 157.367 171.634C156.472 172.526 155.259 173.027 153.994 173.027H147.143C145.878 173.027 144.665 172.526 143.77 171.634C142.876 170.741 142.373 169.531 142.373 168.27V153.274H142.396Z" fill="#E8EAEF"/>
<path d="M139.746 170.267C139.746 170.267 139.91 174.115 145.903 174.115H155.334C161.327 174.115 161.483 170.267 161.483 170.267H139.746Z" fill="#C6D2E0"/>
<path d="M271.486 172.576H184.756V174.115H271.486V172.576Z" fill="#475577"/>
<path d="M193.938 171.34H187.727V172.576H193.938V171.34Z" fill="#475577"/>
<path d="M203.345 171.34H197.133V172.576H203.345V171.34Z" fill="#475577"/>
<path d="M212.753 171.34H206.541V172.576H212.753V171.34Z" fill="#475577"/>
<path d="M222.159 171.34H215.947V172.576H222.159V171.34Z" fill="#475577"/>
<path d="M231.567 171.34H225.355V172.576H231.567V171.34Z" fill="#475577"/>
<path d="M240.973 171.34H234.762V172.576H240.973V171.34Z" fill="#475577"/>
<path d="M250.382 171.34H244.17V172.576H250.382V171.34Z" fill="#475577"/>
<path d="M259.788 171.34H253.576V172.576H259.788V171.34Z" fill="#475577"/>
<path d="M269.204 171.34H262.992V172.576H269.204V171.34Z" fill="#475577"/>
<path d="M272.625 172.576H185.895V174.115H272.625V172.576Z" fill="#C0CCD8"/>
<path d="M195.067 171.34H188.855V172.576H195.067V171.34Z" fill="#C0CCD8"/>
<path d="M204.475 171.34H198.264V172.576H204.475V171.34Z" fill="#C0CCD8"/>
<path d="M213.889 171.34H207.678V172.576H213.889V171.34Z" fill="#C0CCD8"/>
<path d="M223.298 171.34H217.086V172.576H223.298V171.34Z" fill="#C0CCD8"/>
<path d="M232.706 171.34H226.494V172.576H232.706V171.34Z" fill="#C0CCD8"/>
<path d="M242.112 171.34H235.9V172.576H242.112V171.34Z" fill="#C0CCD8"/>
<path d="M251.52 171.34H245.309V172.576H251.52V171.34Z" fill="#C0CCD8"/>
<path d="M260.927 171.34H254.715V172.576H260.927V171.34Z" fill="#C0CCD8"/>
<path d="M270.333 171.34H264.121V172.576H270.333V171.34Z" fill="#C0CCD8"/>
<path d="M62.478 232.132C63.5663 227.823 63.0952 223.269 61.1476 219.273C59.2 215.277 55.9008 212.095 51.8315 210.287C50.1948 209.556 48.4333 209.051 46.9447 208.041C46.6566 210.163 46.5238 212.304 46.5472 214.446C46.5016 216.571 46.8233 218.688 47.4981 220.704C49.3998 225.843 54.5749 228.999 59.6721 231.036" fill="#8EBCA2"/>
<path d="M63.1027 245.922C63.2663 235.98 63.391 224.63 55.5504 217.229C55.5266 217.205 55.4944 217.192 55.4607 217.192C55.4271 217.192 55.3949 217.205 55.3711 217.229C55.3473 217.253 55.334 217.285 55.334 217.319C55.334 217.352 55.3473 217.384 55.3711 217.408C58.9648 221.45 61.3184 226.436 62.1518 231.774C62.8065 236.438 62.5415 241.211 62.9312 245.922C62.9312 245.945 62.9402 245.967 62.9563 245.983C62.9724 245.999 62.9942 246.008 63.0169 246.008C63.0397 246.008 63.0615 245.999 63.0775 245.983C63.0936 245.967 63.1027 245.945 63.1027 245.922Z" fill="#597F6E"/>
<path d="M50.366 258.959C49.9789 256.006 48.998 253.161 47.4819 250.595C45.9659 248.029 43.946 245.794 41.5433 244.025C39.1558 242.302 36.4438 241.078 33.5701 240.426C31.9568 240.053 24.498 240.426 24.498 240.426C24.498 240.426 26.0568 245.938 27.9118 248.589C32.1906 254.761 39.6884 259.472 50.405 258.943" fill="#8EBCA2"/>
<path d="M43.8823 239.952C43.6859 236.382 43.0284 232.852 41.926 229.45C41.5144 228.088 40.9358 226.783 40.2035 225.563C37.7485 221.676 33.1345 219.841 28.6997 219.041C28.6452 222.803 29.0738 226.76 31.1548 229.854C32.1096 231.19 33.2275 232.401 34.4828 233.461C36.8833 235.638 41.2947 238.04 43.8823 239.983" fill="#A2CCB6"/>
<path d="M69.0172 226.954C68.3235 222.197 67.6766 217.089 69.8511 212.798C70.6702 211.27 71.7219 209.877 72.9687 208.67C75.8836 205.685 79.6948 203.229 83.8801 203.229C84.625 207.731 83.7351 212.351 81.3705 216.257C79.0323 220.144 73.3662 225.586 69.0561 226.978" fill="#A2CCB6"/>
<path d="M61.3555 254.582C63.5806 255.043 65.8767 255.043 68.1021 254.585C70.3276 254.126 72.4352 253.218 74.2951 251.915C76.1551 250.613 77.7278 248.944 78.9165 247.013C80.1052 245.081 80.8845 242.927 81.2065 240.683C81.2467 240.592 81.2603 240.491 81.2455 240.392C81.2307 240.293 81.1883 240.201 81.1231 240.125C81.0579 240.05 80.9726 239.994 80.877 239.965C80.7815 239.936 80.6795 239.934 80.583 239.96C72.9216 239.913 63.4364 247.213 61.3555 254.582Z" fill="#A2CCB6"/>
<path d="M45.5899 237.387C51.903 233.842 55.9636 226.745 56.0805 219.025C51.5211 218.769 48.0918 221.567 46.1043 223.977C43.3453 227.335 43.1115 233.236 45.5899 237.387Z" fill="#A2CCB6"/>
<path d="M50.18 249.84C49.3336 247.736 49.016 245.456 49.2549 243.201C49.4939 240.946 50.282 238.784 51.5508 236.902C52.8195 235.02 54.5304 233.476 56.5342 232.405C58.5381 231.334 60.7742 230.768 63.0477 230.756C63.2426 230.756 63.4608 230.756 63.5621 230.927C63.6213 231.022 63.6511 231.133 63.6479 231.245C63.8193 235.132 62.0891 238.887 59.6652 241.896C57.2413 244.904 54.0692 247.252 50.9127 249.498" fill="#A2CCB6"/>
<path d="M75.9373 215.884C67.5277 223.86 64.5816 236.64 62.3447 247.555C59.7932 260.266 58.2865 273.165 57.8398 286.121C57.8398 286.339 58.1516 286.331 58.175 286.121C59.687 273.527 60.2793 260.903 62.7578 248.426C64.9635 237.293 67.8004 224.373 76.0931 216.048C76.1945 215.946 76.0386 215.791 75.9373 215.884Z" fill="#597F6E"/>
<path d="M50.1708 256.503C50.1289 252.845 50.5877 249.199 51.5347 245.666C51.5392 245.634 51.5327 245.601 51.5163 245.572C51.5 245.544 51.4747 245.522 51.4444 245.509C51.4141 245.497 51.3805 245.495 51.3489 245.504C51.3173 245.512 51.2895 245.531 51.2697 245.557C49.711 248.604 49.2277 253.199 49.7967 256.557C49.7967 256.767 50.1786 256.72 50.1708 256.503Z" fill="#597F6E"/>
<path d="M50.6934 224.358C45.6507 228.921 44.3647 238.483 46.4223 244.679C46.4306 244.711 46.4513 244.738 46.4798 244.755C46.5083 244.772 46.5423 244.776 46.5743 244.768C46.6064 244.76 46.6338 244.739 46.6506 244.711C46.6674 244.682 46.6722 244.648 46.6639 244.616C45.1675 238.141 45.6585 229.356 50.7557 224.404C50.7557 224.404 50.7557 224.319 50.6934 224.35V224.358Z" fill="#597F6E"/>
<path d="M52.5331 278.417C52.6947 269.491 51.483 260.593 48.9402 252.033C46.5474 243.738 42.705 234.736 36.3764 228.649C36.1971 228.478 35.9633 228.734 36.1114 228.913C38.9943 232.312 41.5222 235.995 43.6559 239.905C45.7533 244.013 47.4297 248.32 48.6596 252.763C51.0445 261.214 51.7226 269.741 52.2448 278.456C52.2524 278.488 52.2708 278.517 52.2969 278.538C52.3231 278.559 52.3555 278.57 52.3889 278.57C52.4223 278.57 52.4548 278.559 52.481 278.538C52.5071 278.517 52.5255 278.488 52.5331 278.456V278.417Z" fill="#597F6E"/>
<path d="M78.3242 263.134V269.353C78.3242 293.988 70.1328 300.992 70.1328 300.992H44.7793C44.7793 300.992 36.5879 293.996 36.5879 269.353V263.134H78.3242Z" fill="#F2F5F9"/>
<path d="M22.668 300.984H420.5" stroke="#475577" stroke-width="2" stroke-miterlimit="10"/>
<path d="M212.595 14.0291V33.3781H207.553V14.0291H212.595Z" fill="#F76652"/>
<path d="M219.588 15.4049V17.9003H220.889V20.4113H219.588V28.8925C219.527 29.4806 219.583 30.0748 219.751 30.6416C219.853 30.7582 220.305 30.8204 221.1 30.8204V33.378H219.143C218.361 33.3982 217.579 33.3514 216.805 33.2381C216.339 33.147 215.908 32.9291 215.558 32.6084C215.22 32.3102 214.985 31.9129 214.888 31.4734C214.77 30.4752 214.725 29.4697 214.755 28.465V20.4113H213.711V17.9003H214.755V15.4049H219.588Z" fill="#F76652"/>
<path d="M232.922 25.7285H226.687V29.1568C226.654 29.6236 226.707 30.0926 226.843 30.5405C226.9 30.6465 226.988 30.7328 227.095 30.7883C227.202 30.8438 227.324 30.8658 227.443 30.8515C227.593 30.8685 227.745 30.8378 227.877 30.7638C228.008 30.6898 228.113 30.5763 228.176 30.4394C228.33 29.9363 228.394 29.4099 228.363 28.8847V26.7546H232.954V27.9285C232.974 28.6845 232.911 29.4405 232.767 30.1829C232.597 30.7983 232.303 31.3725 231.901 31.8698C231.448 32.4634 230.846 32.9273 230.156 33.2147C229.316 33.5372 228.421 33.6905 227.521 33.6656C226.6 33.6826 225.684 33.5324 224.817 33.2225C224.112 32.9817 223.481 32.564 222.985 32.0098C222.561 31.5158 222.253 30.9344 222.081 30.3073C221.889 29.4241 221.805 28.5209 221.832 27.6175V23.0154C221.783 21.8945 221.974 20.7761 222.393 19.7349C222.778 18.9271 223.43 18.2763 224.24 17.8925C225.158 17.4518 226.168 17.2334 227.186 17.255C228.355 17.2123 229.515 17.4806 230.545 18.0324C231.376 18.49 232.031 19.2089 232.408 20.0769C232.809 21.225 232.989 22.4382 232.938 23.6529L232.922 25.7285ZM228.067 23.1476V21.9893C228.099 21.4545 228.054 20.9179 227.934 20.3956C227.899 20.2837 227.827 20.1872 227.729 20.1221C227.631 20.057 227.514 20.0274 227.397 20.038C227.061 20.038 226.859 20.1391 226.773 20.3412C226.664 20.8834 226.625 21.4372 226.656 21.9893V23.1476H228.067Z" fill="#F76652"/>
<path d="M239.284 17.5194L239.206 19.0275C239.533 18.4729 239.994 18.0081 240.546 17.6749C241.086 17.3734 241.697 17.2205 242.316 17.2318C242.941 17.225 243.555 17.3887 244.094 17.7052C244.632 18.0217 245.074 18.4789 245.371 19.0275C245.726 18.4814 246.197 18.0196 246.75 17.6749C247.331 17.3596 247.986 17.2076 248.646 17.235C249.307 17.2624 249.947 17.4682 250.499 17.8304C251.004 18.1829 251.371 18.6995 251.536 19.2918C251.717 20.2184 251.793 21.1624 251.762 22.106V33.378H247.085V23.0155C247.121 22.1734 247.074 21.3298 246.945 20.4968C246.917 20.352 246.836 20.2228 246.718 20.1339C246.6 20.0449 246.453 20.0025 246.306 20.0148C246.156 20.0033 246.007 20.0456 245.886 20.1339C245.764 20.2223 245.678 20.3509 245.644 20.4968C245.505 21.3288 245.455 22.1731 245.495 23.0155V33.3547H240.819V23.2487C240.853 22.3143 240.814 21.3786 240.702 20.4501C240.677 20.3079 240.599 20.1804 240.483 20.0937C240.367 20.0071 240.223 19.9677 240.079 19.9837C239.974 19.9828 239.87 20.0046 239.775 20.0475C239.679 20.0905 239.594 20.1536 239.525 20.2325C239.373 20.3927 239.284 20.6027 239.276 20.8233C239.276 21.0643 239.276 21.6007 239.276 22.3236V33.378H234.6V17.5194H239.284Z" fill="#F76652"/>
<path d="M269.126 14.0291V33.3781H264.706L262.111 24.5704V33.3781H257.895V14.0291H262.111L264.94 22.7357V14.0291H269.126Z" fill="#F76652"/>
<path d="M281.993 23.0854V26.9724C282.018 28.0134 281.945 29.0545 281.775 30.0819C281.62 30.769 281.302 31.4088 280.847 31.9476C280.37 32.528 279.746 32.9707 279.039 33.2303C278.221 33.5167 277.358 33.6562 276.491 33.6423C275.571 33.6643 274.653 33.5437 273.77 33.2847C273.105 33.0993 272.505 32.7301 272.04 32.2197C271.614 31.725 271.312 31.136 271.159 30.5017C270.95 29.5053 270.861 28.4874 270.895 27.4699V23.4353C270.848 22.2632 271.009 21.0922 271.37 19.9759C271.702 19.1349 272.312 18.4326 273.1 17.9858C274.07 17.4378 275.174 17.1688 276.288 17.2084C277.243 17.1865 278.193 17.3502 279.086 17.6904C279.723 17.9289 280.296 18.3113 280.759 18.8076C281.223 19.304 281.565 19.9008 281.759 20.5512C281.945 21.3825 282.024 22.2342 281.993 23.0854ZM277.145 21.8883C277.179 21.3667 277.137 20.8431 277.021 20.3335C276.971 20.2278 276.889 20.1403 276.787 20.0832C276.685 20.026 276.568 20.0021 276.452 20.0148C276.334 20.0027 276.216 20.0268 276.113 20.0838C276.01 20.1408 275.927 20.228 275.875 20.3335C275.746 20.8411 275.698 21.3659 275.735 21.8883V29.048C275.705 29.542 275.752 30.0376 275.875 30.5172C275.922 30.6258 276.003 30.7166 276.105 30.7767C276.207 30.8367 276.326 30.8629 276.444 30.8515C276.559 30.866 276.677 30.8437 276.779 30.7879C276.881 30.7321 276.963 30.6455 277.013 30.5405C277.128 30.1047 277.172 29.6533 277.145 29.2034V21.8883Z" fill="#F76652"/>
<path d="M288.689 15.4049V17.9003H289.998V20.4113H288.689V28.8925C288.629 29.4806 288.685 30.0748 288.853 30.6416C288.962 30.7582 289.406 30.8204 290.201 30.8204V33.378H288.245C287.463 33.3976 286.681 33.3508 285.907 33.2381C285.441 33.147 285.009 32.9291 284.66 32.6084C284.322 32.3102 284.087 31.9129 283.989 31.4734C283.871 30.4752 283.827 29.4697 283.857 28.4649V20.4113H282.82V17.9003H283.857V15.4049H288.689Z" fill="#F76652"/>
<path d="M219.027 36.542H227.601V40.4289H224.101V44.0982H227.219V47.7752H224.101V55.8988H219.059L219.027 36.542Z" fill="#F76652"/>
<path d="M239.594 45.6062V49.4931C239.621 50.5339 239.55 51.5749 239.384 52.6027C239.229 53.2897 238.911 53.9296 238.457 54.4684C237.979 55.0507 237.351 55.4916 236.641 55.7433C235.826 56.0334 234.965 56.173 234.1 56.1553C233.181 56.1761 232.264 56.0582 231.38 55.8055C230.712 55.6202 230.109 55.2511 229.642 54.7405C229.223 54.2409 228.922 53.6537 228.761 53.0225C228.559 52.025 228.473 51.0077 228.504 49.9907V45.9483C228.458 44.7788 228.619 43.6104 228.979 42.4967C229.311 41.6534 229.921 40.9485 230.709 40.4988C231.678 39.9545 232.778 39.6856 233.889 39.7214C234.845 39.6967 235.797 39.8632 236.687 40.2112C237.387 40.4718 238.009 40.9051 238.496 41.4705C238.89 41.94 239.185 42.485 239.361 43.0719C239.547 43.9032 239.626 44.755 239.594 45.6062ZM234.754 44.409C234.791 43.8871 234.746 43.3627 234.622 42.8543C234.574 42.7492 234.494 42.6621 234.393 42.6061C234.292 42.5501 234.175 42.5281 234.061 42.5433C233.944 42.5295 233.826 42.5519 233.723 42.6076C233.62 42.6633 233.536 42.7494 233.484 42.8543C233.356 43.362 233.309 43.8867 233.344 44.409V51.5688C233.314 52.0602 233.361 52.5533 233.484 53.0302C233.529 53.1396 233.607 53.2319 233.708 53.2934C233.809 53.355 233.927 53.3826 234.045 53.3723C234.162 53.3861 234.28 53.3637 234.383 53.308C234.486 53.2523 234.57 53.1662 234.622 53.0613C234.736 52.6253 234.781 52.1741 234.754 51.7242V44.409Z" fill="#F76652"/>
<path d="M252.276 40.0325V55.8911H247.35L247.436 54.5773C247.134 55.0789 246.707 55.494 246.197 55.7823C245.673 56.0541 245.088 56.1904 244.498 56.1787C243.873 56.2026 243.252 56.0717 242.69 55.7978C242.24 55.5749 241.87 55.2193 241.63 54.7794C241.405 54.3725 241.259 53.9267 241.201 53.4657C241.146 53.007 241.123 52.0975 241.123 50.7293V40.0325H245.963V50.8303C245.927 51.5629 245.964 52.2972 246.072 53.0225C246.15 53.2558 246.353 53.3724 246.688 53.3724C247.023 53.3724 247.265 53.2558 247.335 53.0148C247.431 52.2414 247.465 51.4615 247.436 50.6826V40.0325H252.276Z" fill="#F76652"/>
<path d="M258.939 40.0323L258.854 41.4938C259.161 40.9543 259.604 40.5042 260.14 40.1878C260.674 39.8855 261.279 39.7324 261.893 39.7447C262.62 39.7159 263.337 39.9232 263.935 40.3355C264.439 40.6916 264.798 41.2154 264.949 41.8125C265.139 42.7903 265.218 43.7866 265.182 44.7822V55.891H260.335V44.9143C260.364 44.2467 260.33 43.5777 260.233 42.9164C260.155 42.6754 259.96 42.5588 259.633 42.5588C259.494 42.5397 259.352 42.5707 259.234 42.6462C259.115 42.7217 259.027 42.8368 258.986 42.9708C258.86 43.697 258.816 44.4349 258.854 45.1708V55.891H254.014V40.0323H258.939Z" fill="#F76652"/>
<path d="M277.855 36.542V55.8911H273.023V54.7405C272.606 55.1886 272.109 55.5551 271.557 55.8211C271.056 56.0594 270.507 56.1816 269.952 56.1787C269.256 56.1956 268.572 55.9884 268.003 55.5879C267.503 55.2665 267.129 54.7834 266.943 54.2197C266.754 53.3888 266.676 52.5367 266.71 51.6854V44.2692C266.674 43.3972 266.752 42.5244 266.943 41.6727C267.136 41.1164 267.512 40.6421 268.011 40.3278C268.602 39.9307 269.302 39.7269 270.014 39.7448C270.579 39.7381 271.139 39.8493 271.659 40.0713C272.177 40.2957 272.642 40.6268 273.023 41.043V36.542H277.855ZM273.023 44.0049C273.051 43.6077 273.001 43.2087 272.875 42.831C272.816 42.7292 272.728 42.647 272.623 42.5944C272.518 42.5419 272.399 42.5215 272.282 42.5356C272.17 42.5209 272.055 42.5379 271.952 42.5846C271.849 42.6313 271.761 42.7059 271.698 42.7999C271.566 43.1873 271.516 43.5974 271.55 44.0049V51.7787C271.521 52.2086 271.568 52.6402 271.69 53.0536C271.741 53.1537 271.821 53.2361 271.92 53.2902C272.018 53.3443 272.131 53.3675 272.243 53.3568C272.37 53.3712 272.498 53.346 272.61 53.2847C272.721 53.2234 272.811 53.1291 272.867 53.0147C273.007 52.472 273.059 51.9104 273.023 51.3511V44.0049Z" fill="#F76652"/>
<defs>
<linearGradient id="paint0_linear_177_1822" x1="157.774" y1="155.45" x2="157.774" y2="133.995" gradientUnits="userSpaceOnUse">
<stop stop-color="white" stop-opacity="0.1"/>
<stop offset="1" stop-color="white" stop-opacity="0.4"/>
</linearGradient>
</defs>
</svg>
