<svg width="16" height="16" viewBox="0 0 16 16" fill="none" xmlns="http://www.w3.org/2000/svg">
<g clip-path="url(#clip0_10806_5552)">
<path d="M8.66602 15.4295V12.7312C8.66602 12.4163 8.41083 12.1611 8.09596 12.1611C7.78109 12.1611 7.52591 12.4163 7.52591 12.7312L7.52591 15.4295C7.52591 15.7444 7.78109 15.9996 8.09596 15.9996C8.4108 15.9996 8.66602 15.7444 8.66602 15.4295Z" fill="white"/>
<path d="M8.66602 8.60806L8.66602 0.570063C8.66602 0.255188 8.41079 0 8.09591 0C7.78103 0 7.52584 0.255188 7.52584 0.570063L7.52584 8.60806C7.52584 8.92294 7.78103 9.17813 8.09591 9.17813C8.41079 9.17816 8.66602 8.92294 8.66602 8.60806Z" fill="white"/>
<path d="M10.7168 10.6604C10.7168 9.2143 9.54036 8.03809 8.09448 8.03809C6.64838 8.03809 5.47212 9.21452 5.47212 10.6604C5.47212 12.1063 6.64838 13.2827 8.09448 13.2827C9.54036 13.2827 10.7168 12.1065 10.7168 10.6604ZM6.61225 10.6604C6.61225 9.84312 7.27716 9.17821 8.09444 9.17821C8.91173 9.17821 9.57664 9.84312 9.57664 10.6604C9.57664 11.4777 8.91173 12.1428 8.09444 12.1428C7.27716 12.1428 6.61225 11.4779 6.61225 10.6604Z" fill="white"/>
<path d="M3.95313 3.26841L3.95312 0.570063C3.95312 0.255188 3.69791 0 3.38303 0C3.06816 0 2.81297 0.255188 2.81297 0.570063L2.81297 3.26841C2.81297 3.58328 3.06816 3.83847 3.38303 3.83847C3.69791 3.83847 3.95313 3.58328 3.95313 3.26841Z" fill="white"/>
<path d="M3.95313 15.4303L3.95312 7.39233C3.95312 7.07745 3.69791 6.82227 3.38306 6.82227C3.06822 6.82227 2.813 7.07745 2.813 7.39233L2.813 15.4303C2.813 15.7452 3.06819 16.0004 3.38306 16.0004C3.69794 16.0004 3.95313 15.7452 3.95313 15.4303Z" fill="white"/>
<path d="M6.00391 5.34009C6.00391 3.89418 4.82766 2.71777 3.38159 2.71777C1.93553 2.71777 0.759248 3.89421 0.759248 5.34009C0.759248 6.78596 1.93569 7.9624 3.38156 7.9624C4.82744 7.9624 6.00391 6.78599 6.00391 5.34009ZM1.89919 5.34009C1.89919 4.52281 2.56409 3.8579 3.38137 3.8579C4.19884 3.8579 4.86375 4.52281 4.86375 5.34009C4.86375 6.15737 4.19884 6.82227 3.38137 6.82227C2.56409 6.82227 1.89919 6.1574 1.89919 5.34009Z" fill="white"/>
<path d="M13.1875 3.26841V0.570063C13.1875 0.255188 12.9323 0 12.6174 0C12.3025 0 12.0473 0.255188 12.0473 0.570063V3.26841C12.0473 3.58328 12.3025 3.83847 12.6174 3.83847C12.9323 3.83847 13.1875 3.58328 13.1875 3.26841Z" fill="white"/>
<path d="M13.1875 15.4303L13.1875 7.39233C13.1875 7.07745 12.9323 6.82227 12.6174 6.82227C12.3026 6.82227 12.0474 7.07745 12.0474 7.39233L12.0474 15.4303C12.0474 15.7452 12.3026 16.0004 12.6174 16.0004C12.9323 16.0004 13.1875 15.7452 13.1875 15.4303Z" fill="white"/>
<path d="M15.2402 5.34009C15.2402 3.89418 14.0638 2.71777 12.6179 2.71777C11.172 2.71777 9.99561 3.89421 9.99561 5.34009C9.99561 6.78596 11.1719 7.9624 12.6179 7.9624C14.064 7.96243 15.2402 6.78599 15.2402 5.34009ZM11.1357 5.34009C11.1357 4.52281 11.8006 3.8579 12.6179 3.8579C13.4352 3.8579 14.1001 4.52281 14.1001 5.34009C14.1001 6.15737 13.4352 6.82227 12.6179 6.82227C11.8006 6.82227 11.1357 6.1574 11.1357 5.34009Z" fill="white"/>
</g>
<defs>
<clipPath id="clip0_10806_5552">
<rect width="16" height="16" fill="white" transform="translate(16) rotate(90)"/>
</clipPath>
</defs>
</svg>
