<svg width="101" height="36" viewBox="0 0 101 36" fill="none" xmlns="http://www.w3.org/2000/svg">
<rect width="101" height="36" rx="2" fill="url(#paint0_linear_1_114)"/>
<rect width="101" height="36" rx="2" fill="black" fill-opacity="0.2"/>
<path d="M60.322 13.116V14.404H57.564V23H55.954V14.404H53.21V13.116H60.322ZM63.1089 16.798C63.3702 16.294 63.7435 15.8973 64.2289 15.608C64.7142 15.3093 65.2742 15.16 65.9089 15.16V16.896H65.4329C64.7329 16.896 64.1682 17.0687 63.7389 17.414C63.3189 17.75 63.1089 18.31 63.1089 19.094V23H61.5129V15.286H63.1089V16.798ZM66.8807 13.046C66.8807 12.7753 66.974 12.5513 67.1607 12.374C67.3473 12.1967 67.5947 12.108 67.9027 12.108C68.2107 12.108 68.458 12.1967 68.6447 12.374C68.8407 12.5513 68.9387 12.7753 68.9387 13.046C68.9387 13.3167 68.8407 13.536 68.6447 13.704C68.458 13.872 68.2107 13.956 67.9027 13.956C67.5947 13.956 67.3473 13.872 67.1607 13.704C66.974 13.536 66.8807 13.3167 66.8807 13.046ZM68.7007 15.286V23H67.1047V15.286H68.7007ZM80.278 15.16C81.1927 15.16 81.9207 15.4493 82.462 16.028C83.0127 16.6067 83.288 17.4327 83.288 18.506V23H81.692V18.674C81.692 18.002 81.524 17.484 81.188 17.12C80.852 16.7467 80.39 16.56 79.802 16.56C79.1767 16.56 78.6773 16.7607 78.304 17.162C77.94 17.554 77.758 18.1327 77.758 18.898V23H76.162V18.674C76.162 18.002 75.994 17.484 75.658 17.12C75.322 16.7467 74.86 16.56 74.272 16.56C73.6467 16.56 73.1473 16.7607 72.774 17.162C72.41 17.554 72.228 18.1327 72.228 18.898V23H70.632V15.286H72.228V16.896C72.424 16.336 72.7507 15.9067 73.208 15.608C73.6653 15.3093 74.202 15.16 74.818 15.16C75.462 15.16 76.0173 15.3187 76.484 15.636C76.96 15.9533 77.3053 16.4107 77.52 17.008C77.744 16.4293 78.1033 15.9767 78.598 15.65C79.0927 15.3233 79.6527 15.16 80.278 15.16Z" fill="white"/>
<path d="M19.2782 12.0553C20.021 12.2806 20.9418 12.7789 21.3928 13.349C21.8142 13.8987 21.9914 14.6271 22.0492 15.4772C23.3687 16.1505 24.699 16.8172 26.0185 17.4905L34.6965 14.6843C34.8297 14.6401 34.9799 14.6401 35.1131 14.6843L36.0716 15.0077C36.8477 15.3149 36.8479 15.9924 36.1132 16.27L29.5084 18.9928L36.1132 21.726C36.8479 22.0036 36.8477 22.6707 36.0716 22.9778L35.1131 23.3012C34.9799 23.3454 34.8297 23.3454 34.6965 23.3012L25.9977 20.495C24.6837 21.1656 23.3633 21.8378 22.0493 22.5083C21.9914 23.3581 21.8143 24.0867 21.393 24.6365C20.9419 25.2064 20.0209 25.7049 19.2783 25.93C18.5793 26.0516 18.0146 26.0467 17.351 25.6586C16.7829 25.2634 16.3526 24.5495 16.08 23.6974C15.8682 22.7122 16.2258 21.5006 17.1426 21.1728L22.9557 18.9925L17.1426 16.8122C16.1667 16.3269 15.8285 15.1962 16.08 14.2875C16.3525 13.4354 16.7829 12.7215 17.351 12.3263C18.0041 11.9547 18.6258 11.9589 19.2783 12.0549L19.2782 12.0553ZM18.0489 13.4532C17.8071 13.6066 17.5529 13.9268 17.3613 14.632C17.2811 14.9889 17.332 15.3161 17.5906 15.5605C18.7322 16.2194 20.3261 16.6573 20.7472 15.3624C20.936 14.3026 19.7339 13.5969 19.0075 13.3595C18.681 13.2646 18.3281 13.3663 18.049 13.4535L18.0489 13.4532ZM47 18.325V19.6604H44.9997V18.325H47ZM44.333 18.325V19.6604H42.3327V18.325H44.333ZM41.6661 18.325V19.6604H39.6658V18.325H41.6661ZM38.9991 18.325V19.6604H36.9988V18.325H38.9991ZM36.3322 18.325V19.6604H34.3319V18.325H36.3322ZM33.6652 18.325V19.6604H31.6649V18.325H33.6652ZM19.6634 21.7886C19.0245 21.7502 18.2326 22.0544 17.5904 22.425C17.3318 22.6694 17.2809 22.9965 17.3611 23.3534C17.5527 24.0587 17.8068 24.3788 18.0487 24.5323C18.3549 24.652 18.6637 24.7137 19.0071 24.6262C19.7337 24.3888 20.9358 23.6831 20.7468 22.6234C20.5626 22.0567 20.1604 21.8186 19.6633 21.7889L19.6634 21.7886Z" fill="white"/>
<defs>
<linearGradient id="paint0_linear_1_114" x1="4.79407e-06" y1="25.7383" x2="67.1539" y2="-61.8782" gradientUnits="userSpaceOnUse">
<stop stop-color="#662F88"/>
<stop offset="1" stop-color="#20BF55"/>
</linearGradient>
</defs>
</svg>
