<svg width="102" height="36" viewBox="0 0 102 36" fill="none" xmlns="http://www.w3.org/2000/svg">
<rect x="0.5" width="101" height="36" rx="2" fill="url(#paint0_linear_1_115)"/>
<rect x="0.5" width="101" height="36" rx="2" fill="black" fill-opacity="0.2"/>
<path d="M57.9083 22.598C57.255 22.598 56.667 22.486 56.1443 22.262C55.6217 22.0287 55.211 21.702 54.9123 21.282C54.6137 20.862 54.4643 20.372 54.4643 19.812H56.1723C56.2097 20.232 56.373 20.5773 56.6623 20.848C56.961 21.1187 57.3763 21.254 57.9083 21.254C58.459 21.254 58.8883 21.1233 59.1963 20.862C59.5043 20.5913 59.6583 20.246 59.6583 19.826C59.6583 19.4993 59.5603 19.2333 59.3643 19.028C59.1777 18.8227 58.9397 18.664 58.6503 18.552C58.3703 18.44 57.9783 18.3187 57.4743 18.188C56.8397 18.02 56.3217 17.852 55.9203 17.684C55.5283 17.5067 55.1923 17.236 54.9123 16.872C54.6323 16.508 54.4923 16.0227 54.4923 15.416C54.4923 14.856 54.6323 14.366 54.9123 13.946C55.1923 13.526 55.5843 13.204 56.0883 12.98C56.5923 12.756 57.1757 12.644 57.8383 12.644C58.781 12.644 59.551 12.882 60.1483 13.358C60.755 13.8247 61.091 14.4687 61.1563 15.29H59.3923C59.3643 14.9353 59.1963 14.632 58.8883 14.38C58.5803 14.128 58.1743 14.002 57.6703 14.002C57.213 14.002 56.8397 14.1187 56.5503 14.352C56.261 14.5853 56.1163 14.9213 56.1163 15.36C56.1163 15.6587 56.205 15.906 56.3823 16.102C56.569 16.2887 56.8023 16.438 57.0823 16.55C57.3623 16.662 57.745 16.7833 58.2303 16.914C58.8743 17.0913 59.397 17.2687 59.7983 17.446C60.209 17.6233 60.5543 17.8987 60.8343 18.272C61.1237 18.636 61.2683 19.126 61.2683 19.742C61.2683 20.2367 61.133 20.7033 60.8623 21.142C60.601 21.5807 60.2137 21.9353 59.7003 22.206C59.1963 22.4673 58.599 22.598 57.9083 22.598ZM64.7476 15.92C65.0182 15.5653 65.3869 15.2667 65.8536 15.024C66.3202 14.7813 66.8476 14.66 67.4356 14.66C68.1076 14.66 68.7189 14.828 69.2696 15.164C69.8296 15.4907 70.2682 15.9527 70.5856 16.55C70.9029 17.1473 71.0616 17.8333 71.0616 18.608C71.0616 19.3827 70.9029 20.078 70.5856 20.694C70.2682 21.3007 69.8296 21.7767 69.2696 22.122C68.7189 22.458 68.1076 22.626 67.4356 22.626C66.8476 22.626 66.3249 22.5093 65.8676 22.276C65.4102 22.0333 65.0369 21.7347 64.7476 21.38V26.168H63.1516V14.786H64.7476V15.92ZM69.4376 18.608C69.4376 18.076 69.3256 17.6187 69.1016 17.236C68.8869 16.844 68.5976 16.55 68.2336 16.354C67.8789 16.1487 67.4962 16.046 67.0856 16.046C66.6842 16.046 66.3016 16.1487 65.9376 16.354C65.5829 16.5593 65.2936 16.858 65.0696 17.25C64.8549 17.642 64.7476 18.104 64.7476 18.636C64.7476 19.168 64.8549 19.6347 65.0696 20.036C65.2936 20.428 65.5829 20.7267 65.9376 20.932C66.3016 21.1373 66.6842 21.24 67.0856 21.24C67.4962 21.24 67.8789 21.1373 68.2336 20.932C68.5976 20.7173 68.8869 20.4093 69.1016 20.008C69.3256 19.6067 69.4376 19.14 69.4376 18.608ZM74.2358 12.14V22.5H72.6398V12.14H74.2358ZM77.1433 13.764C76.8539 13.764 76.6113 13.666 76.4153 13.47C76.2193 13.274 76.1213 13.0313 76.1213 12.742C76.1213 12.4527 76.2193 12.21 76.4153 12.014C76.6113 11.818 76.8539 11.72 77.1433 11.72C77.4233 11.72 77.6613 11.818 77.8573 12.014C78.0533 12.21 78.1513 12.4527 78.1513 12.742C78.1513 13.0313 78.0533 13.274 77.8573 13.47C77.6613 13.666 77.4233 13.764 77.1433 13.764ZM77.9273 14.786V22.5H76.3313V14.786H77.9273ZM81.8847 16.088V20.358C81.8847 20.6473 81.95 20.8573 82.0807 20.988C82.2207 21.1093 82.454 21.17 82.7807 21.17H83.7607V22.5H82.5007C81.782 22.5 81.2313 22.332 80.8487 21.996C80.466 21.66 80.2747 21.114 80.2747 20.358V16.088H79.3647V14.786H80.2747V12.868H81.8847V14.786H83.7607V16.088H81.8847Z" fill="white"/>
<path d="M24.303 17.5786L29.7025 20.6959L24.303 23.8128V17.5786Z" fill="white"/>
<path d="M18.3477 13.6238V27.7052H35.137V13.6238H18.3477ZM32.429 26.622H21.0556V15.2486H32.429V26.622Z" fill="white"/>
<path d="M39.4718 10.9158H23.2241V14.7071H25.932V12.5407H36.7639V23.3725H34.0559V24.4556H39.4718V10.9158Z" fill="white"/>
<path d="M44.3461 8.75H28.64V11.9995H30.8064V9.83309H41.6382V20.1233H38.3887V21.2064H44.3462L44.3461 8.75Z" fill="white"/>
<defs>
<linearGradient id="paint0_linear_1_115" x1="0.500005" y1="25.7383" x2="67.6539" y2="-61.8782" gradientUnits="userSpaceOnUse">
<stop stop-color="#662F88"/>
<stop offset="1" stop-color="#20BF55"/>
</linearGradient>
</defs>
</svg>
