<svg width="106" height="87" viewBox="0 0 106 87" fill="none" xmlns="http://www.w3.org/2000/svg">
<path d="M105.765 10.2995C101.832 12.0462 97.6406 13.2039 93.2712 13.7661C97.7662 11.049 101.197 6.77931 102.81 1.63292C98.619 4.16261 93.9918 5.94946 89.0605 6.94662C85.0811 2.65685 79.4095 0 73.2222 0C61.2179 0 51.5537 9.86446 51.5537 21.9575C51.5537 23.6975 51.6991 25.3705 52.0561 26.9633C34.0298 26.0732 18.0792 17.3264 7.36387 4.002C5.49315 7.28792 4.39585 11.049 4.39585 15.0978C4.39585 22.7003 8.26287 29.4395 14.027 33.3411C10.5434 33.2742 7.1259 32.2502 4.23059 30.6374C4.23059 30.7043 4.23059 30.7913 4.23059 30.8783C4.23059 41.5458 11.7465 50.4065 21.6024 52.4476C19.8375 52.9362 17.9139 53.1704 15.9176 53.1704C14.5294 53.1704 13.128 53.0901 11.8126 52.7956C14.622 61.4889 22.594 67.8801 32.0731 68.0875C24.6961 73.9299 15.3293 77.4501 5.18908 77.4501C3.41091 77.4501 1.70546 77.3698 0 77.1489C9.60476 83.4196 20.9877 87 33.263 87C73.1627 87 94.9767 53.5385 94.9767 24.534C94.9767 23.5636 94.9437 22.6267 94.8974 21.6965C99.2007 18.6046 102.817 14.7432 105.765 10.2995Z" fill="url(#paint0_linear_6242_47754)"/>
<defs>
<linearGradient id="paint0_linear_6242_47754" x1="5.02023e-06" y1="62.2009" x2="144.003" y2="-19.211" gradientUnits="userSpaceOnUse">
<stop stop-color="#662F88"/>
<stop offset="1" stop-color="#20BF55"/>
</linearGradient>
</defs>
</svg>
