<svg width="20" height="21" viewBox="0 0 20 21" fill="none" xmlns="http://www.w3.org/2000/svg">
<path d="M15 9C15.34 9 15.67 9.03 16 9.08V2C16 0.9 15.1 0 14 0H2C0.9 0 0 0.9 0 2V18C0 19.1 0.9 20 2 20H9.26C8.5275 18.9511 8.0967 17.7214 8.01445 16.4447C7.9322 15.168 8.20166 13.8932 8.79352 12.759C9.38537 11.6247 10.277 10.6746 11.3712 10.0118C12.4655 9.34904 13.7206 8.99908 15 9ZM4 9V2H9V9L6.5 7.5L4 9Z" fill="url(#paint0_linear_548_11252)"/>
<path d="M15 9C15.34 9 15.67 9.03 16 9.08V2C16 0.9 15.1 0 14 0H2C0.9 0 0 0.9 0 2V18C0 19.1 0.9 20 2 20H9.26C8.5275 18.9511 8.0967 17.7214 8.01445 16.4447C7.9322 15.168 8.20166 13.8932 8.79352 12.759C9.38537 11.6247 10.277 10.6746 11.3712 10.0118C12.4655 9.34904 13.7206 8.99908 15 9ZM4 9V2H9V9L6.5 7.5L4 9Z" fill="black" fill-opacity="0.2"/>
<path d="M15 11C12.24 11 10 13.24 10 16C10 18.76 12.24 21 15 21C17.76 21 20 18.76 20 16C20 13.24 17.76 11 15 11ZM13.75 18.5V13.5L17.75 16L13.75 18.5Z" fill="url(#paint1_linear_548_11252)"/>
<path d="M15 11C12.24 11 10 13.24 10 16C10 18.76 12.24 21 15 21C17.76 21 20 18.76 20 16C20 13.24 17.76 11 15 11ZM13.75 18.5V13.5L17.75 16L13.75 18.5Z" fill="black" fill-opacity="0.2"/>
<defs>
<linearGradient id="paint0_linear_548_11252" x1="7.59456e-07" y1="14.2991" x2="25.2522" y2="4.90431" gradientUnits="userSpaceOnUse">
<stop stop-color="#662F88"/>
<stop offset="1" stop-color="#20BF55"/>
</linearGradient>
<linearGradient id="paint1_linear_548_11252" x1="10" y1="18.1495" x2="24.7724" y2="11.2797" gradientUnits="userSpaceOnUse">
<stop stop-color="#662F88"/>
<stop offset="1" stop-color="#20BF55"/>
</linearGradient>
</defs>
</svg>
