<svg width="18" height="14" viewBox="0 0 18 14" fill="none" xmlns="http://www.w3.org/2000/svg">
<path d="M16.6651 2.8784C16.5787 2.51002 16.4027 2.1725 16.155 1.89993C15.9073 1.62735 15.5966 1.42938 15.2542 1.326C14.0034 1 9 1 9 1C9 1 3.99662 1 2.74578 1.35705C2.40343 1.46043 2.09271 1.6584 1.84499 1.93098C1.59727 2.20355 1.42133 2.54107 1.33494 2.90944C1.10602 4.26434 0.994042 5.63879 1.00042 7.01552C0.992256 8.40262 1.10424 9.78756 1.33494 11.1527C1.43018 11.5096 1.61006 11.8343 1.8572 12.0953C2.10434 12.3564 2.41039 12.545 2.74578 12.6429C3.99662 13 9 13 9 13C9 13 14.0034 13 15.2542 12.6429C15.5966 12.5396 15.9073 12.3416 16.155 12.069C16.4027 11.7965 16.5787 11.4589 16.6651 11.0906C16.8922 9.74586 17.0042 8.38189 16.9996 7.01552C17.0077 5.62843 16.8958 4.24349 16.6651 2.8784V2.8784Z" stroke="white" stroke-linecap="round" stroke-linejoin="round"/>
<path d="M7.36328 9.55484L11.5449 7.01668L7.36328 4.47852V9.55484Z" stroke="white" stroke-linecap="round" stroke-linejoin="round"/>
</svg>
