<svg width="58" height="65" viewBox="0 0 58 65" fill="none" xmlns="http://www.w3.org/2000/svg">
<path d="M41.7595 34.8398L46.9331 44.8622L57.9995 46.4398L49.8795 53.7873L53.3595 64.9998L41.7595 58.5224L30.1595 64.9998L33.6395 53.7873L25.5195 46.4398L36.8875 44.8622L41.7595 34.8398Z" fill="url(#paint0_linear_3050_19787)"/>
<path d="M46.4 6.99906H39.44V4.67906C39.4363 3.44959 38.9463 2.27152 38.0769 1.40214C37.2075 0.532769 36.0295 0.0427344 34.8 0.0390625H16.24C15.0105 0.0427344 13.8325 0.532769 12.9631 1.40214C12.0937 2.27152 11.6037 3.44959 11.6 4.67906V6.99906H4.64C3.41052 7.00273 2.23246 7.49277 1.36308 8.36214C0.493707 9.23152 0.00367193 10.4096 0 11.6391V60.3591C0.00367193 61.5885 0.493707 62.7666 1.36308 63.636C2.23246 64.5054 3.41052 64.9954 4.64 64.9991H20.88V60.3591H4.64V11.6391H11.6V18.5991H39.44V11.6391H46.4V27.8791H51.04V11.6391C51.0363 10.4096 50.5463 9.23152 49.6769 8.36214C48.8075 7.49277 47.6295 7.00273 46.4 6.99906ZM34.8 13.9591H16.24V4.67906H34.8V13.9591Z" fill="url(#paint1_linear_3050_19787)"/>
<defs>
<linearGradient id="paint0_linear_3050_19787" x1="25.5195" y1="56.4028" x2="72.1748" y2="33.037" gradientUnits="userSpaceOnUse">
<stop stop-color="#662F88"/>
<stop offset="1" stop-color="#20BF55"/>
</linearGradient>
<linearGradient id="paint1_linear_3050_19787" x1="2.42266e-06" y1="46.4824" x2="80.9028" y2="16.9211" gradientUnits="userSpaceOnUse">
<stop stop-color="#662F88"/>
<stop offset="1" stop-color="#20BF55"/>
</linearGradient>
</defs>
</svg>
