<svg width="1209" height="355" viewBox="0 0 1209 355" fill="none" xmlns="http://www.w3.org/2000/svg">
<rect x="592" y="57" width="26" height="6" rx="3" fill="#ECDAFF"/>
<path d="M605.215 167.679C605.357 167.324 605.392 166.936 605.315 166.561C605.238 166.186 605.053 165.843 604.783 165.572C604.512 165.302 604.169 165.117 603.794 165.04C603.419 164.963 603.03 164.998 602.675 165.14L545.841 187.874C545.341 188.075 544.905 188.409 544.583 188.841C544.26 189.273 544.063 189.786 544.013 190.322C543.963 190.859 544.062 191.4 544.299 191.884C544.536 192.368 544.902 192.777 545.357 193.067L564.872 205.483L570.853 214.883C571.136 215.31 571.575 215.608 572.075 215.715C572.575 215.822 573.098 215.728 573.529 215.453C573.961 215.179 574.268 214.746 574.385 214.248C574.501 213.75 574.417 213.226 574.151 212.789L568.775 204.342L598.054 175.064L590.65 193.575C590.548 193.814 590.495 194.071 590.494 194.331C590.493 194.591 590.544 194.848 590.644 195.088C590.743 195.328 590.89 195.546 591.075 195.729C591.26 195.912 591.48 196.055 591.721 196.152C591.962 196.249 592.22 196.296 592.48 196.292C592.74 196.288 592.997 196.232 593.234 196.127C593.472 196.022 593.687 195.871 593.866 195.682C594.045 195.494 594.184 195.271 594.276 195.028L605.215 167.679V167.679ZM595.291 172.301L566.013 201.58L549.061 190.793L595.291 172.301V172.301Z" fill="url(#paint0_linear_3050_19772)"/>
<path d="M605.358 213.836C605.358 217.463 603.918 220.941 601.353 223.506C598.789 226.07 595.311 227.511 591.684 227.511C588.057 227.511 584.579 226.07 582.015 223.506C579.45 220.941 578.01 217.463 578.01 213.836C578.01 210.21 579.45 206.732 582.015 204.167C584.579 201.603 588.057 200.162 591.684 200.162C595.311 200.162 598.789 201.603 601.353 204.167C603.918 206.732 605.358 210.21 605.358 213.836ZM597.572 207.277C597.352 207.145 597.108 207.057 596.854 207.02C596.6 206.982 596.341 206.995 596.093 207.057C595.844 207.12 595.609 207.231 595.403 207.384C595.197 207.536 595.023 207.728 594.892 207.949L590.321 215.567L588.183 213.43C587.817 213.063 587.319 212.857 586.8 212.857C586.282 212.857 585.784 213.063 585.417 213.43C585.051 213.797 584.844 214.294 584.844 214.813C584.844 215.332 585.051 215.829 585.417 216.196L588.441 219.216C588.756 219.532 589.139 219.771 589.56 219.916C589.981 220.062 590.43 220.109 590.872 220.055C591.314 220 591.738 219.846 592.112 219.603C592.486 219.361 592.799 219.036 593.028 218.654L598.244 209.957C598.376 209.737 598.463 209.493 598.501 209.239C598.538 208.985 598.525 208.726 598.463 208.478C598.401 208.229 598.29 207.994 598.137 207.788C597.984 207.582 597.792 207.408 597.572 207.277Z" fill="url(#paint1_linear_3050_19772)"/>
<path d="M1027.35 177.674C1027.35 181.301 1025.91 184.779 1023.34 187.343C1020.78 189.908 1017.3 191.349 1013.67 191.349C1010.05 191.349 1006.57 189.908 1004.01 187.343C1001.44 184.779 1000 181.301 1000 177.674C1000 174.048 1001.44 170.57 1004.01 168.005C1006.57 165.441 1010.05 164 1013.67 164C1017.3 164 1020.78 165.441 1023.34 168.005C1025.91 170.57 1027.35 174.048 1027.35 177.674ZM1019.56 171.115C1019.34 170.983 1019.1 170.895 1018.84 170.858C1018.59 170.82 1018.33 170.833 1018.08 170.895C1017.83 170.958 1017.6 171.069 1017.39 171.221C1017.19 171.374 1017.01 171.566 1016.88 171.787L1012.31 179.405L1010.17 177.268C1009.81 176.901 1009.31 176.695 1008.79 176.695C1008.27 176.695 1007.77 176.901 1007.41 177.268C1007.04 177.635 1006.83 178.132 1006.83 178.651C1006.83 179.17 1007.04 179.667 1007.41 180.034L1010.43 183.054C1010.75 183.369 1011.13 183.609 1011.55 183.754C1011.97 183.9 1012.42 183.947 1012.86 183.893C1013.3 183.838 1013.73 183.684 1014.1 183.441C1014.48 183.198 1014.79 182.874 1015.02 182.492L1020.23 173.795C1020.37 173.575 1020.45 173.331 1020.49 173.077C1020.53 172.823 1020.52 172.564 1020.45 172.315C1020.39 172.067 1020.28 171.832 1020.13 171.626C1019.97 171.42 1019.78 171.246 1019.56 171.115Z" fill="url(#paint2_linear_3050_19772)"/>
<path d="M171.76 196.84L176.933 206.862L188 208.44L179.88 215.787L183.36 227L171.76 220.522L160.16 227L163.64 215.787L155.52 208.44L166.888 206.862L171.76 196.84Z" fill="url(#paint3_linear_3050_19772)"/>
<path d="M176.4 168.999H169.44V166.679C169.436 165.45 168.946 164.272 168.077 163.402C167.208 162.533 166.029 162.043 164.8 162.039H146.24C145.011 162.043 143.832 162.533 142.963 163.402C142.094 164.272 141.604 165.45 141.6 166.679V168.999H134.64C133.411 169.003 132.232 169.493 131.363 170.362C130.494 171.232 130.004 172.41 130 173.639V222.359C130.004 223.589 130.494 224.767 131.363 225.636C132.232 226.505 133.411 226.995 134.64 226.999H150.88V222.359H134.64V173.639H141.6V180.599H169.44V173.639H176.4V189.879H181.04V173.639C181.036 172.41 180.546 171.232 179.677 170.362C178.808 169.493 177.629 169.003 176.4 168.999ZM164.8 175.959H146.24V166.679H164.8V175.959Z" fill="url(#paint4_linear_3050_19772)"/>
<path d="M1048.41 163L1046.79 164.772C1043.17 168.757 1040.18 170.539 1037.7 171.705C1035.21 172.868 1033.12 173.215 1031.07 174.785C1028.88 176.461 1025.7 179.675 1024.36 185.412C1021.48 186.038 1019.38 187.137 1017.72 188.569C1016.09 189.984 1014.85 191.593 1013.33 193.345C1013.32 193.365 1013.34 193.402 1013.33 193.422C1011.15 195.925 1009.24 198.622 1005.54 200.046L1004 200.662V227H1051.04C1053.73 226.855 1055.6 224.989 1056.74 223.148C1057.88 221.31 1058.51 219.318 1058.82 217.682C1059.64 213.512 1061.14 201.507 1061.14 201.507L1061.21 201.278V201.047C1061.14 199.381 1060.45 197.966 1059.59 196.655L1062.37 188.416L1066.77 181.792L1068 180.02L1066.38 178.558L1050.19 164.54L1048.41 163ZM1048.57 169.777L1061.44 180.946L1058.05 185.949L1057.82 186.183L1057.74 186.568L1055.51 193.19C1054.34 192.709 1053.14 192.372 1051.81 192.421H1051.65L1036.08 192.497H1033.61V202.047C1033.26 204.733 1031.77 205.773 1029.91 206.515C1029.29 206.764 1029.21 206.629 1028.67 206.744V192.423C1028.27 183.288 1031.53 180.658 1034.07 178.714C1034.78 178.174 1036.84 177.55 1039.78 176.173C1042.24 175.017 1045.29 172.947 1048.57 169.78V169.777ZM1023.89 190.957C1023.88 191.516 1023.71 191.911 1023.74 192.497V212.213H1026.21C1026.21 212.213 1028.85 212.184 1031.68 211.057C1034.51 209.931 1037.94 207.294 1038.54 202.663V197.426L1051.81 197.35H1051.88C1052.97 197.291 1054.03 197.662 1054.84 198.384C1055.65 199.105 1056.14 200.118 1056.2 201.199C1056.19 201.239 1056.08 202.153 1056.05 202.355H1045.95V207.284H1055.43C1055.17 209.189 1054.93 210.384 1054.66 212.213H1045.95V217.142H1053.89C1053.6 218.334 1053.13 219.477 1052.5 220.531C1051.83 221.627 1051.25 222.041 1050.73 222.071H1008.93V203.664C1012.93 201.544 1015.42 198.496 1017.03 196.657C1018.7 194.75 1019.84 193.306 1020.96 192.345C1021.7 191.719 1022.84 191.361 1023.89 190.957Z" fill="url(#paint5_linear_3050_19772)"/>
<ellipse cx="1014.5" cy="177" rx="8.5" ry="8" fill="url(#paint6_linear_3050_19772)"/>
<path d="M1008 173.5C1008 173.633 1008.05 173.76 1008.15 173.854C1008.24 173.947 1008.37 174 1008.5 174H1019.5C1019.63 174 1019.76 173.947 1019.85 173.854C1019.95 173.76 1020 173.633 1020 173.5C1020 173.367 1019.95 173.24 1019.85 173.146C1019.76 173.053 1019.63 173 1019.5 173H1008.5C1008.37 173 1008.24 173.053 1008.15 173.146C1008.05 173.24 1008 173.367 1008 173.5ZM1010 171.5C1010 171.633 1010.05 171.76 1010.15 171.854C1010.24 171.947 1010.37 172 1010.5 172H1017.5C1017.63 172 1017.76 171.947 1017.85 171.854C1017.95 171.76 1018 171.633 1018 171.5C1018 171.367 1017.95 171.24 1017.85 171.146C1017.76 171.053 1017.63 171 1017.5 171H1010.5C1010.37 171 1010.24 171.053 1010.15 171.146C1010.05 171.24 1010 171.367 1010 171.5ZM1012.76 177.076C1012.69 177.029 1012.6 177.003 1012.51 177C1012.42 176.998 1012.34 177.019 1012.26 177.063C1012.18 177.106 1012.11 177.169 1012.07 177.246C1012.02 177.323 1012 177.411 1012 177.5V182.5C1012 182.589 1012.02 182.677 1012.07 182.754C1012.11 182.831 1012.18 182.894 1012.26 182.937C1012.34 182.981 1012.42 183.002 1012.51 183C1012.6 182.997 1012.69 182.971 1012.76 182.924L1016.77 180.424C1016.84 180.379 1016.9 180.317 1016.94 180.242C1016.98 180.168 1017 180.085 1017 180C1017 179.915 1016.98 179.832 1016.94 179.758C1016.9 179.683 1016.84 179.621 1016.77 179.576L1012.76 177.076Z" fill="#0E0F1E"/>
<path d="M1007.5 185C1007.1 185 1006.72 184.842 1006.44 184.561C1006.16 184.279 1006 183.898 1006 183.5V176.5C1006 176.102 1006.16 175.721 1006.44 175.439C1006.72 175.158 1007.1 175 1007.5 175H1020.5C1020.9 175 1021.28 175.158 1021.56 175.439C1021.84 175.721 1022 176.102 1022 176.5V183.5C1022 183.898 1021.84 184.279 1021.56 184.561C1021.28 184.842 1020.9 185 1020.5 185H1007.5ZM1020.5 184C1020.63 184 1020.76 183.947 1020.85 183.854C1020.95 183.76 1021 183.633 1021 183.5V176.5C1021 176.367 1020.95 176.24 1020.85 176.146C1020.76 176.053 1020.63 176 1020.5 176H1007.5C1007.37 176 1007.24 176.053 1007.15 176.146C1007.05 176.24 1007 176.367 1007 176.5V183.5C1007 183.633 1007.05 183.76 1007.15 183.854C1007.24 183.947 1007.37 184 1007.5 184H1020.5Z" fill="#0E0F1E"/>
<defs>
<linearGradient id="paint0_linear_3050_19772" x1="544" y1="201.289" x2="627.767" y2="154.201" gradientUnits="userSpaceOnUse">
<stop stop-color="#662F88"/>
<stop offset="1" stop-color="#20BF55"/>
</linearGradient>
<linearGradient id="paint1_linear_3050_19772" x1="578.01" y1="219.715" x2="618.41" y2="200.927" gradientUnits="userSpaceOnUse">
<stop stop-color="#662F88"/>
<stop offset="1" stop-color="#20BF55"/>
</linearGradient>
<linearGradient id="paint2_linear_3050_19772" x1="1000" y1="183.553" x2="1040.4" y2="164.765" gradientUnits="userSpaceOnUse">
<stop stop-color="#662F88"/>
<stop offset="1" stop-color="#20BF55"/>
</linearGradient>
<linearGradient id="paint3_linear_3050_19772" x1="155.52" y1="218.403" x2="202.175" y2="195.037" gradientUnits="userSpaceOnUse">
<stop stop-color="#662F88"/>
<stop offset="1" stop-color="#20BF55"/>
</linearGradient>
<linearGradient id="paint4_linear_3050_19772" x1="130" y1="208.482" x2="210.903" y2="178.921" gradientUnits="userSpaceOnUse">
<stop stop-color="#662F88"/>
<stop offset="1" stop-color="#20BF55"/>
</linearGradient>
<linearGradient id="paint5_linear_3050_19772" x1="1004" y1="208.757" x2="1098.54" y2="164.79" gradientUnits="userSpaceOnUse">
<stop stop-color="#662F88"/>
<stop offset="1" stop-color="#20BF55"/>
</linearGradient>
<linearGradient id="paint6_linear_3050_19772" x1="1006" y1="180.439" x2="1030.55" y2="168.309" gradientUnits="userSpaceOnUse">
<stop stop-color="#662F88"/>
<stop offset="1" stop-color="#20BF55"/>
</linearGradient>
</defs>
</svg>
