<svg width="484" height="64" viewBox="0 0 484 64" fill="none" xmlns="http://www.w3.org/2000/svg">
<path d="M61.215 3.6794C61.3571 3.3244 61.3919 2.9355 61.3151 2.56092C61.2382 2.18634 61.0531 1.84254 60.7827 1.57216C60.5124 1.30177 60.1686 1.11669 59.794 1.03985C59.4194 0.963009 59.0305 0.997794 58.6755 1.13989L1.84129 23.8744C1.34077 24.0747 0.905229 24.4093 0.582599 24.8412C0.259968 25.2731 0.062758 25.7857 0.0126731 26.3225C-0.0374118 26.8593 0.0615705 27.3995 0.298726 27.8837C0.535881 28.3678 0.902015 28.7772 1.35683 29.0667L20.872 41.4829L26.8535 50.883C27.136 51.3095 27.5746 51.6082 28.0749 51.7149C28.5753 51.8215 29.0975 51.7276 29.5294 51.4533C29.9613 51.1791 30.2683 50.7463 30.3845 50.2481C30.5008 49.7499 30.4169 49.2259 30.151 48.7889L24.775 40.3421L54.0536 11.0635L46.6499 29.5746C46.5482 29.8138 46.4953 30.0709 46.4942 30.3309C46.4931 30.5908 46.5439 30.8484 46.6437 31.0884C46.7434 31.3285 46.8901 31.5462 47.075 31.7289C47.26 31.9115 47.4795 32.0554 47.7208 32.1522C47.9621 32.2489 48.2203 32.2965 48.4802 32.2922C48.7401 32.2878 48.9965 32.2317 49.2345 32.127C49.4724 32.0223 49.687 31.8711 49.8658 31.6824C50.0446 31.4937 50.1839 31.2712 50.2756 31.028L61.215 3.6794ZM51.2914 8.30131L22.0128 37.5799L5.06061 26.7928L51.2914 8.30131Z" fill="url(#paint0_linear_3050_19781)"/>
<path d="M61.3583 49.8364C61.3583 53.463 59.9176 56.9411 57.3532 59.5056C54.7888 62.07 51.3107 63.5107 47.684 63.5107C44.0574 63.5107 40.5793 62.07 38.0149 59.5056C35.4504 56.9411 34.0098 53.463 34.0098 49.8364C34.0098 46.2097 35.4504 42.7316 38.0149 40.1672C40.5793 37.6028 44.0574 36.1621 47.684 36.1621C51.3107 36.1621 54.7888 37.6028 57.3532 40.1672C59.9176 42.7316 61.3583 46.2097 61.3583 49.8364ZM53.5718 43.2766C53.3517 43.1447 53.1078 43.0575 52.854 43.0199C52.6001 42.9823 52.3414 42.995 52.0925 43.0574C51.8436 43.1198 51.6095 43.2306 51.4034 43.3836C51.1974 43.5365 51.0235 43.7285 50.8916 43.9486L46.3205 51.5672L44.1834 49.4301C43.8166 49.0633 43.3191 48.8572 42.8004 48.8572C42.2816 48.8572 41.7841 49.0633 41.4173 49.4301C41.0505 49.7969 40.8444 50.2944 40.8444 50.8131C40.8444 51.3319 41.0505 51.8294 41.4173 52.1962L44.4413 55.2162C44.756 55.5316 45.1386 55.771 45.5598 55.9163C45.981 56.0616 46.4298 56.1089 46.872 56.0547C47.3142 56.0004 47.7383 55.8461 48.1119 55.6033C48.4855 55.3605 48.7988 55.0357 49.028 54.6536L54.2438 45.9568C54.3757 45.7367 54.4629 45.4928 54.5006 45.239C54.5382 44.9851 54.5254 44.7264 54.463 44.4775C54.4006 44.2286 54.2898 43.9945 54.1369 43.7884C53.9839 43.5824 53.7919 43.4085 53.5718 43.2766Z" fill="url(#paint1_linear_3050_19781)"/>
<path d="M483.349 13.6743C483.349 17.3009 481.908 20.779 479.343 23.3434C476.779 25.9079 473.301 27.3486 469.674 27.3486C466.048 27.3486 462.57 25.9079 460.005 23.3434C457.441 20.779 456 17.3009 456 13.6743C456 10.0476 457.441 6.56953 460.005 4.0051C462.57 1.44068 466.048 0 469.674 0C473.301 0 476.779 1.44068 479.343 4.0051C481.908 6.56953 483.349 10.0476 483.349 13.6743ZM475.562 7.11453C475.342 6.98263 475.098 6.89538 474.844 6.85776C474.59 6.82015 474.332 6.8329 474.083 6.89531C473.834 6.95771 473.6 7.06854 473.394 7.22145C473.188 7.37437 473.014 7.56638 472.882 7.78652L468.311 15.405L466.174 13.268C465.807 12.9011 465.309 12.6951 464.791 12.6951C464.272 12.6951 463.774 12.9011 463.408 13.268C463.041 13.6348 462.835 14.1323 462.835 14.651C462.835 15.1698 463.041 15.6673 463.408 16.0341L466.432 19.0541C466.746 19.3695 467.129 19.6089 467.55 19.7542C467.971 19.8995 468.42 19.9468 468.862 19.8926C469.304 19.8383 469.729 19.684 470.102 19.4412C470.476 19.1984 470.789 18.8736 471.018 18.4915L476.234 9.79469C476.366 9.5746 476.453 9.33067 476.491 9.07685C476.528 8.82303 476.516 8.56429 476.453 8.3154C476.391 8.06651 476.28 7.83236 476.127 7.62631C475.974 7.42026 475.782 7.24636 475.562 7.11453Z" fill="url(#paint2_linear_3050_19781)"/>
<defs>
<linearGradient id="paint0_linear_3050_19781" x1="2.91227e-06" y1="37.2894" x2="83.767" y2="-9.79909" gradientUnits="userSpaceOnUse">
<stop stop-color="#662F88"/>
<stop offset="1" stop-color="#20BF55"/>
</linearGradient>
<linearGradient id="paint1_linear_3050_19781" x1="34.0098" y1="55.715" x2="74.41" y2="36.9271" gradientUnits="userSpaceOnUse">
<stop stop-color="#662F88"/>
<stop offset="1" stop-color="#20BF55"/>
</linearGradient>
<linearGradient id="paint2_linear_3050_19781" x1="456" y1="19.5529" x2="496.4" y2="0.764966" gradientUnits="userSpaceOnUse">
<stop stop-color="#662F88"/>
<stop offset="1" stop-color="#20BF55"/>
</linearGradient>
</defs>
</svg>
