<svg width="12" height="12" viewBox="0 0 12 12" fill="none" xmlns="http://www.w3.org/2000/svg">
<path d="M11.52 0H0.48C0.2145 0 0 0.2145 0 0.48V11.52C0 11.7855 0.2145 12 0.48 12H11.52C11.7855 12 12 11.7855 12 11.52V0.48C12 0.2145 11.7855 0 11.52 0ZM4.02 8.76C3.6885 8.76 3.42 8.4915 3.42 8.16C3.42 7.8285 3.6885 7.56 4.02 7.56C4.3515 7.56 4.62 7.8285 4.62 8.16C4.62 8.4915 4.3515 8.76 4.02 8.76ZM4.02 6.6C3.6885 6.6 3.42 6.3315 3.42 6C3.42 5.6685 3.6885 5.4 4.02 5.4C4.3515 5.4 4.62 5.6685 4.62 6C4.62 6.3315 4.3515 6.6 4.02 6.6ZM4.02 4.44C3.6885 4.44 3.42 4.1715 3.42 3.84C3.42 3.5085 3.6885 3.24 4.02 3.24C4.3515 3.24 4.62 3.5085 4.62 3.84C4.62 4.1715 4.3515 4.44 4.02 4.44ZM8.58 8.52C8.58 8.586 8.526 8.64 8.46 8.64H5.7C5.634 8.64 5.58 8.586 5.58 8.52V7.8C5.58 7.734 5.634 7.68 5.7 7.68H8.46C8.526 7.68 8.58 7.734 8.58 7.8V8.52ZM8.58 6.36C8.58 6.426 8.526 6.48 8.46 6.48H5.7C5.634 6.48 5.58 6.426 5.58 6.36V5.64C5.58 5.574 5.634 5.52 5.7 5.52H8.46C8.526 5.52 8.58 5.574 8.58 5.64V6.36ZM8.58 4.2C8.58 4.266 8.526 4.32 8.46 4.32H5.7C5.634 4.32 5.58 4.266 5.58 4.2V3.48C5.58 3.414 5.634 3.36 5.7 3.36H8.46C8.526 3.36 8.58 3.414 8.58 3.48V4.2Z" fill="white"/>
</svg>
