<svg width="78" height="78" viewBox="0 0 78 78" fill="none" xmlns="http://www.w3.org/2000/svg">
<path d="M38.5859 76C59.0205 76 75.5859 59.4345 75.5859 39C75.5859 18.5655 59.0205 2 38.5859 2C18.1514 2 1.58594 18.5655 1.58594 39C1.58594 59.4345 18.1514 76 38.5859 76Z" stroke="url(#paint0_linear_5927_57710)" stroke-width="3" stroke-linecap="round" stroke-linejoin="round"/>
<path d="M38.5859 76C59.0205 76 75.5859 59.4345 75.5859 39C75.5859 18.5655 59.0205 2 38.5859 2C18.1514 2 1.58594 18.5655 1.58594 39C1.58594 59.4345 18.1514 76 38.5859 76Z" stroke="black" stroke-opacity="0.2" stroke-width="3" stroke-linecap="round" stroke-linejoin="round"/>
<path d="M49.6883 27.9004L27.4883 50.1004" stroke="url(#paint1_linear_5927_57710)" stroke-width="4" stroke-linecap="round" stroke-linejoin="round"/>
<path d="M49.6883 27.9004L27.4883 50.1004" stroke="black" stroke-opacity="0.2" stroke-width="4" stroke-linecap="round" stroke-linejoin="round"/>
<path d="M27.4883 27.9004L49.6883 50.1004" stroke="url(#paint2_linear_5927_57710)" stroke-width="4" stroke-linecap="round" stroke-linejoin="round"/>
<path d="M27.4883 27.9004L49.6883 50.1004" stroke="black" stroke-opacity="0.2" stroke-width="4" stroke-linecap="round" stroke-linejoin="round"/>
<defs>
<linearGradient id="paint0_linear_5927_57710" x1="1.58594" y1="54.9065" x2="110.901" y2="4.06985" gradientUnits="userSpaceOnUse">
<stop stop-color="#662F88"/>
<stop offset="1" stop-color="#20BF55"/>
</linearGradient>
<linearGradient id="paint1_linear_5927_57710" x1="27.4883" y1="43.7724" x2="60.2829" y2="28.5213" gradientUnits="userSpaceOnUse">
<stop stop-color="#662F88"/>
<stop offset="1" stop-color="#20BF55"/>
</linearGradient>
<linearGradient id="paint2_linear_5927_57710" x1="27.4883" y1="43.7724" x2="60.2829" y2="28.5213" gradientUnits="userSpaceOnUse">
<stop stop-color="#662F88"/>
<stop offset="1" stop-color="#20BF55"/>
</linearGradient>
</defs>
</svg>
