<svg width="12" height="13" viewBox="0 0 12 13" fill="none" xmlns="http://www.w3.org/2000/svg">
<path d="M12 6.24512C12 7.83642 11.3679 9.36254 10.2426 10.4878C9.11742 11.613 7.5913 12.2451 6 12.2451C4.4087 12.2451 2.88258 11.613 1.75736 10.4878C0.632141 9.36254 0 7.83642 0 6.24512C0 4.65382 0.632141 3.12769 1.75736 2.00248C2.88258 0.877258 4.4087 0.245117 6 0.245117C7.5913 0.245117 9.11742 0.877258 10.2426 2.00248C11.3679 3.12769 12 4.65382 12 6.24512ZM5.0925 4.06487C5.03643 4.02494 4.97045 4.00122 4.90179 3.99631C4.83313 3.99139 4.76445 4.00546 4.70326 4.03699C4.64207 4.06851 4.59073 4.11627 4.55488 4.17503C4.51903 4.23379 4.50004 4.30128 4.5 4.37012V8.12012C4.50004 8.18895 4.51903 8.25644 4.55488 8.3152C4.59073 8.37396 4.64207 8.42172 4.70326 8.45325C4.76445 8.48477 4.83313 8.49885 4.90179 8.49393C4.97045 8.48901 5.03643 8.46529 5.0925 8.42537L7.7175 6.55037C7.76611 6.51568 7.80574 6.46988 7.83307 6.41679C7.86041 6.36369 7.87468 6.30484 7.87468 6.24512C7.87468 6.1854 7.86041 6.12654 7.83307 6.07345C7.80574 6.02035 7.76611 5.97456 7.7175 5.93987L5.0925 4.06487Z" fill="white" fill-opacity="0.9"/>
</svg>
