<svg width="78" height="78" viewBox="0 0 78 78" fill="none" xmlns="http://www.w3.org/2000/svg">
<path d="M38.9297 76C59.3642 76 75.9297 59.4345 75.9297 39C75.9297 18.5655 59.3642 2 38.9297 2C18.4952 2 1.92969 18.5655 1.92969 39C1.92969 59.4345 18.4952 76 38.9297 76Z" stroke="url(#paint0_linear_1_8)" stroke-width="3" stroke-linecap="round" stroke-linejoin="round"/>
<path d="M38.9297 76C59.3642 76 75.9297 59.4345 75.9297 39C75.9297 18.5655 59.3642 2 38.9297 2C18.4952 2 1.92969 18.5655 1.92969 39C1.92969 59.4345 18.4952 76 38.9297 76Z" stroke="black" stroke-opacity="0.2" stroke-width="3" stroke-linecap="round" stroke-linejoin="round"/>
<path fill-rule="evenodd" clip-rule="evenodd" d="M36.1545 26.5C35.1656 26.5 34.3034 27.1731 34.0639 28.1326L33.6098 29.9484H27.7228C27.0087 29.9484 26.4297 30.5271 26.4297 31.2415C26.4297 31.9555 27.0087 32.5346 27.7228 32.5346H29.0733L29.8044 48.6199C29.8777 50.2314 31.2055 51.5 32.8187 51.5H45.041C46.6542 51.5 47.982 50.2314 48.055 48.6199L48.7864 32.5346H50.1369C50.851 32.5346 51.43 31.9555 51.43 31.2415C51.43 30.5271 50.851 29.9484 50.1369 29.9484H44.2498L43.7961 28.1326C43.5562 27.1731 42.6941 26.5 41.7052 26.5H36.1545ZM43.2091 32.5346C43.229 32.5348 43.2489 32.5348 43.2688 32.5346H46.1971L45.4715 48.5025C45.4611 48.7328 45.2714 48.9138 45.0408 48.9138H32.8184C32.5881 48.9138 32.3982 48.7328 32.3878 48.5025L31.6622 32.5346H34.5904C34.6103 32.5348 34.6302 32.5348 34.6499 32.5346H43.2091ZM41.5838 29.9484L41.3685 29.0862H36.491L36.2757 29.9484H41.5838Z" fill="url(#paint1_linear_1_8)"/>
<path fill-rule="evenodd" clip-rule="evenodd" d="M36.1545 26.5C35.1656 26.5 34.3034 27.1731 34.0639 28.1326L33.6098 29.9484H27.7228C27.0087 29.9484 26.4297 30.5271 26.4297 31.2415C26.4297 31.9555 27.0087 32.5346 27.7228 32.5346H29.0733L29.8044 48.6199C29.8777 50.2314 31.2055 51.5 32.8187 51.5H45.041C46.6542 51.5 47.982 50.2314 48.055 48.6199L48.7864 32.5346H50.1369C50.851 32.5346 51.43 31.9555 51.43 31.2415C51.43 30.5271 50.851 29.9484 50.1369 29.9484H44.2498L43.7961 28.1326C43.5562 27.1731 42.6941 26.5 41.7052 26.5H36.1545ZM43.2091 32.5346C43.229 32.5348 43.2489 32.5348 43.2688 32.5346H46.1971L45.4715 48.5025C45.4611 48.7328 45.2714 48.9138 45.0408 48.9138H32.8184C32.5881 48.9138 32.3982 48.7328 32.3878 48.5025L31.6622 32.5346H34.5904C34.6103 32.5348 34.6302 32.5348 34.6499 32.5346H43.2091ZM41.5838 29.9484L41.3685 29.0862H36.491L36.2757 29.9484H41.5838Z" fill="black" fill-opacity="0.2"/>
<defs>
<linearGradient id="paint0_linear_1_8" x1="1.92969" y1="54.9065" x2="111.245" y2="4.06985" gradientUnits="userSpaceOnUse">
<stop stop-color="#662F88"/>
<stop offset="1" stop-color="#20BF55"/>
</linearGradient>
<linearGradient id="paint1_linear_1_8" x1="26.4297" y1="44.3738" x2="63.3609" y2="27.199" gradientUnits="userSpaceOnUse">
<stop stop-color="#662F88"/>
<stop offset="1" stop-color="#20BF55"/>
</linearGradient>
</defs>
</svg>
