<svg width="18" height="20" viewBox="0 0 18 20" fill="none" xmlns="http://www.w3.org/2000/svg">
<path d="M9.63589 3.81072e-05H7.84299C7.18921 0.000488368 6.56248 0.260432 6.10023 0.722554C5.63798 1.1848 5.37802 1.81173 5.37756 2.46531V2.68939L2.46399 2.68954C1.66478 2.68789 0.914835 3.07463 0.452702 3.72661C-0.00923898 4.37858 -0.125732 5.2144 0.140528 5.96796C0.406777 6.72137 1.02242 7.29846 1.79161 7.51531V16.8095C1.79206 17.4631 2.05201 18.09 2.51413 18.5522C2.97638 19.0143 3.6033 19.2743 4.25689 19.2747H13.2221C13.8758 19.2743 14.5027 19.0143 14.9649 18.5522C15.427 18.09 15.687 17.463 15.6874 16.8095V11.4305C15.6874 11.1902 15.5592 10.9682 15.3512 10.8481C15.1432 10.7281 14.8869 10.7281 14.6789 10.8481C14.4708 10.9682 14.3427 11.1902 14.3427 11.4305V16.8095C14.3422 17.1065 14.224 17.3912 14.014 17.6013C13.8039 17.8113 13.5192 17.9295 13.2222 17.93H4.2569C3.95988 17.9295 3.67516 17.8113 3.46507 17.6013C3.25511 17.3912 3.13684 17.1065 3.13639 16.8095V7.6202H15.0148C15.8956 7.6202 16.7095 7.15031 17.1498 6.38756C17.5903 5.6247 17.5903 4.68488 17.1498 3.92213C16.7095 3.15939 15.8956 2.6895 15.0148 2.6895H12.1012V2.46527C12.1007 1.81165 11.8408 1.18476 11.3785 0.722515C10.9163 0.260421 10.2895 0.000461057 9.63576 0L9.63589 3.81072e-05ZM6.72231 2.46531C6.72276 2.1683 6.84103 1.88357 7.051 1.67348C7.26112 1.46352 7.54583 1.34525 7.84298 1.3448H9.63603H9.63588C9.93305 1.34525 10.2178 1.46352 10.4279 1.67348C10.6378 1.8836 10.7561 2.16831 10.7565 2.46531V2.68939L6.72229 2.68954L6.72231 2.46531ZM16.1356 5.15481C16.1351 5.45198 16.0169 5.73671 15.8069 5.9468C15.5968 6.15676 15.3121 6.27503 15.0149 6.27548H2.46415C2.06373 6.27548 1.69376 6.06191 1.49355 5.71522C1.29349 5.36838 1.29349 4.94122 1.49355 4.59454C1.69376 4.24785 2.06373 4.03428 2.46415 4.03428H15.0149C15.3121 4.03473 15.5968 4.15299 15.8069 4.36296C16.0168 4.57308 16.1351 4.85779 16.1356 5.15479V5.15481Z" fill="#424476"/>
<path d="M9.85938 10.5337V14.1198C9.85938 14.3599 9.98755 14.5819 10.1956 14.7019C10.4036 14.8221 10.6599 14.8221 10.8679 14.7019C11.076 14.5819 11.2041 14.3599 11.2041 14.1198V10.5337C11.2041 10.2935 11.076 10.0716 10.8679 9.95149C10.6599 9.83127 10.4036 9.83127 10.1956 9.95149C9.98755 10.0716 9.85938 10.2935 9.85938 10.5337Z" fill="#424476"/>
<path d="M6.27344 10.5337V14.1198C6.27344 14.3599 6.40161 14.5819 6.60963 14.7019C6.81764 14.8221 7.07399 14.8221 7.282 14.7019C7.49002 14.5819 7.61819 14.3599 7.61819 14.1198V10.5337C7.61819 10.2935 7.49002 10.0716 7.282 9.95149C7.07398 9.83127 6.81764 9.83127 6.60963 9.95149C6.40161 10.0716 6.27344 10.2935 6.27344 10.5337Z" fill="#424476"/>
<path d="M14.3438 8.74073V9.63717C14.3438 9.87746 14.4719 10.0994 14.6799 10.2195C14.888 10.3396 15.1443 10.3396 15.3523 10.2195C15.5603 10.0994 15.6885 9.87745 15.6885 9.63717V8.74073C15.6885 8.50044 15.5603 8.27848 15.3523 8.15841C15.1443 8.03834 14.888 8.03834 14.6799 8.15841C14.4719 8.27848 14.3438 8.50045 14.3438 8.74073Z" fill="#424476"/>
</svg>
