<svg width="17" height="20" viewBox="0 0 17 20" fill="none" xmlns="http://www.w3.org/2000/svg">
<path d="M14.8541 0.758789H2.48535C2.2363 0.759426 1.98982 0.80911 1.75998 0.905005C1.53013 1.0009 1.32143 1.14113 1.14578 1.31768C0.970126 1.49423 0.83097 1.70365 0.736254 1.93399C0.641538 2.16432 0.593117 2.41105 0.593756 2.6601V15.1386C0.593756 16.1908 1.44288 17.0399 2.48535 17.0399H12.9518L12.4611 15.331L13.6435 16.4298L14.7598 17.4635L16.7456 19.2181V2.6601C16.7463 2.41105 16.6979 2.16432 16.6032 1.93399C16.5084 1.70365 16.3693 1.49423 16.1936 1.31768C16.018 1.14113 15.8093 1.0009 15.5794 0.905005C15.3496 0.80911 15.1031 0.759426 14.8541 0.758789ZM11.2904 12.8127C11.2904 12.8127 10.9582 12.4163 10.6823 12.0637C11.8909 11.7217 12.3523 10.9658 12.3523 10.9658C11.9734 11.2145 11.614 11.3914 11.2904 11.5118C10.1126 12.0048 8.81556 12.1393 7.56166 11.8985C7.09833 11.8075 6.64434 11.6741 6.20539 11.5002C5.97388 11.4122 5.74889 11.308 5.53211 11.1883C5.50393 11.1679 5.47673 11.1601 5.44953 11.1417C5.43497 11.1347 5.42206 11.1248 5.41164 11.1125C5.2455 11.0212 5.1532 10.9571 5.1532 10.9571C5.1532 10.9571 5.59623 11.6954 6.76888 12.0462C6.49199 12.3959 6.15001 12.8127 6.15001 12.8127C4.11074 12.7476 3.33642 11.4098 3.33642 11.4098C3.33642 8.43786 4.66549 6.02941 4.66549 6.02941C5.99456 5.03163 7.25854 5.05981 7.25854 5.05981L7.35083 5.17056C5.6895 5.65148 4.92295 6.38013 4.92295 6.38013C4.92295 6.38013 5.12697 6.26938 5.46798 6.11296C6.45507 5.67965 7.23911 5.55918 7.56263 5.53101C7.61801 5.52226 7.66464 5.51255 7.72002 5.51255C9.32035 5.29688 10.9476 5.60102 12.3621 6.38013C12.3621 6.38013 11.6324 5.6884 10.0634 5.20845L10.1926 5.06078C10.1926 5.06078 11.4575 5.0326 12.7856 6.03038C12.7856 6.03038 14.1147 8.43883 14.1147 11.4108C14.1147 11.4098 13.3307 12.7476 11.2904 12.8127Z" fill="white"/>
</svg>
