<svg width="40" height="40" viewBox="0 0 40 40" fill="none" xmlns="http://www.w3.org/2000/svg">
<path fill-rule="evenodd" clip-rule="evenodd" d="M8 20.0002C8 20.8281 8.30719 21.5346 8.92314 22.1211C9.53751 22.706 10.2811 23 11.1506 23C12.0202 23 12.7622 22.7075 13.3781 22.1211C13.9925 21.5361 14.3013 20.8281 14.3013 20.0002C14.3013 19.1722 13.9941 18.4658 13.3781 17.8793C13.0896 17.5957 12.7431 17.3714 12.36 17.2202C11.9769 17.069 11.5653 16.9942 11.1506 17.0003C10.2811 17.0003 9.53909 17.2928 8.92314 17.8793C8.30876 18.4643 8 19.1722 8 20.0002ZM16.8486 20.0002C16.8486 20.8281 17.1573 21.5346 17.7717 22.1211C18.3877 22.706 19.1312 23 19.9992 23C20.8688 23 21.6108 22.7075 22.2267 22.1211C22.8411 21.5361 23.1499 20.8281 23.1499 20.0002C23.1499 19.1722 22.8427 18.4658 22.2267 17.8793C21.9382 17.5957 21.5917 17.3714 21.2085 17.2202C20.8254 17.069 20.4139 16.9942 19.9992 17.0003C19.1312 17.0003 18.3877 17.2928 17.7717 17.8793C17.1573 18.4643 16.8486 19.1722 16.8486 20.0002ZM25.6704 20.0002C25.6704 20.8281 25.9775 21.5346 26.5935 22.1211C27.2079 22.706 27.9609 23 28.8494 23C29.7174 23 30.4609 22.7075 31.0753 22.1211C31.6912 21.5361 32 20.8281 32 20.0002C32 19.1722 31.6912 18.4658 31.0753 17.8793C30.7869 17.5959 30.4407 17.3717 30.0578 17.2205C29.675 17.0694 29.2638 16.9944 28.8494 17.0003C27.9593 17.0003 27.2079 17.2928 26.5935 17.8793C25.9791 18.4643 25.6704 19.1722 25.6688 20.0002H25.6704Z" fill="#DFDFDF"/>
</svg>
