<svg width="20" height="20" viewBox="0 0 20 20" fill="none" xmlns="http://www.w3.org/2000/svg">
<path d="M13.4229 19.5293H5.62743C4.13556 19.5276 2.70516 18.9433 1.65005 17.9045C0.595209 16.8657 0.00172865 15.4574 0 13.9885V6.3126C0.00172402 4.84347 0.595245 3.43515 1.65005 2.39623C2.70505 1.35742 4.13542 0.773187 5.62743 0.771484H9.09981V2.23695L5.62743 2.2371C4.52977 2.23794 3.47724 2.66774 2.701 3.43192C1.92487 4.19626 1.48841 5.23268 1.48756 6.31346V13.9883C1.48842 15.0691 1.92491 16.1054 2.701 16.8697C3.47724 17.634 4.52981 18.0638 5.62743 18.0647H13.4229C14.5203 18.0634 15.5724 17.6335 16.3484 16.8691C17.1242 16.1049 17.5605 15.0688 17.5614 13.9883V10.1501H19.0496V13.9883C19.0481 15.4571 18.4547 16.8654 17.3997 17.9043C16.3449 18.9431 14.9147 19.5273 13.4231 19.5292L13.4229 19.5293Z" fill="#424476"/>
<path d="M7.71094 9.07228L14.3221 2.5625L17.2111 5.40714L10.5999 11.9169L7.71094 9.07228Z" fill="#424476"/>
<path d="M14.8672 2.03162L16.6637 0.262695L19.5526 3.10733L17.7561 4.87625L14.8672 2.03162Z" fill="#424476"/>
<path d="M6.944 9.83129L6.15625 13.4519L9.8331 12.6761L10.0654 12.4473L7.17632 9.60254L6.944 9.83129Z" fill="#424476"/>
</svg>
