<svg width="40" height="40" viewBox="0 0 40 40" fill="none" xmlns="http://www.w3.org/2000/svg">
<path d="M28.0064 9H11.9927C11.4444 9.0004 10.9999 9.54396 11 10.2144V29.7867C11.0003 30.4568 11.4451 31.0001 11.9936 31H20.6152V22.4922H18.2773V19.1621H20.6152V16.7114C20.6152 13.8694 22.0348 12.3226 24.109 12.3226C25.1025 12.3226 25.9562 12.4131 26.2051 12.4535V15.4238H24.7748C23.6463 15.4238 23.4277 16.0792 23.4277 17.0412V19.1621H26.126L25.7744 22.4922H23.4277V31H28.0064C28.5551 31.0001 28.9999 30.4567 29 29.7861C29 29.786 29 29.7859 29 29.7856V10.2133C28.9998 9.54315 28.5549 8.99987 28.0064 9Z" fill="#DFDFDF"/>
</svg>
