<svg width="24" height="25" viewBox="0 0 24 25" fill="none" xmlns="http://www.w3.org/2000/svg">
<path d="M23.9749 4.94833C23.9749 7.51755 21.9195 9.61965 19.3503 9.71307H19.3036C14.0717 9.85321 9.86754 14.0107 9.63397 19.2426C9.63397 19.3827 9.63397 19.4761 9.63397 19.6163C9.49383 22.1388 7.39174 24.1007 4.86923 24.1007C4.58895 24.1007 4.30867 24.054 4.02839 24.0073C1.87959 23.6336 0.244632 21.8118 0.104492 19.6163V19.0557C0.244632 16.5799 2.25329 14.6647 4.68238 14.5712H4.82251C8.65299 14.4778 12.1098 12.1422 13.6513 8.63868C11.5492 8.31169 9.4004 8.68538 7.48517 9.66636L7.43845 9.71307C4.96265 10.9743 1.97301 10.0401 0.665042 7.56427C-0.596214 5.08847 0.338052 2.09883 2.81385 0.790859C4.21524 0.0434486 5.94363 0.0434457 7.39173 0.744143C7.48516 0.790856 7.57859 0.837578 7.67201 0.884291C10.5682 2.3324 14.1184 2.33239 16.9679 0.744143C17.5285 0.463864 18.0891 0.27702 18.6963 0.183594C18.743 0.183594 18.743 0.183594 18.7898 0.183594C18.9299 0.183594 19.07 0.183594 19.2102 0.183594C19.3503 0.183594 19.4904 0.183594 19.6306 0.183594C19.6773 0.183594 19.6773 0.183594 19.724 0.183594C22.1531 0.463873 23.9749 2.51924 23.9749 4.94833Z" fill="white"/>
<path d="M20.144 24.0985C22.2595 24.0985 23.9744 22.3835 23.9744 20.268C23.9744 18.1525 22.2595 16.4375 20.144 16.4375C18.0284 16.4375 16.3135 18.1525 16.3135 20.268C16.3135 22.3835 18.0284 24.0985 20.144 24.0985Z" fill="white"/>
</svg>
