<svg width="16" height="17" viewBox="0 0 16 17" fill="none" xmlns="http://www.w3.org/2000/svg">
<path d="M2.0873 8.74512V14.5785C2.0873 15.0205 2.25453 15.4444 2.55221 15.757C2.84989 16.0695 3.25362 16.2451 3.6746 16.2451H11.6111C12.0321 16.2451 12.4358 16.0695 12.7335 15.757C13.0312 15.4444 13.1984 15.0205 13.1984 14.5785V8.74512M7.64286 5.41178V16.2451V5.41178ZM7.64286 5.41178V3.74512C7.64286 3.41548 7.73595 3.09325 7.91037 2.81917C8.08478 2.54509 8.33268 2.33146 8.62273 2.20532C8.91277 2.07917 9.23192 2.04617 9.53983 2.11048C9.84773 2.17478 10.1306 2.33352 10.3526 2.56661C10.5745 2.79969 10.7257 3.09667 10.787 3.41997C10.8482 3.74327 10.8168 4.07838 10.6966 4.38292C10.5765 4.68747 10.373 4.94776 10.112 5.1309C9.85099 5.31404 9.5441 5.41178 9.23016 5.41178H7.64286ZM7.64286 5.41178V3.32845C7.64286 2.91641 7.52649 2.51362 7.30847 2.17101C7.09045 1.82841 6.78057 1.56138 6.41802 1.4037C6.05547 1.24602 5.65653 1.20476 5.27165 1.28515C4.88676 1.36553 4.53323 1.56395 4.25574 1.85531C3.97826 2.14667 3.78929 2.51789 3.71273 2.92201C3.63617 3.32614 3.67546 3.74503 3.82564 4.12571C3.97581 4.50639 4.23012 4.83176 4.55641 5.06068C4.8827 5.2896 5.26631 5.41178 5.65873 5.41178H7.64286ZM2.0873 8.74512H13.1984H2.0873ZM2.0873 8.74512C1.66632 8.74512 1.26259 8.56952 0.96491 8.25696C0.667233 7.9444 0.5 7.52048 0.5 7.07845C0.5 6.63642 0.667233 6.2125 0.96491 5.89994C1.26259 5.58738 1.66632 5.41178 2.0873 5.41178H13.1984C13.6194 5.41178 14.0231 5.58738 14.3208 5.89994C14.6185 6.2125 14.7857 6.63642 14.7857 7.07845C14.7857 7.52048 14.6185 7.9444 14.3208 8.25696C14.0231 8.56952 13.6194 8.74512 13.1984 8.74512H2.0873Z" stroke="white" stroke-linecap="round" stroke-linejoin="round"/>
</svg>
