<svg width="17" height="17" viewBox="0 0 17 17" fill="none" xmlns="http://www.w3.org/2000/svg">
<path d="M8.5 16C12.6422 16 16 12.6422 16 8.5C16 4.35775 12.6422 1 8.5 1C4.35775 1 1 4.35775 1 8.5C1 12.6422 4.35775 16 8.5 16Z" stroke="white" stroke-linecap="round" stroke-linejoin="round"/>
<path d="M1 8.5H16" stroke="white" stroke-linecap="round" stroke-linejoin="round"/>
<path d="M8.49939 16C10.1561 16 11.4994 12.6422 11.4994 8.5C11.4994 4.35775 10.1561 1 8.49939 1C6.84264 1 5.49939 4.35775 5.49939 8.5C5.49939 12.6422 6.84264 16 8.49939 16Z" stroke="white" stroke-linecap="round" stroke-linejoin="round"/>
<path d="M3.1969 3.30328C3.89255 4.00077 4.71919 4.55391 5.6293 4.9309C6.53941 5.30789 7.51505 5.50131 8.50015 5.50003V5.50003C9.48525 5.50131 10.4609 5.30789 11.371 4.9309C12.2811 4.55391 13.1077 4.00077 13.8034 3.30328" stroke="white" stroke-linecap="round" stroke-linejoin="round"/>
<path d="M13.8034 13.6968C13.1077 12.9993 12.2811 12.4462 11.371 12.0692C10.4609 11.6922 9.48525 11.4988 8.50015 11.5001C7.51505 11.4988 6.53941 11.6922 5.6293 12.0692C4.71919 12.4462 3.89255 12.9993 3.1969 13.6968" stroke="white" stroke-linecap="round" stroke-linejoin="round"/>
</svg>
