<svg width="17" height="17" viewBox="0 0 17 17" fill="none" xmlns="http://www.w3.org/2000/svg">
<path d="M8.5 16.2451C12.6422 16.2451 16 12.8874 16 8.74512C16 4.60287 12.6422 1.24512 8.5 1.24512C4.35775 1.24512 1 4.60287 1 8.74512C1 12.8874 4.35775 16.2451 8.5 16.2451Z" stroke="white" stroke-linecap="round" stroke-linejoin="round"/>
<path d="M1 8.74512H16" stroke="white" stroke-linecap="round" stroke-linejoin="round"/>
<path d="M8.49927 16.2451C10.156 16.2451 11.4993 12.8874 11.4993 8.74512C11.4993 4.60287 10.156 1.24512 8.49927 1.24512C6.84252 1.24512 5.49927 4.60287 5.49927 8.74512C5.49927 12.8874 6.84252 16.2451 8.49927 16.2451Z" stroke="white" stroke-linecap="round" stroke-linejoin="round"/>
<path d="M3.19678 3.54834C3.89243 4.24583 4.71907 4.79897 5.62918 5.17596C6.53929 5.55295 7.51493 5.74637 8.50003 5.74509V5.74509C9.48513 5.74637 10.4608 5.55295 11.3709 5.17596C12.281 4.79897 13.1076 4.24583 13.8033 3.54834" stroke="white" stroke-linecap="round" stroke-linejoin="round"/>
<path d="M13.8033 13.9419C13.1076 13.2444 12.281 12.6912 11.3709 12.3143C10.4608 11.9373 9.48513 11.7438 8.50003 11.7451C7.51493 11.7438 6.53929 11.9373 5.62918 12.3143C4.71907 12.6912 3.89243 13.2444 3.19678 13.9419" stroke="white" stroke-linecap="round" stroke-linejoin="round"/>
</svg>
