<svg width="17" height="18" viewBox="0 0 17 18" fill="none" xmlns="http://www.w3.org/2000/svg">
<path d="M16.2677 7.43973C16.3708 7.99256 16.427 8.57057 16.427 9.17373C16.427 13.8917 13.2694 17.2464 8.5003 17.2464C7.41573 17.2468 6.34173 17.0334 5.33966 16.6185C4.3376 16.2036 3.4271 15.5953 2.66019 14.8284C1.89329 14.0615 1.28502 13.151 0.870126 12.149C0.455234 11.1469 0.241857 10.0729 0.242188 8.98834C0.241857 7.90377 0.455234 6.82977 0.870126 5.8277C1.28502 4.82563 1.89329 3.91513 2.66019 3.14823C3.4271 2.38133 4.3376 1.77305 5.33966 1.35816C6.34173 0.943271 7.41573 0.729894 8.5003 0.730225C10.7301 0.730225 12.5933 1.55067 14.0228 2.88284L11.6948 5.21078V5.20491C10.8282 4.37943 9.72845 3.95579 8.5003 3.95579C5.77556 3.95579 3.56087 6.25772 3.56087 8.9833C3.56087 11.708 5.77556 14.015 8.5003 14.015C10.9725 14.015 12.6554 12.6015 13.001 10.6603H8.5003V7.43973H16.2685H16.2677Z" fill="white"/>
</svg>
