<svg width="109" height="49" viewBox="0 0 109 49" fill="none" xmlns="http://www.w3.org/2000/svg">
<path fill-rule="evenodd" clip-rule="evenodd" d="M54.8192 30.0826V24.2133H57.8249C59.0566 24.2133 60.0961 23.7973 60.9436 22.977L61.147 22.769C62.695 21.0706 62.5933 18.4248 60.9436 16.8535C60.1187 16.0216 58.9888 15.571 57.8249 15.5941H53V30.0826H54.8192ZM54.8194 22.4338V17.3732H57.8708C58.5262 17.3732 59.1478 17.6274 59.6112 18.0896C60.5944 19.0601 60.617 20.6776 59.6677 21.6828C59.2043 22.1796 58.5488 22.4569 57.8708 22.4338H54.8194ZM69.633 20.9435C68.8533 20.2156 67.7911 19.8459 66.4465 19.8459C64.7177 19.8459 63.4182 20.4929 62.5594 21.7753L64.164 22.8036C64.7516 21.9255 65.5538 21.4865 66.5708 21.4865C67.2149 21.4865 67.8363 21.7291 68.3222 22.1682C68.7968 22.5841 69.068 23.1849 69.068 23.8204V24.2479C68.3674 23.855 67.486 23.6471 66.4013 23.6471C65.1357 23.6471 64.1188 23.9475 63.3617 24.5598C62.6046 25.1722 62.2205 25.9809 62.2205 27.0092C62.1979 27.9451 62.5933 28.8347 63.2939 29.4355C64.0058 30.0826 64.9097 30.4061 65.9719 30.4061C67.2262 30.4061 68.2205 29.8399 68.9776 28.7077H69.0567V30.0826H70.7968V23.9706C70.7968 22.6881 70.4126 21.6714 69.633 20.9435ZM64.6948 28.2571C64.3219 27.9798 64.0959 27.5292 64.0959 27.0439C64.0959 26.5009 64.3445 26.0503 64.8304 25.6921C65.3277 25.334 65.9493 25.1491 66.6839 25.1491C67.701 25.1375 68.4921 25.3686 69.0572 25.8308C69.0572 26.6164 68.752 27.2981 68.153 27.8758C67.6106 28.4304 66.876 28.7423 66.1075 28.7423C65.5989 28.7539 65.1017 28.5806 64.6948 28.2571ZM74.7061 34.4383L80.7853 20.1693H78.8079L75.9943 27.2865H75.9604L73.079 20.1693H71.1015L75.0903 29.4471L72.8304 34.4383H74.7061Z" fill="white"/>
<path d="M44.7318 22.9427C44.7318 22.3766 44.6866 21.8104 44.5962 21.2559H36.9238V24.4563H41.3194C41.1386 25.4846 40.551 26.4089 39.6922 26.9866V29.0663H42.3137C43.8505 27.622 44.7318 25.4846 44.7318 22.9427Z" fill="#4285F4"/>
<path d="M36.9238 31.0764C39.1159 31.0764 40.9691 30.3369 42.3137 29.066L39.6922 26.9863C38.9578 27.4947 38.0199 27.7835 36.9238 27.7835C34.7995 27.7835 33.0029 26.3162 32.3588 24.3521H29.6582V26.5011C31.0368 29.3086 33.8503 31.0764 36.9238 31.0764Z" fill="#34A853"/>
<path d="M32.3592 24.3522C32.0202 23.3239 32.0202 22.2032 32.3592 21.1633V19.0259H29.6582C28.4941 21.3713 28.4941 24.1442 29.6582 26.4897L32.3592 24.3522Z" fill="#FBBC04"/>
<path d="M36.9238 17.7318C38.0877 17.7087 39.2063 18.1593 40.0425 18.9796L42.3702 16.5995C40.89 15.19 38.9464 14.4159 36.9238 14.439C33.8503 14.439 31.0368 16.2183 29.6582 19.0259L32.3588 21.1749C33.0029 19.1992 34.7995 17.7318 36.9238 17.7318Z" fill="#EA4335"/>
<rect x="1.78516" y="1.43848" width="106" height="46" rx="2" stroke="#A7A7A7" stroke-width="2"/>
</svg>
