<svg width="40" height="37" viewBox="0 0 40 37" fill="none" xmlns="http://www.w3.org/2000/svg">
<path d="M28.3005 0.763672L27.3543 1.74193C25.2355 3.942 23.4888 4.92571 22.0349 5.56926C20.5809 6.21146 19.3593 6.4033 18.1592 7.27C16.8798 8.1952 15.0206 9.9694 14.2374 13.1368C12.5585 13.4824 11.3296 14.0893 10.3603 14.8798C9.4026 15.6607 8.68142 16.5492 7.79292 17.5166C7.78571 17.5275 7.79725 17.5479 7.79292 17.5588C6.51787 18.9411 5.40292 20.4296 3.23937 21.216L2.33789 21.5562V36.0967H29.8337C31.4102 36.0165 32.5036 34.9865 33.1685 33.9701C33.832 32.9551 34.1998 31.8558 34.3858 30.9524C34.8647 28.6502 35.7373 22.0228 35.7373 22.0228L35.7835 21.8963V21.7684C35.7373 20.8486 35.3364 20.0677 34.8359 19.3438L36.4585 14.7954L39.0288 11.1381L39.75 10.1599L38.8024 9.35305L29.3376 1.61404L28.3005 0.763672ZM28.3914 4.50528L35.9176 10.6715L33.9344 13.4335L33.8002 13.5627L33.7541 13.775L32.4473 17.4309C31.7651 17.1655 31.0626 16.9791 30.2837 17.0064H30.1929L21.0887 17.0485H19.6463V22.3208C19.4444 23.8038 18.5703 24.378 17.4827 24.7875C17.1222 24.925 17.0774 24.8501 16.7616 24.9141V17.0077C16.525 11.964 18.4289 10.5123 19.9175 9.43877C20.3285 9.1408 21.5329 8.79657 23.2522 8.03601C24.6888 7.39789 26.4745 6.255 28.3914 4.50665V4.50528ZM13.9677 16.1982C13.9619 16.507 13.8595 16.7247 13.8768 17.0485V27.9332H15.3192C15.3192 27.9332 16.8625 27.9169 18.5198 27.2951C20.1756 26.6733 22.1762 25.2175 22.531 22.6609V19.7697L30.2837 19.7275H30.3285C30.9616 19.6948 31.5827 19.9001 32.0558 20.2984C32.5289 20.6967 32.8154 21.2556 32.8526 21.8528C32.8468 21.8745 32.7805 22.3793 32.7632 22.4909H26.8581V25.212H32.4026C32.2497 26.2638 32.1098 26.9237 31.9511 27.9332H26.8581V30.6544H31.5011C31.3307 31.3127 31.057 31.9432 30.6891 32.5252C30.2953 33.1307 29.9563 33.3592 29.6534 33.3756H5.22262V23.2133C7.5607 22.0432 9.01461 20.3602 9.95503 19.3452C10.9301 18.2921 11.5993 17.4948 12.2542 16.9642C12.6825 16.6186 13.3532 16.4213 13.9677 16.1982Z" fill="url(#paint0_linear_3225_20074)"/>
<path d="M15.987 8.86569C15.987 10.8679 15.1448 12.7881 13.6457 14.2038C12.1467 15.6196 10.1135 16.415 7.99349 16.415C5.87349 16.415 3.84031 15.6196 2.34124 14.2038C0.842169 12.7881 0 10.8679 0 8.86569C0 6.8635 0.842169 4.94331 2.34124 3.52754C3.84031 2.11178 5.87349 1.31641 7.99349 1.31641C10.1135 1.31641 12.1467 2.11178 13.6457 3.52754C15.1448 4.94331 15.987 6.8635 15.987 8.86569ZM11.4353 5.24419C11.3066 5.17137 11.164 5.1232 11.0156 5.10243C10.8673 5.08167 10.716 5.08871 10.5705 5.12316C10.425 5.15761 10.2882 5.2188 10.1677 5.30322C10.0473 5.38764 9.9456 5.49365 9.86854 5.61519L7.19643 9.82122L5.94716 8.64137C5.73273 8.43886 5.44191 8.3251 5.13867 8.3251C4.83543 8.3251 4.54461 8.43886 4.33019 8.64137C4.11577 8.84388 3.9953 9.11854 3.9953 9.40493C3.9953 9.69132 4.11577 9.96598 4.33019 10.1685L6.09789 11.8358C6.28188 12.0099 6.5055 12.1421 6.75172 12.2223C6.99794 12.3025 7.26028 12.3286 7.5188 12.2987C7.77732 12.2687 8.02521 12.1835 8.2436 12.0495C8.462 11.9154 8.64515 11.7361 8.77914 11.5252L11.8281 6.72385C11.9052 6.60234 11.9562 6.46768 11.9782 6.32755C12.0002 6.18742 11.9927 6.04457 11.9562 5.90717C11.9198 5.76976 11.855 5.64049 11.7656 5.52673C11.6762 5.41298 11.5639 5.31697 11.4353 5.24419Z" fill="url(#paint1_linear_3225_20074)"/>
<defs>
<linearGradient id="paint0_linear_3225_20074" x1="2.33789" y1="26.0252" x2="56.439" y2="-0.614745" gradientUnits="userSpaceOnUse">
<stop stop-color="#662F88"/>
<stop offset="1" stop-color="#20BF55"/>
</linearGradient>
<linearGradient id="paint1_linear_3225_20074" x1="7.58838e-07" y1="12.1112" x2="23.1186" y2="0.727386" gradientUnits="userSpaceOnUse">
<stop stop-color="#662F88"/>
<stop offset="1" stop-color="#20BF55"/>
</linearGradient>
</defs>
</svg>
