<svg width="65" height="65" viewBox="0 0 65 65" fill="none" xmlns="http://www.w3.org/2000/svg">
<circle cx="32.5" cy="32.5" r="32.5" fill="#16172D"/>
<path d="M40.3001 14.7637L39.3539 15.7419C37.2351 17.942 35.4884 18.9257 34.0345 19.5693C32.5806 20.2115 31.3589 20.4033 30.1588 21.27C28.8795 22.1952 27.0202 23.9694 26.237 27.1368C24.5581 27.4824 23.3292 28.0893 22.36 28.8798C21.4022 29.6607 20.681 30.5492 19.7925 31.5166C19.7853 31.5275 19.7969 31.5479 19.7925 31.5588C18.5175 32.9411 17.4025 34.4296 15.239 35.216L14.3375 35.5562V50.0967H41.8333C43.4099 50.0165 44.5032 48.9865 45.1681 47.9701C45.8316 46.9551 46.1994 45.8558 46.3855 44.9524C46.8643 42.6503 47.737 36.0228 47.737 36.0228L47.7831 35.8963V35.7684C47.737 34.8486 47.336 34.0677 46.8355 33.3438L48.4581 28.7954L51.0284 25.1381L51.7496 24.1599L50.802 23.3531L41.3372 15.614L40.3001 14.7637ZM40.391 18.5053L47.9173 24.6715L45.934 27.4335L45.7999 27.5627L45.7537 27.775L44.4469 31.4309C43.7647 31.1655 43.0622 30.9791 42.2834 31.0064H42.1925L33.0883 31.0485H31.6459V36.3208C31.444 37.8038 30.5699 38.378 29.4824 38.7875C29.1218 38.925 29.0771 38.8501 28.7612 38.9141V31.0077C28.5246 25.964 30.4286 24.5123 31.9171 23.4388C32.3282 23.1408 33.5325 22.7966 35.2518 22.036C36.6884 21.3979 38.4741 20.255 40.391 18.5066V18.5053ZM25.9673 30.1982C25.9615 30.507 25.8591 30.7247 25.8764 31.0485V41.9332H27.3188C27.3188 41.9332 28.8621 41.9169 30.5194 41.2951C32.1753 40.6733 34.1758 39.2175 34.5306 36.6609V33.7697L42.2834 33.7275H42.3281C42.9612 33.6948 43.5824 33.9001 44.0554 34.2984C44.5285 34.6967 44.815 35.2556 44.8522 35.8528C44.8465 35.8745 44.7801 36.3793 44.7628 36.4909H38.8577V39.212H44.4022C44.2493 40.2638 44.1094 40.9237 43.9507 41.9332H38.8577V44.6544H43.5007C43.3303 45.3127 43.0566 45.9432 42.6887 46.5252C42.2949 47.1307 41.9559 47.3592 41.6531 47.3756H17.2222V37.2133C19.5603 36.0432 21.0142 34.3602 21.9546 33.3452C22.9297 32.2921 23.5989 31.4948 24.2538 30.9642C24.6822 30.6186 25.3529 30.4213 25.9673 30.1982V30.1982Z" fill="url(#paint0_linear_2_28)"/>
<path d="M27.987 22.8658C27.987 24.868 27.1448 26.7882 25.6457 28.204C24.1467 29.6197 22.1135 30.4151 19.9935 30.4151C17.8735 30.4151 15.8403 29.6197 14.3412 28.204C12.8422 26.7882 12 24.868 12 22.8658C12 20.8636 12.8422 18.9434 14.3412 17.5277C15.8403 16.1119 17.8735 15.3165 19.9935 15.3165C22.1135 15.3165 24.1467 16.1119 25.6457 17.5277C27.1448 18.9434 27.987 20.8636 27.987 22.8658ZM23.4353 19.2443C23.3066 19.1715 23.164 19.1233 23.0156 19.1026C22.8673 19.0818 22.716 19.0888 22.5705 19.1233C22.425 19.1577 22.2882 19.2189 22.1677 19.3033C22.0473 19.3878 21.9456 19.4938 21.8685 19.6153L19.1964 23.8213L17.9472 22.6415C17.7327 22.439 17.4419 22.3252 17.1387 22.3252C16.8354 22.3252 16.5446 22.439 16.3302 22.6415C16.1158 22.844 15.9953 23.1187 15.9953 23.405C15.9953 23.6914 16.1158 23.9661 16.3302 24.1686L18.0979 25.8359C18.2819 26.01 18.5055 26.1422 18.7517 26.2224C18.9979 26.3026 19.2603 26.3288 19.5188 26.2988C19.7773 26.2689 20.0252 26.1836 20.2436 26.0496C20.462 25.9156 20.6452 25.7363 20.7791 25.5253L23.8281 20.724C23.9052 20.6025 23.9562 20.4678 23.9782 20.3277C24.0002 20.1875 23.9927 20.0447 23.9562 19.9073C23.9198 19.7699 23.855 19.6406 23.7656 19.5269C23.6762 19.4131 23.5639 19.3171 23.4353 19.2443Z" fill="url(#paint1_linear_2_28)"/>
<defs>
<linearGradient id="paint0_linear_2_28" x1="14.3375" y1="40.0252" x2="68.4387" y2="13.3853" gradientUnits="userSpaceOnUse">
<stop stop-color="#662F88"/>
<stop offset="1" stop-color="#20BF55"/>
</linearGradient>
<linearGradient id="paint1_linear_2_28" x1="12" y1="26.1113" x2="35.1186" y2="14.7275" gradientUnits="userSpaceOnUse">
<stop stop-color="#662F88"/>
<stop offset="1" stop-color="#20BF55"/>
</linearGradient>
</defs>
</svg>
