<svg width="15" height="15" viewBox="0 0 15 15" fill="none" xmlns="http://www.w3.org/2000/svg">
<path d="M7.24219 0C6.47304 0 5.72116 0.231509 5.08164 0.665251C4.44211 1.09899 3.94366 1.71549 3.64932 2.43678C3.35498 3.15806 3.27797 3.95175 3.42802 4.71746C3.57808 5.48318 3.94846 6.18653 4.49233 6.73858C5.0362 7.29063 5.72913 7.66658 6.4835 7.81889C7.23787 7.9712 8.0198 7.89303 8.7304 7.59426C9.441 7.2955 10.0484 6.78955 10.4757 6.14041C10.903 5.49127 11.1311 4.72808 11.1311 3.94737C11.1311 2.90046 10.7214 1.89643 9.99205 1.15616C9.26274 0.415882 8.27359 0 7.24219 0ZM7.24219 6.31579C6.7807 6.31579 6.32957 6.17688 5.94586 5.91664C5.56214 5.65639 5.26307 5.2865 5.08647 4.85372C4.90986 4.42095 4.86366 3.94474 4.95369 3.48531C5.04372 3.02588 5.26595 2.60387 5.59227 2.27264C5.91859 1.94141 6.33435 1.71584 6.78698 1.62446C7.2396 1.53307 7.70875 1.57997 8.13512 1.75923C8.56148 1.93849 8.92589 2.24206 9.18228 2.63154C9.43867 3.02103 9.57552 3.47894 9.57552 3.94737C9.57552 4.57551 9.32969 5.17793 8.8921 5.6221C8.45452 6.06626 7.86103 6.31579 7.24219 6.31579ZM14.2422 15V14.2105C14.2422 12.7449 13.6686 11.3392 12.6475 10.3028C11.6265 9.26645 10.2417 8.68421 8.79774 8.68421H5.68663C4.24268 8.68421 2.85786 9.26645 1.83683 10.3028C0.815797 11.3392 0.242188 12.7449 0.242188 14.2105V15H1.79774V14.2105C1.79774 13.1636 2.20746 12.1596 2.93677 11.4193C3.66608 10.679 4.65523 10.2632 5.68663 10.2632H8.79774C9.82914 10.2632 10.8183 10.679 11.5476 11.4193C12.2769 12.1596 12.6866 13.1636 12.6866 14.2105V15H14.2422Z" fill="white"/>
</svg>
