<svg width="33" height="33" viewBox="0 0 33 33" fill="none" xmlns="http://www.w3.org/2000/svg">
<path d="M16.5 10C15.7309 10 14.979 10.2315 14.3394 10.6653C13.6999 11.099 13.2015 11.7155 12.9071 12.4368C12.6128 13.1581 12.5358 13.9517 12.6858 14.7175C12.8359 15.4832 13.2063 16.1865 13.7501 16.7386C14.294 17.2906 14.9869 17.6666 15.7413 17.8189C16.4957 17.9712 17.2776 17.893 17.9882 17.5943C18.6988 17.2955 19.3062 16.7896 19.7335 16.1404C20.1608 15.4913 20.3889 14.7281 20.3889 13.9474C20.3889 12.9005 19.9792 11.8964 19.2499 11.1562C18.5206 10.4159 17.5314 10 16.5 10ZM16.5 16.3158C16.0385 16.3158 15.5874 16.1769 15.2037 15.9166C14.82 15.6564 14.5209 15.2865 14.3443 14.8537C14.1677 14.421 14.1215 13.9447 14.2115 13.4853C14.3015 13.0259 14.5238 12.6039 14.8501 12.2726C15.1764 11.9414 15.5922 11.7158 16.0448 11.6245C16.4974 11.5331 16.9666 11.58 17.3929 11.7592C17.8193 11.9385 18.1837 12.2421 18.4401 12.6315C18.6965 13.021 18.8333 13.4789 18.8333 13.9474C18.8333 14.5755 18.5875 15.1779 18.1499 15.6221C17.7123 16.0663 17.1188 16.3158 16.5 16.3158ZM23.5 25V24.2105C23.5 22.7449 22.9264 21.3392 21.9054 20.3028C20.8843 19.2664 19.4995 18.6842 18.0556 18.6842H14.9444C13.5005 18.6842 12.1157 19.2664 11.0946 20.3028C10.0736 21.3392 9.5 22.7449 9.5 24.2105V25H11.0556V24.2105C11.0556 23.1636 11.4653 22.1596 12.1946 21.4193C12.9239 20.679 13.913 20.2632 14.9444 20.2632H18.0556C19.087 20.2632 20.0761 20.679 20.8054 21.4193C21.5347 22.1596 21.9444 23.1636 21.9444 24.2105V25H23.5Z" fill="white"/>
<circle cx="16.5" cy="16.5" r="15.25" stroke="white" stroke-width="1.5"/>
</svg>
