<svg width="21" height="21" viewBox="0 0 21 21" fill="none" xmlns="http://www.w3.org/2000/svg">
<path fill-rule="evenodd" clip-rule="evenodd" d="M10.5 0C4.70063 0 0 4.70063 0 10.5C0 16.2994 4.70063 21 10.5 21C16.2994 21 21 16.2994 21 10.5C21 4.70063 16.2994 0 10.5 0ZM11.0833 7.00013H9.91673C9.59475 7.00013 9.33341 6.73879 9.33341 6.41666V5.25008C9.33341 4.9281 9.59474 4.66676 9.91673 4.66676H11.0833C11.4053 4.66676 11.6666 4.92809 11.6666 5.25008V6.41666C11.6666 6.73878 11.4053 7.00013 11.0833 7.00013ZM11.0833 16.3335H9.91673C9.59475 16.3335 9.33341 16.0722 9.33341 15.7502V9.91706C9.33341 9.59509 9.59474 9.33375 9.91673 9.33375H11.0833C11.4053 9.33375 11.6666 9.59508 11.6666 9.91706V15.7502C11.6666 16.0722 11.4053 16.3335 11.0833 16.3335Z" fill="url(#paint0_linear_6401_54353)"/>
<path fill-rule="evenodd" clip-rule="evenodd" d="M10.5 0C4.70063 0 0 4.70063 0 10.5C0 16.2994 4.70063 21 10.5 21C16.2994 21 21 16.2994 21 10.5C21 4.70063 16.2994 0 10.5 0ZM11.0833 7.00013H9.91673C9.59475 7.00013 9.33341 6.73879 9.33341 6.41666V5.25008C9.33341 4.9281 9.59474 4.66676 9.91673 4.66676H11.0833C11.4053 4.66676 11.6666 4.92809 11.6666 5.25008V6.41666C11.6666 6.73878 11.4053 7.00013 11.0833 7.00013ZM11.0833 16.3335H9.91673C9.59475 16.3335 9.33341 16.0722 9.33341 15.7502V9.91706C9.33341 9.59509 9.59474 9.33375 9.91673 9.33375H11.0833C11.4053 9.33375 11.6666 9.59508 11.6666 9.91706V15.7502C11.6666 16.0722 11.4053 16.3335 11.0833 16.3335Z" fill="black" fill-opacity="0.2"/>
<defs>
<linearGradient id="paint0_linear_6401_54353" x1="9.96786e-07" y1="15.014" x2="31.022" y2="0.587391" gradientUnits="userSpaceOnUse">
<stop stop-color="#662F88"/>
<stop offset="1" stop-color="#20BF55"/>
</linearGradient>
</defs>
</svg>
