<svg width="14" height="14" viewBox="0 0 14 14" fill="none" xmlns="http://www.w3.org/2000/svg">
<path d="M6.99999 1.26129C8.86908 1.26129 9.09045 1.2684 9.82857 1.30208C10.5111 1.33323 10.8817 1.44726 11.1284 1.5431C11.4551 1.67008 11.6883 1.8218 11.9333 2.06674C12.1782 2.31167 12.3299 2.54489 12.4569 2.8716C12.5527 3.11829 12.6668 3.48893 12.6979 4.1714C12.7316 4.90955 12.7387 5.13092 12.7387 7.00001C12.7387 8.8691 12.7316 9.09048 12.6979 9.8286C12.6668 10.5111 12.5527 10.8817 12.4569 11.1284C12.3299 11.4551 12.1782 11.6884 11.9333 11.9333C11.6883 12.1782 11.4551 12.3299 11.1284 12.4569C10.8817 12.5528 10.5111 12.6668 9.82857 12.698C9.09056 12.7316 8.86919 12.7387 6.99999 12.7387C5.13079 12.7387 4.90941 12.7316 4.1714 12.698C3.48891 12.6668 3.11826 12.5528 2.8716 12.4569C2.54486 12.3299 2.31165 12.1782 2.06671 11.9333C1.82177 11.6884 1.67005 11.4551 1.5431 11.1284C1.44723 10.8817 1.3332 10.5111 1.30205 9.82863C1.26837 9.09048 1.26126 8.8691 1.26126 7.00001C1.26126 5.13092 1.26837 4.90955 1.30205 4.17143C1.3332 3.48893 1.44723 3.11829 1.5431 2.8716C1.67005 2.54489 1.82177 2.31167 2.06671 2.06674C2.31165 1.8218 2.54486 1.67008 2.8716 1.5431C3.11826 1.44726 3.48891 1.33323 4.17137 1.30208C4.90952 1.2684 5.1309 1.26129 6.99999 1.26129ZM6.99999 0C5.09889 0 4.86053 0.0080581 4.11391 0.0421244C3.36881 0.0761351 2.85999 0.19445 2.41471 0.367505C1.95439 0.546395 1.56402 0.785748 1.17487 1.1749C0.78572 1.56405 0.546367 1.95442 0.367477 2.41473C0.194422 2.86001 0.0761073 3.36884 0.0420966 4.11394C0.00803031 4.86053 0 5.09891 0 7.00001C0 8.90111 0.00803031 9.13949 0.0420966 9.88609C0.0761073 10.6312 0.194422 11.14 0.367477 11.5853C0.546367 12.0456 0.78572 12.436 1.17487 12.8251C1.56402 13.2143 1.95439 13.4536 2.41471 13.6325C2.85999 13.8056 3.36881 13.9239 4.11391 13.9579C4.86053 13.992 5.09889 14 6.99999 14C8.90109 14 9.13947 13.992 9.88606 13.9579C10.6312 13.9239 11.14 13.8056 11.5853 13.6325C12.0456 13.4536 12.436 13.2143 12.8251 12.8251C13.2143 12.436 13.4536 12.0456 13.6325 11.5853C13.8055 11.14 13.9239 10.6312 13.9579 9.88609C13.9919 9.13949 14 8.90111 14 7.00001C14 5.09891 13.9919 4.86053 13.9579 4.11394C13.9239 3.36884 13.8055 2.86001 13.6325 2.41473C13.4536 1.95442 13.2143 1.56405 12.8251 1.1749C12.436 0.785748 12.0456 0.546395 11.5853 0.367505C11.14 0.19445 10.6312 0.0761351 9.88606 0.0421244C9.13947 0.0080581 8.90109 0 6.99999 0ZM6.99999 3.40541C5.01475 3.40541 3.40538 5.01478 3.40538 7.00001C3.40538 8.98525 5.01475 10.5946 6.99999 10.5946C8.98522 10.5946 10.5946 8.98525 10.5946 7.00001C10.5946 5.01478 8.98522 3.40541 6.99999 3.40541ZM6.99999 9.33336C5.71133 9.33336 4.66664 8.28867 4.66664 7.00001C4.66664 5.71136 5.71133 4.66667 6.99999 4.66667C8.28864 4.66667 9.33333 5.71136 9.33333 7.00001C9.33333 8.28867 8.28864 9.33336 6.99999 9.33336ZM11.5766 3.26339C11.5766 3.72731 11.2005 4.10341 10.7366 4.10341C10.2727 4.10341 9.89659 3.72731 9.89659 3.26339C9.89659 2.79947 10.2727 2.4234 10.7366 2.4234C11.2005 2.4234 11.5766 2.79947 11.5766 3.26339Z" fill="white"/>
</svg>
