<svg width="58" height="67" viewBox="0 0 58 67" fill="none" xmlns="http://www.w3.org/2000/svg">
<path d="M42.4163 19.5557C41.1772 18.317 39.4968 17.6211 37.7447 17.6211C35.9925 17.6211 34.3121 18.317 33.073 19.5557L32.0488 20.5777L35.1633 23.6922L36.1874 22.6702C36.6029 22.2689 37.1592 22.0469 37.7367 22.052C38.3142 22.057 38.8667 22.2886 39.275 22.697C39.6834 23.1054 39.9151 23.6578 39.9201 24.2353C39.9251 24.8128 39.7031 25.3692 39.3019 25.7846L32.0488 33.0376L35.1633 36.1521L42.4163 28.899C43.6551 27.6599 44.3509 25.9795 44.3509 24.2274C44.3509 22.4753 43.6551 20.7949 42.4163 19.5557Z" fill="url(#paint0_linear_3105_20055)"/>
<path d="M21.6797 43.4077C21.2643 43.8089 20.7079 44.0309 20.1304 44.0259C19.5529 44.0209 19.0005 43.7892 18.5921 43.3808C18.1837 42.9725 17.9521 42.42 17.9471 41.8425C17.9421 41.265 18.1641 40.7087 18.5653 40.2933L25.8183 33.0402L22.7039 29.9258L15.4508 37.1788C14.8197 37.7884 14.3164 38.5175 13.9701 39.3237C13.6237 40.1298 13.4415 40.9969 13.4338 41.8742C13.4262 42.7516 13.5934 43.6217 13.9256 44.4338C14.2579 45.2458 14.7485 45.9836 15.3689 46.604C15.9894 47.2244 16.7271 47.7151 17.5392 48.0473C18.3512 48.3795 19.2213 48.5467 20.0987 48.5391C20.9761 48.5315 21.8431 48.3492 22.6493 48.0029C23.4555 47.6566 24.1846 47.1532 24.7941 46.5221L25.8183 45.5001L22.7039 42.3857L21.6797 43.4077Z" fill="url(#paint1_linear_3105_20055)"/>
<path d="M24.7948 19.5572C23.5447 18.3748 21.8828 17.7267 20.1623 17.7506C18.4418 17.7746 16.7985 18.4687 15.5818 19.6853C14.3652 20.902 13.6711 22.5453 13.6471 24.2658C13.6232 25.9863 14.2713 27.6483 15.4537 28.8983L16.4757 29.9225L19.5901 26.8081L18.5681 25.7839C18.1669 25.3685 17.9449 24.8121 17.9499 24.2346C17.955 23.6571 18.1866 23.1047 18.595 22.6963C19.0033 22.2879 19.5558 22.0563 20.1333 22.0512C20.7108 22.0462 21.2672 22.2682 21.6826 22.6695L28.9334 29.9247L32.0478 26.8103L24.7948 19.5572Z" fill="url(#paint2_linear_3105_20055)"/>
<path d="M42.4205 37.1765L41.3986 36.1523L38.2841 39.2668L39.3061 40.291C39.7073 40.7064 39.9293 41.2627 39.9243 41.8402C39.9193 42.4178 39.6877 42.9702 39.2793 43.3786C38.8709 43.7869 38.3185 44.0186 37.741 44.0236C37.1635 44.0286 36.6071 43.8066 36.1917 43.4054L28.9386 36.1523L25.8242 39.2668L33.0773 46.5198C34.3235 47.7235 35.9926 48.3895 37.7251 48.3744C39.4576 48.3594 41.1149 47.6644 42.34 46.4393C43.5652 45.2142 44.2601 43.5569 44.2752 41.8244C44.2902 40.0919 43.6242 38.4228 42.4205 37.1765Z" fill="url(#paint3_linear_3105_20055)"/>
<path d="M28.9341 66.0776C28.5441 66.0779 28.161 65.9745 27.824 65.778L1.39325 50.3601C1.06072 50.166 0.784851 49.8882 0.593165 49.5543C0.401479 49.2204 0.300667 48.8421 0.300781 48.4571V17.6212C0.300667 17.2362 0.401479 16.8578 0.593165 16.5239C0.784851 16.19 1.06072 15.9122 1.39325 15.7182L27.824 0.300202C28.1609 0.103598 28.544 0 28.9341 0C29.3242 0 29.7073 0.103598 30.0442 0.300202L56.475 15.7182L54.2548 19.5242L28.9341 4.75379L4.70591 18.8854V47.1928L28.9341 61.3267L53.1623 47.1928V30.8366H57.5675V48.4571C57.5676 48.8421 57.4668 49.2204 57.2751 49.5543C57.0834 49.8882 56.8075 50.166 56.475 50.3601L30.0442 65.778C29.7073 65.9745 29.3242 66.0779 28.9341 66.0776Z" fill="url(#paint4_linear_3105_20055)"/>
<defs>
<linearGradient id="paint0_linear_3105_20055" x1="32.0488" y1="30.8699" x2="52.2288" y2="24.6397" gradientUnits="userSpaceOnUse">
<stop stop-color="#662F88"/>
<stop offset="1" stop-color="#20BF55"/>
</linearGradient>
<linearGradient id="paint1_linear_3105_20055" x1="13.4336" y1="43.2336" x2="33.7411" y2="36.95" gradientUnits="userSpaceOnUse">
<stop stop-color="#662F88"/>
<stop offset="1" stop-color="#20BF55"/>
</linearGradient>
<linearGradient id="paint2_linear_3105_20055" x1="13.6465" y1="26.4543" x2="35.7755" y2="10.9001" gradientUnits="userSpaceOnUse">
<stop stop-color="#662F88"/>
<stop offset="1" stop-color="#20BF55"/>
</linearGradient>
<linearGradient id="paint3_linear_3105_20055" x1="25.8242" y1="44.8907" x2="48.0308" y2="29.3007" gradientUnits="userSpaceOnUse">
<stop stop-color="#662F88"/>
<stop offset="1" stop-color="#20BF55"/>
</linearGradient>
<linearGradient id="paint4_linear_3105_20055" x1="0.300784" y1="47.2424" x2="88.8147" y2="11.5682" gradientUnits="userSpaceOnUse">
<stop stop-color="#662F88"/>
<stop offset="1" stop-color="#20BF55"/>
</linearGradient>
</defs>
</svg>
