<svg width="70" height="59" viewBox="0 0 70 59" fill="none" xmlns="http://www.w3.org/2000/svg">
<path d="M22.1053 33.7617C30.5053 33.7617 36.8421 27.5603 36.8421 19.3398C36.8421 11.1193 30.5053 4.91787 22.1053 4.91787C13.7053 4.91787 7.36842 11.1193 7.36842 19.3398C7.36842 27.5603 13.7053 33.7617 22.1053 33.7617ZM22.1053 12.1288C26.4453 12.1288 29.4737 15.0925 29.4737 19.3398C29.4737 23.587 26.4453 26.5507 22.1053 26.5507C17.7653 26.5507 14.7368 23.587 14.7368 19.3398C14.7368 15.0925 17.7653 12.1288 22.1053 12.1288ZM25.7895 37.3671H18.4211C8.26368 37.3671 0 45.4542 0 55.3945V59H7.36842V55.3945C7.36842 49.4311 12.3274 44.5781 18.4211 44.5781H25.7895C31.8832 44.5781 36.8421 49.4311 36.8421 55.3945V59H44.2105V55.3945C44.2105 45.4542 35.9468 37.3671 25.7895 37.3671ZM60.2884 0L55.0789 5.09814C59.9458 9.86819 62.6316 16.2066 62.6316 22.9452C62.6316 29.6839 59.9458 36.0223 55.0789 40.7924L60.2884 45.8905C66.5516 39.7576 70 31.6092 70 22.9452C70 14.2813 66.5516 6.13291 60.2884 0Z" fill="url(#paint0_linear_3105_20061)"/>
<defs>
<linearGradient id="paint0_linear_3105_20061" x1="3.32262e-06" y1="42.1822" x2="96.4178" y2="-11.0162" gradientUnits="userSpaceOnUse">
<stop stop-color="#662F88"/>
<stop offset="1" stop-color="#20BF55"/>
</linearGradient>
</defs>
</svg>
