<svg width="62" height="63" viewBox="0 0 62 63" fill="none" xmlns="http://www.w3.org/2000/svg">
<path d="M61.215 2.6794C61.3571 2.3244 61.3919 1.9355 61.3151 1.56092C61.2382 1.18634 61.0531 0.842544 60.7827 0.572158C60.5124 0.301773 60.1686 0.116688 59.794 0.0398482C59.4194 -0.0369913 59.0305 -0.00220583 58.6755 0.139892L1.84129 22.8744C1.34077 23.0747 0.905229 23.4093 0.582599 23.8412C0.259968 24.2731 0.062758 24.7857 0.0126731 25.3225C-0.0374118 25.8593 0.0615705 26.3995 0.298726 26.8837C0.535881 27.3678 0.902015 27.7772 1.35683 28.0667L20.872 40.4829L26.8535 49.883C27.136 50.3095 27.5746 50.6082 28.0749 50.7149C28.5753 50.8215 29.0975 50.7276 29.5294 50.4533C29.9613 50.1791 30.2683 49.7463 30.3845 49.2481C30.5008 48.7499 30.4169 48.2259 30.151 47.7889L24.775 39.3421L54.0536 10.0635L46.6499 28.5746C46.5482 28.8138 46.4953 29.0709 46.4942 29.3309C46.4931 29.5908 46.5439 29.8484 46.6437 30.0884C46.7434 30.3285 46.8901 30.5462 47.075 30.7289C47.26 30.9115 47.4795 31.0554 47.7208 31.1522C47.9621 31.2489 48.2203 31.2965 48.4802 31.2922C48.7401 31.2878 48.9965 31.2317 49.2345 31.127C49.4724 31.0223 49.687 30.8711 49.8658 30.6824C50.0446 30.4937 50.1839 30.2712 50.2756 30.028L61.215 2.6794ZM51.2914 7.30131L22.0128 36.5799L5.06061 25.7928L51.2914 7.30131Z" fill="url(#paint0_linear_3110_21417)"/>
<path d="M61.3583 48.8364C61.3583 52.463 59.9176 55.9411 57.3532 58.5056C54.7888 61.07 51.3107 62.5107 47.684 62.5107C44.0574 62.5107 40.5793 61.07 38.0149 58.5056C35.4504 55.9411 34.0098 52.463 34.0098 48.8364C34.0098 45.2097 35.4504 41.7316 38.0149 39.1672C40.5793 36.6028 44.0574 35.1621 47.684 35.1621C51.3107 35.1621 54.7888 36.6028 57.3532 39.1672C59.9176 41.7316 61.3583 45.2097 61.3583 48.8364ZM53.5718 42.2766C53.3517 42.1447 53.1078 42.0575 52.854 42.0199C52.6001 41.9823 52.3414 41.995 52.0925 42.0574C51.8436 42.1198 51.6095 42.2306 51.4034 42.3836C51.1974 42.5365 51.0235 42.7285 50.8916 42.9486L46.3205 50.5672L44.1834 48.4301C43.8166 48.0633 43.3191 47.8572 42.8004 47.8572C42.2816 47.8572 41.7841 48.0633 41.4173 48.4301C41.0505 48.7969 40.8444 49.2944 40.8444 49.8131C40.8444 50.3319 41.0505 50.8294 41.4173 51.1962L44.4413 54.2162C44.756 54.5316 45.1386 54.771 45.5598 54.9163C45.981 55.0616 46.4298 55.1089 46.872 55.0547C47.3142 55.0004 47.7383 54.8461 48.1119 54.6033C48.4855 54.3605 48.7988 54.0357 49.028 53.6536L54.2438 44.9568C54.3757 44.7367 54.4629 44.4928 54.5006 44.239C54.5382 43.9851 54.5254 43.7264 54.463 43.4775C54.4006 43.2286 54.2898 42.9945 54.1369 42.7884C53.9839 42.5824 53.7919 42.4085 53.5718 42.2766Z" fill="url(#paint1_linear_3110_21417)"/>
<defs>
<linearGradient id="paint0_linear_3110_21417" x1="2.91227e-06" y1="36.2894" x2="83.767" y2="-10.7991" gradientUnits="userSpaceOnUse">
<stop stop-color="#662F88"/>
<stop offset="1" stop-color="#20BF55"/>
</linearGradient>
<linearGradient id="paint1_linear_3110_21417" x1="34.0098" y1="54.715" x2="74.41" y2="35.9271" gradientUnits="userSpaceOnUse">
<stop stop-color="#662F88"/>
<stop offset="1" stop-color="#20BF55"/>
</linearGradient>
</defs>
</svg>
