<svg width="59" height="59" viewBox="0 0 59 59" fill="none" xmlns="http://www.w3.org/2000/svg">
<path d="M11.0625 8.125H11.8125V7.375V3.6875C11.8125 2.84219 12.0937 2.16126 12.6587 1.59625C13.2238 1.03124 13.9047 0.75 14.75 0.75C15.5953 0.75 16.2762 1.03124 16.8413 1.59625C17.4063 2.16126 17.6875 2.84219 17.6875 3.6875V7.375V8.125H18.4375H25.8125H26.5625V7.375V3.6875C26.5625 2.84863 26.8486 2.16984 27.4304 1.60327C28.0203 1.0289 28.7065 0.75 29.5288 0.75C30.3507 0.75 31.0233 1.02831 31.5913 1.59625C32.1563 2.16126 32.4375 2.84219 32.4375 3.6875V7.375V8.125H33.1875H40.5625H41.3125V7.375V3.6875C41.3125 2.84863 41.5986 2.16984 42.1804 1.60327C42.7703 1.0289 43.4565 0.75 44.2788 0.75C45.1007 0.75 45.7733 1.02831 46.3413 1.59625C46.9063 2.16126 47.1875 2.84219 47.1875 3.6875V7.375V8.125H47.9375H51.625C53.4618 8.125 55.0092 8.7661 56.309 10.066C57.6089 11.3659 58.25 12.9132 58.25 14.75V51.625C58.25 53.4618 57.6089 55.0092 56.309 56.309C55.0092 57.6089 53.4618 58.25 51.625 58.25H7.375C5.53824 58.25 3.99085 57.6089 2.69097 56.309C1.3911 55.0092 0.75 53.4618 0.75 51.625V14.75C0.75 12.9132 1.3911 11.3659 2.69097 10.066C3.99085 8.7661 5.53824 8.125 7.375 8.125H11.0625ZM52.375 14.75V14H51.625H47.9375H47.1875V14.75C47.1875 15.5489 46.9115 16.2267 46.3342 16.8196C45.7647 17.4045 45.0942 17.6875 44.2788 17.6875C43.4629 17.6875 42.7789 17.4038 42.1876 16.8124C41.5931 16.218 41.3125 15.5425 41.3125 14.75V14H40.5625H33.1875H32.4375V14.75C32.4375 15.5489 32.1615 16.2267 31.5842 16.8196C31.0147 17.4045 30.3442 17.6875 29.5288 17.6875C28.7129 17.6875 28.0289 17.4038 27.4376 16.8124C26.8431 16.218 26.5625 15.5425 26.5625 14.75V14H25.8125H18.4375H17.6875V14.75C17.6875 15.5489 17.4115 16.2267 16.8342 16.8196C16.2647 17.4045 15.5942 17.6875 14.7788 17.6875C13.9629 17.6875 13.2789 17.4038 12.6876 16.8124C12.0931 16.218 11.8125 15.5425 11.8125 14.75V14H11.0625H7.375H6.625V14.75V51.625V52.375H7.375H51.625H52.375V51.625V14.75ZM26.3441 35.9637L38.6084 23.6417C39.2011 23.0834 39.8702 22.8174 40.6489 22.8174C41.4304 22.8174 42.0886 23.085 42.6611 23.642C43.2254 24.1911 43.5 24.8418 43.5 25.6396C43.5 26.4437 43.2303 27.0963 42.6835 27.6435C42.6832 27.6438 42.6829 27.6442 42.6826 27.6445L28.3946 41.8749L28.3175 41.9516L28.2654 42.0471C28.153 42.2532 28.064 42.4084 27.997 42.5173C27.9634 42.5719 27.9388 42.6092 27.9222 42.6327C27.9198 42.6362 27.9177 42.6391 27.9159 42.6415C27.3382 43.2114 26.6624 43.4733 25.8403 43.4429L25.813 43.4419L25.7857 43.4429C24.9167 43.4739 24.2239 43.2058 23.6514 42.6414C23.6497 42.6391 23.6476 42.6362 23.6452 42.6327C23.6286 42.6092 23.604 42.5719 23.5704 42.5173C23.5033 42.4084 23.4144 42.2532 23.302 42.0471L23.2495 41.9509L23.1717 41.8737L16.2598 35.0195C16.2596 35.0192 16.2593 35.0189 16.259 35.0187C15.7121 34.4714 15.4424 33.8188 15.4424 33.0146C15.4424 32.2168 15.717 31.5661 16.2813 31.017C16.8538 30.46 17.512 30.1924 18.2935 30.1924C19.0724 30.1924 19.7417 30.4585 20.3345 31.0173L25.2822 35.9649L25.8137 36.4965L26.3441 35.9637Z" fill="url(#paint0_linear_3105_20098)" stroke="#0E0F1E" stroke-width="1.5"/>
<defs>
<linearGradient id="paint0_linear_3105_20098" x1="2.80049e-06" y1="42.1822" x2="87.157" y2="1.65029" gradientUnits="userSpaceOnUse">
<stop stop-color="#662F88"/>
<stop offset="1" stop-color="#20BF55"/>
</linearGradient>
</defs>
</svg>
