<svg width="59" height="62" viewBox="0 0 59 62" fill="none" xmlns="http://www.w3.org/2000/svg">
<path d="M58.6712 17.1332C53.3732 6.56515 42.7649 0 30.9823 0C13.8987 0 0 13.8987 0 30.9823C0 48.066 13.8987 61.9646 30.9823 61.9646C42.7649 61.9646 53.3732 55.3995 58.6712 44.8314C59.0262 44.1234 59.0966 43.3062 58.8678 42.5479C58.639 41.7896 58.1285 41.1477 57.4412 40.7541L40.3297 30.9823L57.4381 21.2136C58.8664 20.3957 59.4086 18.6049 58.6712 17.1332ZM32.5438 28.293C32.0691 28.5635 31.6745 28.9548 31.4 29.4271C31.1255 29.8994 30.9809 30.436 30.9809 30.9823C30.9809 31.5286 31.1255 32.0652 31.4 32.5375C31.6745 33.0099 32.0691 33.4011 32.5438 33.6716L51.6692 44.5928C49.4261 48.0326 46.3585 50.8568 42.7455 52.8086C39.1325 54.7604 35.0888 55.7778 30.9823 55.7682C17.316 55.7682 6.19646 44.6486 6.19646 30.9823C6.19646 17.316 17.316 6.19646 30.9823 6.19646C35.0885 6.18678 39.1319 7.20379 42.7448 9.15501C46.3577 11.1062 49.4255 13.9297 51.6692 17.3687L32.5438 28.293Z" fill="url(#paint0_linear_3105_20103)"/>
<path d="M29.4364 21.6892C32.0031 21.6892 34.0838 19.6085 34.0838 17.0419C34.0838 14.4752 32.0031 12.3945 29.4364 12.3945C26.8698 12.3945 24.7891 14.4752 24.7891 17.0419C24.7891 19.6085 26.8698 21.6892 29.4364 21.6892Z" fill="url(#paint1_linear_3105_20103)"/>
<defs>
<linearGradient id="paint0_linear_3105_20103" x1="2.80049e-06" y1="44.3018" x2="88.6289" y2="5.0573" gradientUnits="userSpaceOnUse">
<stop stop-color="#662F88"/>
<stop offset="1" stop-color="#20BF55"/>
</linearGradient>
<linearGradient id="paint1_linear_3105_20103" x1="24.7891" y1="19.0398" x2="38.5195" y2="12.6545" gradientUnits="userSpaceOnUse">
<stop stop-color="#662F88"/>
<stop offset="1" stop-color="#20BF55"/>
</linearGradient>
</defs>
</svg>
