<svg width="22" height="28" viewBox="0 0 22 28" fill="none" xmlns="http://www.w3.org/2000/svg">
<path fill-rule="evenodd" clip-rule="evenodd" d="M6.73966 6.2687C6.74302 6.31086 6.74658 6.3526 6.75015 6.39413C7.03123 9.57323 8.8918 12.0298 11.1435 12.0298C13.4259 12.0298 15.3054 9.50949 15.5482 6.27063C15.5814 6.0378 15.5994 5.79972 15.5994 5.55703C15.5994 5.31434 15.5814 5.07627 15.5482 4.84387C15.2221 2.59252 13.3741 0.867676 11.1435 0.867676C8.91317 0.867676 7.06541 2.59338 6.7392 4.84575C6.70605 5.07753 6.68906 5.31582 6.68906 5.55725C6.68906 5.65583 6.69179 5.75295 6.69787 5.84986C6.70689 5.99103 6.71948 6.13094 6.73961 6.26896L6.73966 6.2687ZM8.39636 3.73962C8.39636 3.73962 11.4754 5.23689 13.5458 3.73962C13.5458 3.73962 14.7747 5.68366 14.4295 6.44805L15.0549 5.72962C15.0522 5.9203 15.0377 6.10824 15.0111 6.29201C14.7974 9.13549 13.1478 11.3482 11.1436 11.3482C9.17314 11.3482 7.54474 9.20658 7.28887 6.43001C7.46234 6.47364 7.67524 6.55775 7.90683 6.71927C7.90683 6.71927 7.90674 6.71873 7.90657 6.71767V6.71766C7.89467 6.64463 7.48053 4.10125 8.3964 3.73966L8.39636 3.73962ZM14.8398 11.5317V11.5317L14.8397 11.5317H14.8398ZM14.8398 11.5317C14.8169 12.5928 13.2434 13.4497 11.3058 13.4497C9.36807 13.4497 7.79509 12.5931 7.77184 11.5317C5.69082 11.7217 3.93054 13.0084 3.06299 14.807H19.5483C18.682 13.0084 16.9214 11.7218 14.8398 11.5317ZM18.9991 27.1675C18.9955 27.1674 18.9921 27.1663 18.9887 27.1653C18.9866 27.1646 18.9845 27.1639 18.9822 27.1635C18.9805 27.1631 18.9787 27.1629 18.9769 27.1629H3.63475C3.63044 27.1629 3.6266 27.1641 3.62276 27.1652L3.62274 27.1652C3.6193 27.1663 3.61586 27.1673 3.6121 27.1675C3.3929 27.1799 3.21796 27.3578 3.21796 27.5801C3.21796 27.8102 3.40444 27.9969 3.63475 27.9969H18.9769C19.207 27.9969 19.3937 27.8102 19.3937 27.5801C19.3937 27.3575 19.2187 27.1799 18.9991 27.1675ZM0.929443 16.1177C0.929443 15.591 1.35587 15.1643 1.88216 15.1643H20.7298C21.2561 15.1643 21.6825 15.5912 21.6825 16.1177L20.7298 25.7952C20.7298 26.3217 20.3032 26.7481 19.7769 26.7481H2.83509C2.30881 26.7481 1.88216 26.3217 1.88216 25.7952L0.929443 16.1177ZM15.2657 19.1408L16.3061 23.2856H16.3061C16.4454 23.8298 16.3129 24.4078 15.9505 24.8369C15.6991 25.1316 15.3329 25.3035 14.9456 25.3085C14.9114 25.3103 14.877 25.3103 14.8427 25.3085C14.4021 25.2667 14.0079 25.0171 13.7817 24.6367H13.7818L12.876 23.194C12.7806 23.0391 12.6481 22.9105 12.4905 22.8197C11.7604 22.406 10.8667 22.406 10.1365 22.8197C9.97896 22.9105 9.84647 23.0391 9.75107 23.194L8.84533 24.6367C8.6191 25.0171 8.22496 25.2667 7.7843 25.3085C7.35583 25.3418 6.93771 25.1662 6.66153 24.8369C6.29913 24.4078 6.16664 23.8298 6.30598 23.2856L7.3483 19.1408C7.43117 18.7708 7.67961 18.4597 8.02196 18.2968C8.31217 18.1614 8.64883 18.1684 8.93329 18.3156L9.43477 18.57C9.55073 18.6292 9.67887 18.6606 9.80903 18.6617H12.8031C12.9332 18.6606 13.0614 18.6291 13.1773 18.57L13.6807 18.3156C13.9652 18.1684 14.3018 18.1614 14.592 18.2968C14.9343 18.4597 15.1828 18.7708 15.2657 19.1408ZM9.06051 21.8429V21.0944H9.80903C9.91236 21.0944 9.99616 21.0106 9.99616 20.9072C9.99616 20.8039 9.91236 20.7201 9.80903 20.7201H9.06051V19.9716C9.06051 19.8683 8.97672 19.7845 8.87338 19.7845C8.77005 19.7845 8.68626 19.8683 8.68626 19.9716V20.7201H7.93774C7.8344 20.7201 7.75061 20.8039 7.75061 20.9072C7.75061 21.0106 7.8344 21.0944 7.93774 21.0944H8.68626V21.8429C8.68626 21.9462 8.77005 22.03 8.87338 22.03C8.97672 22.03 9.06051 21.9462 9.06051 21.8429ZM13.8163 19.8941C13.7461 19.8239 13.6508 19.7845 13.5516 19.7845C13.4524 19.7845 13.3571 19.8239 13.2869 19.8941C13.2168 19.9643 13.1773 20.0595 13.1773 20.1587C13.1773 20.258 13.2168 20.3532 13.2869 20.4234C13.3571 20.4936 13.4524 20.533 13.5516 20.533C13.6508 20.533 13.7461 20.4936 13.8163 20.4234C13.8864 20.3532 13.9259 20.258 13.9259 20.1587C13.9259 20.0595 13.8864 19.9643 13.8163 19.8941ZM12.5384 21.1719C12.6086 21.2421 12.7038 21.2815 12.8031 21.2815C12.9023 21.2815 12.9976 21.2421 13.0677 21.1719C13.1379 21.1017 13.1773 21.0065 13.1773 20.9072C13.1773 20.808 13.1379 20.7128 13.0677 20.6426C12.9976 20.5724 12.9023 20.533 12.8031 20.533C12.7038 20.533 12.6086 20.5724 12.5384 20.6426C12.4683 20.7128 12.4288 20.808 12.4288 20.9072C12.4288 21.0065 12.4683 21.1017 12.5384 21.1719ZM13.2869 21.9204C13.3571 21.9906 13.4524 22.03 13.5516 22.03C13.6508 22.03 13.7461 21.9906 13.8163 21.9204C13.8864 21.8502 13.9259 21.755 13.9259 21.6558C13.9259 21.5565 13.8864 21.4613 13.8163 21.3911C13.7461 21.3209 13.6508 21.2815 13.5516 21.2815C13.4524 21.2815 13.3571 21.3209 13.2869 21.3911C13.2168 21.4613 13.1773 21.5565 13.1773 21.6558C13.1773 21.755 13.2168 21.8502 13.2869 21.9204ZM14.0355 21.1719C14.1056 21.2421 14.2009 21.2815 14.3001 21.2815C14.3994 21.2815 14.4946 21.2421 14.5648 21.1719C14.6349 21.1017 14.6744 21.0065 14.6744 20.9072C14.6744 20.808 14.6349 20.7128 14.5648 20.6426C14.4946 20.5724 14.3994 20.533 14.3001 20.533C14.2009 20.533 14.1056 20.5724 14.0355 20.6426C13.9653 20.7128 13.9259 20.808 13.9259 20.9072C13.9259 21.0065 13.9653 21.1017 14.0355 21.1719Z" fill="url(#paint0_linear_7419_47633)"/>
<defs>
<linearGradient id="paint0_linear_7419_47633" x1="0.929444" y1="20.2638" x2="34.028" y2="8.48909" gradientUnits="userSpaceOnUse">
<stop stop-color="#662F88"/>
<stop offset="1" stop-color="#20BF55"/>
</linearGradient>
</defs>
</svg>
