<svg width="29" height="21" viewBox="0 0 29 21" fill="none" xmlns="http://www.w3.org/2000/svg">
<path d="M28.7725 14.7203L25.8467 3.06528C25.6137 2.0251 24.9151 1.15005 23.9524 0.692235C23.1364 0.311451 22.1899 0.330947 21.3901 0.744854L19.9745 1.46036C19.6485 1.62667 19.2881 1.715 18.9221 1.71829H10.503C10.1371 1.715 9.77671 1.62668 9.45065 1.46036L8.04051 0.744854C7.24063 0.330947 6.29397 0.311451 5.47791 0.692235C4.51525 1.15007 3.81664 2.0251 3.58362 3.06528L0.652684 14.7203C0.260859 16.2505 0.633421 17.8759 1.65245 19.0826C2.42905 20.0085 3.60478 20.5023 4.80962 20.4086C6.04873 20.2912 7.15704 19.5893 7.79317 18.5195L10.3401 14.4626C10.6083 14.0271 10.9809 13.6656 11.4239 13.4103C13.477 12.247 15.9903 12.247 18.0431 13.4103C18.4864 13.6656 18.8589 14.0271 19.1272 14.4626L21.6741 18.5195H21.6739C22.31 19.5893 23.4185 20.2912 24.6574 20.4086C24.7537 20.4138 24.8505 20.4138 24.9468 20.4086C26.0358 20.3945 27.0657 19.9111 27.7725 19.0826C28.7915 17.8759 29.1641 16.2505 28.7723 14.7203H28.7725ZM10.503 8.55875H8.39826V10.6635C8.39826 10.9541 8.16265 11.1897 7.87207 11.1897C7.58149 11.1897 7.34587 10.9541 7.34587 10.6635V8.55875H5.2411C4.95052 8.55875 4.7149 8.32313 4.7149 8.03255C4.7149 7.74197 4.95052 7.50636 5.2411 7.50636H7.34587V5.40158C7.34587 5.111 7.58149 4.87539 7.87207 4.87539C8.16265 4.87539 8.39826 5.111 8.39826 5.40158V7.50636H10.503C10.7936 7.50636 11.0292 7.74197 11.0292 8.03255C11.0292 8.32313 10.7936 8.55875 10.503 8.55875ZM21.0269 4.87539C21.306 4.87539 21.5738 4.98627 21.7711 5.18359C21.9684 5.38091 22.0793 5.64871 22.0793 5.92777C22.0793 6.20684 21.9684 6.47464 21.7711 6.67196C21.5738 6.86928 21.306 6.98016 21.0269 6.98016C20.7478 6.98016 20.48 6.86928 20.2827 6.67196C20.0854 6.47464 19.9745 6.20684 19.9745 5.92777C19.9745 5.64871 20.0854 5.38091 20.2827 5.18359C20.48 4.98627 20.7478 4.87539 21.0269 4.87539ZM18.9221 9.08494C18.6431 9.08494 18.3753 8.97406 18.178 8.77674C17.9806 8.57942 17.8698 8.31162 17.8698 8.03255C17.8698 7.75348 17.9806 7.48568 18.178 7.28836C18.3753 7.09104 18.6431 6.98016 18.9221 6.98016C19.2012 6.98016 19.469 7.09104 19.6663 7.28836C19.8636 7.48568 19.9745 7.75348 19.9745 8.03255C19.9745 8.31162 19.8636 8.57942 19.6663 8.77674C19.469 8.97406 19.2012 9.08494 18.9221 9.08494ZM21.0269 11.1897C20.7478 11.1897 20.48 11.0788 20.2827 10.8815C20.0854 10.6842 19.9745 10.4164 19.9745 10.1373C19.9745 9.85826 20.0854 9.59046 20.2827 9.39314C20.48 9.19582 20.7478 9.08494 21.0269 9.08494C21.306 9.08494 21.5738 9.19582 21.7711 9.39314C21.9684 9.59046 22.0793 9.85826 22.0793 10.1373C22.0793 10.4164 21.9684 10.6842 21.7711 10.8815C21.5738 11.0788 21.306 11.1897 21.0269 11.1897ZM23.1317 9.08494C22.8526 9.08494 22.5848 8.97406 22.3875 8.77674C22.1902 8.57942 22.0793 8.31162 22.0793 8.03255C22.0793 7.75348 22.1902 7.48568 22.3875 7.28836C22.5848 7.09104 22.8526 6.98016 23.1317 6.98016C23.4108 6.98016 23.6786 7.09104 23.8759 7.28836C24.0732 7.48568 24.1841 7.75348 24.1841 8.03255C24.1841 8.31162 24.0732 8.57942 23.8759 8.77674C23.6786 8.97406 23.4108 9.08494 23.1317 9.08494Z" fill="url(#paint0_linear_7419_47604)"/>
<path d="M28.7725 14.7203L25.8467 3.06528C25.6137 2.0251 24.9151 1.15005 23.9524 0.692235C23.1364 0.311451 22.1899 0.330947 21.3901 0.744854L19.9745 1.46036C19.6485 1.62667 19.2881 1.715 18.9221 1.71829H10.503C10.1371 1.715 9.77671 1.62668 9.45065 1.46036L8.04051 0.744854C7.24063 0.330947 6.29397 0.311451 5.47791 0.692235C4.51525 1.15007 3.81664 2.0251 3.58362 3.06528L0.652684 14.7203C0.260859 16.2505 0.633421 17.8759 1.65245 19.0826C2.42905 20.0085 3.60478 20.5023 4.80962 20.4086C6.04873 20.2912 7.15704 19.5893 7.79317 18.5195L10.3401 14.4626C10.6083 14.0271 10.9809 13.6656 11.4239 13.4103C13.477 12.247 15.9903 12.247 18.0431 13.4103C18.4864 13.6656 18.8589 14.0271 19.1272 14.4626L21.6741 18.5195H21.6739C22.31 19.5893 23.4185 20.2912 24.6574 20.4086C24.7537 20.4138 24.8505 20.4138 24.9468 20.4086C26.0358 20.3945 27.0657 19.9111 27.7725 19.0826C28.7915 17.8759 29.1641 16.2505 28.7723 14.7203H28.7725ZM10.503 8.55875H8.39826V10.6635C8.39826 10.9541 8.16265 11.1897 7.87207 11.1897C7.58149 11.1897 7.34587 10.9541 7.34587 10.6635V8.55875H5.2411C4.95052 8.55875 4.7149 8.32313 4.7149 8.03255C4.7149 7.74197 4.95052 7.50636 5.2411 7.50636H7.34587V5.40158C7.34587 5.111 7.58149 4.87539 7.87207 4.87539C8.16265 4.87539 8.39826 5.111 8.39826 5.40158V7.50636H10.503C10.7936 7.50636 11.0292 7.74197 11.0292 8.03255C11.0292 8.32313 10.7936 8.55875 10.503 8.55875ZM21.0269 4.87539C21.306 4.87539 21.5738 4.98627 21.7711 5.18359C21.9684 5.38091 22.0793 5.64871 22.0793 5.92777C22.0793 6.20684 21.9684 6.47464 21.7711 6.67196C21.5738 6.86928 21.306 6.98016 21.0269 6.98016C20.7478 6.98016 20.48 6.86928 20.2827 6.67196C20.0854 6.47464 19.9745 6.20684 19.9745 5.92777C19.9745 5.64871 20.0854 5.38091 20.2827 5.18359C20.48 4.98627 20.7478 4.87539 21.0269 4.87539ZM18.9221 9.08494C18.6431 9.08494 18.3753 8.97406 18.178 8.77674C17.9806 8.57942 17.8698 8.31162 17.8698 8.03255C17.8698 7.75348 17.9806 7.48568 18.178 7.28836C18.3753 7.09104 18.6431 6.98016 18.9221 6.98016C19.2012 6.98016 19.469 7.09104 19.6663 7.28836C19.8636 7.48568 19.9745 7.75348 19.9745 8.03255C19.9745 8.31162 19.8636 8.57942 19.6663 8.77674C19.469 8.97406 19.2012 9.08494 18.9221 9.08494ZM21.0269 11.1897C20.7478 11.1897 20.48 11.0788 20.2827 10.8815C20.0854 10.6842 19.9745 10.4164 19.9745 10.1373C19.9745 9.85826 20.0854 9.59046 20.2827 9.39314C20.48 9.19582 20.7478 9.08494 21.0269 9.08494C21.306 9.08494 21.5738 9.19582 21.7711 9.39314C21.9684 9.59046 22.0793 9.85826 22.0793 10.1373C22.0793 10.4164 21.9684 10.6842 21.7711 10.8815C21.5738 11.0788 21.306 11.1897 21.0269 11.1897ZM23.1317 9.08494C22.8526 9.08494 22.5848 8.97406 22.3875 8.77674C22.1902 8.57942 22.0793 8.31162 22.0793 8.03255C22.0793 7.75348 22.1902 7.48568 22.3875 7.28836C22.5848 7.09104 22.8526 6.98016 23.1317 6.98016C23.4108 6.98016 23.6786 7.09104 23.8759 7.28836C24.0732 7.48568 24.1841 7.75348 24.1841 8.03255C24.1841 8.31162 24.0732 8.57942 23.8759 8.77674C23.6786 8.97406 23.4108 9.08494 23.1317 9.08494Z" fill="black" fill-opacity="0.2"/>
<defs>
<linearGradient id="paint0_linear_7419_47604" x1="0.500001" y1="14.719" x2="36.0441" y2="-8.77376" gradientUnits="userSpaceOnUse">
<stop stop-color="#662F88"/>
<stop offset="1" stop-color="#20BF55"/>
</linearGradient>
</defs>
</svg>
