<svg width="21" height="20" viewBox="0 0 21 20" fill="none" xmlns="http://www.w3.org/2000/svg">
<path d="M10.6367 0.000488281C5.12272 0.000488281 0.636719 4.48649 0.636719 10.0005C0.636719 15.5145 5.12272 20.0005 10.6367 20.0005C16.1507 20.0005 20.6367 15.5145 20.6367 10.0005C20.6367 4.48649 16.1507 0.000488281 10.6367 0.000488281ZM13.9297 14.7075L9.63672 10.4145V4.00049H11.6367V9.58649L15.3437 13.2935L13.9297 14.7075Z" fill="url(#paint0_linear_7419_47592)"/>
<path d="M10.6367 0.000488281C5.12272 0.000488281 0.636719 4.48649 0.636719 10.0005C0.636719 15.5145 5.12272 20.0005 10.6367 20.0005C16.1507 20.0005 20.6367 15.5145 20.6367 10.0005C20.6367 4.48649 16.1507 0.000488281 10.6367 0.000488281ZM13.9297 14.7075L9.63672 10.4145V4.00049H11.6367V9.58649L15.3437 13.2935L13.9297 14.7075Z" fill="black" fill-opacity="0.2"/>
<defs>
<linearGradient id="paint0_linear_7419_47592" x1="0.63672" y1="14.2996" x2="30.1814" y2="0.559908" gradientUnits="userSpaceOnUse">
<stop stop-color="#662F88"/>
<stop offset="1" stop-color="#20BF55"/>
</linearGradient>
</defs>
</svg>
