<svg width="25" height="25" viewBox="0 0 25 25" fill="none" xmlns="http://www.w3.org/2000/svg">
<path d="M12.2322 0.409668C5.52473 0.409668 0.0678711 5.86602 0.0678711 12.573C0.0678711 19.2804 5.52473 24.7373 12.2322 24.7373C18.9397 24.7373 24.396 19.2804 24.396 12.573C24.3964 5.86602 18.9402 0.409668 12.2322 0.409668ZM19.814 17.1365C19.814 17.1365 17.8114 19.3393 18.6125 19.5397C19.1239 19.6677 19.1472 20.3635 19.5128 20.4356C17.5975 22.2107 15.0433 23.306 12.2321 23.306C6.31432 23.306 1.4993 18.4911 1.4993 12.5726C1.4993 9.84195 2.5329 7.35377 4.21861 5.45783C4.25932 6.21741 4.30473 7.54282 4.1824 8.2793L4.00332 9.35263C4.00332 9.35263 4.3607 8.99525 5.07665 10.426C5.60726 11.4872 6.13646 12.3474 6.44806 12.4319C6.44669 12.6163 6.51323 12.8368 6.68664 13.1093C6.68664 13.1093 6.32926 13.1093 6.68664 14.1826C7.04402 15.256 7.40238 15.6141 8.29664 16.151C9.1909 16.6877 9.72737 17.5817 9.72737 18.1184C9.72737 18.6548 9.36999 20.0858 10.2638 21.1591C11.1588 22.2324 11.1588 21.6958 11.3372 20.8017C11.5163 19.9075 11.3372 16.6879 12.0529 16.151C12.7687 15.6144 13.1262 12.5727 12.2322 12.5727C11.3372 12.5727 9.36958 11.6784 9.36958 11.6784C9.36958 11.6784 7.3351 11.4048 6.66084 11.9845C6.40602 11.34 4.6929 10.6503 5.97055 9.53199C7.40203 8.27978 8.2963 9.53199 8.65389 8.27978C9.01225 7.02817 10.2637 6.13331 10.0854 5.59644C9.90609 5.05978 8.11702 3.09258 9.19036 3.62905C9.98616 4.02695 11.9588 2.75358 12.4168 1.84995C13.4825 1.86815 14.5114 2.03745 15.4804 2.34609C15.191 3.39888 14.6613 5.79898 15.6304 6.49162C16.8826 7.38588 20.6395 3.98681 19.2077 6.49162C17.777 8.99583 18.4927 7.56496 17.777 7.74323C17.062 7.92251 15.0937 6.66989 16.167 8.81656C17.2403 10.963 15.6305 12.9314 17.2403 12.9314C18.2316 12.9314 19.1539 12.3229 19.717 12.2297C19.9272 12.3734 20.107 12.5247 20.2652 12.6789C20.275 12.7529 20.2808 12.8357 20.2808 12.9314C20.2808 13.6166 20.346 14.7549 20.4202 15.837L19.814 17.1365Z" fill="url(#paint0_linear_7419_47631)"/>
<defs>
<linearGradient id="paint0_linear_7419_47631" x1="0.0678722" y1="17.8028" x2="36.006" y2="1.08957" gradientUnits="userSpaceOnUse">
<stop stop-color="#662F88"/>
<stop offset="1" stop-color="#20BF55"/>
</linearGradient>
</defs>
</svg>
