<svg width="23" height="27" viewBox="0 0 23 27" fill="none" xmlns="http://www.w3.org/2000/svg">
<path fill-rule="evenodd" clip-rule="evenodd" d="M15.535 4.41886C15.535 6.76263 13.6351 8.66284 11.291 8.66284C8.94699 8.66284 7.04704 6.76263 7.04704 4.41886C7.04704 2.07482 8.94699 0.174683 11.291 0.174683C13.6351 0.174683 15.535 2.07489 15.535 4.41886ZM17.7841 17.441L17.3489 13.7775C17.0949 11.5286 15.1724 9.82374 12.8874 9.82374H9.73166C7.44637 9.82374 5.52388 11.5286 5.2701 13.7775L4.8349 17.441C4.76228 17.9126 5.08894 18.3841 5.5603 18.4567C7.37397 18.8557 9.3326 19.0371 11.3277 19.0371C13.3589 19.0371 15.2814 18.8195 17.0951 18.4567C17.5303 18.384 17.8205 17.9127 17.7841 17.441H17.7841ZM12.8653 22.262L14.2102 22.3674C14.7376 22.4202 14.9486 23.053 14.5267 23.3959L13.4983 24.2661C13.3399 24.398 13.2608 24.6353 13.3136 24.8463L13.63 26.1649C13.7619 26.666 13.208 27.0617 12.7597 26.7979L11.5993 26.0858C11.4148 25.9804 11.1775 25.9804 10.9928 26.0858L9.83239 26.7979C9.38411 27.0615 8.83023 26.666 8.96212 26.1649L9.27853 24.8463C9.33114 24.6353 9.25204 24.398 9.09384 24.2661L8.06534 23.3959C7.66982 23.053 7.88084 22.4202 8.40823 22.3674L9.727 22.262C9.96432 22.2357 10.149 22.1038 10.2281 21.8928L10.7555 20.6533C10.9402 20.1787 11.6258 20.1787 11.8368 20.6533L12.3642 21.8928C12.4433 22.1038 12.6543 22.2357 12.8653 22.262ZM22.0164 20.8114L20.6715 20.706C20.4605 20.6797 20.2495 20.5478 20.1704 20.3368L19.643 19.0974C19.432 18.6228 18.7464 18.6228 18.5617 19.0974L18.0343 20.3368C17.9552 20.5478 17.7705 20.6797 17.5332 20.706L16.2146 20.8114C15.6872 20.8642 15.4762 21.497 15.8717 21.8399L16.9002 22.7102C17.0584 22.8421 17.1375 23.0794 17.0849 23.2904L16.7685 24.6089C16.6366 25.1101 17.1905 25.5321 17.6388 25.2419L18.7992 24.5298C18.9839 24.4244 19.2212 24.4244 19.4057 24.5298L20.5661 25.2419C21.0144 25.5057 21.5683 25.11 21.4364 24.6089L21.1199 23.2904C21.0672 23.0794 21.1463 22.8421 21.3046 22.7102L22.3331 21.8399C22.7548 21.497 22.5438 20.864 22.0164 20.8114ZM5.05934 20.706L6.40422 20.8114C6.93162 20.864 7.14261 21.497 6.72099 21.8399L5.69249 22.7102C5.53411 22.8421 5.45501 23.0794 5.5078 23.2904L5.82421 24.6089C5.95611 25.11 5.40224 25.5057 4.95394 25.2419L3.79354 24.5298C3.60903 24.4244 3.37173 24.4244 3.18704 24.5298L2.02663 25.2419C1.57836 25.532 1.02447 25.1101 1.15637 24.6089L1.47277 23.2904C1.52538 23.0794 1.44628 22.8421 1.28808 22.7102L0.259583 21.8399C-0.135936 21.497 0.0750845 20.8642 0.602472 20.8114L1.92106 20.706C2.15837 20.6797 2.34307 20.5478 2.42217 20.3368L2.94955 19.0973C3.13425 18.6227 3.81984 18.6227 4.03084 19.0973L4.55823 20.3368C4.63735 20.5478 4.84834 20.6797 5.05934 20.706Z" fill="url(#paint0_linear_7419_47644)"/>
<defs>
<linearGradient id="paint0_linear_7419_47644" x1="-3.98573" y1="26.0714" x2="36.7576" y2="7.46908" gradientUnits="userSpaceOnUse">
<stop stop-color="#662F88"/>
<stop offset="1" stop-color="#20BF55"/>
</linearGradient>
</defs>
</svg>
