<svg width="40" height="40" viewBox="0 0 40 40" fill="none" xmlns="http://www.w3.org/2000/svg">
<path d="M27.7018 11H12.2982C11.5812 11 11 11.5812 11 12.2982V27.7018C11 28.4188 11.5812 29 12.2982 29H27.7018C28.4188 29 29 28.4188 29 27.7018V12.2982C29 11.5812 28.4188 11 27.7018 11V11ZM17.3847 24.6055H15.1928V18.0111H17.3847V24.6055ZM16.2888 17.1106H16.2745C15.539 17.1106 15.0633 16.6043 15.0633 15.9715C15.0633 15.3244 15.5536 14.832 16.3034 14.832C17.0532 14.832 17.5146 15.3244 17.5289 15.9715C17.5289 16.6043 17.0532 17.1106 16.2888 17.1106ZM25.2883 24.6055H23.0966V21.0776C23.0966 20.191 22.7793 19.5864 21.9862 19.5864C21.3807 19.5864 21.0201 19.9942 20.8616 20.388C20.8036 20.5289 20.7895 20.7258 20.7895 20.9229V24.6055H18.5977C18.5977 24.6055 18.6264 18.6297 18.5977 18.0111H20.7895V18.9448C21.0808 18.4954 21.6019 17.8563 22.7648 17.8563C24.2069 17.8563 25.2883 18.7988 25.2883 20.8242V24.6055Z" fill="#DFDFDF"/>
</svg>
