<svg width="38" height="38" viewBox="0 0 38 38" fill="none" xmlns="http://www.w3.org/2000/svg">
<g filter="url(#filter0_d_1162:571)">
<circle cx="19" cy="18" r="15" fill="#272727"/>
</g>
<path d="M25.9964 24.9997V24.9992H25.9999V19.8647C25.9999 17.3529 25.4592 15.418 22.5227 15.418C21.111 15.418 20.1637 16.1926 19.777 16.927H19.7361V15.6525H16.9519V24.9992H19.8511V20.371C19.8511 19.1524 20.082 17.9741 21.5911 17.9741C23.078 17.9741 23.1002 19.3648 23.1002 20.4492V24.9997H25.9964Z" fill="white"/>
<path d="M12.231 15.6543H15.1336V25.001H12.231V15.6543Z" fill="white"/>
<path d="M13.6812 11C12.7531 11 12 11.7531 12 12.6812C12 13.6092 12.7531 14.3781 13.6812 14.3781C14.6092 14.3781 15.3623 13.6092 15.3623 12.6812C15.3617 11.7531 14.6086 11 13.6812 11V11Z" fill="white"/>
<defs>
<filter id="filter0_d_1162:571" x="0" y="0" width="38" height="38" filterUnits="userSpaceOnUse" color-interpolation-filters="sRGB">
<feFlood flood-opacity="0" result="BackgroundImageFix"/>
<feColorMatrix in="SourceAlpha" type="matrix" values="0 0 0 0 0 0 0 0 0 0 0 0 0 0 0 0 0 0 127 0" result="hardAlpha"/>
<feOffset dy="1"/>
<feGaussianBlur stdDeviation="2"/>
<feColorMatrix type="matrix" values="0 0 0 0 0 0 0 0 0 0 0 0 0 0 0 0 0 0 0.08 0"/>
<feBlend mode="normal" in2="BackgroundImageFix" result="effect1_dropShadow_1162:571"/>
<feBlend mode="normal" in="SourceGraphic" in2="effect1_dropShadow_1162:571" result="shape"/>
</filter>
</defs>
</svg>
