<svg width="14" height="18" viewBox="0 0 14 18" fill="none" xmlns="http://www.w3.org/2000/svg">
<path d="M6.79288 9.88067C6.18217 9.88067 5.58517 9.69958 5.07739 9.36029C4.5696 9.021 4.17383 8.53875 3.94012 7.97453C3.70642 7.4103 3.64527 6.78945 3.76441 6.19048C3.88355 5.5915 4.17764 5.04131 4.60947 4.60947C5.04131 4.17764 5.5915 3.88355 6.19048 3.76441C6.78945 3.64527 7.41031 3.70642 7.97453 3.94012C8.53875 4.17383 9.021 4.5696 9.36029 5.07739C9.69958 5.58517 9.88067 6.18217 9.88067 6.79288C9.87969 7.61151 9.55406 8.39634 8.9752 8.9752C8.39634 9.55406 7.61151 9.87969 6.79288 9.88067V9.88067ZM6.79288 4.9402C6.42645 4.9402 6.06826 5.04886 5.76358 5.25243C5.45891 5.45601 5.22145 5.74536 5.08123 6.08389C4.941 6.42242 4.90431 6.79493 4.9758 7.15432C5.04728 7.5137 5.22373 7.84382 5.48284 8.10292C5.74194 8.36202 6.07205 8.53847 6.43144 8.60996C6.79082 8.68144 7.16333 8.64475 7.50187 8.50453C7.8404 8.3643 8.12975 8.12684 8.33332 7.82217C8.5369 7.5175 8.64556 7.1593 8.64556 6.79288C8.64507 6.30167 8.44972 5.83072 8.10238 5.48338C7.75504 5.13604 7.28409 4.94069 6.79288 4.9402V4.9402Z" fill="white"/>
<path d="M6.79316 17.2917L1.58343 11.1476C1.51104 11.0553 1.4394 10.9625 1.36852 10.869C0.478604 9.69678 -0.00214984 8.26494 7.22723e-06 6.79315C7.22723e-06 4.9915 0.715713 3.26363 1.98968 1.98967C3.26364 0.715705 4.99151 0 6.79316 0C8.59482 0 10.3227 0.715705 11.5966 1.98967C12.8706 3.26363 13.5863 4.9915 13.5863 6.79315C13.5885 8.26427 13.1079 9.69547 12.2184 10.8672L12.2178 10.869C12.2178 10.869 12.0325 11.1124 12.0047 11.1451L6.79316 17.2917ZM2.35414 10.1249C2.35538 10.1249 2.49865 10.3151 2.53138 10.3559L6.79316 15.3822L11.0605 10.3491C11.0877 10.3151 11.2322 10.1237 11.2328 10.123C11.9598 9.16527 12.3526 7.99556 12.3512 6.79315C12.3512 5.31907 11.7656 3.90536 10.7233 2.86303C9.68095 1.8207 8.26725 1.23512 6.79316 1.23512C5.31908 1.23512 3.90537 1.8207 2.86304 2.86303C1.8207 3.90536 1.23513 5.31907 1.23513 6.79315C1.23383 7.99631 1.62714 9.16669 2.35476 10.1249H2.35414Z" fill="white"/>
</svg>
