<svg width="52" height="40" viewBox="0 0 52 40" fill="none" xmlns="http://www.w3.org/2000/svg">
<path d="M23.8635 15.6625V20.7947H18.4429C18.1799 20.7947 17.9618 20.9821 17.9618 21.2179V23.7567C17.9618 23.9865 18.1799 24.1799 18.4429 24.1799H23.8635V29.3121C23.8635 29.5478 24.0688 29.7413 24.3126 29.7413H27.0068C27.257 29.7413 27.4559 29.5478 27.4559 29.3121V24.1799H32.8765C33.1395 24.1799 33.3576 23.9865 33.3576 23.7567V21.2179C33.3576 20.9821 33.1395 20.7947 32.8765 20.7947H27.4559V15.6625C27.4559 15.4268 27.257 15.2333 27.0068 15.2333H24.3126C24.0688 15.2333 23.8635 15.4268 23.8635 15.6625ZM49.2666 6.91545H26.237L18.7123 0.132989C18.6166 0.0485275 18.4907 0.00105966 18.3595 0H2.05278C0.917334 0 0 0.864431 0 1.93439V37.7206C0 38.7906 0.917334 39.655 2.05278 39.655H49.2666C50.4021 39.655 51.3194 38.7906 51.3194 37.7206V8.84984C51.3194 7.77988 50.4021 6.91545 49.2666 6.91545ZM46.7007 35.3027H4.61875V4.35238H16.7109L24.3831 11.2678H46.7007V35.3027Z" fill="url(#paint0_linear_3105_19873)"/>
<defs>
<linearGradient id="paint0_linear_3105_19873" x1="2.43593e-06" y1="28.3515" x2="67.6889" y2="-12.3862" gradientUnits="userSpaceOnUse">
<stop stop-color="#662F88"/>
<stop offset="1" stop-color="#20BF55"/>
</linearGradient>
</defs>
</svg>
