<svg width="53" height="47" viewBox="0 0 53 47" fill="none" xmlns="http://www.w3.org/2000/svg">
<path fill-rule="evenodd" clip-rule="evenodd" d="M1.88838 0H50.9862L52.8746 1.78344V24.9681H49.0978V14.2675H3.77676V39.2356H30.214V42.8025H1.88838L0 41.0191V1.78344L1.88838 0ZM3.77676 10.7006H49.0978V3.56688H3.77676V10.7006ZM22.6605 35.6688V31.7666C22.0188 31.5463 21.4202 31.2269 20.8892 30.8214L17.3202 32.7439L15.4318 29.6764L18.9706 27.7253C18.8498 27.08 18.8498 26.4196 18.9706 25.7742L15.4318 23.8267L17.3202 20.7592L20.8892 22.6853C21.4595 22.2573 22.0525 21.9399 22.6605 21.7365V17.8344H26.4373V21.7365C27.084 21.9466 27.6843 22.267 28.2086 22.6818L31.7776 20.7592L33.666 23.8267L30.1272 25.7778C30.2476 26.422 30.2476 27.0811 30.1272 27.7253L33.666 29.6764L31.7776 32.7439L28.2086 30.8178C27.6717 31.216 27.0746 31.5358 26.4373 31.7666V35.6688H22.6605ZM21.7163 26.7516C21.7163 27.4935 21.992 28.1248 22.5435 28.6456C22.8035 28.8983 23.1156 29.098 23.4605 29.2323C23.8054 29.3667 24.1759 29.4328 24.5489 29.4267C24.922 29.4328 25.2924 29.3667 25.6373 29.2323C25.9822 29.098 26.2943 28.8983 26.5544 28.6456C26.8219 28.4 27.0334 28.1052 27.1756 27.7795C27.3179 27.4537 27.3879 27.1039 27.3815 26.7516C27.3879 26.3992 27.3179 26.0494 27.1756 25.7237C27.0334 25.3979 26.8219 25.1031 26.5544 24.8576C26.2943 24.6049 25.9822 24.4052 25.6373 24.2708C25.2924 24.1365 24.922 24.0703 24.5489 24.0764C24.1759 24.0703 23.8054 24.1365 23.4605 24.2708C23.1156 24.4052 22.8035 24.6049 22.5435 24.8576C22.2759 25.1031 22.0645 25.3979 21.9222 25.7237C21.7799 26.0494 21.7099 26.3992 21.7163 26.7516ZM41.8616 46.3694V42.4672C41.2198 42.2469 40.6213 41.9275 40.0903 41.522L36.5212 43.4445L34.6328 40.377L38.1754 38.426C38.0547 37.7806 38.0547 37.1202 38.1754 36.4749L34.6328 34.5274L36.5212 31.4598L40.0903 33.386C40.6605 32.9579 41.2535 32.6405 41.8653 32.4372V28.535H45.6421V32.4372C46.2872 32.6481 46.8862 32.9684 47.4096 33.3824L50.9786 31.4598L52.867 34.5274L49.3282 36.4784C49.4493 37.1226 49.4493 37.7818 49.3282 38.426L52.867 40.377L50.9786 43.4445L47.4096 41.5184C46.8728 41.9166 46.2757 42.2365 45.6383 42.4672V46.3694H41.8616ZM40.9174 37.4522C40.9174 38.1941 41.1931 38.8254 41.7445 39.3462C42.0045 39.5989 42.3166 39.7986 42.6615 39.9329C43.0065 40.0673 43.3769 40.1335 43.7499 40.1273C44.123 40.1335 44.4934 40.0673 44.8383 39.9329C45.1832 39.7986 45.4954 39.5989 45.7554 39.3462C46.0236 39.1009 46.2358 38.8063 46.3787 38.4805C46.5216 38.1548 46.5922 37.8048 46.5863 37.4522C46.5922 37.0996 46.5216 36.7496 46.3787 36.4239C46.2358 36.0981 46.0236 35.8035 45.7554 35.5582C45.4958 35.3059 45.1843 35.1065 44.8401 34.9722C44.4958 34.8378 44.1261 34.7714 43.7537 34.777C43.38 34.7704 43.0089 34.8364 42.6633 34.9707C42.3177 35.1051 42.0049 35.305 41.7445 35.5582C41.4769 35.8038 41.2655 36.0985 41.1232 36.4243C40.981 36.75 40.9109 37.0999 40.9174 37.4522Z" fill="url(#paint0_linear_3105_19871)"/>
<defs>
<linearGradient id="paint0_linear_3105_19871" x1="2.50974e-06" y1="33.1519" x2="74.1494" y2="-6.16852" gradientUnits="userSpaceOnUse">
<stop stop-color="#662F88"/>
<stop offset="1" stop-color="#20BF55"/>
</linearGradient>
</defs>
</svg>
