<svg width="48" height="50" viewBox="0 0 48 50" fill="none" xmlns="http://www.w3.org/2000/svg">
<path d="M5.29704 9.98716H10.5941V17.4775H37.0793V9.98716H42.3763V24.9679H47.6733V9.98716C47.6733 7.24069 45.2897 4.99358 42.3763 4.99358H31.3055C30.1931 2.0973 27.2797 0 23.8367 0C20.3936 0 17.4802 2.0973 16.3678 4.99358H5.29704C2.38367 4.99358 0 7.24069 0 9.98716V44.9422C0 47.6887 2.38367 49.9358 5.29704 49.9358H18.5396V44.9422H5.29704V9.98716ZM23.8367 4.99358C25.2934 4.99358 26.4852 6.11713 26.4852 7.49037C26.4852 8.8636 25.2934 9.98716 23.8367 9.98716C22.38 9.98716 21.1882 8.8636 21.1882 7.49037C21.1882 6.11713 22.38 4.99358 23.8367 4.99358Z" fill="url(#paint0_linear_3298_20488)"/>
<path d="M29.0575 33.9143C29.2562 33.7043 29.3661 33.423 29.3636 33.1311C29.3612 32.8392 29.2464 32.5599 29.0442 32.3535C28.8419 32.147 28.5683 32.0299 28.2823 32.0274C27.9962 32.0249 27.7207 32.1371 27.5149 32.3399C22.8284 37.1231 22.8284 44.8769 27.5149 49.6601C27.7207 49.8629 27.9962 49.9751 28.2823 49.9726C28.5683 49.9701 28.8419 49.853 29.0442 49.6465C29.2464 49.4401 29.3612 49.1608 29.3636 48.8689C29.3661 48.577 29.2562 48.2957 29.0575 48.0857C28.1457 47.1552 27.4225 46.0505 26.9291 44.8348C26.4357 43.619 26.1817 42.3159 26.1817 41C26.1817 39.6841 26.4357 38.381 26.9291 37.1652C27.4225 35.9495 28.1457 34.8448 29.0575 33.9143ZM44.4851 32.3399C44.3845 32.2336 44.2641 32.1487 44.131 32.0904C43.9979 32.032 43.8547 32.0013 43.7099 32C43.565 31.9988 43.4214 32.0269 43.2873 32.0829C43.1533 32.1389 43.0315 32.2216 42.929 32.3261C42.8266 32.4307 42.7456 32.555 42.6907 32.6918C42.6359 32.8286 42.6083 32.9752 42.6095 33.1231C42.6108 33.2709 42.6409 33.417 42.6981 33.5529C42.7552 33.6887 42.8384 33.8116 42.9425 33.9143C43.8543 34.8448 44.5775 35.9495 45.0709 37.1652C45.5643 38.381 45.8183 39.6841 45.8183 41C45.8183 42.3159 45.5643 43.619 45.0709 44.8348C44.5775 46.0505 43.8543 47.1552 42.9425 48.0857C42.8384 48.1884 42.7552 48.3113 42.6981 48.4471C42.6409 48.583 42.6108 48.7291 42.6095 48.8769C42.6083 49.0248 42.6359 49.1714 42.6907 49.3082C42.7456 49.445 42.8266 49.5693 42.929 49.6739C43.0315 49.7784 43.1533 49.8611 43.2873 49.9171C43.4214 49.9731 43.565 50.0012 43.7099 50C43.8547 49.9987 43.9979 49.968 44.131 49.9096C44.2641 49.8513 44.3845 49.7664 44.4851 49.6601C49.1716 44.8769 49.1716 37.1231 44.4851 32.3399ZM32.1425 37.063C32.3413 36.853 32.4512 36.5717 32.4487 36.2798C32.4462 35.9879 32.3315 35.7086 32.1293 35.5022C31.927 35.2958 31.6534 35.1787 31.3673 35.1761C31.0813 35.1736 30.8057 35.2858 30.6 35.4886C29.8908 36.2124 29.3283 37.0716 28.9444 38.0172C28.5606 38.9629 28.3631 39.9764 28.3631 41C28.3631 42.0236 28.5606 43.0371 28.9444 43.9828C29.3283 44.9284 29.8908 45.7876 30.6 46.5114C30.8057 46.7142 31.0813 46.8264 31.3673 46.8239C31.6534 46.8213 31.927 46.7042 32.1293 46.4978C32.3315 46.2914 32.4462 46.0121 32.4487 45.7202C32.4512 45.4283 32.3413 45.147 32.1425 44.937C31.6359 44.42 31.234 43.8063 30.9598 43.1308C30.6856 42.4552 30.5444 41.7312 30.5444 41C30.5444 40.2688 30.6856 39.5448 30.9598 38.8692C31.234 38.1937 31.6359 37.58 32.1425 37.063ZM41.4 35.4886C41.2994 35.3823 41.179 35.2975 41.0459 35.2391C40.9128 35.1808 40.7697 35.15 40.6248 35.1488C40.48 35.1475 40.3363 35.1756 40.2022 35.2316C40.0682 35.2876 39.9464 35.3703 39.8439 35.4748C39.7415 35.5794 39.6605 35.7037 39.6056 35.8405C39.5508 35.9774 39.5232 36.124 39.5245 36.2718C39.5257 36.4196 39.5558 36.5657 39.613 36.7016C39.6702 36.8374 39.7533 36.9603 39.8575 37.063C40.3641 37.58 40.766 38.1937 41.0402 38.8692C41.3144 39.5448 41.4556 40.2688 41.4556 41C41.4556 41.7312 41.3144 42.4552 41.0402 43.1308C40.766 43.8063 40.3641 44.42 39.8575 44.937C39.6587 45.147 39.5488 45.4283 39.5513 45.7202C39.5538 46.0121 39.6685 46.2914 39.8707 46.4978C40.073 46.7042 40.3466 46.8213 40.6327 46.8239C40.9187 46.8264 41.1943 46.7142 41.4 46.5114C42.1092 45.7876 42.6717 44.9284 43.0556 43.9828C43.4394 43.0371 43.6369 42.0236 43.6369 41C43.6369 39.9764 43.4394 38.9629 43.0556 38.0172C42.6717 37.0716 42.1092 36.2124 41.4 35.4886ZM34.9091 41C34.9091 40.7047 35.024 40.4215 35.2286 40.2127C35.4332 40.0039 35.7107 39.8866 36 39.8866C36.2893 39.8866 36.5668 40.0039 36.7714 40.2127C36.976 40.4215 37.0909 40.7047 37.0909 41C37.0909 41.2953 36.976 41.5785 36.7714 41.7873C36.5668 41.9961 36.2893 42.1134 36 42.1134C35.7107 42.1134 35.4332 41.9961 35.2286 41.7873C35.024 41.5785 34.9091 41.2953 34.9091 41ZM36 37.6598C35.132 37.6598 34.2996 38.0117 33.6858 38.6381C33.0721 39.2645 32.7273 40.1141 32.7273 41C32.7273 41.8859 33.0721 42.7355 33.6858 43.3619C34.2996 43.9883 35.132 44.3402 36 44.3402C36.868 44.3402 37.7004 43.9883 38.3142 43.3619C38.9279 42.7355 39.2727 41.8859 39.2727 41C39.2727 40.1141 38.9279 39.2645 38.3142 38.6381C37.7004 38.0117 36.868 37.6598 36 37.6598Z" fill="url(#paint1_linear_3298_20488)"/>
<defs>
<linearGradient id="paint0_linear_3298_20488" x1="2.26286e-06" y1="35.7018" x2="71.5515" y2="3.93461" gradientUnits="userSpaceOnUse">
<stop stop-color="#662F88"/>
<stop offset="1" stop-color="#20BF55"/>
</linearGradient>
<linearGradient id="paint1_linear_3298_20488" x1="24" y1="44.8692" x2="55.1462" y2="25.5566" gradientUnits="userSpaceOnUse">
<stop stop-color="#662F88"/>
<stop offset="1" stop-color="#20BF55"/>
</linearGradient>
</defs>
</svg>
