<svg width="48" height="48" viewBox="0 0 48 48" fill="none" xmlns="http://www.w3.org/2000/svg">
<path d="M24 48C10.7448 48 0 37.2552 0 24C0 10.7448 10.7448 0 24 0C37.2552 0 48 10.7448 48 24C48 37.2552 37.2552 48 24 48ZM24 43.2C29.0922 43.2 33.9758 41.1772 37.5765 37.5765C41.1772 33.9758 43.2 29.0922 43.2 24C43.2 18.9078 41.1772 14.0242 37.5765 10.4236C33.9758 6.82285 29.0922 4.8 24 4.8C18.9078 4.8 14.0242 6.82285 10.4236 10.4236C6.82285 14.0242 4.8 18.9078 4.8 24C4.8 29.0922 6.82285 33.9758 10.4236 37.5765C14.0242 41.1772 18.9078 43.2 24 43.2ZM15.6 28.8H28.8C29.1183 28.8 29.4235 28.6736 29.6485 28.4485C29.8736 28.2235 30 27.9183 30 27.6C30 27.2817 29.8736 26.9765 29.6485 26.7515C29.4235 26.5264 29.1183 26.4 28.8 26.4H19.2C17.6087 26.4 16.0826 25.7679 14.9574 24.6426C13.8321 23.5174 13.2 21.9913 13.2 20.4C13.2 18.8087 13.8321 17.2826 14.9574 16.1574C16.0826 15.0321 17.6087 14.4 19.2 14.4H21.6V9.6H26.4V14.4H32.4V19.2H19.2C18.8817 19.2 18.5765 19.3264 18.3515 19.5515C18.1264 19.7765 18 20.0817 18 20.4C18 20.7183 18.1264 21.0235 18.3515 21.2485C18.5765 21.4736 18.8817 21.6 19.2 21.6H28.8C30.3913 21.6 31.9174 22.2321 33.0426 23.3574C34.1679 24.4826 34.8 26.0087 34.8 27.6C34.8 29.1913 34.1679 30.7174 33.0426 31.8426C31.9174 32.9679 30.3913 33.6 28.8 33.6H26.4V38.4H21.6V33.6H15.6V28.8Z" fill="url(#paint0_linear_3298_20486)"/>
<defs>
<linearGradient id="paint0_linear_3298_20486" x1="2.27837e-06" y1="34.3178" x2="70.9074" y2="1.34261" gradientUnits="userSpaceOnUse">
<stop stop-color="#662F88"/>
<stop offset="1" stop-color="#20BF55"/>
</linearGradient>
</defs>
</svg>
