<svg width="46" height="48" viewBox="0 0 46 48" fill="none" xmlns="http://www.w3.org/2000/svg">
<path d="M45.8381 1.99725C45.9445 1.73263 45.9705 1.44274 45.913 1.16352C45.8555 0.884307 45.7169 0.628039 45.5144 0.426492C45.3119 0.224944 45.0545 0.08698 44.774 0.0297032C44.4935 -0.0275736 44.2023 -0.00164425 43.9365 0.104277L1.37877 17.0507C1.00398 17.2001 0.67784 17.4495 0.436253 17.7714C0.194665 18.0934 0.0469935 18.4755 0.00948968 18.8756C-0.0280141 19.2757 0.0461043 19.6784 0.223687 20.0393C0.40127 20.4002 0.675433 20.7054 1.016 20.9211L15.629 30.1763L20.108 37.1832C20.3196 37.5012 20.648 37.7238 21.0226 37.8033C21.3973 37.8828 21.7884 37.8128 22.1117 37.6084C22.4351 37.4039 22.6651 37.0813 22.7521 36.71C22.8391 36.3386 22.7763 35.948 22.5772 35.6222L18.5516 29.3259L40.4756 7.50143L34.9317 21.2997C34.8555 21.4781 34.8159 21.6697 34.8151 21.8635C34.8143 22.0572 34.8523 22.2492 34.927 22.4282C35.0017 22.6071 35.1115 22.7694 35.25 22.9056C35.3885 23.0417 35.5529 23.149 35.7336 23.2211C35.9143 23.2932 36.1076 23.3287 36.3022 23.3254C36.4968 23.3222 36.6888 23.2803 36.867 23.2023C37.0452 23.1243 37.2059 23.0116 37.3398 22.8709C37.4736 22.7303 37.5779 22.5644 37.6466 22.3831L45.8381 1.99725ZM38.4072 5.44246L16.4833 27.267L3.78941 19.2262L38.4072 5.44246Z" fill="url(#paint0_linear_3298_20484)"/>
<path d="M45.9427 36.4839C45.9427 39.3509 44.875 42.1005 42.9744 44.1278C41.0738 46.1551 38.4961 47.294 35.8083 47.294C33.1205 47.294 30.5427 46.1551 28.6421 44.1278C26.7416 42.1005 25.6738 39.3509 25.6738 36.4839C25.6738 33.6169 26.7416 30.8673 28.6421 28.84C30.5427 26.8127 33.1205 25.6738 35.8083 25.6738C38.4961 25.6738 41.0738 26.8127 42.9744 28.84C44.875 30.8673 45.9427 33.6169 45.9427 36.4839ZM40.1719 31.2982C40.0088 31.1939 39.828 31.1249 39.6399 31.0952C39.4518 31.0654 39.26 31.0755 39.0755 31.1249C38.8911 31.1742 38.7175 31.2618 38.5648 31.3827C38.4121 31.5036 38.2832 31.6554 38.1855 31.8294L34.7977 37.8522L33.2139 36.1627C32.942 35.8727 32.5733 35.7098 32.1888 35.7098C31.8044 35.7098 31.4357 35.8727 31.1638 36.1627C30.892 36.4527 30.7392 36.846 30.7392 37.2561C30.7392 37.6662 30.892 38.0594 31.1638 38.3494L33.405 40.7369C33.6382 40.9862 33.9217 41.1755 34.2339 41.2904C34.5461 41.4052 34.8787 41.4426 35.2065 41.3997C35.5342 41.3569 35.8485 41.2348 36.1254 41.0429C36.4023 40.851 36.6345 40.5942 36.8044 40.2921L40.6699 33.4169C40.7677 33.2429 40.8323 33.0501 40.8602 32.8495C40.8881 32.6488 40.8786 32.4443 40.8324 32.2475C40.7861 32.0507 40.704 31.8656 40.5907 31.7027C40.4773 31.5399 40.335 31.4024 40.1719 31.2982Z" fill="url(#paint1_linear_3298_20484)"/>
<defs>
<linearGradient id="paint0_linear_3298_20484" x1="2.18072e-06" y1="27.0505" x2="62.5879" y2="-8.29281" gradientUnits="userSpaceOnUse">
<stop stop-color="#662F88"/>
<stop offset="1" stop-color="#20BF55"/>
</linearGradient>
<linearGradient id="paint1_linear_3298_20484" x1="25.6738" y1="41.1312" x2="56.2747" y2="27.7899" gradientUnits="userSpaceOnUse">
<stop stop-color="#662F88"/>
<stop offset="1" stop-color="#20BF55"/>
</linearGradient>
</defs>
</svg>
