<svg width="78" height="78" viewBox="0 0 78 78" fill="none" xmlns="http://www.w3.org/2000/svg">
<path d="M38.6562 76C59.0908 76 75.6562 59.4345 75.6562 39C75.6562 18.5655 59.0908 2 38.6562 2C18.2217 2 1.65625 18.5655 1.65625 39C1.65625 59.4345 18.2217 76 38.6562 76Z" stroke="url(#paint0_linear_8652_51014)" stroke-width="3" stroke-linecap="round" stroke-linejoin="round"/>
<path d="M38.6562 76C59.0908 76 75.6562 59.4345 75.6562 39C75.6562 18.5655 59.0908 2 38.6562 2C18.2217 2 1.65625 18.5655 1.65625 39C1.65625 59.4345 18.2217 76 38.6562 76Z" stroke="black" stroke-opacity="0.2" stroke-width="3" stroke-linecap="round" stroke-linejoin="round"/>
<path d="M36.8774 46.1648L34.6992 23.8261H43.3195L41.0949 46.1648H36.8774ZM35.2553 56.5V49.0846H42.7634V56.5H35.2553Z" fill="url(#paint1_linear_8652_51014)"/>
<path d="M36.8774 46.1648L34.6992 23.8261H43.3195L41.0949 46.1648H36.8774ZM35.2553 56.5V49.0846H42.7634V56.5H35.2553Z" fill="black" fill-opacity="0.2"/>
<defs>
<linearGradient id="paint0_linear_8652_51014" x1="1.65625" y1="54.9065" x2="110.972" y2="4.06985" gradientUnits="userSpaceOnUse">
<stop stop-color="#662F88"/>
<stop offset="1" stop-color="#20BF55"/>
</linearGradient>
<linearGradient id="paint1_linear_8652_51014" x1="32.5039" y1="47.8131" x2="55.3642" y2="44.4423" gradientUnits="userSpaceOnUse">
<stop stop-color="#662F88"/>
<stop offset="1" stop-color="#20BF55"/>
</linearGradient>
</defs>
</svg>
