<svg width="17" height="16" viewBox="0 0 17 16" fill="none" xmlns="http://www.w3.org/2000/svg">
<path d="M9.95638 10.3697L9.79719 10.5871L7.26953 8.74354V4.38696H7.53542V8.36391V8.61941L7.74248 8.7691L9.95638 10.3697ZM12.2521 6.34908V6.11406H16.5009V6.34908H12.2521ZM12.2521 8.97349V8.73847H13.9151V8.97349H12.2521Z" fill="url(#paint0_linear_5893_5386)"/>
<path d="M9.95638 10.3697L9.79719 10.5871L7.26953 8.74354V4.38696H7.53542V8.36391V8.61941L7.74248 8.7691L9.95638 10.3697ZM12.2521 6.34908V6.11406H16.5009V6.34908H12.2521ZM12.2521 8.97349V8.73847H13.9151V8.97349H12.2521Z" fill="black" fill-opacity="0.2"/>
<path d="M9.95638 10.3697L9.79719 10.5871L7.26953 8.74354V4.38696H7.53542V8.36391V8.61941L7.74248 8.7691L9.95638 10.3697ZM12.2521 6.34908V6.11406H16.5009V6.34908H12.2521ZM12.2521 8.97349V8.73847H13.9151V8.97349H12.2521Z" stroke="url(#paint1_linear_5893_5386)"/>
<path d="M9.95638 10.3697L9.79719 10.5871L7.26953 8.74354V4.38696H7.53542V8.36391V8.61941L7.74248 8.7691L9.95638 10.3697ZM12.2521 6.34908V6.11406H16.5009V6.34908H12.2521ZM12.2521 8.97349V8.73847H13.9151V8.97349H12.2521Z" stroke="black" stroke-opacity="0.2"/>
<path d="M10.1384 13.6701C9.31787 14.0167 8.44697 14.1919 7.55099 14.1919C6.65324 14.1919 5.78217 14.0167 4.96317 13.6699C4.17205 13.3359 3.46029 12.8556 2.84979 12.2451C2.23923 11.6345 1.75888 10.9226 1.42482 10.1314C1.07807 9.3125 0.902917 8.44151 0.902917 7.54385C0.902917 6.64589 1.07819 5.77696 1.42471 4.95654L10.1384 13.6701ZM10.1384 13.6701C10.9297 13.336 11.6416 12.8557 12.2522 12.2451C12.5829 11.9143 12.8737 11.5546 13.1259 11.1681H13.5949C12.336 13.264 10.0608 14.589 7.54907 14.589C3.65138 14.589 0.492805 11.4266 0.500012 7.52934C0.507215 3.64156 3.74327 0.45192 7.63544 0.50055L7.63593 0.500555C10.1131 0.529087 12.3501 1.84893 13.5947 3.91964H13.1259C12.8737 3.53308 12.5829 3.17335 12.2522 2.84265C11.6417 2.23215 10.9299 1.75184 10.1388 1.41778C9.31982 1.07096 8.44874 0.895774 7.55099 0.895774C6.65535 0.895774 5.78242 1.0709 4.96343 1.41768C4.1722 1.75174 3.46035 2.23208 2.84979 2.84265C2.23918 3.45325 1.75882 4.16516 1.42475 4.95645L10.1384 13.6701ZM14.2992 10.9247C14.359 10.807 14.2722 10.6681 14.141 10.6681H13.0256C12.9175 10.6681 12.8153 10.724 12.7574 10.8166C12.5123 11.2045 12.2267 11.5634 11.8986 11.8915C11.3332 12.4569 10.6752 12.9007 9.94384 13.2095L14.2992 10.9247ZM13.8535 10.6982L13.8524 10.7003L13.8535 10.6982Z" fill="url(#paint2_linear_5893_5386)"/>
<path d="M10.1384 13.6701C9.31787 14.0167 8.44697 14.1919 7.55099 14.1919C6.65324 14.1919 5.78217 14.0167 4.96317 13.6699C4.17205 13.3359 3.46029 12.8556 2.84979 12.2451C2.23923 11.6345 1.75888 10.9226 1.42482 10.1314C1.07807 9.3125 0.902917 8.44151 0.902917 7.54385C0.902917 6.64589 1.07819 5.77696 1.42471 4.95654L10.1384 13.6701ZM10.1384 13.6701C10.9297 13.336 11.6416 12.8557 12.2522 12.2451C12.5829 11.9143 12.8737 11.5546 13.1259 11.1681H13.5949C12.336 13.264 10.0608 14.589 7.54907 14.589C3.65138 14.589 0.492805 11.4266 0.500012 7.52934C0.507215 3.64156 3.74327 0.45192 7.63544 0.50055L7.63593 0.500555C10.1131 0.529087 12.3501 1.84893 13.5947 3.91964H13.1259C12.8737 3.53308 12.5829 3.17335 12.2522 2.84265C11.6417 2.23215 10.9299 1.75184 10.1388 1.41778C9.31982 1.07096 8.44874 0.895774 7.55099 0.895774C6.65535 0.895774 5.78242 1.0709 4.96343 1.41768C4.1722 1.75174 3.46035 2.23208 2.84979 2.84265C2.23918 3.45325 1.75882 4.16516 1.42475 4.95645L10.1384 13.6701ZM14.2992 10.9247C14.359 10.807 14.2722 10.6681 14.141 10.6681H13.0256C12.9175 10.6681 12.8153 10.724 12.7574 10.8166C12.5123 11.2045 12.2267 11.5634 11.8986 11.8915C11.3332 12.4569 10.6752 12.9007 9.94384 13.2095L14.2992 10.9247ZM13.8535 10.6982L13.8524 10.7003L13.8535 10.6982Z" fill="black" fill-opacity="0.2"/>
<path d="M10.1384 13.6701C9.31787 14.0167 8.44697 14.1919 7.55099 14.1919C6.65324 14.1919 5.78217 14.0167 4.96317 13.6699C4.17205 13.3359 3.46029 12.8556 2.84979 12.2451C2.23923 11.6345 1.75888 10.9226 1.42482 10.1314C1.07807 9.3125 0.902917 8.44151 0.902917 7.54385C0.902917 6.64589 1.07819 5.77696 1.42471 4.95654L10.1384 13.6701ZM10.1384 13.6701C10.9297 13.336 11.6416 12.8557 12.2522 12.2451C12.5829 11.9143 12.8737 11.5546 13.1259 11.1681H13.5949C12.336 13.264 10.0608 14.589 7.54907 14.589C3.65138 14.589 0.492805 11.4266 0.500012 7.52934C0.507215 3.64156 3.74327 0.45192 7.63544 0.50055L7.63593 0.500555C10.1131 0.529087 12.3501 1.84893 13.5947 3.91964H13.1259C12.8737 3.53308 12.5829 3.17335 12.2522 2.84265C11.6417 2.23215 10.9299 1.75184 10.1388 1.41778C9.31982 1.07096 8.44874 0.895774 7.55099 0.895774C6.65535 0.895774 5.78242 1.0709 4.96343 1.41768C4.1722 1.75174 3.46035 2.23208 2.84979 2.84265C2.23918 3.45325 1.75882 4.16516 1.42475 4.95645L10.1384 13.6701ZM14.2992 10.9247C14.359 10.807 14.2722 10.6681 14.141 10.6681H13.0256C12.9175 10.6681 12.8153 10.724 12.7574 10.8166C12.5123 11.2045 12.2267 11.5634 11.8986 11.8915C11.3332 12.4569 10.6752 12.9007 9.94384 13.2095L14.2992 10.9247ZM13.8535 10.6982L13.8524 10.7003L13.8535 10.6982Z" stroke="url(#paint3_linear_5893_5386)"/>
<path d="M10.1384 13.6701C9.31787 14.0167 8.44697 14.1919 7.55099 14.1919C6.65324 14.1919 5.78217 14.0167 4.96317 13.6699C4.17205 13.3359 3.46029 12.8556 2.84979 12.2451C2.23923 11.6345 1.75888 10.9226 1.42482 10.1314C1.07807 9.3125 0.902917 8.44151 0.902917 7.54385C0.902917 6.64589 1.07819 5.77696 1.42471 4.95654L10.1384 13.6701ZM10.1384 13.6701C10.9297 13.336 11.6416 12.8557 12.2522 12.2451C12.5829 11.9143 12.8737 11.5546 13.1259 11.1681H13.5949C12.336 13.264 10.0608 14.589 7.54907 14.589C3.65138 14.589 0.492805 11.4266 0.500012 7.52934C0.507215 3.64156 3.74327 0.45192 7.63544 0.50055L7.63593 0.500555C10.1131 0.529087 12.3501 1.84893 13.5947 3.91964H13.1259C12.8737 3.53308 12.5829 3.17335 12.2522 2.84265C11.6417 2.23215 10.9299 1.75184 10.1388 1.41778C9.31982 1.07096 8.44874 0.895774 7.55099 0.895774C6.65535 0.895774 5.78242 1.0709 4.96343 1.41768C4.1722 1.75174 3.46035 2.23208 2.84979 2.84265C2.23918 3.45325 1.75882 4.16516 1.42475 4.95645L10.1384 13.6701ZM14.2992 10.9247C14.359 10.807 14.2722 10.6681 14.141 10.6681H13.0256C12.9175 10.6681 12.8153 10.724 12.7574 10.8166C12.5123 11.2045 12.2267 11.5634 11.8986 11.8915C11.3332 12.4569 10.6752 12.9007 9.94384 13.2095L14.2992 10.9247ZM13.8535 10.6982L13.8524 10.7003L13.8535 10.6982Z" stroke="black" stroke-opacity="0.2"/>
<defs>
<linearGradient id="paint0_linear_5893_5386" x1="6.76953" y1="9.11518" x2="19.6847" y2="0.711851" gradientUnits="userSpaceOnUse">
<stop stop-color="#662F88"/>
<stop offset="1" stop-color="#20BF55"/>
</linearGradient>
<linearGradient id="paint1_linear_5893_5386" x1="6.76953" y1="9.11518" x2="19.6847" y2="0.711851" gradientUnits="userSpaceOnUse">
<stop stop-color="#662F88"/>
<stop offset="1" stop-color="#20BF55"/>
</linearGradient>
<linearGradient id="paint2_linear_5893_5386" x1="6.79652e-07" y1="10.788" x2="21.5331" y2="1.28532" gradientUnits="userSpaceOnUse">
<stop stop-color="#662F88"/>
<stop offset="1" stop-color="#20BF55"/>
</linearGradient>
<linearGradient id="paint3_linear_5893_5386" x1="6.79652e-07" y1="10.788" x2="21.5331" y2="1.28532" gradientUnits="userSpaceOnUse">
<stop stop-color="#662F88"/>
<stop offset="1" stop-color="#20BF55"/>
</linearGradient>
</defs>
</svg>
