<svg width="23" height="18" viewBox="0 0 23 18" fill="none" xmlns="http://www.w3.org/2000/svg">
<path d="M23 16.5368C23 16.7286 22.9289 16.8946 22.7866 17.0348C22.6444 17.175 22.4759 17.2451 22.2812 17.2451C22.0866 17.2451 21.9181 17.175 21.7759 17.0348C21.6336 16.8946 21.5625 16.7286 21.5625 16.5368V7.21777L13.6338 11.1357C13.0348 11.4309 12.3236 11.5785 11.5 11.5785C10.6764 11.5785 9.96517 11.4309 9.36621 11.1357L0.875977 6.95215C0.291992 6.65701 0 6.30653 0 5.90072C0 5.4949 0.291992 5.1518 0.875977 4.87142L9.36621 0.687826C9.96517 0.392687 10.6764 0.245117 11.5 0.245117C12.3236 0.245117 13.0348 0.392687 13.6338 0.687826L22.124 4.87142C22.6331 5.12229 22.9176 5.43218 22.9775 5.80111C22.9925 5.81586 23 5.84538 23 5.88965V16.5368ZM14.3525 12.5524L18.6875 10.4053V13.5264C18.6875 14.1609 17.9875 14.7032 16.5874 15.1533C15.1873 15.6034 13.4915 15.8285 11.5 15.8285C9.50846 15.8285 7.81266 15.6034 6.4126 15.1533C5.01253 14.7032 4.3125 14.1609 4.3125 13.5264V10.4053L8.64746 12.5524C9.24642 12.8475 10.1973 12.9951 11.5 12.9951C12.8027 12.9951 13.7536 12.8475 14.3525 12.5524Z" fill="url(#paint0_linear_371_4272)"/>
<path d="M23 16.5368C23 16.7286 22.9289 16.8946 22.7866 17.0348C22.6444 17.175 22.4759 17.2451 22.2812 17.2451C22.0866 17.2451 21.9181 17.175 21.7759 17.0348C21.6336 16.8946 21.5625 16.7286 21.5625 16.5368V7.21777L13.6338 11.1357C13.0348 11.4309 12.3236 11.5785 11.5 11.5785C10.6764 11.5785 9.96517 11.4309 9.36621 11.1357L0.875977 6.95215C0.291992 6.65701 0 6.30653 0 5.90072C0 5.4949 0.291992 5.1518 0.875977 4.87142L9.36621 0.687826C9.96517 0.392687 10.6764 0.245117 11.5 0.245117C12.3236 0.245117 13.0348 0.392687 13.6338 0.687826L22.124 4.87142C22.6331 5.12229 22.9176 5.43218 22.9775 5.80111C22.9925 5.81586 23 5.84538 23 5.88965V16.5368ZM14.3525 12.5524L18.6875 10.4053V13.5264C18.6875 14.1609 17.9875 14.7032 16.5874 15.1533C15.1873 15.6034 13.4915 15.8285 11.5 15.8285C9.50846 15.8285 7.81266 15.6034 6.4126 15.1533C5.01253 14.7032 4.3125 14.1609 4.3125 13.5264V10.4053L8.64746 12.5524C9.24642 12.8475 10.1973 12.9951 11.5 12.9951C12.8027 12.9951 13.7536 12.8475 14.3525 12.5524Z" fill="black" fill-opacity="0.2"/>
<defs>
<linearGradient id="paint0_linear_371_4272" x1="1.09172e-06" y1="12.3993" x2="29.6049" y2="-6.22744" gradientUnits="userSpaceOnUse">
<stop stop-color="#662F88"/>
<stop offset="1" stop-color="#20BF55"/>
</linearGradient>
</defs>
</svg>
