<svg width="38" height="38" viewBox="0 0 38 38" fill="none" xmlns="http://www.w3.org/2000/svg">
<g filter="url(#filter0_d_5893_5395)">
<circle cx="19" cy="18" r="15" fill="#1B1D39"/>
</g>
<path d="M28 12.6574C27.3306 12.9385 26.6174 13.1248 25.8737 13.2152C26.6388 12.778 27.2226 12.0909 27.4971 11.2628C26.7839 11.6698 25.9964 11.9574 25.1571 12.1178C24.4799 11.4275 23.5146 11 22.4616 11C20.4186 11 18.7739 12.5874 18.7739 14.5334C18.7739 14.8134 18.7986 15.0826 18.8594 15.3389C15.7915 15.1957 13.0769 13.7882 11.2533 11.644C10.9349 12.1728 10.7481 12.778 10.7481 13.4295C10.7481 14.6529 11.4062 15.7374 12.3872 16.3652C11.7944 16.3545 11.2127 16.1897 10.72 15.9302C10.72 15.9409 10.72 15.9549 10.72 15.9689C10.72 17.6855 11.9991 19.1114 13.6765 19.4398C13.3761 19.5185 13.0487 19.5562 12.709 19.5562C12.4727 19.5562 12.2342 19.5432 12.0104 19.4958C12.4885 20.8948 13.8453 21.9232 15.4585 21.9566C14.203 22.8968 12.6089 23.4632 10.8831 23.4632C10.5805 23.4632 10.2902 23.4503 10 23.4148C11.6346 24.4238 13.5719 25 15.661 25C22.4515 25 26.164 19.6154 26.164 14.948C26.164 14.7918 26.1584 14.6411 26.1505 14.4914C26.8829 13.9938 27.4982 13.3725 28 12.6574Z" fill="white"/>
<defs>
<filter id="filter0_d_5893_5395" x="0" y="0" width="38" height="38" filterUnits="userSpaceOnUse" color-interpolation-filters="sRGB">
<feFlood flood-opacity="0" result="BackgroundImageFix"/>
<feColorMatrix in="SourceAlpha" type="matrix" values="0 0 0 0 0 0 0 0 0 0 0 0 0 0 0 0 0 0 127 0" result="hardAlpha"/>
<feOffset dy="1"/>
<feGaussianBlur stdDeviation="2"/>
<feColorMatrix type="matrix" values="0 0 0 0 0 0 0 0 0 0 0 0 0 0 0 0 0 0 0.08 0"/>
<feBlend mode="normal" in2="BackgroundImageFix" result="effect1_dropShadow_5893_5395"/>
<feBlend mode="normal" in="SourceGraphic" in2="effect1_dropShadow_5893_5395" result="shape"/>
</filter>
</defs>
</svg>
