<svg width="14" height="13" viewBox="0 0 14 13" fill="none" xmlns="http://www.w3.org/2000/svg">
<path d="M6.66694 0.906617L7 1.20407L7.33306 0.906617C7.62326 0.647443 8.00377 0.501502 8.40088 0.5H13.3C13.3567 0.5 13.4088 0.522114 13.4455 0.557964C13.4818 0.593435 13.5 0.639087 13.5 0.684219V10.9475C13.5 10.9926 13.4818 11.0383 13.4455 11.0738C13.4088 11.1096 13.3567 11.1317 13.3 11.1317L9.2694 11.1317L9.26779 11.1317C8.76881 11.1333 8.28837 11.327 7.93115 11.6741L7.9301 11.6751L7.17616 12.4121C7.16436 12.4209 7.15139 12.4315 7.13786 12.4438C7.11389 12.4651 7.09732 12.476 7.08664 12.4816L7.07913 12.4847C7.02867 12.5051 6.97133 12.5051 6.92087 12.4847L6.91336 12.4816C6.90271 12.476 6.88619 12.4652 6.86231 12.444C6.84873 12.4316 6.83569 12.421 6.82384 12.4121L6.0699 11.6751C5.71503 11.3283 5.22796 11.1317 4.7306 11.1317H0.7C0.643325 11.1317 0.591202 11.1096 0.554525 11.0738C0.518236 11.0383 0.5 10.9926 0.5 10.9475V0.684219C0.5 0.639088 0.518235 0.593436 0.554525 0.557964C0.591202 0.522114 0.643325 0.5 0.7 0.5H5.59912C5.99623 0.501502 6.37674 0.647442 6.66694 0.906617ZM7.2406 12.3703L7.23592 12.373C7.23932 12.371 7.24214 12.3695 7.2406 12.3703ZM6.75941 12.3703C6.75787 12.3695 6.76069 12.371 6.76409 12.373L6.75941 12.3703ZM0.9 10.2633V10.7633H1.4H4.72974C5.1923 10.7648 5.64309 10.9006 6.02484 11.1522L6.8 11.6631V10.7347V2.05266C6.8 1.38915 6.25206 0.868439 5.6 0.868439H1.4H0.9V1.36844V10.2633ZM12.6 10.7633H13.1V10.2633V1.36844V0.868439H12.6H8.4C7.74794 0.868439 7.2 1.38915 7.2 2.05266V10.7347V11.6623L7.97486 11.1524C8.35514 10.9021 8.80932 10.7633 9.2694 10.7633H12.6Z" fill="url(#paint0_linear_5893_5377)"/>
<path d="M6.66694 0.906617L7 1.20407L7.33306 0.906617C7.62326 0.647443 8.00377 0.501502 8.40088 0.5H13.3C13.3567 0.5 13.4088 0.522114 13.4455 0.557964C13.4818 0.593435 13.5 0.639087 13.5 0.684219V10.9475C13.5 10.9926 13.4818 11.0383 13.4455 11.0738C13.4088 11.1096 13.3567 11.1317 13.3 11.1317L9.2694 11.1317L9.26779 11.1317C8.76881 11.1333 8.28837 11.327 7.93115 11.6741L7.9301 11.6751L7.17616 12.4121C7.16436 12.4209 7.15139 12.4315 7.13786 12.4438C7.11389 12.4651 7.09732 12.476 7.08664 12.4816L7.07913 12.4847C7.02867 12.5051 6.97133 12.5051 6.92087 12.4847L6.91336 12.4816C6.90271 12.476 6.88619 12.4652 6.86231 12.444C6.84873 12.4316 6.83569 12.421 6.82384 12.4121L6.0699 11.6751C5.71503 11.3283 5.22796 11.1317 4.7306 11.1317H0.7C0.643325 11.1317 0.591202 11.1096 0.554525 11.0738C0.518236 11.0383 0.5 10.9926 0.5 10.9475V0.684219C0.5 0.639088 0.518235 0.593436 0.554525 0.557964C0.591202 0.522114 0.643325 0.5 0.7 0.5H5.59912C5.99623 0.501502 6.37674 0.647442 6.66694 0.906617ZM7.2406 12.3703L7.23592 12.373C7.23932 12.371 7.24214 12.3695 7.2406 12.3703ZM6.75941 12.3703C6.75787 12.3695 6.76069 12.371 6.76409 12.373L6.75941 12.3703ZM0.9 10.2633V10.7633H1.4H4.72974C5.1923 10.7648 5.64309 10.9006 6.02484 11.1522L6.8 11.6631V10.7347V2.05266C6.8 1.38915 6.25206 0.868439 5.6 0.868439H1.4H0.9V1.36844V10.2633ZM12.6 10.7633H13.1V10.2633V1.36844V0.868439H12.6H8.4C7.74794 0.868439 7.2 1.38915 7.2 2.05266V10.7347V11.6623L7.97486 11.1524C8.35514 10.9021 8.80932 10.7633 9.2694 10.7633H12.6Z" fill="black" fill-opacity="0.2"/>
<path d="M6.66694 0.906617L7 1.20407L7.33306 0.906617C7.62326 0.647443 8.00377 0.501502 8.40088 0.5H13.3C13.3567 0.5 13.4088 0.522114 13.4455 0.557964C13.4818 0.593435 13.5 0.639087 13.5 0.684219V10.9475C13.5 10.9926 13.4818 11.0383 13.4455 11.0738C13.4088 11.1096 13.3567 11.1317 13.3 11.1317L9.2694 11.1317L9.26779 11.1317C8.76881 11.1333 8.28837 11.327 7.93115 11.6741L7.9301 11.6751L7.17616 12.4121C7.16436 12.4209 7.15139 12.4315 7.13786 12.4438C7.11389 12.4651 7.09732 12.476 7.08664 12.4816L7.07913 12.4847C7.02867 12.5051 6.97133 12.5051 6.92087 12.4847L6.91336 12.4816C6.90271 12.476 6.88619 12.4652 6.86231 12.444C6.84873 12.4316 6.83569 12.421 6.82384 12.4121L6.0699 11.6751C5.71503 11.3283 5.22796 11.1317 4.7306 11.1317H0.7C0.643325 11.1317 0.591202 11.1096 0.554525 11.0738C0.518236 11.0383 0.5 10.9926 0.5 10.9475V0.684219C0.5 0.639088 0.518235 0.593436 0.554525 0.557964C0.591202 0.522114 0.643325 0.5 0.7 0.5H5.59912C5.99623 0.501502 6.37674 0.647442 6.66694 0.906617ZM7.2406 12.3703L7.23592 12.373C7.23932 12.371 7.24214 12.3695 7.2406 12.3703ZM6.75941 12.3703C6.75787 12.3695 6.76069 12.371 6.76409 12.373L6.75941 12.3703ZM0.9 10.2633V10.7633H1.4H4.72974C5.1923 10.7648 5.64309 10.9006 6.02484 11.1522L6.8 11.6631V10.7347V2.05266C6.8 1.38915 6.25206 0.868439 5.6 0.868439H1.4H0.9V1.36844V10.2633ZM12.6 10.7633H13.1V10.2633V1.36844V0.868439H12.6H8.4C7.74794 0.868439 7.2 1.38915 7.2 2.05266V10.7347V11.6623L7.97486 11.1524C8.35514 10.9021 8.80932 10.7633 9.2694 10.7633H12.6Z" stroke="url(#paint1_linear_5893_5377)"/>
<path d="M6.66694 0.906617L7 1.20407L7.33306 0.906617C7.62326 0.647443 8.00377 0.501502 8.40088 0.5H13.3C13.3567 0.5 13.4088 0.522114 13.4455 0.557964C13.4818 0.593435 13.5 0.639087 13.5 0.684219V10.9475C13.5 10.9926 13.4818 11.0383 13.4455 11.0738C13.4088 11.1096 13.3567 11.1317 13.3 11.1317L9.2694 11.1317L9.26779 11.1317C8.76881 11.1333 8.28837 11.327 7.93115 11.6741L7.9301 11.6751L7.17616 12.4121C7.16436 12.4209 7.15139 12.4315 7.13786 12.4438C7.11389 12.4651 7.09732 12.476 7.08664 12.4816L7.07913 12.4847C7.02867 12.5051 6.97133 12.5051 6.92087 12.4847L6.91336 12.4816C6.90271 12.476 6.88619 12.4652 6.86231 12.444C6.84873 12.4316 6.83569 12.421 6.82384 12.4121L6.0699 11.6751C5.71503 11.3283 5.22796 11.1317 4.7306 11.1317H0.7C0.643325 11.1317 0.591202 11.1096 0.554525 11.0738C0.518236 11.0383 0.5 10.9926 0.5 10.9475V0.684219C0.5 0.639088 0.518235 0.593436 0.554525 0.557964C0.591202 0.522114 0.643325 0.5 0.7 0.5H5.59912C5.99623 0.501502 6.37674 0.647442 6.66694 0.906617ZM7.2406 12.3703L7.23592 12.373C7.23932 12.371 7.24214 12.3695 7.2406 12.3703ZM6.75941 12.3703C6.75787 12.3695 6.76069 12.371 6.76409 12.373L6.75941 12.3703ZM0.9 10.2633V10.7633H1.4H4.72974C5.1923 10.7648 5.64309 10.9006 6.02484 11.1522L6.8 11.6631V10.7347V2.05266C6.8 1.38915 6.25206 0.868439 5.6 0.868439H1.4H0.9V1.36844V10.2633ZM12.6 10.7633H13.1V10.2633V1.36844V0.868439H12.6H8.4C7.74794 0.868439 7.2 1.38915 7.2 2.05266V10.7347V11.6623L7.97486 11.1524C8.35514 10.9021 8.80932 10.7633 9.2694 10.7633H12.6Z" stroke="black" stroke-opacity="0.2"/>
<defs>
<linearGradient id="paint0_linear_5893_5377" x1="6.64524e-07" y1="9.29439" x2="20.11" y2="-0.777077" gradientUnits="userSpaceOnUse">
<stop stop-color="#662F88"/>
<stop offset="1" stop-color="#20BF55"/>
</linearGradient>
<linearGradient id="paint1_linear_5893_5377" x1="6.64524e-07" y1="9.29439" x2="20.11" y2="-0.777077" gradientUnits="userSpaceOnUse">
<stop stop-color="#662F88"/>
<stop offset="1" stop-color="#20BF55"/>
</linearGradient>
</defs>
</svg>
