<svg width="20" height="21" viewBox="0 0 20 21" fill="none" xmlns="http://www.w3.org/2000/svg">
<path d="M10 0.245117C4.486 0.245117 0 4.73112 0 10.2451C0 15.7591 4.486 20.2451 10 20.2451C15.514 20.2451 20 15.7591 20 10.2451C20 4.73112 15.514 0.245117 10 0.245117ZM13.293 14.9521L9 10.6591V4.24512H11V9.83112L14.707 13.5381L13.293 14.9521Z" fill="url(#paint0_linear_371_4261)"/>
<path d="M10 0.245117C4.486 0.245117 0 4.73112 0 10.2451C0 15.7591 4.486 20.2451 10 20.2451C15.514 20.2451 20 15.7591 20 10.2451C20 4.73112 15.514 0.245117 10 0.245117ZM13.293 14.9521L9 10.6591V4.24512H11V9.83112L14.707 13.5381L13.293 14.9521Z" fill="black" fill-opacity="0.2"/>
<defs>
<linearGradient id="paint0_linear_371_4261" x1="9.4932e-07" y1="14.5442" x2="29.5447" y2="0.804537" gradientUnits="userSpaceOnUse">
<stop stop-color="#662F88"/>
<stop offset="1" stop-color="#20BF55"/>
</linearGradient>
</defs>
</svg>
