<svg width="20" height="22" viewBox="0 0 20 22" fill="none" xmlns="http://www.w3.org/2000/svg">
<path d="M15 9.24512C15.34 9.24512 15.67 9.27512 16 9.32512V2.24512C16 1.14512 15.1 0.245117 14 0.245117H2C0.9 0.245117 0 1.14512 0 2.24512V18.2451C0 19.3451 0.9 20.2451 2 20.2451H9.26C8.5275 19.1962 8.0967 17.9665 8.01445 16.6898C7.9322 15.4131 8.20166 14.1383 8.79352 13.0041C9.38537 11.8699 10.277 10.9197 11.3712 10.2569C12.4655 9.59416 13.7206 9.2442 15 9.24512ZM4 9.24512V2.24512H9V9.24512L6.5 7.74512L4 9.24512Z" fill="url(#paint0_linear_371_4267)"/>
<path d="M15 9.24512C15.34 9.24512 15.67 9.27512 16 9.32512V2.24512C16 1.14512 15.1 0.245117 14 0.245117H2C0.9 0.245117 0 1.14512 0 2.24512V18.2451C0 19.3451 0.9 20.2451 2 20.2451H9.26C8.5275 19.1962 8.0967 17.9665 8.01445 16.6898C7.9322 15.4131 8.20166 14.1383 8.79352 13.0041C9.38537 11.8699 10.277 10.9197 11.3712 10.2569C12.4655 9.59416 13.7206 9.2442 15 9.24512ZM4 9.24512V2.24512H9V9.24512L6.5 7.74512L4 9.24512Z" fill="black" fill-opacity="0.2"/>
<path d="M15 11.2451C12.24 11.2451 10 13.4851 10 16.2451C10 19.0051 12.24 21.2451 15 21.2451C17.76 21.2451 20 19.0051 20 16.2451C20 13.4851 17.76 11.2451 15 11.2451ZM13.75 18.7451V13.7451L17.75 16.2451L13.75 18.7451Z" fill="url(#paint1_linear_371_4267)"/>
<path d="M15 11.2451C12.24 11.2451 10 13.4851 10 16.2451C10 19.0051 12.24 21.2451 15 21.2451C17.76 21.2451 20 19.0051 20 16.2451C20 13.4851 17.76 11.2451 15 11.2451ZM13.75 18.7451V13.7451L17.75 16.2451L13.75 18.7451Z" fill="black" fill-opacity="0.2"/>
<defs>
<linearGradient id="paint0_linear_371_4267" x1="7.59456e-07" y1="14.5442" x2="25.2522" y2="5.14943" gradientUnits="userSpaceOnUse">
<stop stop-color="#662F88"/>
<stop offset="1" stop-color="#20BF55"/>
</linearGradient>
<linearGradient id="paint1_linear_371_4267" x1="10" y1="18.3947" x2="24.7724" y2="11.5248" gradientUnits="userSpaceOnUse">
<stop stop-color="#662F88"/>
<stop offset="1" stop-color="#20BF55"/>
</linearGradient>
</defs>
</svg>
