<svg width="109" height="49" viewBox="0 0 109 49" fill="none" xmlns="http://www.w3.org/2000/svg">
<path fill-rule="evenodd" clip-rule="evenodd" d="M68.7852 16.5218C68.7852 17.2122 68.2255 17.7718 67.5352 17.7718H42.0352C41.3448 17.7718 40.7852 17.2122 40.7852 16.5218C40.7852 15.3718 41.5692 14.4385 42.5352 14.4385H67.0352C68.0012 14.4385 68.7852 15.3718 68.7852 16.5218ZM64.7852 21.9385C66.9943 21.9385 68.7852 23.7293 68.7852 25.9385V32.7718C68.7852 33.2138 68.6008 33.6378 68.2726 33.9503C67.9444 34.2629 67.4993 34.4385 67.0352 34.4385H42.5352C42.071 34.4385 41.6259 34.2629 41.2977 33.9503C40.9695 33.6378 40.7852 33.2138 40.7852 32.7718V25.9385C40.7852 23.7293 42.576 21.9385 44.7852 21.9385H64.7852ZM47.7852 27.7718C47.321 27.7718 46.8759 27.9474 46.5477 28.26C46.2195 28.5725 46.0352 28.9964 46.0352 29.4385C46.0352 29.8805 46.2195 30.3044 46.5477 30.617C46.8759 30.9295 47.321 31.1051 47.7852 31.1051H49.5352C49.9993 31.1051 50.4444 30.9295 50.7726 30.617C51.1008 30.3044 51.2852 29.8805 51.2852 29.4385C51.2852 28.9964 51.1008 28.5725 50.7726 28.26C50.4444 27.9474 49.9993 27.7718 49.5352 27.7718H47.7852Z" fill="url(#paint0_linear_490_13047)"/>
<path fill-rule="evenodd" clip-rule="evenodd" d="M68.7852 16.5218C68.7852 17.2122 68.2255 17.7718 67.5352 17.7718H42.0352C41.3448 17.7718 40.7852 17.2122 40.7852 16.5218C40.7852 15.3718 41.5692 14.4385 42.5352 14.4385H67.0352C68.0012 14.4385 68.7852 15.3718 68.7852 16.5218ZM64.7852 21.9385C66.9943 21.9385 68.7852 23.7293 68.7852 25.9385V32.7718C68.7852 33.2138 68.6008 33.6378 68.2726 33.9503C67.9444 34.2629 67.4993 34.4385 67.0352 34.4385H42.5352C42.071 34.4385 41.6259 34.2629 41.2977 33.9503C40.9695 33.6378 40.7852 33.2138 40.7852 32.7718V25.9385C40.7852 23.7293 42.576 21.9385 44.7852 21.9385H64.7852ZM47.7852 27.7718C47.321 27.7718 46.8759 27.9474 46.5477 28.26C46.2195 28.5725 46.0352 28.9964 46.0352 29.4385C46.0352 29.8805 46.2195 30.3044 46.5477 30.617C46.8759 30.9295 47.321 31.1051 47.7852 31.1051H49.5352C49.9993 31.1051 50.4444 30.9295 50.7726 30.617C51.1008 30.3044 51.2852 29.8805 51.2852 29.4385C51.2852 28.9964 51.1008 28.5725 50.7726 28.26C50.4444 27.9474 49.9993 27.7718 49.5352 27.7718H47.7852Z" fill="black" fill-opacity="0.2"/>
<rect x="1.78516" y="1.43848" width="106" height="46" rx="2" stroke="url(#paint1_linear_490_13047)" stroke-width="2"/>
<defs>
<linearGradient id="paint0_linear_490_13047" x1="40.7852" y1="28.7375" x2="76.1167" y2="5.73446" gradientUnits="userSpaceOnUse">
<stop stop-color="#662F88"/>
<stop offset="1" stop-color="#20BF55"/>
</linearGradient>
<linearGradient id="paint1_linear_490_13047" x1="24.7852" y1="0.438474" x2="108.785" y2="64.4385" gradientUnits="userSpaceOnUse">
<stop stop-color="#662F88"/>
<stop offset="1" stop-color="#20BF55" stop-opacity="0.5"/>
</linearGradient>
</defs>
</svg>
