<svg width="109" height="49" viewBox="0 0 109 49" fill="none" xmlns="http://www.w3.org/2000/svg">
<path fill-rule="evenodd" clip-rule="evenodd" d="M29.7146 15.4385H24.575C24.2233 15.4385 23.9242 15.6981 23.8692 16.0509L21.7905 29.4394C21.7493 29.7038 21.9507 29.9418 22.2145 29.9418H24.6681C25.0198 29.9418 25.3189 29.6824 25.3739 29.3289L25.9344 25.7177C25.9885 25.3642 26.2883 25.1046 26.6394 25.1046H28.2663C31.6518 25.1046 33.6056 23.4402 34.1161 20.1422C34.346 18.6992 34.1258 17.5656 33.4606 16.7716C32.7302 15.8997 31.4346 15.4385 29.7146 15.4385ZM30.3079 20.3284C30.0269 22.2019 28.6178 22.2019 27.2555 22.2019H26.4798L27.0239 18.703C27.0564 18.4915 27.2366 18.3358 27.4471 18.3358H27.8026C28.7307 18.3358 29.6061 18.3358 30.0585 18.8732C30.3284 19.1938 30.4109 19.6702 30.3079 20.3284Z" fill="#28356A"/>
<path fill-rule="evenodd" clip-rule="evenodd" d="M45.2076 20.1669H42.7465C42.5368 20.1669 42.3556 20.3226 42.3234 20.534L42.2143 21.2333L42.0424 20.9799C41.5096 20.1942 40.3213 19.9316 39.1356 19.9316C36.4157 19.9316 34.0929 22.0243 33.6405 24.9598C33.4054 26.424 33.7396 27.8243 34.5574 28.8007C35.3074 29.6984 36.3806 30.0727 37.6572 30.0727C39.8487 30.0727 41.0637 28.6412 41.0637 28.6412L40.9541 29.336C40.9128 29.6016 41.1143 29.8398 41.3765 29.8398H43.5933C43.9459 29.8398 44.2435 29.5802 44.2991 29.2267L45.6293 20.6692C45.6714 20.4057 45.4705 20.1669 45.2076 20.1669ZM41.7791 25.0332C41.5416 26.4615 40.4258 27.4204 39.0024 27.4204C38.2877 27.4204 37.7167 27.1875 37.3498 26.7463C36.986 26.3082 36.8479 25.6844 36.9635 24.9896C37.1854 23.5735 38.3199 22.5832 39.7217 22.5832C40.4205 22.5832 40.9886 22.8192 41.3629 23.264C41.7378 23.7138 41.8866 24.3414 41.7791 25.0332Z" fill="#28356A"/>
<path fill-rule="evenodd" clip-rule="evenodd" d="M58.1286 20.3813H55.6553C55.4193 20.3813 55.1976 20.5005 55.064 20.6998L51.6528 25.8041L50.2069 20.8989C50.116 20.592 49.8373 20.3813 49.5215 20.3813H47.0913C46.7958 20.3813 46.5907 20.6745 46.6846 20.957L49.4089 29.0785L46.8478 32.7515C46.6463 33.0408 46.8492 33.4386 47.1972 33.4386H49.6674C49.9019 33.4386 50.1212 33.3225 50.2543 33.1272L58.4802 21.0646C58.6772 20.7761 58.4749 20.3813 58.1286 20.3813Z" fill="#28356A"/>
<path fill-rule="evenodd" clip-rule="evenodd" d="M66.3721 15.4385H61.2319C60.881 15.4385 60.5819 15.6981 60.5269 16.0509L58.4482 29.4394C58.407 29.7038 58.6084 29.9418 58.8707 29.9418H61.5085C61.7533 29.9418 61.963 29.7602 62.0013 29.5128L62.5913 25.7177C62.6454 25.3642 62.9454 25.1046 63.2963 25.1046H64.9226C68.3087 25.1046 70.2619 23.4402 70.773 20.1422C71.0037 18.6992 70.782 17.5656 70.1169 16.7716C69.3871 15.8997 68.0923 15.4385 66.3721 15.4385ZM66.965 20.3284C66.6846 22.2019 65.2755 22.2019 63.9123 22.2019H63.1377L63.6824 18.703C63.7146 18.4915 63.8936 18.3358 64.1047 18.3358H64.4602C65.3875 18.3358 66.2638 18.3358 66.7162 18.8732C66.986 19.1938 67.0679 19.6702 66.965 20.3284Z" fill="#298FC2"/>
<path fill-rule="evenodd" clip-rule="evenodd" d="M81.8635 20.1669H79.4038C79.1927 20.1669 79.0131 20.3226 78.9816 20.534L78.8725 21.2333L78.6997 20.9799C78.1669 20.1942 76.9795 19.9316 75.7935 19.9316C73.0739 19.9316 70.7519 22.0243 70.2995 24.9598C70.065 26.424 70.3978 27.8243 71.2154 28.8007C71.9671 29.6984 73.0385 30.0727 74.3154 30.0727C76.5067 30.0727 77.7219 28.6412 77.7219 28.6412L77.6123 29.336C77.571 29.6016 77.7722 29.8398 78.0362 29.8398H80.2523C80.6032 29.8398 80.9024 29.5802 80.9573 29.2267L82.2881 20.6692C82.3287 20.4057 82.1273 20.1669 81.8635 20.1669ZM78.4315 25.0332C78.1956 26.4615 77.078 27.4204 75.6546 27.4204C74.9415 27.4204 74.3689 27.1875 74.002 26.7463C73.6385 26.3082 73.5017 25.6844 73.6157 24.9896C73.8391 23.5735 74.9722 22.5832 76.3739 22.5832C77.0728 22.5832 77.6409 22.8192 78.0152 23.264C78.3915 23.7138 78.5404 24.3414 78.4315 25.0332Z" fill="#298FC2"/>
<path fill-rule="evenodd" clip-rule="evenodd" d="M84.5606 15.8065L82.4512 29.4401C82.4099 29.7044 82.6112 29.9424 82.8734 29.9424H84.9942C85.3468 29.9424 85.6457 29.683 85.6998 29.3295L87.78 15.9417C87.8214 15.6773 87.62 15.4385 87.3577 15.4385H84.9831C84.7734 15.4391 84.593 15.595 84.5606 15.8065Z" fill="#298FC2"/>
<rect x="1.78516" y="1.43848" width="106" height="46" rx="2" stroke="#A7A7A7" stroke-width="2"/>
</svg>
