<svg width="14" height="18" viewBox="0 0 14 18" fill="none" xmlns="http://www.w3.org/2000/svg">
<path d="M2.12968 0.460064L3.32573 0.0998062C3.87019 -0.0644541 4.45582 -0.024964 4.9733 0.210905C5.49078 0.446774 5.90474 0.8629 6.13791 1.3816L6.8822 3.03735C7.08276 3.48339 7.13863 3.98104 7.04197 4.46045C6.94531 4.93986 6.70098 5.37698 6.34325 5.71047L5.04272 6.92309C5.02665 6.9381 5.01346 6.95593 5.00381 6.97569C4.86764 7.25381 5.07442 7.99666 5.72217 9.11923C6.45277 10.3845 7.01694 10.8845 7.27848 10.8074L8.98539 10.285C9.45284 10.1423 9.95325 10.1494 10.4165 10.3053C10.8797 10.4613 11.2825 10.7583 11.5684 11.1547L12.6262 12.6195C12.9582 13.0794 13.1121 13.6443 13.059 14.2091C13.006 14.7739 12.7498 15.3002 12.3379 15.6903L11.4279 16.5514C11.1115 16.8511 10.7272 17.0698 10.3079 17.1889C9.88861 17.308 9.44673 17.3238 9.01997 17.2351C6.48592 16.7077 4.21557 14.6672 2.18948 11.1583C0.162666 7.64721 -0.469227 4.65707 0.344957 2.19795C0.481247 1.78625 0.714633 1.4134 1.0254 1.11092C1.33616 0.808432 1.71517 0.585193 2.1304 0.460064H2.12968ZM2.44238 1.49473C2.19323 1.56977 1.96581 1.70368 1.77933 1.88515C1.59284 2.06661 1.45278 2.2903 1.37097 2.53731C0.669189 4.65635 1.23768 7.3482 3.12543 10.6179C5.01174 13.8854 7.05656 15.7228 9.23973 16.1767C9.4959 16.2299 9.76117 16.2204 10.0129 16.1489C10.2646 16.0774 10.4952 15.946 10.6851 15.766L11.5944 14.9057C11.8162 14.6957 11.9543 14.4123 11.9829 14.1081C12.0115 13.804 11.9288 13.4998 11.75 13.2521L10.6923 11.7866C10.5383 11.5732 10.3215 11.4133 10.0721 11.3293C9.82276 11.2453 9.55337 11.2414 9.30169 11.3182L7.59047 11.8421C6.64371 12.1238 5.75315 11.3348 4.78622 9.65889C3.96699 8.24092 3.68311 7.21634 4.03328 6.50087C4.10101 6.36253 4.19323 6.23788 4.30563 6.13269L5.60617 4.92006C5.79886 4.74049 5.93049 4.50509 5.98256 4.2469C6.03464 3.98871 6.00456 3.72069 5.89653 3.48047L5.15224 1.82544C5.02669 1.54607 4.80375 1.32194 4.52505 1.19492C4.24634 1.0679 3.93093 1.04667 3.63772 1.13519L2.44166 1.49545L2.44238 1.49473Z" fill="white"/>
</svg>
