<svg width="40" height="40" viewBox="0 0 40 40" fill="none" xmlns="http://www.w3.org/2000/svg">
<path fill-rule="evenodd" clip-rule="evenodd" d="M26 13.1045C26 11.947 25.1692 11 24.1538 11H15.8462C14.8308 11 14 11.947 14 13.1045V28.5301H14.0111C14.0203 28.6385 14.0526 28.7448 14.1218 28.83C14.2046 28.9326 14.3198 28.9936 14.442 28.9995C14.5642 29.0054 14.6834 28.9558 14.7735 28.8616L20 24.5211L25.2265 28.8626C25.3175 28.9555 25.4368 29.0041 25.5589 28.9982C25.6809 28.9923 25.7961 28.9324 25.88 28.8311C25.9431 28.7467 25.9812 28.6417 25.9889 28.5312H26V13.1045ZM19.688 23.5952L14.9231 27.4527V13.1045C14.9231 12.5257 15.3385 12.0522 15.8462 12.0522H24.1538C24.6615 12.0522 25.0769 12.5257 25.0769 13.1045V27.4537L20.312 23.5941C20.2279 23.5028 20.1162 23.4518 20 23.4518C19.8838 23.4518 19.7721 23.5028 19.688 23.5941V23.5952Z" fill="#DFDFDF"/>
</svg>
