<svg width="16" height="16" viewBox="0 0 16 16" fill="none" xmlns="http://www.w3.org/2000/svg">
<path fill-rule="evenodd" clip-rule="evenodd" d="M11.587 11.3321V9.37561C11.587 9.01542 11.8789 8.72348 12.2391 8.72348C12.5993 8.72348 12.8913 9.01542 12.8913 9.37561V11.3321H14.8479C15.2081 11.3321 15.5 11.6241 15.5 11.9842C15.5 12.3444 15.2081 12.6365 14.8479 12.6365H12.8913V14.593C12.8913 14.9532 12.5993 15.2451 12.2391 15.2451C11.8789 15.2451 11.587 14.9532 11.587 14.593V12.6365H9.63044C9.27024 12.6365 8.9783 12.3444 8.9783 11.9842C8.9783 11.6241 9.27024 11.3321 9.63044 11.3321H11.587ZM7.6742 1.5496C4.43699 1.5496 1.80435 4.18235 1.80435 7.41883C1.80435 10.6552 4.43713 13.2886 7.6742 13.2886C7.68675 13.2886 7.75029 13.3065 7.86493 13.3422C8.13221 13.4256 8.31421 13.6732 8.31421 13.9531C8.31421 14.3065 8.02772 14.593 7.67428 14.593C3.7182 14.593 0.5 11.3754 0.5 7.41905C0.5 3.46356 3.7182 0.245117 7.67428 0.245117C11.6295 0.245117 14.8477 3.46356 14.8477 7.41905C14.8477 7.43903 14.8466 7.46021 14.8443 7.48248C14.8115 7.81635 14.5308 8.07075 14.1954 8.07075C13.8353 8.07075 13.5433 7.77881 13.5433 7.41873C13.5433 4.1824 10.9106 1.5495 7.67406 1.5495L7.6742 1.5496ZM10.0859 7.02473C10.2089 7.10946 10.2825 7.25718 10.2825 7.41888C10.2825 7.57894 10.2075 7.72678 10.0824 7.81379L7.00423 9.9546C6.93555 10.0023 6.85498 10.0276 6.77287 10.0276C6.68869 10.0276 6.63061 10.0008 6.58039 9.97075C6.44599 9.89061 6.36956 9.74137 6.36956 9.55969V5.27803C6.36956 5.09711 6.44599 4.94699 6.57973 4.86772C6.71697 4.78616 6.87757 4.79151 7.01056 4.88311L10.0859 7.02473Z" fill="white"/>
</svg>
