<svg width="23" height="26" viewBox="0 0 23 26" fill="none" xmlns="http://www.w3.org/2000/svg">
<path fill-rule="evenodd" clip-rule="evenodd" d="M22.5577 21.5439H0.442308C0.19825 21.5439 0 21.7422 0 21.9863V24.6401C0 24.8842 0.19825 25.0824 0.442308 25.0824H22.5577C22.8018 25.0824 23 24.8842 23 24.6401V21.9863C23 21.7422 22.8018 21.5439 22.5577 21.5439Z" fill="url(#paint0_linear_7297_48455)"/>
<path fill-rule="evenodd" clip-rule="evenodd" d="M22.5577 21.5439H0.442308C0.19825 21.5439 0 21.7422 0 21.9863V24.6401C0 24.8842 0.19825 25.0824 0.442308 25.0824H22.5577C22.8018 25.0824 23 24.8842 23 24.6401V21.9863C23 21.7422 22.8018 21.5439 22.5577 21.5439Z" fill="black" fill-opacity="0.2"/>
<path fill-rule="evenodd" clip-rule="evenodd" d="M15.4844 14.4668V20.6591H21.6767V14.9091C21.6767 14.665 21.4784 14.4668 21.2344 14.4668H15.4844Z" fill="url(#paint1_linear_7297_48455)"/>
<path fill-rule="evenodd" clip-rule="evenodd" d="M15.4844 14.4668V20.6591H21.6767V14.9091C21.6767 14.665 21.4784 14.4668 21.2344 14.4668H15.4844Z" fill="black" fill-opacity="0.2"/>
<path fill-rule="evenodd" clip-rule="evenodd" d="M7.52239 11.8135H1.77239C1.6551 11.8135 1.54235 11.8599 1.45961 11.943C1.37648 12.0257 1.33008 12.1385 1.33008 12.2558V20.6596H7.52239V11.8135Z" fill="url(#paint2_linear_7297_48455)"/>
<path fill-rule="evenodd" clip-rule="evenodd" d="M7.52239 11.8135H1.77239C1.6551 11.8135 1.54235 11.8599 1.45961 11.943C1.37648 12.0257 1.33008 12.1385 1.33008 12.2558V20.6596H7.52239V11.8135Z" fill="black" fill-opacity="0.2"/>
<path fill-rule="evenodd" clip-rule="evenodd" d="M14.5947 20.6582V9.60051C14.5947 9.35645 14.3964 9.1582 14.1523 9.1582H8.84465C8.60059 9.1582 8.40234 9.35645 8.40234 9.60051V20.6582H14.5947Z" fill="url(#paint3_linear_7297_48455)"/>
<path fill-rule="evenodd" clip-rule="evenodd" d="M14.5947 20.6582V9.60051C14.5947 9.35645 14.3964 9.1582 14.1523 9.1582H8.84465C8.60059 9.1582 8.40234 9.35645 8.40234 9.60051V20.6582H14.5947Z" fill="black" fill-opacity="0.2"/>
<path fill-rule="evenodd" clip-rule="evenodd" d="M10.2904 3.35283L11.0813 1.05344C11.1429 0.874736 11.3111 0.754883 11.4997 0.754883C11.6883 0.754883 11.8565 0.874741 11.9181 1.05344L12.7089 3.35283H15.2854C15.4795 3.35283 15.6507 3.47881 15.708 3.66402C15.7656 3.84905 15.6959 4.05025 15.5358 4.15965L13.4737 5.57483L14.2578 7.85451C14.32 8.03499 14.2594 8.23462 14.1072 8.35033C13.9553 8.46584 13.7468 8.47117 13.589 8.36297L11.4997 6.92923L9.41043 8.36297C9.25266 8.47117 9.04414 8.46584 8.8923 8.35033C8.74006 8.23462 8.67944 8.03499 8.74164 7.85451L9.52576 5.57483L7.4637 4.15965C7.30355 4.05025 7.23385 3.84905 7.29151 3.66402C7.34878 3.47881 7.51997 3.35283 7.71408 3.35283H10.2904Z" fill="url(#paint4_linear_7297_48455)"/>
<path fill-rule="evenodd" clip-rule="evenodd" d="M10.2904 3.35283L11.0813 1.05344C11.1429 0.874736 11.3111 0.754883 11.4997 0.754883C11.6883 0.754883 11.8565 0.874741 11.9181 1.05344L12.7089 3.35283H15.2854C15.4795 3.35283 15.6507 3.47881 15.708 3.66402C15.7656 3.84905 15.6959 4.05025 15.5358 4.15965L13.4737 5.57483L14.2578 7.85451C14.32 8.03499 14.2594 8.23462 14.1072 8.35033C13.9553 8.46584 13.7468 8.47117 13.589 8.36297L11.4997 6.92923L9.41043 8.36297C9.25266 8.47117 9.04414 8.46584 8.8923 8.35033C8.74006 8.23462 8.67944 8.03499 8.74164 7.85451L9.52576 5.57483L7.4637 4.15965C7.30355 4.05025 7.23385 3.84905 7.29151 3.66402C7.34878 3.47881 7.51997 3.35283 7.71408 3.35283H10.2904Z" fill="black" fill-opacity="0.2"/>
<defs>
<linearGradient id="paint0_linear_7297_48455" x1="1.09172e-06" y1="24.0738" x2="4.07648" y2="11.7514" gradientUnits="userSpaceOnUse">
<stop stop-color="#662F88"/>
<stop offset="1" stop-color="#20BF55"/>
</linearGradient>
<linearGradient id="paint1_linear_7297_48455" x1="15.4844" y1="18.894" x2="24.6319" y2="14.64" gradientUnits="userSpaceOnUse">
<stop stop-color="#662F88"/>
<stop offset="1" stop-color="#20BF55"/>
</linearGradient>
<linearGradient id="paint2_linear_7297_48455" x1="1.33008" y1="18.1381" x2="11.3898" y2="14.8633" gradientUnits="userSpaceOnUse">
<stop stop-color="#662F88"/>
<stop offset="1" stop-color="#20BF55"/>
</linearGradient>
<linearGradient id="paint3_linear_7297_48455" x1="8.40234" y1="17.3802" x2="18.8717" y2="14.7585" gradientUnits="userSpaceOnUse">
<stop stop-color="#662F88"/>
<stop offset="1" stop-color="#20BF55"/>
</linearGradient>
<linearGradient id="paint4_linear_7297_48455" x1="7.27148" y1="6.24987" x2="19.3128" y2="0.0885708" gradientUnits="userSpaceOnUse">
<stop stop-color="#662F88"/>
<stop offset="1" stop-color="#20BF55"/>
</linearGradient>
</defs>
</svg>
