<svg width="25" height="24" viewBox="0 0 25 24" fill="none" xmlns="http://www.w3.org/2000/svg">
<path d="M23.6323 3.09801L21.8433 1.31002C21.1471 0.612805 20.0151 0.612805 19.3189 1.31002L17.6094 3.01869L21.9228 7.33214L23.6323 5.62265C24.3287 4.92625 24.3287 3.79523 23.6323 3.09801H23.6323Z" fill="white"/>
<path d="M18.8724 21.8719C18.8724 21.9432 18.8152 22.0014 18.7439 22.0014H2.00866C1.93732 22.0014 1.87913 21.9442 1.87913 21.8719V7.26743C1.87913 7.19689 1.93632 7.1389 2.00866 7.1389H12.2935L14.0789 5.35352H2.00866C0.951757 5.35352 0.09375 6.21132 0.09375 7.26745V21.8719C0.09375 22.928 0.951553 23.7868 2.00866 23.7868H18.7439C19.7999 23.7868 20.6578 22.928 20.6578 21.8719L20.6576 9.80015L18.8722 11.5855L18.8724 21.8719Z" fill="white"/>
<path d="M7.89574 12.7354L7.08594 17.8585L12.209 17.0489L21.0849 8.17395L16.7713 3.86035L7.89574 12.7354Z" fill="white"/>
</svg>
