<svg width="25" height="25" viewBox="0 0 25 25" fill="none" xmlns="http://www.w3.org/2000/svg">
<path d="M23.0412 13.7123L23.0413 13.7115C23.7372 8.09366 19.8486 2.97871 14.2838 2.0665V0.568912C19.6514 1.39049 23.819 5.7099 24.4272 11.1172C25.1317 17.5183 20.6435 23.3 14.2838 24.2803V22.7826C16.4528 22.4217 18.4593 21.3979 20.0203 19.8478C21.686 18.1937 22.7493 16.0348 23.0412 13.7123ZM8.98112 17.4621L9.86443 13.7533L9.93528 13.4559L9.70274 13.2573L6.82622 10.8008L10.6202 10.4479L10.9152 10.4204L11.0328 10.1484L12.5225 6.7032L14.0164 10.1966L14.1348 10.4734L14.4348 10.4983L18.2112 10.8116L15.3473 13.2573L15.1148 13.4559L15.1856 13.7533L16.0689 17.4621L12.7817 15.4959L12.525 15.3424L12.2684 15.4959L8.98112 17.4621ZM5.29541 2.80776C6.90179 1.61078 8.77929 0.835236 10.7662 0.560476V2.14862C9.19123 2.43315 7.70083 3.06673 6.41346 4.0034L5.29541 2.80776ZM2.08955 10.75H0.563101C0.844881 8.78491 1.62321 6.92204 2.8257 5.3356L3.91933 6.42158C2.98517 7.71052 2.36502 9.19282 2.08955 10.75ZM3.92132 18.5786L2.83983 19.6601C1.65132 18.0706 0.873868 16.2145 0.57953 14.25H2.10044C2.37109 15.8109 2.9937 17.2908 3.92132 18.5786ZM10.7662 24.4309C8.78449 24.1267 6.91015 23.3375 5.31266 22.1349L6.37243 21.0977C7.67774 22.033 9.18067 22.6599 10.7662 22.9307V24.4309Z" fill="url(#paint0_linear_3225_20063)" stroke="url(#paint1_linear_3225_20063)"/>
<defs>
<linearGradient id="paint0_linear_3225_20063" x1="1.18665e-06" y1="17.8738" x2="36.9309" y2="0.699275" gradientUnits="userSpaceOnUse">
<stop stop-color="#662F88"/>
<stop offset="1" stop-color="#20BF55"/>
</linearGradient>
<linearGradient id="paint1_linear_3225_20063" x1="1.18665e-06" y1="17.8738" x2="36.9309" y2="0.699275" gradientUnits="userSpaceOnUse">
<stop stop-color="#662F88"/>
<stop offset="1" stop-color="#20BF55"/>
</linearGradient>
</defs>
</svg>
