<svg width="38" height="38" viewBox="0 0 38 38" fill="none" xmlns="http://www.w3.org/2000/svg">
<g filter="url(#filter0_d_3356_16977)">
<circle cx="19" cy="18" r="15" fill="black"/>
</g>
<path d="M28.5556 11.8942C27.8283 12.2154 27.0534 12.4283 26.2456 12.5317C27.0767 12.032 27.711 11.2468 28.0092 10.3003C27.2343 10.7655 26.3788 11.0942 25.467 11.2775C24.7312 10.4886 23.6826 10 22.5386 10C20.319 10 18.5321 11.8142 18.5321 14.0382C18.5321 14.3582 18.559 14.6658 18.625 14.9588C15.292 14.7951 12.3428 13.1865 10.3616 10.736C10.0157 11.3403 9.81278 12.032 9.81278 12.7766C9.81278 14.1748 10.5278 15.4142 11.5936 16.1317C10.9494 16.1194 10.3176 15.9311 9.78222 15.6345C9.78222 15.6468 9.78222 15.6628 9.78222 15.6788C9.78222 17.6406 11.1719 19.2702 12.9942 19.6455C12.6679 19.7354 12.3122 19.7785 11.9431 19.7785C11.6864 19.7785 11.4273 19.7637 11.1841 19.7095C11.7036 21.3083 13.1776 22.4837 14.9302 22.5218C13.5662 23.5963 11.8343 24.2437 9.95944 24.2437C9.63067 24.2437 9.31533 24.2289 9 24.1883C10.7759 25.3415 12.8806 26 15.1502 26C22.5276 26 26.5609 19.8462 26.5609 14.512C26.5609 14.3335 26.5548 14.1612 26.5462 13.9902C27.3419 13.4215 28.0104 12.7114 28.5556 11.8942Z" fill="white"/>
<defs>
<filter id="filter0_d_3356_16977" x="0" y="0" width="38" height="38" filterUnits="userSpaceOnUse" color-interpolation-filters="sRGB">
<feFlood flood-opacity="0" result="BackgroundImageFix"/>
<feColorMatrix in="SourceAlpha" type="matrix" values="0 0 0 0 0 0 0 0 0 0 0 0 0 0 0 0 0 0 127 0" result="hardAlpha"/>
<feOffset dy="1"/>
<feGaussianBlur stdDeviation="2"/>
<feColorMatrix type="matrix" values="0 0 0 0 0 0 0 0 0 0 0 0 0 0 0 0 0 0 0.08 0"/>
<feBlend mode="normal" in2="BackgroundImageFix" result="effect1_dropShadow_3356_16977"/>
<feBlend mode="normal" in="SourceGraphic" in2="effect1_dropShadow_3356_16977" result="shape"/>
</filter>
</defs>
</svg>
