<svg width="78" height="78" viewBox="0 0 78 78" fill="none" xmlns="http://www.w3.org/2000/svg">
<path d="M54.033 28.1699L52.0347 26.5616C51.0497 25.7699 50.4772 25.7791 49.6338 26.8208L35.1097 44.7449L28.3505 39.1291C27.418 38.3458 26.8347 38.3874 26.068 39.3458L24.5255 41.3541C23.743 42.3391 23.843 42.8983 24.768 43.6708L34.4013 51.6391C35.393 52.4724 35.9513 52.3866 36.718 51.4541L54.2838 30.5699C55.1088 29.5783 55.0588 28.9858 54.033 28.1699Z" fill="url(#paint0_linear_6618_50283)"/>
<path d="M54.033 28.1699L52.0347 26.5616C51.0497 25.7699 50.4772 25.7791 49.6338 26.8208L35.1097 44.7449L28.3505 39.1291C27.418 38.3458 26.8347 38.3874 26.068 39.3458L24.5255 41.3541C23.743 42.3391 23.843 42.8983 24.768 43.6708L34.4013 51.6391C35.393 52.4724 35.9513 52.3866 36.718 51.4541L54.2838 30.5699C55.1088 29.5783 55.0588 28.9858 54.033 28.1699Z" fill="black" fill-opacity="0.2"/>
<path d="M39 76C59.4345 76 76 59.4345 76 39C76 18.5655 59.4345 2 39 2C18.5655 2 2 18.5655 2 39C2 59.4345 18.5655 76 39 76Z" stroke="url(#paint1_linear_6618_50283)" stroke-width="3" stroke-linecap="round" stroke-linejoin="round"/>
<path d="M39 76C59.4345 76 76 59.4345 76 39C76 18.5655 59.4345 2 39 2C18.5655 2 2 18.5655 2 39C2 59.4345 18.5655 76 39 76Z" stroke="black" stroke-opacity="0.2" stroke-width="3" stroke-linecap="round" stroke-linejoin="round"/>
<defs>
<linearGradient id="paint0_linear_6618_50283" x1="24" y1="44.7408" x2="66.6572" y2="21.3884" gradientUnits="userSpaceOnUse">
<stop stop-color="#662F88"/>
<stop offset="1" stop-color="#20BF55"/>
</linearGradient>
<linearGradient id="paint1_linear_6618_50283" x1="2" y1="54.9065" x2="111.316" y2="4.06985" gradientUnits="userSpaceOnUse">
<stop stop-color="#662F88"/>
<stop offset="1" stop-color="#20BF55"/>
</linearGradient>
</defs>
</svg>
