<svg width="14" height="15" viewBox="0 0 14 15" fill="none" xmlns="http://www.w3.org/2000/svg">
<path d="M7 0C6.23085 0 5.47897 0.231509 4.83945 0.665251C4.19992 1.09899 3.70148 1.71549 3.40714 2.43678C3.11279 3.15806 3.03578 3.95175 3.18584 4.71746C3.33589 5.48318 3.70627 6.18653 4.25014 6.73858C4.79401 7.29063 5.48695 7.66658 6.24132 7.81889C6.99569 7.9712 7.77761 7.89303 8.48821 7.59426C9.19881 7.2955 9.80618 6.78955 10.2335 6.14041C10.6608 5.49127 10.8889 4.72808 10.8889 3.94737C10.8889 2.90046 10.4792 1.89643 9.74986 1.15616C9.02055 0.415882 8.0314 0 7 0ZM7 6.31579C6.53851 6.31579 6.08738 6.17688 5.70367 5.91664C5.31995 5.65639 5.02089 5.2865 4.84428 4.85372C4.66768 4.42095 4.62147 3.94474 4.7115 3.48531C4.80153 3.02588 5.02376 2.60387 5.35008 2.27264C5.67641 1.94141 6.09217 1.71584 6.54479 1.62446C6.99741 1.53307 7.46657 1.57997 7.89293 1.75923C8.31929 1.93849 8.68371 2.24206 8.9401 2.63154C9.19649 3.02103 9.33333 3.47894 9.33333 3.94737C9.33333 4.57551 9.0875 5.17793 8.64992 5.6221C8.21233 6.06626 7.61884 6.31579 7 6.31579ZM14 15V14.2105C14 12.7449 13.4264 11.3392 12.4054 10.3028C11.3843 9.26645 9.99951 8.68421 8.55556 8.68421H5.44444C4.00049 8.68421 2.61567 9.26645 1.59464 10.3028C0.573609 11.3392 0 12.7449 0 14.2105V15H1.55556V14.2105C1.55556 13.1636 1.96528 12.1596 2.69458 11.4193C3.42389 10.679 4.41305 10.2632 5.44444 10.2632H8.55556C9.58695 10.2632 10.5761 10.679 11.3054 11.4193C12.0347 12.1596 12.4444 13.1636 12.4444 14.2105V15H14Z" fill="white"/>
</svg>
