<svg width="14" height="13" viewBox="0 0 14 13" fill="none" xmlns="http://www.w3.org/2000/svg">
<path d="M7 0C6.04545 0 5.29972 0.341766 4.76278 1.0253C4.22585 1.70883 3.95739 2.58259 3.95739 3.64658C3.95076 4.9685 4.38826 6.01637 5.26989 6.79018C5.38258 6.89335 5.42235 7.02555 5.3892 7.18676L5.16051 7.65104C5.08759 7.8058 4.97988 7.92671 4.83736 8.01377C4.69484 8.10082 4.39489 8.22495 3.9375 8.38616C3.91761 8.39261 3.49834 8.5248 2.67969 8.78274C1.86103 9.04068 1.42519 9.18254 1.37216 9.20833C0.815341 9.43403 0.450758 9.6694 0.278409 9.91443C0.092803 10.3207 0 11.3492 0 13H14C14 11.3492 13.9072 10.3207 13.7216 9.91443C13.5492 9.6694 13.1847 9.43403 12.6278 9.20833C12.5748 9.18254 12.139 9.04068 11.3203 8.78274C10.5017 8.5248 10.0824 8.39261 10.0625 8.38616C9.60511 8.22495 9.30516 8.10082 9.16264 8.01377C9.02012 7.92671 8.91241 7.8058 8.83949 7.65104L8.6108 7.18676C8.57765 7.02555 8.61742 6.89335 8.73011 6.79018C9.61174 6.01637 10.0492 4.9685 10.0426 3.64658C10.0426 2.58259 9.77415 1.70883 9.23722 1.0253C8.70028 0.341766 7.95455 0 7 0Z" fill="white"/>
</svg>
