<svg width="17" height="17" viewBox="0 0 17 17" fill="none" xmlns="http://www.w3.org/2000/svg">
<path d="M12.7949 16.9895C11.8726 16.931 10.9565 16.5135 10.2918 15.8487C8.76186 14.3188 8.76186 11.821 10.2918 10.2913C11.8217 8.76138 14.3195 8.76138 15.8492 10.2913C17.6107 12.0528 17.3014 15.0045 15.2125 16.3648C14.691 16.7044 13.9902 16.9464 13.4278 16.9811C13.3267 16.9872 13.1981 16.9953 13.1419 16.9987C13.0857 17.0023 12.9295 16.998 12.7946 16.9896L12.7949 16.9895ZM13.2091 13.8409L14.4587 12.59L13.5511 11.6814L11.059 14.1626L11.0481 15.0918H11.9598L13.2091 13.8409ZM15.0467 11.0943L14.5924 10.6397L13.9485 11.2827L14.8571 12.1917L15.501 11.5488L15.0467 11.0943ZM0 12.8135V11.3317L0.0477878 11.2461C0.281985 10.8267 0.539417 10.4497 0.839676 10.0865C1.0702 9.80769 1.59362 9.30063 1.84027 9.11706C1.86968 9.09524 1.96193 9.02588 2.04541 8.96291C2.12889 8.89994 2.21973 8.8365 2.24736 8.82203C2.27499 8.80745 2.30214 8.78942 2.30771 8.78195C2.31329 8.77448 2.37768 8.7331 2.45072 8.68994C2.52377 8.64677 2.60796 8.59495 2.63796 8.57456C2.74279 8.50329 3.42002 8.16866 3.45948 8.16866C3.46778 8.16866 3.52209 8.14719 3.58043 8.12099C3.63866 8.09478 3.75072 8.05221 3.82934 8.02636C3.90795 8.00063 4.01824 7.96304 4.07444 7.94299C4.20275 7.8971 4.77335 7.76097 4.96854 7.72967C5.40349 7.65994 6.43493 7.63172 6.82304 7.67903C7.28313 7.73512 7.30247 7.73856 7.80144 7.85359C7.95607 7.88928 8.46444 8.05375 8.59974 8.11185C8.64005 8.12917 8.69519 8.15016 8.72223 8.15834C8.74939 8.16664 8.87544 8.22285 9.00244 8.28332C9.12944 8.3438 9.24209 8.39325 9.25265 8.39325C9.2632 8.39325 9.27186 8.40024 9.27186 8.40866C9.27186 8.4172 9.30174 8.43736 9.33826 8.45349C9.4342 8.49594 9.70752 8.6565 9.88183 8.77284C9.9646 8.8281 10.0685 8.897 10.1127 8.92605L10.1932 8.97882L10.0031 9.1223C9.00055 9.87922 8.35143 10.9402 8.11817 12.2035C8.00729 12.8038 8.00622 13.4547 8.1152 14.0453L8.16133 14.2955H0.000195937L0 12.8135ZM5.73866 6.6647C5.20671 6.56663 5.15131 6.55216 4.85023 6.43263C3.85486 6.03763 3.07257 5.1204 2.83827 4.07357C2.80258 3.9142 2.75728 3.49728 2.75728 3.32816C2.75728 3.14744 2.80412 2.75199 2.84788 2.5632C3.02883 1.78269 3.51892 1.06539 4.19675 0.589307C4.45977 0.404558 4.8748 0.205232 5.14635 0.133347C5.21939 0.114018 5.31129 0.0894724 5.35054 0.0787989C5.64237 -0.000650982 6.23836 -0.0248423 6.58877 0.0285219C6.7804 0.057693 7.18416 0.163586 7.31117 0.218015C7.35054 0.234854 7.49402 0.304104 7.63016 0.371815C8.59056 0.849935 9.26992 1.81507 9.41399 2.906C9.45952 3.25083 9.42656 3.84279 9.34498 4.14517C9.08433 5.11088 8.46663 5.88216 7.60623 6.31663C7.31321 6.4645 7.1051 6.53434 6.6781 6.6279C6.52952 6.66051 5.85834 6.68672 5.7387 6.66466L5.73866 6.6647Z" fill="white"/>
</svg>
