<svg width="38" height="38" viewBox="0 0 38 38" fill="none" xmlns="http://www.w3.org/2000/svg">
<g filter="url(#filter0_d_3356_16980)">
<circle cx="19" cy="18" r="15" fill="black"/>
</g>
<path fill-rule="evenodd" clip-rule="evenodd" d="M21.7853 22.8448C22.2147 23.3877 22.7299 24.002 22.7299 24.002C25.8927 23.902 27.1091 21.8305 27.1091 21.8305C27.1091 17.2306 25.0483 13.5021 25.0483 13.5021C22.9875 11.9592 21.0268 12.0021 21.0268 12.0021L20.8265 12.2306C23.2594 12.9735 24.39 14.0449 24.39 14.0449C22.9016 13.2306 21.4419 12.8306 20.0823 12.6735C19.0519 12.5592 18.0644 12.5878 17.1914 12.7021C17.1164 12.7021 17.0524 12.713 16.9802 12.7252C16.9697 12.727 16.959 12.7288 16.9481 12.7306C16.4472 12.7735 15.2308 12.9592 13.6995 13.6306C13.1699 13.8735 12.8551 14.0449 12.8551 14.0449C12.8551 14.0449 14.0429 12.9163 16.619 12.1735L16.4758 12.0021C16.4758 12.0021 14.5152 11.9592 12.4544 13.5021C12.4544 13.5021 10.3936 17.2306 10.3936 21.8305C10.3936 21.8305 11.5957 23.902 14.7585 24.002C14.7585 24.002 15.288 23.3591 15.7173 22.8162C13.8998 22.2734 13.2129 21.1306 13.2129 21.1306C13.2129 21.1306 13.356 21.2305 13.6136 21.3734C13.6279 21.3877 13.6422 21.402 13.6708 21.4163C13.6923 21.4305 13.7138 21.4413 13.7352 21.452C13.7567 21.4627 13.7782 21.4734 13.7996 21.4877C14.1574 21.6877 14.5152 21.8448 14.8444 21.9734C15.4311 22.202 16.1324 22.4305 16.9481 22.5877C18.0215 22.7877 19.2809 22.8591 20.6547 22.602C21.3274 22.4877 22.0143 22.2877 22.7299 21.9877C23.2308 21.802 23.7889 21.5305 24.3757 21.1448C24.3757 21.1448 23.6601 22.3163 21.7853 22.8448ZM14.6154 18.9163C14.6154 18.0449 15.2594 17.3306 16.0751 17.3306C16.8909 17.3306 17.5492 18.0449 17.5349 18.9163C17.5349 19.7877 16.8909 20.502 16.0751 20.502C15.2737 20.502 14.6154 19.7877 14.6154 18.9163ZM19.839 18.9163C19.839 18.0449 20.483 17.3306 21.2987 17.3306C22.1145 17.3306 22.7585 18.0449 22.7585 18.9163C22.7585 19.7877 22.1145 20.502 21.2987 20.502C20.4973 20.502 19.839 19.7877 19.839 18.9163Z" fill="white"/>
<defs>
<filter id="filter0_d_3356_16980" x="0" y="0" width="38" height="38" filterUnits="userSpaceOnUse" color-interpolation-filters="sRGB">
<feFlood flood-opacity="0" result="BackgroundImageFix"/>
<feColorMatrix in="SourceAlpha" type="matrix" values="0 0 0 0 0 0 0 0 0 0 0 0 0 0 0 0 0 0 127 0" result="hardAlpha"/>
<feOffset dy="1"/>
<feGaussianBlur stdDeviation="2"/>
<feColorMatrix type="matrix" values="0 0 0 0 0 0 0 0 0 0 0 0 0 0 0 0 0 0 0.08 0"/>
<feBlend mode="normal" in2="BackgroundImageFix" result="effect1_dropShadow_3356_16980"/>
<feBlend mode="normal" in="SourceGraphic" in2="effect1_dropShadow_3356_16980" result="shape"/>
</filter>
</defs>
</svg>
