<svg width="65" height="65" viewBox="0 0 65 65" fill="none" xmlns="http://www.w3.org/2000/svg">
<circle cx="32.5" cy="32.5" r="32.5" fill="#16172D"/>
<path d="M40.2157 46.753L40.2157 46.7673L40.2165 46.7817C40.3274 48.7472 39.6221 50.1729 38.2255 51.1338C36.7932 52.1192 34.581 52.6509 31.6323 52.6509C28.6958 52.6509 26.4694 52.1279 24.9916 51.1503C23.5451 50.1934 22.7722 48.7737 22.7722 46.8273V44.8869C22.7722 43.3141 24.1291 41.9913 25.8589 41.9913H37.1311C38.8607 41.9913 40.2174 43.3138 40.2177 44.8864C40.2177 44.8864 40.2177 44.8864 40.2177 44.8864C40.2177 44.8866 40.2177 44.8867 40.2177 44.8869L40.2157 46.753ZM51.4879 37.0512L51.4879 37.0656L51.4887 37.0799C51.5996 39.0454 50.8943 40.4711 49.4977 41.432C48.0679 42.4158 45.8608 42.9473 42.9195 42.9491C42.6525 42.2291 42.242 41.5714 41.7164 41.0092C42.0919 41.0289 42.4877 41.0386 42.9045 41.0386C45.1436 41.0386 46.7923 40.7672 47.8763 40.1337C48.431 39.8096 48.8442 39.3869 49.1036 38.8592C49.3592 38.3393 49.4488 37.7515 49.4157 37.116V35.1851C49.4157 34.9148 49.302 34.6614 49.1094 34.479C48.9177 34.2976 48.6633 34.2 48.4033 34.2H40.1805C40.2177 33.5608 40.1775 32.9197 40.0608 32.2895H48.4033C50.1329 32.2895 51.4896 33.612 51.49 35.1846C51.49 35.1846 51.49 35.1846 51.49 35.1846C51.49 35.1848 51.49 35.185 51.49 35.1851L51.4879 37.0512ZM37.1311 43.9018H25.8589C25.5989 43.9018 25.3445 43.9993 25.1528 44.1808C24.9602 44.3632 24.8465 44.6165 24.8465 44.8869V46.8273C24.8465 47.4648 24.9739 48.0518 25.2646 48.5684C25.5562 49.0867 25.995 49.5035 26.5694 49.8256C27.6977 50.4583 29.3761 50.7403 31.6323 50.7403C33.8713 50.7403 35.5201 50.469 36.6041 49.8355C37.1587 49.5113 37.572 49.0887 37.8314 48.561C38.087 48.0411 38.1766 47.4532 38.1435 46.8178V44.8869C38.1435 44.6165 38.0298 44.3632 37.8372 44.1808C37.6455 43.9993 37.391 43.9018 37.1311 43.9018ZM14.5866 32.2895H22.9285C22.8115 32.9197 22.7717 33.5608 22.8102 34.2H14.5866C14.3267 34.2 14.0723 34.2976 13.8806 34.479C13.6879 34.6614 13.5742 34.9148 13.5742 35.1851V37.1255C13.5742 37.763 13.7016 38.35 13.9924 38.8666C14.284 39.3849 14.7228 39.8018 15.2971 40.1238C16.4254 40.7566 18.1039 41.0386 20.3601 41.0386C20.673 41.0386 20.9735 41.0332 21.2618 41.0223C20.741 41.5809 20.3344 42.2335 20.0696 42.9474C17.2764 42.9138 15.148 42.3936 13.7194 41.4485C12.2729 40.4916 11.5 39.0719 11.5 37.1255V35.1851C11.5 33.6123 12.8568 32.2895 14.5866 32.2895ZM31.495 28.4088C32.2404 28.4088 32.978 28.5478 33.6654 28.8174C34.3527 29.0869 34.9755 29.4813 35.4989 29.9768C36.0222 30.4723 36.4358 31.059 36.7174 31.7027C36.9989 32.3463 37.1435 33.035 37.1435 33.7299C37.1435 34.4247 36.9989 35.1135 36.7174 35.7571C36.4358 36.4008 36.0222 36.9874 35.4989 37.4829C34.9755 37.9784 34.3527 38.3728 33.6654 38.6423C32.978 38.9119 32.2404 39.0509 31.495 39.0509C29.9883 39.0509 28.5485 38.484 27.4911 37.4829C26.4346 36.4826 25.8465 35.132 25.8465 33.7299C25.8465 32.3277 26.4346 30.9771 27.4911 29.9768C28.5485 28.9757 29.9883 28.4088 31.495 28.4088ZM31.495 30.3193C31.0293 30.3193 30.5676 30.4061 30.136 30.5754C29.7043 30.7447 29.3104 30.9934 28.9774 31.3087C28.6443 31.6241 28.3785 31.9999 28.1967 32.4156C28.0148 32.8314 27.9207 33.2781 27.9207 33.7299C27.9207 34.1817 28.0148 34.6283 28.1967 35.0441C28.3785 35.4598 28.6443 35.8357 28.9774 36.151C29.3104 36.4663 29.7043 36.7151 30.136 36.8843C30.5676 37.0536 31.0293 37.1404 31.495 37.1404C32.4344 37.1404 33.3404 36.7874 34.0126 36.151C34.6856 35.5138 35.0692 34.6435 35.0692 33.7299C35.0692 32.8162 34.6856 31.9459 34.0126 31.3087C33.3404 30.6724 32.4344 30.3193 31.495 30.3193ZM20.2227 18.707C21.7294 18.707 23.1692 19.2739 24.2266 20.2751C25.2832 21.2753 25.8712 22.626 25.8712 24.0281C25.8712 25.4302 25.2832 26.7809 24.2266 27.7811C23.1692 28.7823 21.7294 29.3492 20.2227 29.3492C18.7161 29.3492 17.2763 28.7823 16.2189 27.7811C15.1623 26.7809 14.5742 25.4302 14.5742 24.0281C14.5742 22.626 15.1623 21.2753 16.2189 20.2751C17.2763 19.2739 18.7161 18.707 20.2227 18.707ZM42.7672 18.707C44.2738 18.707 45.7136 19.2739 46.7711 20.2751C47.8276 21.2753 48.4157 22.626 48.4157 24.0281C48.4157 25.4302 47.8276 26.7809 46.7711 27.7811C45.7136 28.7823 44.2738 29.3492 42.7672 29.3492C41.2606 29.3492 39.8208 28.7823 38.7633 27.7811C37.7068 26.7809 37.1187 25.4302 37.1187 24.0281C37.1187 22.626 37.7068 21.2753 38.7633 20.2751C39.8208 19.2739 41.2606 18.707 42.7672 18.707ZM20.2227 20.6176C19.2834 20.6176 18.3773 20.9706 17.7052 21.6069C17.0321 22.2442 16.6485 23.1145 16.6485 24.0281C16.6485 24.9417 17.0321 25.812 17.7052 26.4492C18.3773 27.0856 19.2834 27.4386 20.2227 27.4386C21.1621 27.4386 22.0682 27.0856 22.7403 26.4492C23.4134 25.812 23.797 24.9417 23.797 24.0281C23.797 23.1145 23.4134 22.2442 22.7403 21.6069C22.0682 20.9706 21.1621 20.6176 20.2227 20.6176ZM42.7672 20.6176C41.8278 20.6176 40.9218 20.9706 40.2496 21.6069C39.5766 22.2442 39.193 23.1145 39.193 24.0281C39.193 24.9417 39.5766 25.812 40.2496 26.4492C40.9218 27.0856 41.8278 27.4386 42.7672 27.4386C43.7066 27.4386 44.6126 27.0856 45.2848 26.4492C45.9579 25.812 46.3415 24.9417 46.3415 24.0281C46.3415 23.1145 45.9579 22.2442 45.2848 21.6069C44.6126 20.9706 43.7066 20.6176 42.7672 20.6176Z" fill="url(#paint0_linear_2_17)" stroke="url(#paint1_linear_2_17)"/>
<defs>
<linearGradient id="paint0_linear_2_17" x1="11" y1="43.1903" x2="67.7649" y2="12.2169" gradientUnits="userSpaceOnUse">
<stop stop-color="#662F88"/>
<stop offset="1" stop-color="#20BF55"/>
</linearGradient>
<linearGradient id="paint1_linear_2_17" x1="11" y1="43.1903" x2="67.7649" y2="12.2169" gradientUnits="userSpaceOnUse">
<stop stop-color="#662F88"/>
<stop offset="1" stop-color="#20BF55"/>
</linearGradient>
</defs>
</svg>
