<svg width="39" height="37" viewBox="0 0 39 37" fill="none" xmlns="http://www.w3.org/2000/svg">
<path d="M21.5028 0.0429688V3.72624C30.1235 4.72073 36.2307 12.0689 35.1703 20.1537C34.7368 23.4115 33.1574 26.4408 30.6821 28.7623C28.2067 31.0838 24.9766 32.5649 21.5028 32.9715V36.6547C32.3033 35.5497 40.06 26.4521 38.8817 16.3415C37.8606 7.75943 30.6537 0.963788 21.5028 0.0429688ZM17.5753 0.0429688C13.7264 0.374464 10.0935 1.79252 7.10868 4.09457L9.9168 6.9307C12.1162 5.27322 14.7672 4.20507 17.5753 3.83674V0.153467V0.0429688ZM4.33983 6.80178C1.87669 9.59177 0.364662 13.0117 0 16.6177H3.92745C4.30055 14.0026 5.40024 11.5164 7.14795 9.43532L4.33983 6.80178ZM0.0196372 20.301C0.412382 23.9106 1.92445 27.3176 4.35947 30.1169L7.14795 27.4834C5.41385 25.4016 4.30832 22.9209 3.94708 20.301H0.0196372ZM9.83825 30.1906L7.10868 32.7136C10.0833 35.0391 13.725 36.4872 17.5753 36.8757V33.1925C14.7817 32.8537 12.1366 31.8169 9.9168 30.1906H9.83825ZM12.8231 27.2992L14.6297 20.1352L8.73857 15.3838L16.4953 14.7024L19.5391 8.0541L22.5828 14.7761L30.3395 15.3838L24.4484 20.1352L26.255 27.2992L19.5391 23.5054L12.8231 27.2992Z" fill="url(#paint0_linear_3225_20081)"/>
<defs>
<linearGradient id="paint0_linear_3225_20081" x1="1.85117e-06" y1="26.3767" x2="56.3974" y2="-1.3939" gradientUnits="userSpaceOnUse">
<stop stop-color="#662F88"/>
<stop offset="1" stop-color="#20BF55"/>
</linearGradient>
</defs>
</svg>
