<svg width="65" height="65" viewBox="0 0 65 65" fill="none" xmlns="http://www.w3.org/2000/svg">
<circle cx="32.5" cy="32.5" r="32.5" fill="#16172D"/>
<path d="M34.5028 15.043V18.7262C43.1235 19.7207 49.2307 27.0689 48.1703 35.1537C47.7368 38.4115 46.1574 41.4408 43.6821 43.7623C41.2067 46.0838 37.9766 47.5649 34.5028 47.9715V51.6547C45.3033 50.5497 53.06 41.4521 51.8817 31.3415C50.8606 22.7594 43.6537 15.9638 34.5028 15.043ZM30.5753 15.043C26.7264 15.3745 23.0935 16.7925 20.1087 19.0946L22.9168 21.9307C25.1162 20.2732 27.7672 19.2051 30.5753 18.8367V15.1535V15.043ZM17.3398 21.8018C14.8767 24.5918 13.3647 28.0117 13 31.6177H16.9274C17.3006 29.0026 18.4002 26.5164 20.148 24.4353L17.3398 21.8018ZM13.0196 35.301C13.4124 38.9106 14.9244 42.3176 17.3595 45.1169L20.148 42.4834C18.4138 40.4016 17.3083 37.9209 16.9471 35.301H13.0196ZM22.8383 45.1906L20.1087 47.7136C23.0833 50.0391 26.725 51.4872 30.5753 51.8757V48.1925C27.7817 47.8537 25.1366 46.8169 22.9168 45.1906H22.8383ZM25.8231 42.2992L27.6297 35.1352L21.7386 30.3838L29.4953 29.7024L32.5391 23.0541L35.5828 29.7761L43.3395 30.3838L37.4484 35.1352L39.255 42.2992L32.5391 38.5054L25.8231 42.2992Z" fill="url(#paint0_linear_3_31)"/>
<defs>
<linearGradient id="paint0_linear_3_31" x1="13" y1="41.3767" x2="69.3974" y2="13.6061" gradientUnits="userSpaceOnUse">
<stop stop-color="#662F88"/>
<stop offset="1" stop-color="#20BF55"/>
</linearGradient>
</defs>
</svg>
