<svg width="41" height="36" viewBox="0 0 41 36" fill="none" xmlns="http://www.w3.org/2000/svg">
<path d="M29.2157 28.753L29.2157 28.7674L29.2165 28.7817C29.3274 30.7472 28.6221 32.1729 27.2255 33.1338C25.7932 34.1192 23.581 34.6509 20.6323 34.6509C17.6958 34.6509 15.4694 34.1279 13.9916 33.1503C12.5451 32.1934 11.7722 30.7737 11.7722 28.8273V26.8869C11.7722 25.3141 13.1291 23.9913 14.8589 23.9913H26.1311C27.8607 23.9913 29.2174 25.3138 29.2177 26.8864C29.2177 26.8864 29.2177 26.8864 29.2177 26.8864C29.2177 26.8866 29.2177 26.8867 29.2177 26.8869L29.2157 28.753ZM40.4879 19.0512L40.4879 19.0656L40.4887 19.0799C40.5996 21.0454 39.8943 22.4711 38.4977 23.432C37.0679 24.4158 34.8608 24.9473 31.9195 24.9491C31.6525 24.2291 31.242 23.5714 30.7164 23.0092C31.0919 23.0289 31.4877 23.0386 31.9045 23.0386C34.1436 23.0386 35.7923 22.7672 36.8763 22.1337C37.431 21.8096 37.8442 21.3869 38.1036 20.8592C38.3592 20.3393 38.4488 19.7515 38.4157 19.116V17.1851C38.4157 16.9148 38.302 16.6614 38.1094 16.479C37.9177 16.2976 37.6633 16.2 37.4033 16.2H29.1805C29.2177 15.5608 29.1775 14.9197 29.0608 14.2895H37.4033C39.1329 14.2895 40.4896 15.612 40.49 17.1846C40.49 17.1846 40.49 17.1846 40.49 17.1846C40.49 17.1848 40.49 17.185 40.49 17.1851L40.4879 19.0512ZM26.1311 25.9018H14.8589C14.5989 25.9018 14.3445 25.9993 14.1528 26.1808C13.9602 26.3632 13.8465 26.6165 13.8465 26.8869V28.8273C13.8465 29.4648 13.9739 30.0518 14.2646 30.5684C14.5562 31.0867 14.995 31.5035 15.5694 31.8256C16.6977 32.4583 18.3762 32.7403 20.6323 32.7403C22.8713 32.7403 24.5201 32.469 25.6041 31.8355C26.1587 31.5113 26.572 31.0887 26.8314 30.561C27.087 30.0411 27.1766 29.4532 27.1435 28.8178V26.8869C27.1435 26.6165 27.0298 26.3632 26.8372 26.1808C26.6455 25.9993 26.391 25.9018 26.1311 25.9018ZM3.58662 14.2895H11.9285C11.8115 14.9197 11.7717 15.5608 11.8102 16.2H3.58662C3.32668 16.2 3.07226 16.2976 2.88056 16.479C2.68794 16.6614 2.57425 16.9148 2.57425 17.1851V19.1255C2.57425 19.763 2.70163 20.35 2.99235 20.8666C3.284 21.3849 3.72281 21.8018 4.29713 22.1238C5.42544 22.7566 7.10391 23.0386 9.36005 23.0386C9.67298 23.0386 9.97349 23.0332 10.2618 23.0223C9.74103 23.5809 9.33437 24.2335 9.06957 24.9474C6.27641 24.9138 4.14801 24.3936 2.71938 23.4485C1.27291 22.4916 0.5 21.0719 0.5 19.1255V17.1851C0.5 15.6123 1.85681 14.2895 3.58662 14.2895ZM20.495 10.4088C21.2404 10.4088 21.978 10.5478 22.6654 10.8174C23.3527 11.0869 23.9755 11.4813 24.4989 11.9768C25.0222 12.4723 25.4358 13.059 25.7174 13.7027C25.9989 14.3463 26.1435 15.035 26.1435 15.7299C26.1435 16.4247 25.9989 17.1135 25.7174 17.7571C25.4358 18.4008 25.0222 18.9874 24.4989 19.4829C23.9755 19.9784 23.3527 20.3728 22.6654 20.6423C21.978 20.9119 21.2404 21.0509 20.495 21.0509C18.9883 21.0509 17.5485 20.484 16.4911 19.4829C15.4346 18.4826 14.8465 17.132 14.8465 15.7299C14.8465 14.3277 15.4346 12.9771 16.4911 11.9768C17.5485 10.9757 18.9883 10.4088 20.495 10.4088ZM20.495 12.3193C20.0293 12.3193 19.5676 12.4061 19.136 12.5754C18.7043 12.7447 18.3104 12.9934 17.9774 13.3087C17.6443 13.6241 17.3785 13.9999 17.1967 14.4156C17.0148 14.8314 16.9207 15.2781 16.9207 15.7299C16.9207 16.1817 17.0148 16.6283 17.1967 17.0441C17.3785 17.4598 17.6443 17.8357 17.9774 18.151C18.3104 18.4663 18.7043 18.7151 19.136 18.8843C19.5676 19.0536 20.0293 19.1404 20.495 19.1404C21.4344 19.1404 22.3404 18.7874 23.0126 18.151C23.6856 17.5138 24.0692 16.6435 24.0692 15.7299C24.0692 14.8162 23.6856 13.9459 23.0125 13.3087C22.3404 12.6724 21.4344 12.3193 20.495 12.3193ZM9.22274 0.707031C10.7294 0.707031 12.1692 1.27392 13.2266 2.27507C14.2832 3.27534 14.8712 4.62596 14.8712 6.0281C14.8712 7.43023 14.2832 8.78085 13.2266 9.78112C12.1692 10.7823 10.7294 11.3492 9.22274 11.3492C7.71611 11.3492 6.27631 10.7823 5.21885 9.78112C4.16232 8.78085 3.57425 7.43023 3.57425 6.0281C3.57425 4.62596 4.16232 3.27534 5.21885 2.27507C6.27631 1.27392 7.71611 0.707031 9.22274 0.707031ZM31.7672 0.707031C33.2738 0.707031 34.7136 1.27392 35.7711 2.27507C36.8276 3.27534 37.4157 4.62596 37.4157 6.0281C37.4157 7.43023 36.8276 8.78085 35.7711 9.78112C34.7136 10.7823 33.2738 11.3492 31.7672 11.3492C30.2606 11.3492 28.8208 10.7823 27.7633 9.78112C26.7068 8.78085 26.1187 7.43023 26.1187 6.0281C26.1187 4.62596 26.7068 3.27534 27.7633 2.27507C28.8208 1.27392 30.2606 0.707031 31.7672 0.707031ZM9.22274 2.61756C8.28335 2.61756 7.3773 2.97061 6.70516 3.60695C6.0321 4.24417 5.64849 5.11446 5.64849 6.0281C5.64849 6.94173 6.0321 7.81202 6.70516 8.44924C7.3773 9.08558 8.28335 9.43863 9.22274 9.43863C10.1621 9.43863 11.0682 9.08558 11.7403 8.44924C12.4134 7.81202 12.797 6.94173 12.797 6.0281C12.797 5.11446 12.4134 4.24417 11.7403 3.60695C11.0682 2.97061 10.1621 2.61756 9.22274 2.61756ZM31.7672 2.61756C30.8278 2.61756 29.9218 2.97061 29.2496 3.60695C28.5766 4.24417 28.193 5.11446 28.193 6.0281C28.193 6.94173 28.5766 7.81202 29.2496 8.44924C29.9218 9.08558 30.8278 9.43863 31.7672 9.43863C32.7066 9.43863 33.6126 9.08558 34.2848 8.44924C34.9579 7.81202 35.3415 6.94173 35.3415 6.0281C35.3415 5.11446 34.9579 4.24417 34.2848 3.60695C33.6126 2.97061 32.7066 2.61756 31.7672 2.61756Z" fill="url(#paint0_linear_3225_20082)" stroke="url(#paint1_linear_3225_20082)"/>
<defs>
<linearGradient id="paint0_linear_3225_20082" x1="1.94611e-06" y1="25.1903" x2="56.7649" y2="-5.78312" gradientUnits="userSpaceOnUse">
<stop stop-color="#662F88"/>
<stop offset="1" stop-color="#20BF55"/>
</linearGradient>
<linearGradient id="paint1_linear_3225_20082" x1="1.94611e-06" y1="25.1903" x2="56.7649" y2="-5.78312" gradientUnits="userSpaceOnUse">
<stop stop-color="#662F88"/>
<stop offset="1" stop-color="#20BF55"/>
</linearGradient>
</defs>
</svg>
