<svg width="16" height="13" viewBox="0 0 16 13" fill="none" xmlns="http://www.w3.org/2000/svg">
<path d="M15.6092 1.49715C15.0344 1.75106 14.4219 1.91935 13.7834 2.00107C14.4403 1.60611 14.9417 0.985456 15.1774 0.237365C14.5649 0.605087 13.8887 0.864827 13.168 1.00978C12.5864 0.386205 11.7575 0 10.8533 0C9.09897 0 7.6866 1.43392 7.6866 3.19179C7.6866 3.44472 7.70785 3.68792 7.76002 3.91945C5.12559 3.79006 2.7945 2.5186 1.22853 0.58174C0.955134 1.05939 0.79477 1.60611 0.79477 2.19466C0.79477 3.29977 1.35991 4.27939 2.20231 4.84654C1.6932 4.83681 1.19375 4.68797 0.770618 4.45352C0.770618 4.46325 0.770618 4.47589 0.770618 4.48854C0.770618 6.0392 1.86902 7.3272 3.30941 7.62391C3.05147 7.69492 2.77035 7.72897 2.4786 7.72897C2.27573 7.72897 2.07093 7.71729 1.87868 7.67449C2.28925 8.93817 3.45432 9.8672 4.83964 9.89736C3.76152 10.7466 2.39262 11.2583 0.910696 11.2583C0.650827 11.2583 0.401586 11.2466 0.152344 11.2145C1.55602 12.1261 3.21956 12.6465 5.01353 12.6465C10.8446 12.6465 14.0326 7.78247 14.0326 3.56632C14.0326 3.42526 14.0278 3.28907 14.021 3.15385C14.6499 2.70441 15.1783 2.1431 15.6092 1.49715Z" fill="white"/>
</svg>
