<svg width="106" height="87" viewBox="0 0 106 87" fill="none" xmlns="http://www.w3.org/2000/svg">
<path d="M105.455 42.5387C105.455 36.192 100.217 31.0329 93.7799 31.0329C90.6382 31.0329 87.7909 32.277 85.695 34.278C77.742 29.0971 66.9812 25.7998 55.0648 25.3779L61.5811 5.06775L79.2271 9.1611L79.2008 9.4134C79.2008 14.6029 83.4848 18.8225 88.7532 18.8225C94.0171 18.8225 98.2968 14.6029 98.2968 9.4134C98.2968 4.22385 94.0127 0 88.7532 0C84.7108 0 81.2659 2.4969 79.873 5.99865L60.8517 1.5834C60.0212 1.3833 59.1776 1.85745 58.9183 2.66655L51.6508 25.317C39.1808 25.4649 27.8839 28.7883 19.575 34.1258C17.4923 32.2205 14.7285 31.0286 11.6703 31.0286C5.23318 31.0286 0 36.192 0 42.5387C0 46.7582 2.34197 50.4165 5.78682 52.4175C5.55833 53.6442 5.40894 54.8839 5.40894 56.1454C5.40894 73.1583 26.535 87 52.5076 87C78.4801 87 99.6106 73.1583 99.6106 56.1454C99.6106 54.9535 99.4832 53.779 99.2811 52.6219C102.937 50.6775 105.455 46.9147 105.455 42.5387ZM29.7733 50.4383C29.7733 46.6625 32.893 43.587 36.7245 43.587C40.5561 43.587 43.6714 46.6625 43.6714 50.4383C43.6714 54.2141 40.5561 57.2851 36.7245 57.2851C32.893 57.2851 29.7733 54.2141 29.7733 50.4383ZM69.5868 70.7484C66.0849 74.1979 60.588 75.8771 52.7844 75.8771L52.7273 75.864L52.6702 75.8771C44.8621 75.8771 39.3653 74.1979 35.8677 70.7484C35.2306 70.122 35.2306 69.0997 35.8677 68.4733C36.5049 67.8426 37.5418 67.8426 38.1789 68.4733C41.035 71.2878 45.7761 72.6537 52.6702 72.6537L52.7273 72.6667L52.7844 72.6537C59.6785 72.6537 64.4195 71.2834 67.2756 68.469C67.9127 67.8382 68.9497 67.8426 69.5868 68.469C70.2239 69.0997 70.2239 70.1176 69.5868 70.7484ZM68.7564 57.2851C64.9249 57.2851 61.8095 54.2141 61.8095 50.4383C61.8095 46.6625 64.9249 43.587 68.7564 43.587C72.5879 43.587 75.7032 46.6625 75.7032 50.4383C75.7032 54.2141 72.5879 57.2851 68.7564 57.2851Z" fill="url(#paint0_linear_6242_47755)"/>
<defs>
<linearGradient id="paint0_linear_6242_47755" x1="5.00551e-06" y1="62.2009" x2="143.784" y2="-18.8492" gradientUnits="userSpaceOnUse">
<stop stop-color="#662F88"/>
<stop offset="1" stop-color="#20BF55"/>
</linearGradient>
</defs>
</svg>
