<svg width="23" height="25" viewBox="0 0 23 25" fill="none" xmlns="http://www.w3.org/2000/svg">
<path fill-rule="evenodd" clip-rule="evenodd" d="M22.5577 20.7891H0.442308C0.19825 20.7891 0 20.9873 0 21.2314V23.8852C0 24.1293 0.19825 24.3275 0.442308 24.3275H22.5577C22.8018 24.3275 23 24.1293 23 23.8852V21.2314C23 20.9873 22.8018 20.7891 22.5577 20.7891Z" fill="url(#paint0_linear_5830_45717)"/>
<path fill-rule="evenodd" clip-rule="evenodd" d="M22.5577 20.7891H0.442308C0.19825 20.7891 0 20.9873 0 21.2314V23.8852C0 24.1293 0.19825 24.3275 0.442308 24.3275H22.5577C22.8018 24.3275 23 24.1293 23 23.8852V21.2314C23 20.9873 22.8018 20.7891 22.5577 20.7891Z" fill="black" fill-opacity="0.2"/>
<path fill-rule="evenodd" clip-rule="evenodd" d="M15.4844 13.7119V19.9042H21.6767V14.1542C21.6767 13.9102 21.4784 13.7119 21.2344 13.7119H15.4844Z" fill="url(#paint1_linear_5830_45717)"/>
<path fill-rule="evenodd" clip-rule="evenodd" d="M15.4844 13.7119V19.9042H21.6767V14.1542C21.6767 13.9102 21.4784 13.7119 21.2344 13.7119H15.4844Z" fill="black" fill-opacity="0.2"/>
<path fill-rule="evenodd" clip-rule="evenodd" d="M7.52043 11.0586H1.77043C1.65314 11.0586 1.54039 11.105 1.45766 11.1881C1.37453 11.2709 1.32812 11.3836 1.32812 11.5009V19.9047H7.52043V11.0586Z" fill="url(#paint2_linear_5830_45717)"/>
<path fill-rule="evenodd" clip-rule="evenodd" d="M7.52043 11.0586H1.77043C1.65314 11.0586 1.54039 11.105 1.45766 11.1881C1.37453 11.2709 1.32812 11.3836 1.32812 11.5009V19.9047H7.52043V11.0586Z" fill="black" fill-opacity="0.2"/>
<path fill-rule="evenodd" clip-rule="evenodd" d="M14.5947 19.9033V8.84563C14.5947 8.60157 14.3964 8.40332 14.1523 8.40332H8.84465C8.60059 8.40332 8.40234 8.60157 8.40234 8.84563V19.9033H14.5947Z" fill="url(#paint3_linear_5830_45717)"/>
<path fill-rule="evenodd" clip-rule="evenodd" d="M14.5947 19.9033V8.84563C14.5947 8.60157 14.3964 8.40332 14.1523 8.40332H8.84465C8.60059 8.40332 8.40234 8.60157 8.40234 8.84563V19.9033H14.5947Z" fill="black" fill-opacity="0.2"/>
<path fill-rule="evenodd" clip-rule="evenodd" d="M10.2885 2.59795L11.0793 0.298555C11.1409 0.119853 11.3092 0 11.4977 0C11.6863 0 11.8545 0.119858 11.9161 0.298555L12.707 2.59795H15.2834C15.4775 2.59795 15.6488 2.72393 15.706 2.90914C15.7637 3.09416 15.694 3.29537 15.5338 3.40476L13.4718 4.81995L14.2559 7.09963C14.3181 7.2801 14.2575 7.47973 14.1052 7.59545C13.9534 7.71096 13.7449 7.71629 13.5871 7.60808L11.4978 6.17435L9.40848 7.60808C9.25071 7.71629 9.04219 7.71096 8.89035 7.59545C8.73811 7.47973 8.67749 7.2801 8.73968 7.09963L9.52381 4.81995L7.46174 3.40476C7.3016 3.29537 7.2319 3.09416 7.28956 2.90914C7.34682 2.72392 7.51802 2.59795 7.71212 2.59795H10.2885Z" fill="url(#paint4_linear_5830_45717)"/>
<path fill-rule="evenodd" clip-rule="evenodd" d="M10.2885 2.59795L11.0793 0.298555C11.1409 0.119853 11.3092 0 11.4977 0C11.6863 0 11.8545 0.119858 11.9161 0.298555L12.707 2.59795H15.2834C15.4775 2.59795 15.6488 2.72393 15.706 2.90914C15.7637 3.09416 15.694 3.29537 15.5338 3.40476L13.4718 4.81995L14.2559 7.09963C14.3181 7.2801 14.2575 7.47973 14.1052 7.59545C13.9534 7.71096 13.7449 7.71629 13.5871 7.60808L11.4978 6.17435L9.40848 7.60808C9.25071 7.71629 9.04219 7.71096 8.89035 7.59545C8.73811 7.47973 8.67749 7.2801 8.73968 7.09963L9.52381 4.81995L7.46174 3.40476C7.3016 3.29537 7.2319 3.09416 7.28956 2.90914C7.34682 2.72392 7.51802 2.59795 7.71212 2.59795H10.2885Z" fill="black" fill-opacity="0.2"/>
<defs>
<linearGradient id="paint0_linear_5830_45717" x1="1.09172e-06" y1="23.3189" x2="4.07648" y2="10.9965" gradientUnits="userSpaceOnUse">
<stop stop-color="#662F88"/>
<stop offset="1" stop-color="#20BF55"/>
</linearGradient>
<linearGradient id="paint1_linear_5830_45717" x1="15.4844" y1="18.1391" x2="24.6319" y2="13.8851" gradientUnits="userSpaceOnUse">
<stop stop-color="#662F88"/>
<stop offset="1" stop-color="#20BF55"/>
</linearGradient>
<linearGradient id="paint2_linear_5830_45717" x1="1.32813" y1="17.3832" x2="11.3879" y2="14.1084" gradientUnits="userSpaceOnUse">
<stop stop-color="#662F88"/>
<stop offset="1" stop-color="#20BF55"/>
</linearGradient>
<linearGradient id="paint3_linear_5830_45717" x1="8.40234" y1="16.6253" x2="18.8717" y2="14.0037" gradientUnits="userSpaceOnUse">
<stop stop-color="#662F88"/>
<stop offset="1" stop-color="#20BF55"/>
</linearGradient>
<linearGradient id="paint4_linear_5830_45717" x1="7.26953" y1="5.49498" x2="19.3109" y2="-0.666312" gradientUnits="userSpaceOnUse">
<stop stop-color="#662F88"/>
<stop offset="1" stop-color="#20BF55"/>
</linearGradient>
</defs>
</svg>
