<svg width="25" height="24" viewBox="0 0 25 24" fill="none" xmlns="http://www.w3.org/2000/svg">
<path d="M23.6362 3.19323L21.8472 1.40524C21.151 0.708019 20.019 0.708019 19.3228 1.40524L17.6133 3.11391L21.9267 7.42735L23.6362 5.71787C24.3326 5.02147 24.3326 3.89045 23.6362 3.19323H23.6362Z" fill="white"/>
<path d="M18.8724 21.9676C18.8724 22.0389 18.8152 22.0971 18.7439 22.0971H2.00866C1.93732 22.0971 1.87913 22.0399 1.87913 21.9676V7.36313C1.87913 7.29259 1.93632 7.23461 2.00866 7.23461H12.2935L14.0789 5.44922H2.00866C0.951757 5.44922 0.09375 6.30702 0.09375 7.36315V21.9676C0.09375 23.0237 0.951553 23.8825 2.00866 23.8825H18.7439C19.7999 23.8825 20.6578 23.0237 20.6578 21.9676L20.6576 9.89585L18.8722 11.6812L18.8724 21.9676Z" fill="white"/>
<path d="M7.89183 12.8309L7.08203 17.9539L12.2051 17.1443L21.081 8.26941L16.7674 3.95581L7.89183 12.8309Z" fill="white"/>
</svg>
