<svg width="15" height="14" viewBox="0 0 15 14" fill="none" xmlns="http://www.w3.org/2000/svg">
<path d="M7.78491 0.5C6.83037 0.5 6.08463 0.841766 5.5477 1.5253C5.01076 2.20883 4.7423 3.08259 4.7423 4.14658C4.73567 5.4685 5.17317 6.51637 6.0548 7.29018C6.16749 7.39335 6.20726 7.52555 6.17412 7.68676L5.94542 8.15104C5.87251 8.3058 5.76479 8.42671 5.62227 8.51377C5.47975 8.60082 5.1798 8.72495 4.72241 8.88616C4.70253 8.89261 4.28325 9.0248 3.4646 9.28274C2.64594 9.54068 2.2101 9.68254 2.15707 9.70833C1.60025 9.93403 1.23567 10.1694 1.06332 10.4144C0.877715 10.8207 0.784912 11.8492 0.784912 13.5H14.7849C14.7849 11.8492 14.6921 10.8207 14.5065 10.4144C14.3342 10.1694 13.9696 9.93403 13.4128 9.70833C13.3597 9.68254 12.9239 9.54068 12.1052 9.28274C11.2866 9.0248 10.8673 8.89261 10.8474 8.88616C10.39 8.72495 10.0901 8.60082 9.94755 8.51377C9.80503 8.42671 9.69732 8.3058 9.6244 8.15104L9.39571 7.68676C9.36256 7.52555 9.40234 7.39335 9.51503 7.29018C10.3967 6.51637 10.8342 5.4685 10.8275 4.14658C10.8275 3.08259 10.5591 2.20883 10.0221 1.5253C9.4852 0.841766 8.73946 0.5 7.78491 0.5Z" fill="white"/>
</svg>
